<svg width="21" height="21" viewBox="0 0 21 21" fill="none" xmlns="http://www.w3.org/2000/svg">
<path d="M11.8689 5.1167H9.86885V9.1167H5.86885V11.1167H9.86885V15.1167H11.8689V11.1167H15.8689V9.1167H11.8689V5.1167ZM10.8689 0.116699C5.34885 0.116699 0.868851 4.5967 0.868851 10.1167C0.868851 15.6367 5.34885 20.1167 10.8689 20.1167C16.3889 20.1167 20.8689 15.6367 20.8689 10.1167C20.8689 4.5967 16.3889 0.116699 10.8689 0.116699ZM10.8689 18.1167C6.45885 18.1167 2.86885 14.5267 2.86885 10.1167C2.86885 5.7067 6.45885 2.1167 10.8689 2.1167C15.2789 2.1167 18.8689 5.7067 18.8689 10.1167C18.8689 14.5267 15.2789 18.1167 10.8689 18.1167Z" fill="#E8EAED"/>
</svg>