<svg width="20" height="20" viewBox="0 0 20 20" fill="none" xmlns="http://www.w3.org/2000/svg">
<path d="M19.1656 9.16079L10.1604 0.532447C10.0472 0.423817 9.8964 0.363159 9.73952 0.363159C9.58264 0.363159 9.43183 0.423817 9.31865 0.532447L0.304424 9.17378C0.113294 9.36549 0.00552173 9.62486 0.0045166 9.89556C0.00504499 10.1642 0.112014 10.4218 0.302003 10.6118C0.491991 10.8018 0.74952 10.9087 1.0182 10.9092H2.43777V18.6159C2.43803 18.9385 2.5663 19.2478 2.7944 19.4759C3.0225 19.704 3.3318 19.8322 3.65439 19.8325H7.10233C7.2638 19.8325 7.41865 19.7684 7.53283 19.6542C7.647 19.54 7.71114 19.3852 7.71114 19.2237V13.9523C7.71114 13.8993 7.73221 13.8484 7.7697 13.8109C7.8072 13.7734 7.85805 13.7524 7.91108 13.7524H11.562C11.615 13.7524 11.6658 13.7734 11.7033 13.8109C11.7408 13.8484 11.7619 13.8993 11.7619 13.9523V19.2257C11.7619 19.3872 11.826 19.542 11.9402 19.6562C12.0544 19.7704 12.2092 19.8345 12.3707 19.8345H15.8186C16.1412 19.8342 16.4505 19.706 16.6786 19.4779C16.9067 19.2498 17.035 18.9405 17.0353 18.6179V10.9092H18.4548C18.7235 10.9087 18.981 10.8018 19.171 10.6118C19.361 10.4218 19.468 10.1642 19.4685 9.89556C19.4676 9.75943 19.4398 9.62481 19.3868 9.49942C19.3338 9.37403 19.2566 9.26031 19.1596 9.16479L19.1656 9.16079Z" fill="#D9293A"/>
</svg>
