<svg width="20" height="20" viewBox="0 0 20 20" fill="none" xmlns="http://www.w3.org/2000/svg">
<path d="M12.59 5.99988L10 8.58988L7.41 5.99988L6 7.40988L8.59 9.99988L6 12.5899L7.41 13.9999L10 11.4099L12.59 13.9999L14 12.5899L11.41 9.99988L14 7.40988L12.59 5.99988ZM10 -0.00012207C4.47 -0.00012207 0 4.46988 0 9.99988C0 15.5299 4.47 19.9999 10 19.9999C15.53 19.9999 20 15.5299 20 9.99988C20 4.46988 15.53 -0.00012207 10 -0.00012207ZM10 17.9999C5.59 17.9999 2 14.4099 2 9.99988C2 5.58988 5.59 1.99988 10 1.99988C14.41 1.99988 18 5.58988 18 9.99988C18 14.4099 14.41 17.9999 10 17.9999Z" fill="#D9293A"/>
</svg>
