<svg width="17" height="18" viewBox="0 0 17 18" fill="none" xmlns="http://www.w3.org/2000/svg">
<path d="M5.93855 0.923523H1.48464C1.09097 0.923788 0.713498 1.08029 0.435132 1.35866C0.156766 1.63702 0.000264829 2.01449 0 2.40816L0 6.86207C0.000264829 7.25574 0.156766 7.63321 0.435132 7.91157C0.713498 8.18994 1.09097 8.34644 1.48464 8.3467H5.93855C6.33221 8.34644 6.70968 8.18994 6.98805 7.91157C7.26642 7.63321 7.42292 7.25574 7.42318 6.86207V2.40816C7.42292 2.01449 7.26642 1.63702 6.98805 1.35866C6.70968 1.08029 6.33221 0.923788 5.93855 0.923523Z" fill="#D9293A"/>
<path d="M14.8454 0.923523H10.3915C9.99781 0.923788 9.62036 1.08029 9.342 1.35866C9.06363 1.63702 8.90713 2.01449 8.90686 2.40816V6.86207C8.90713 7.25574 9.06363 7.63321 9.342 7.91157C9.62036 8.18994 9.99781 8.34644 10.3915 8.3467H14.8454C15.2391 8.34644 15.6165 8.18994 15.8949 7.91157C16.1733 7.63321 16.3298 7.25574 16.33 6.86207V2.40816C16.3298 2.01449 16.1733 1.63702 15.8949 1.35866C15.6165 1.08029 15.2391 0.923788 14.8454 0.923523Z" fill="#D9293A"/>
<path d="M5.93855 9.83032H1.48464C1.09097 9.83059 0.713498 9.98709 0.435132 10.2655C0.156766 10.5438 0.000264829 10.9213 0 11.3149L0 15.7689C0.000264829 16.1625 0.156766 16.54 0.435132 16.8184C0.713498 17.0967 1.09097 17.2532 1.48464 17.2535H5.93855C6.33221 17.2532 6.70968 17.0967 6.98805 16.8184C7.26642 16.54 7.42292 16.1625 7.42318 15.7689V11.3149C7.42292 10.9213 7.26642 10.5438 6.98805 10.2655C6.70968 9.98709 6.33221 9.83059 5.93855 9.83032Z" fill="#D9293A"/>
<path d="M14.4745 12.7996H13.3607V11.6859C13.3607 11.5875 13.3217 11.4931 13.2521 11.4236C13.1825 11.354 13.0882 11.3149 12.9898 11.3149H12.248C12.1496 11.3149 12.0553 11.354 11.9857 11.4236C11.9162 11.4931 11.8771 11.5875 11.8771 11.6859V12.7996H10.7634C10.665 12.7996 10.5707 12.8387 10.5011 12.9082C10.4315 12.9778 10.3925 13.0721 10.3925 13.1705V13.9123C10.3925 14.0107 10.4315 14.105 10.5011 14.1746C10.5707 14.2442 10.665 14.2832 10.7634 14.2832H11.8771V15.3969C11.8771 15.4953 11.9162 15.5897 11.9857 15.6592C12.0553 15.7288 12.1496 15.7679 12.248 15.7679H12.9898C13.0882 15.7679 13.1825 15.7288 13.2521 15.6592C13.3217 15.5897 13.3607 15.4953 13.3607 15.3969V14.2832H14.4745C14.5728 14.2832 14.6672 14.2442 14.7367 14.1746C14.8063 14.105 14.8454 14.0107 14.8454 13.9123V13.1705C14.8454 13.0721 14.8063 12.9778 14.7367 12.9082C14.6672 12.8387 14.5728 12.7996 14.4745 12.7996Z" fill="#D9293A"/>
</svg>
