<svg width="19" height="19" viewBox="0 0 19 19" fill="none" xmlns="http://www.w3.org/2000/svg">
<path d="M18.088 18.1235C17.8998 18.1297 17.7167 18.061 17.579 17.9325C17.4413 17.804 17.3602 17.6261 17.3534 17.4379C17.331 16.7623 17.0418 16.1231 16.5492 15.6603C16.0565 15.1975 15.4006 14.9486 14.7249 14.9683H14.0993C13.4236 14.9486 12.7677 15.1975 12.2751 15.6603C11.7824 16.1231 11.4932 16.7623 11.4708 17.4379C11.4589 17.6247 11.3762 17.8 11.2397 17.9281C11.1031 18.0562 10.9229 18.1275 10.7357 18.1275C10.5485 18.1275 10.3683 18.0562 10.2318 17.9281C10.0952 17.8 10.0126 17.6247 10.0006 17.4379C10.0372 16.386 10.4888 15.3914 11.2567 14.6717C12.0246 13.9519 13.0463 13.5655 14.0983 13.5971H14.7209C15.773 13.5655 16.7947 13.9519 17.5626 14.6717C18.3305 15.3914 18.7821 16.386 18.8186 17.4379C18.8118 17.6254 18.7313 17.8027 18.5944 17.9311C18.4576 18.0595 18.2756 18.1286 18.088 18.1235ZM17.4974 9.65233C17.4679 8.85222 17.1228 8.09633 16.5375 7.54999C15.9522 7.00366 15.1744 6.71134 14.3741 6.73699C13.5739 6.71134 12.7961 7.00366 12.2108 7.54999C11.6255 8.09633 11.2804 8.85222 11.2509 9.65233C11.2804 10.4524 11.6255 11.2083 12.2108 11.7547C12.7961 12.301 13.5739 12.5933 14.3741 12.5677C15.1744 12.5933 15.9522 12.301 16.5375 11.7547C17.1228 11.2083 17.4679 10.4524 17.4974 9.65233ZM16.0272 9.65233C15.9964 10.0698 15.8088 10.4602 15.5021 10.7451C15.1954 11.03 14.7923 11.1883 14.3736 11.1883C13.955 11.1883 13.5519 11.03 13.2452 10.7451C12.9385 10.4602 12.7509 10.0698 12.7201 9.65233C12.7509 9.23485 12.9385 8.84447 13.2452 8.55956C13.5519 8.27466 13.955 8.11631 14.3736 8.11631C14.7923 8.11631 15.1954 8.27466 15.5021 8.55956C15.8088 8.84447 15.9964 9.23485 16.0272 9.65233ZM8.53147 17.4379C8.52417 17.2511 8.44366 17.0746 8.30732 16.9467C8.17098 16.8188 7.98978 16.7497 7.80288 16.7543H4.41681C3.66369 16.7786 2.9316 16.5036 2.38074 15.9894C1.82988 15.4753 1.50511 14.7639 1.47749 14.0108V4.67816C1.50537 3.92533 1.83025 3.21417 2.38108 2.70024C2.93191 2.1863 3.66385 1.91143 4.41681 1.93572H11.181C11.9338 1.91169 12.6654 2.18669 13.216 2.7006C13.7667 3.2145 14.0914 3.9255 14.1193 4.67816C14.1312 4.865 14.2139 5.04029 14.3504 5.16838C14.4869 5.29648 14.6671 5.36777 14.8544 5.36777C15.0416 5.36777 15.2218 5.29648 15.3583 5.16838C15.4949 5.04029 15.5775 4.865 15.5894 4.67816C15.5478 3.54869 15.0604 2.4817 14.2341 1.7106C13.4077 0.939498 12.3096 0.52706 11.18 0.563505H4.41681C3.28716 0.52706 2.18905 0.939498 1.36269 1.7106C0.536343 2.4817 0.0490182 3.54869 0.00732422 4.67816L0.00732422 14.0078C0.0487604 15.1375 0.535972 16.2047 1.36235 16.9761C2.18873 17.7474 3.28699 18.1599 4.41681 18.1235H7.80288C7.99045 18.1284 8.17235 18.0589 8.30898 17.9304C8.44562 17.8018 8.52594 17.6244 8.53247 17.4369L8.53147 17.4379ZM9.74578 8.34907C9.74294 8.25543 9.72164 8.16328 9.6831 8.0779C9.64456 7.99251 9.58954 7.91558 9.5212 7.85151C9.45286 7.78744 9.37254 7.73749 9.28485 7.70454C9.19715 7.67158 9.10382 7.65626 9.0102 7.65946H5.04146C4.94754 7.65325 4.85335 7.66639 4.76472 7.69806C4.67608 7.72972 4.5949 7.77925 4.52618 7.84357C4.45747 7.90789 4.40269 7.98563 4.36524 8.07198C4.32779 8.15833 4.30847 8.25145 4.30847 8.34557C4.30847 8.43969 4.32779 8.53281 4.36524 8.61916C4.40269 8.70551 4.45747 8.78325 4.52618 8.84757C4.5949 8.91189 4.67608 8.96142 4.76472 8.99309C4.85335 9.02476 4.94754 9.03789 5.04146 9.03168H9.0102C9.19812 9.03817 9.38097 8.97002 9.5188 8.84211C9.65663 8.71421 9.73823 8.53695 9.74578 8.34907ZM11.2159 5.70857C11.2092 5.52034 11.128 5.34247 10.9903 5.21396C10.8526 5.08544 10.6696 5.01676 10.4814 5.02296H5.04146C4.94754 5.01675 4.85335 5.02989 4.76472 5.06156C4.67608 5.09323 4.5949 5.14275 4.52618 5.20707C4.45747 5.27139 4.40269 5.34913 4.36524 5.43548C4.32779 5.52183 4.30847 5.61495 4.30847 5.70907C4.30847 5.80319 4.32779 5.89631 4.36524 5.98266C4.40269 6.06901 4.45747 6.14675 4.52618 6.21107C4.5949 6.27539 4.67608 6.32492 4.76472 6.35659C4.85335 6.38826 4.94754 6.4014 5.04146 6.39518H10.4804C10.5738 6.39839 10.667 6.38314 10.7546 6.35031C10.8421 6.31747 10.9224 6.26771 10.9907 6.20385C11.059 6.13999 11.114 6.06328 11.1527 5.97813C11.1914 5.89298 11.2128 5.80204 11.2159 5.70857ZM9.74578 13.5961C9.739 13.4079 9.65788 13.23 9.52018 13.1015C9.38248 12.9729 9.19945 12.9043 9.0112 12.9105H5.04146C4.94754 12.9043 4.85335 12.9174 4.76472 12.9491C4.67608 12.9807 4.5949 13.0303 4.52618 13.0946C4.45747 13.1589 4.40269 13.2366 4.36524 13.323C4.32779 13.4093 4.30847 13.5025 4.30847 13.5966C4.30847 13.6907 4.32779 13.7838 4.36524 13.8702C4.40269 13.9565 4.45747 14.0343 4.52618 14.0986C4.5949 14.1629 4.67608 14.2124 4.76472 14.2441C4.85335 14.2758 4.94754 14.2889 5.04146 14.2827H9.0102C9.19879 14.2892 9.38222 14.2205 9.52017 14.0917C9.65811 13.9629 9.73926 13.7847 9.74578 13.5961ZM9.74578 10.9556C9.739 10.7674 9.65788 10.5895 9.52018 10.461C9.38248 10.3325 9.19945 10.2638 9.0112 10.27H5.04146C4.94754 10.2638 4.85335 10.2769 4.76472 10.3086C4.67608 10.3402 4.5949 10.3898 4.52618 10.4541C4.45747 10.5184 4.40269 10.5961 4.36524 10.6825C4.32779 10.7688 4.30847 10.862 4.30847 10.9561C4.30847 11.0502 4.32779 11.1433 4.36524 11.2297C4.40269 11.316 4.45747 11.3938 4.52618 11.4581C4.5949 11.5224 4.67608 11.5719 4.76472 11.6036C4.85335 11.6353 4.94754 11.6484 5.04146 11.6422H9.0102C9.19845 11.6487 9.38159 11.5803 9.51948 11.4519C9.65737 11.3236 9.73875 11.1458 9.74578 10.9576V10.9556Z" fill="#D9293A"/>
</svg>
