<svg width="695" height="276" viewBox="0 0 695 276" fill="none" xmlns="http://www.w3.org/2000/svg">
<rect x="0.200012" width="693.9" height="276" rx="7.09074" fill="#F7FAFF" fill-opacity="0.7"/>
<path d="M70.6229 5.79838H67.5949C67.5396 5.40663 67.4267 5.05866 67.2562 4.75447C67.0856 4.44568 66.8667 4.18297 66.5994 3.96636C66.3321 3.74974 66.0233 3.58382 65.673 3.4686C65.3273 3.35338 64.9517 3.29577 64.5461 3.29577C63.8133 3.29577 63.175 3.47782 62.6312 3.84192C62.0873 4.20141 61.6656 4.72682 61.366 5.41815C61.0664 6.10487 60.9167 6.93908 60.9167 7.92077C60.9167 8.93011 61.0664 9.77815 61.366 10.4649C61.6702 11.1516 62.0942 11.6701 62.6381 12.0204C63.1819 12.3706 63.811 12.5458 64.5254 12.5458C64.9264 12.5458 65.2974 12.4928 65.6384 12.3868C65.9841 12.2808 66.2906 12.1264 66.5579 11.9236C66.8252 11.7162 67.0465 11.465 67.2216 11.17C67.4013 10.8751 67.5258 10.5386 67.5949 10.1607L70.6229 10.1745C70.5446 10.8244 70.3487 11.4512 70.0353 12.0549C69.7265 12.6541 69.3094 13.191 68.784 13.6657C68.2632 14.1358 67.641 14.5092 66.9174 14.7857C66.1984 15.0576 65.385 15.1936 64.477 15.1936C63.2142 15.1936 62.085 14.9078 61.0895 14.3363C60.0986 13.7648 59.3151 12.9375 58.739 11.8544C58.1675 10.7714 57.8817 9.46013 57.8817 7.92077C57.8817 6.3768 58.1721 5.06327 58.7528 3.98018C59.3335 2.8971 60.1216 2.07211 61.1171 1.50522C62.1127 0.933717 63.2326 0.647967 64.477 0.647967C65.2974 0.647967 66.0579 0.763189 66.7584 0.993633C67.4636 1.22408 68.0881 1.56052 68.6319 2.00298C69.1758 2.44082 69.6182 2.97775 69.9593 3.61378C70.3049 4.2498 70.5262 4.978 70.6229 5.79838ZM75.7423 15.2005C75.0647 15.2005 74.461 15.083 73.931 14.8479C73.4009 14.6082 72.9815 14.2557 72.6727 13.7902C72.3686 13.3201 72.2165 12.7347 72.2165 12.0342C72.2165 11.4443 72.3248 10.9488 72.5414 10.5478C72.758 10.1469 73.053 9.82423 73.4263 9.57996C73.7996 9.33569 74.2236 9.15134 74.6983 9.0269C75.1777 8.90246 75.68 8.81489 76.2054 8.76419C76.823 8.69967 77.3208 8.63975 77.6987 8.58445C78.0766 8.52453 78.3509 8.43696 78.5214 8.32174C78.6919 8.20652 78.7772 8.03599 78.7772 7.81016V7.76868C78.7772 7.33083 78.6389 6.99208 78.3624 6.75242C78.0905 6.51276 77.7033 6.39293 77.201 6.39293C76.6709 6.39293 76.2492 6.51045 75.9358 6.74551C75.6224 6.97595 75.415 7.26631 75.3136 7.61658L72.5898 7.39536C72.728 6.75012 73 6.19244 73.4056 5.72234C73.8111 5.24762 74.3342 4.88352 74.9749 4.63003C75.6201 4.37194 76.3668 4.24289 77.2148 4.24289C77.8047 4.24289 78.3693 4.31202 78.9085 4.45029C79.4524 4.58855 79.934 4.80287 80.3534 5.09323C80.7774 5.38358 81.1116 5.7569 81.3559 6.21318C81.6001 6.66485 81.7223 7.20639 81.7223 7.83781V15H78.9293V13.5275H78.8463C78.6758 13.8593 78.4477 14.152 78.1619 14.4055C77.8762 14.6543 77.5328 14.8502 77.1318 14.9931C76.7309 15.1314 76.2677 15.2005 75.7423 15.2005ZM76.5857 13.168C77.0189 13.168 77.4014 13.0827 77.7333 12.9122C78.0651 12.737 78.3255 12.502 78.5145 12.207C78.7035 11.9121 78.7979 11.5779 78.7979 11.2046V10.0777C78.7058 10.1376 78.579 10.1929 78.4177 10.2436C78.261 10.2897 78.0836 10.3335 77.8854 10.375C77.6872 10.4119 77.489 10.4464 77.2908 10.4787C77.0927 10.5063 76.9129 10.5317 76.7516 10.5547C76.4059 10.6054 76.104 10.6861 75.846 10.7967C75.5879 10.9073 75.3874 11.0571 75.2445 11.2461C75.1016 11.4304 75.0302 11.6609 75.0302 11.9374C75.0302 12.3384 75.1754 12.6449 75.4657 12.8569C75.7607 13.0643 76.134 13.168 76.5857 13.168ZM89.6553 4.38115V6.59341H83.2605V4.38115H89.6553ZM84.7123 1.83706H87.6573V11.7369C87.6573 12.0088 87.6988 12.2208 87.7818 12.3729C87.8647 12.5204 87.98 12.6241 88.1274 12.684C88.2795 12.744 88.4547 12.7739 88.6529 12.7739C88.7911 12.7739 88.9294 12.7624 89.0677 12.7393C89.2059 12.7117 89.3119 12.691 89.3857 12.6771L89.8489 14.8686C89.7014 14.9147 89.494 14.9677 89.2267 15.0277C88.9593 15.0922 88.6344 15.1314 88.2519 15.1452C87.5421 15.1728 86.9199 15.0784 86.3853 14.8617C85.8553 14.6451 85.4428 14.3087 85.1478 13.8524C84.8528 13.3961 84.7077 12.82 84.7123 12.1241V1.83706ZM96.299 15.2074C95.2067 15.2074 94.2665 14.9862 93.4784 14.5437C92.6948 14.0967 92.0911 13.4652 91.6671 12.6495C91.243 11.8291 91.031 10.8589 91.031 9.73897C91.031 8.64667 91.243 7.68802 91.6671 6.86303C92.0911 6.03805 92.6879 5.39511 93.4576 4.93422C94.2319 4.47333 95.1398 4.24289 96.1815 4.24289C96.882 4.24289 97.5342 4.35581 98.1379 4.58164C98.7463 4.80287 99.2763 5.13701 99.728 5.58407C100.184 6.03113 100.539 6.59341 100.793 7.27092C101.046 7.94381 101.173 8.73193 101.173 9.63527V10.4441H92.2063V8.61901H98.4006C98.4006 8.195 98.3085 7.81937 98.1241 7.49214C97.9397 7.16491 97.6839 6.90912 97.3567 6.72477C97.0341 6.5358 96.6585 6.44132 96.2298 6.44132C95.7828 6.44132 95.3864 6.54502 95.0408 6.75242C94.6997 6.95521 94.4324 7.22944 94.2388 7.5751C94.0452 7.91616 93.9462 8.29639 93.9415 8.7158V10.451C93.9415 10.9765 94.0383 11.4304 94.2319 11.813C94.4301 12.1955 94.7089 12.4905 95.0684 12.6979C95.4279 12.9053 95.8542 13.009 96.3474 13.009C96.6746 13.009 96.9742 12.9629 97.2461 12.8707C97.518 12.7785 97.7508 12.6403 97.9443 12.4559C98.1379 12.2715 98.2854 12.0457 98.3868 11.7784L101.111 11.9581C100.972 12.6126 100.689 13.1841 100.26 13.6726C99.8363 14.1566 99.2878 14.5345 98.6149 14.8064C97.9467 15.0737 97.1747 15.2074 96.299 15.2074ZM107.879 19.2033C106.925 19.2033 106.107 19.0719 105.425 18.8092C104.747 18.5511 104.208 18.1986 103.807 17.7515C103.406 17.3044 103.145 16.8021 103.026 16.2444L105.749 15.878C105.832 16.09 105.964 16.2882 106.144 16.4725C106.323 16.6569 106.561 16.8044 106.856 16.915C107.155 17.0302 107.519 17.0878 107.948 17.0878C108.589 17.0878 109.116 16.9311 109.531 16.6177C109.95 16.3089 110.16 15.7904 110.16 15.0622V13.1196H110.036C109.907 13.4145 109.713 13.6934 109.455 13.9561C109.197 14.2188 108.865 14.4331 108.459 14.599C108.054 14.7649 107.57 14.8479 107.008 14.8479C106.21 14.8479 105.484 14.6636 104.83 14.2948C104.18 13.9215 103.662 13.3523 103.275 12.5873C102.892 11.8176 102.701 10.8451 102.701 9.66984C102.701 8.46692 102.897 7.46219 103.288 6.65563C103.68 5.84908 104.201 5.24532 104.851 4.84435C105.505 4.44338 106.222 4.24289 107.001 4.24289C107.595 4.24289 108.093 4.34428 108.494 4.54707C108.895 4.74526 109.218 4.99414 109.462 5.29371C109.711 5.58868 109.902 5.87904 110.036 6.16479H110.146V4.38115H113.071V15.1037C113.071 16.007 112.849 16.7629 112.407 17.3713C111.965 17.9796 111.352 18.4359 110.568 18.7401C109.789 19.0489 108.893 19.2033 107.879 19.2033ZM107.941 12.6356C108.416 12.6356 108.817 12.5181 109.144 12.2831C109.476 12.0434 109.729 11.7024 109.904 11.2599C110.084 10.8128 110.174 10.2782 110.174 9.65601C110.174 9.03381 110.086 8.49457 109.911 8.0383C109.736 7.57741 109.483 7.22022 109.151 6.96673C108.819 6.71324 108.416 6.5865 107.941 6.5865C107.457 6.5865 107.049 6.71785 106.717 6.98056C106.386 7.23866 106.134 7.59815 105.964 8.05904C105.793 8.51992 105.708 9.05225 105.708 9.65601C105.708 10.269 105.793 10.799 105.964 11.2461C106.139 11.6885 106.39 12.0319 106.717 12.2762C107.049 12.5158 107.457 12.6356 107.941 12.6356ZM120.212 15.2074C119.138 15.2074 118.21 14.9793 117.426 14.523C116.647 14.0621 116.046 13.4215 115.622 12.6011C115.198 11.7761 114.986 10.8198 114.986 9.73206C114.986 8.63515 115.198 7.6765 115.622 6.85612C116.046 6.03113 116.647 5.3905 117.426 4.93422C118.21 4.47333 119.138 4.24289 120.212 4.24289C121.286 4.24289 122.212 4.47333 122.991 4.93422C123.775 5.3905 124.379 6.03113 124.803 6.85612C125.227 7.6765 125.439 8.63515 125.439 9.73206C125.439 10.8198 125.227 11.7761 124.803 12.6011C124.379 13.4215 123.775 14.0621 122.991 14.523C122.212 14.9793 121.286 15.2074 120.212 15.2074ZM120.226 12.926C120.714 12.926 121.122 12.7877 121.45 12.5112C121.777 12.2301 122.023 11.8475 122.189 11.3636C122.36 10.8797 122.445 10.3289 122.445 9.71132C122.445 9.09373 122.36 8.54297 122.189 8.05904C122.023 7.5751 121.777 7.19257 121.45 6.91143C121.122 6.63029 120.714 6.48971 120.226 6.48971C119.733 6.48971 119.318 6.63029 118.982 6.91143C118.65 7.19257 118.399 7.5751 118.228 8.05904C118.062 8.54297 117.979 9.09373 117.979 9.71132C117.979 10.3289 118.062 10.8797 118.228 11.3636C118.399 11.8475 118.65 12.2301 118.982 12.5112C119.318 12.7877 119.733 12.926 120.226 12.926ZM127.354 15V4.38115H130.209V6.23392H130.319C130.513 5.57485 130.838 5.07709 131.294 4.74065C131.75 4.39959 132.276 4.22906 132.87 4.22906C133.018 4.22906 133.177 4.23828 133.347 4.25671C133.518 4.27515 133.668 4.3005 133.797 4.33276V6.94599C133.659 6.90451 133.467 6.86764 133.223 6.83538C132.979 6.80312 132.755 6.78699 132.552 6.78699C132.119 6.78699 131.732 6.88147 131.391 7.07043C131.054 7.25479 130.787 7.51288 130.589 7.84472C130.395 8.17656 130.299 8.5591 130.299 8.99233V15H127.354ZM135.319 15V4.38115H138.265V15H135.319ZM136.799 3.01232C136.361 3.01232 135.985 2.86714 135.672 2.57678C135.363 2.28181 135.209 1.92923 135.209 1.51904C135.209 1.11346 135.363 0.765493 135.672 0.475135C135.985 0.180166 136.361 0.0326822 136.799 0.0326822C137.237 0.0326822 137.61 0.180166 137.919 0.475135C138.232 0.765493 138.389 1.11346 138.389 1.51904C138.389 1.92923 138.232 2.28181 137.919 2.57678C137.61 2.86714 137.237 3.01232 136.799 3.01232ZM143.652 15.2005C142.974 15.2005 142.37 15.083 141.84 14.8479C141.31 14.6082 140.891 14.2557 140.582 13.7902C140.278 13.3201 140.126 12.7347 140.126 12.0342C140.126 11.4443 140.234 10.9488 140.451 10.5478C140.667 10.1469 140.962 9.82423 141.336 9.57996C141.709 9.33569 142.133 9.15134 142.608 9.0269C143.087 8.90246 143.589 8.81489 144.115 8.76419C144.732 8.69967 145.23 8.63975 145.608 8.58445C145.986 8.52453 146.26 8.43696 146.431 8.32174C146.601 8.20652 146.687 8.03599 146.687 7.81016V7.76868C146.687 7.33083 146.548 6.99208 146.272 6.75242C146 6.51276 145.613 6.39293 145.11 6.39293C144.58 6.39293 144.159 6.51045 143.845 6.74551C143.532 6.97595 143.324 7.26631 143.223 7.61658L140.499 7.39536C140.637 6.75012 140.909 6.19244 141.315 5.72234C141.721 5.24762 142.244 4.88352 142.884 4.63003C143.53 4.37194 144.276 4.24289 145.124 4.24289C145.714 4.24289 146.279 4.31202 146.818 4.45029C147.362 4.58855 147.843 4.80287 148.263 5.09323C148.687 5.38358 149.021 5.7569 149.265 6.21318C149.51 6.66485 149.632 7.20639 149.632 7.83781V15H146.839V13.5275H146.756C146.585 13.8593 146.357 14.152 146.071 14.4055C145.786 14.6543 145.442 14.8502 145.041 14.9931C144.64 15.1314 144.177 15.2005 143.652 15.2005ZM144.495 13.168C144.928 13.168 145.311 13.0827 145.643 12.9122C145.975 12.737 146.235 12.502 146.424 12.207C146.613 11.9121 146.707 11.5779 146.707 11.2046V10.0777C146.615 10.1376 146.488 10.1929 146.327 10.2436C146.17 10.2897 145.993 10.3335 145.795 10.375C145.597 10.4119 145.398 10.4464 145.2 10.4787C145.002 10.5063 144.822 10.5317 144.661 10.5547C144.315 10.6054 144.013 10.6861 143.755 10.7967C143.497 10.9073 143.297 11.0571 143.154 11.2461C143.011 11.4304 142.94 11.6609 142.94 11.9374C142.94 12.3384 143.085 12.6449 143.375 12.8569C143.67 13.0643 144.043 13.168 144.495 13.168ZM160.752 7.40918L158.056 7.5751C158.009 7.34466 157.91 7.13726 157.758 6.95291C157.606 6.76394 157.406 6.61415 157.157 6.50354C156.913 6.38832 156.62 6.33071 156.279 6.33071C155.823 6.33071 155.438 6.42749 155.124 6.62107C154.811 6.81003 154.654 7.06352 154.654 7.38153C154.654 7.63502 154.756 7.84933 154.958 8.02447C155.161 8.19961 155.509 8.34018 156.002 8.44618L157.924 8.83333C158.957 9.04533 159.726 9.38639 160.233 9.8565C160.74 10.3266 160.994 10.9442 160.994 11.7093C160.994 12.4052 160.789 13.0159 160.378 13.5413C159.973 14.0667 159.415 14.4769 158.705 14.7719C158 15.0622 157.187 15.2074 156.265 15.2074C154.859 15.2074 153.739 14.9147 152.905 14.3294C152.076 13.7395 151.589 12.9375 151.446 11.9236L154.343 11.7715C154.431 12.2001 154.643 12.5273 154.979 12.7532C155.316 12.9744 155.747 13.085 156.272 13.085C156.788 13.085 157.203 12.9859 157.516 12.7877C157.834 12.585 157.996 12.3245 158 12.0065C157.996 11.7392 157.883 11.5203 157.662 11.3498C157.44 11.1746 157.099 11.041 156.638 10.9488L154.799 10.5824C153.762 10.375 152.99 10.0155 152.483 9.50392C151.981 8.99233 151.73 8.34018 151.73 7.54745C151.73 6.86534 151.914 6.27771 152.283 5.78456C152.656 5.29141 153.179 4.91118 153.852 4.64386C154.53 4.37655 155.323 4.24289 156.23 4.24289C157.572 4.24289 158.627 4.52633 159.397 5.09323C160.171 5.66012 160.623 6.4321 160.752 7.40918ZM171.267 15.1728C170.46 15.1728 169.73 14.9654 169.075 14.5506C168.426 14.1312 167.909 13.5159 167.527 12.7048C167.149 11.889 166.96 10.8889 166.96 9.7044C166.96 8.48766 167.156 7.47601 167.548 6.66946C167.939 5.8583 168.46 5.25223 169.11 4.85126C169.764 4.44568 170.481 4.24289 171.26 4.24289C171.855 4.24289 172.35 4.34428 172.746 4.54707C173.147 4.74526 173.47 4.99414 173.714 5.29371C173.963 5.58868 174.152 5.87904 174.281 6.16479H174.371V0.84154H177.309V15H174.406V13.2993H174.281C174.143 13.5943 173.947 13.887 173.693 14.1773C173.445 14.4631 173.12 14.7004 172.719 14.8894C172.322 15.0784 171.838 15.1728 171.267 15.1728ZM172.2 12.8292C172.675 12.8292 173.076 12.7002 173.403 12.4421C173.735 12.1794 173.988 11.813 174.164 11.3429C174.343 10.8728 174.433 10.322 174.433 9.69058C174.433 9.05916 174.346 8.51071 174.171 8.04521C173.995 7.57971 173.742 7.22022 173.41 6.96673C173.078 6.71324 172.675 6.5865 172.2 6.5865C171.716 6.5865 171.308 6.71785 170.977 6.98056C170.645 7.24327 170.394 7.60737 170.223 8.07286C170.052 8.53836 169.967 9.0776 169.967 9.69058C169.967 10.3082 170.052 10.8543 170.223 11.329C170.398 11.7991 170.649 12.1678 170.977 12.4352C171.308 12.6979 171.716 12.8292 172.2 12.8292ZM184.528 15.2074C183.455 15.2074 182.526 14.9793 181.742 14.523C180.963 14.0621 180.362 13.4215 179.938 12.6011C179.514 11.7761 179.302 10.8198 179.302 9.73206C179.302 8.63515 179.514 7.6765 179.938 6.85612C180.362 6.03113 180.963 5.3905 181.742 4.93422C182.526 4.47333 183.455 4.24289 184.528 4.24289C185.602 4.24289 186.529 4.47333 187.308 4.93422C188.091 5.3905 188.695 6.03113 189.119 6.85612C189.543 7.6765 189.755 8.63515 189.755 9.73206C189.755 10.8198 189.543 11.7761 189.119 12.6011C188.695 13.4215 188.091 14.0621 187.308 14.523C186.529 14.9793 185.602 15.2074 184.528 15.2074ZM184.542 12.926C185.031 12.926 185.439 12.7877 185.766 12.5112C186.093 12.2301 186.34 11.8475 186.506 11.3636C186.676 10.8797 186.761 10.3289 186.761 9.71132C186.761 9.09373 186.676 8.54297 186.506 8.05904C186.34 7.5751 186.093 7.19257 185.766 6.91143C185.439 6.63029 185.031 6.48971 184.542 6.48971C184.049 6.48971 183.634 6.63029 183.298 6.91143C182.966 7.19257 182.715 7.5751 182.544 8.05904C182.378 8.54297 182.295 9.09373 182.295 9.71132C182.295 10.3289 182.378 10.8797 182.544 11.3636C182.715 11.8475 182.966 12.2301 183.298 12.5112C183.634 12.7877 184.049 12.926 184.542 12.926ZM200.505 7.40918L197.809 7.5751C197.763 7.34466 197.664 7.13726 197.512 6.95291C197.359 6.76394 197.159 6.61415 196.91 6.50354C196.666 6.38832 196.373 6.33071 196.032 6.33071C195.576 6.33071 195.191 6.42749 194.878 6.62107C194.564 6.81003 194.408 7.06352 194.408 7.38153C194.408 7.63502 194.509 7.84933 194.712 8.02447C194.914 8.19961 195.262 8.34018 195.756 8.44618L197.677 8.83333C198.71 9.04533 199.48 9.38639 199.987 9.8565C200.494 10.3266 200.747 10.9442 200.747 11.7093C200.747 12.4052 200.542 13.0159 200.132 13.5413C199.726 14.0667 199.168 14.4769 198.459 14.7719C197.754 15.0622 196.94 15.2074 196.018 15.2074C194.613 15.2074 193.493 14.9147 192.658 14.3294C191.829 13.7395 191.343 12.9375 191.2 11.9236L194.096 11.7715C194.184 12.2001 194.396 12.5273 194.732 12.7532C195.069 12.9744 195.5 13.085 196.025 13.085C196.541 13.085 196.956 12.9859 197.27 12.7877C197.588 12.585 197.749 12.3245 197.754 12.0065C197.749 11.7392 197.636 11.5203 197.415 11.3498C197.194 11.1746 196.853 11.041 196.392 10.9488L194.553 10.5824C193.516 10.375 192.744 10.0155 192.237 9.50392C191.734 8.99233 191.483 8.34018 191.483 7.54745C191.483 6.86534 191.668 6.27771 192.036 5.78456C192.41 5.29141 192.933 4.91118 193.606 4.64386C194.283 4.37655 195.076 4.24289 195.984 4.24289C197.325 4.24289 198.38 4.52633 199.15 5.09323C199.924 5.66012 200.376 6.4321 200.505 7.40918ZM207.107 18.9821V4.38115H210.011V6.16479H210.142C210.271 5.87904 210.458 5.58868 210.702 5.29371C210.951 4.99414 211.274 4.74526 211.67 4.54707C212.071 4.34428 212.569 4.24289 213.163 4.24289C213.938 4.24289 214.652 4.44568 215.306 4.85126C215.961 5.25223 216.484 5.8583 216.876 6.66946C217.268 7.47601 217.463 8.48766 217.463 9.7044C217.463 10.8889 217.272 11.889 216.89 12.7048C216.512 13.5159 215.995 14.1312 215.341 14.5506C214.691 14.9654 213.963 15.1728 213.156 15.1728C212.585 15.1728 212.099 15.0784 211.698 14.8894C211.301 14.7004 210.976 14.4631 210.723 14.1773C210.469 13.887 210.276 13.5943 210.142 13.2993H210.052V18.9821H207.107ZM209.99 9.69058C209.99 10.322 210.078 10.8728 210.253 11.3429C210.428 11.813 210.681 12.1794 211.013 12.4421C211.345 12.7002 211.748 12.8292 212.223 12.8292C212.702 12.8292 213.108 12.6979 213.44 12.4352C213.772 12.1678 214.023 11.7991 214.193 11.329C214.369 10.8543 214.456 10.3082 214.456 9.69058C214.456 9.0776 214.371 8.53836 214.2 8.07286C214.03 7.60737 213.779 7.24327 213.447 6.98056C213.115 6.71785 212.707 6.5865 212.223 6.5865C211.744 6.5865 211.338 6.71324 211.006 6.96673C210.679 7.22022 210.428 7.57971 210.253 8.04521C210.078 8.51071 209.99 9.05916 209.99 9.69058ZM219.427 15V4.38115H222.282V6.23392H222.393C222.586 5.57485 222.911 5.07709 223.367 4.74065C223.824 4.39959 224.349 4.22906 224.944 4.22906C225.091 4.22906 225.25 4.23828 225.421 4.25671C225.591 4.27515 225.741 4.3005 225.87 4.33276V6.94599C225.732 6.90451 225.54 6.86764 225.296 6.83538C225.052 6.80312 224.828 6.78699 224.626 6.78699C224.192 6.78699 223.805 6.88147 223.464 7.07043C223.128 7.25479 222.86 7.51288 222.662 7.84472C222.469 8.17656 222.372 8.5591 222.372 8.99233V15H219.427ZM231.696 15.2074C230.622 15.2074 229.694 14.9793 228.91 14.523C228.131 14.0621 227.53 13.4215 227.106 12.6011C226.682 11.7761 226.47 10.8198 226.47 9.73206C226.47 8.63515 226.682 7.6765 227.106 6.85612C227.53 6.03113 228.131 5.3905 228.91 4.93422C229.694 4.47333 230.622 4.24289 231.696 4.24289C232.77 4.24289 233.696 4.47333 234.475 4.93422C235.259 5.3905 235.863 6.03113 236.287 6.85612C236.711 7.6765 236.923 8.63515 236.923 9.73206C236.923 10.8198 236.711 11.7761 236.287 12.6011C235.863 13.4215 235.259 14.0621 234.475 14.523C233.696 14.9793 232.77 15.2074 231.696 15.2074ZM231.71 12.926C232.199 12.926 232.606 12.7877 232.934 12.5112C233.261 12.2301 233.507 11.8475 233.673 11.3636C233.844 10.8797 233.929 10.3289 233.929 9.71132C233.929 9.09373 233.844 8.54297 233.673 8.05904C233.507 7.5751 233.261 7.19257 232.934 6.91143C232.606 6.63029 232.199 6.48971 231.71 6.48971C231.217 6.48971 230.802 6.63029 230.466 6.91143C230.134 7.19257 229.883 7.5751 229.712 8.05904C229.546 8.54297 229.463 9.09373 229.463 9.71132C229.463 10.3289 229.546 10.8797 229.712 11.3636C229.883 11.8475 230.134 12.2301 230.466 12.5112C230.802 12.7877 231.217 12.926 231.71 12.926ZM242.751 15.1728C241.944 15.1728 241.213 14.9654 240.559 14.5506C239.909 14.1312 239.393 13.5159 239.01 12.7048C238.633 11.889 238.444 10.8889 238.444 9.7044C238.444 8.48766 238.639 7.47601 239.031 6.66946C239.423 5.8583 239.944 5.25223 240.594 4.85126C241.248 4.44568 241.965 4.24289 242.744 4.24289C243.338 4.24289 243.834 4.34428 244.23 4.54707C244.631 4.74526 244.954 4.99414 245.198 5.29371C245.447 5.58868 245.636 5.87904 245.765 6.16479H245.855V0.84154H248.793V15H245.889V13.2993H245.765C245.626 13.5943 245.431 13.887 245.177 14.1773C244.928 14.4631 244.603 14.7004 244.202 14.8894C243.806 15.0784 243.322 15.1728 242.751 15.1728ZM243.684 12.8292C244.159 12.8292 244.56 12.7002 244.887 12.4421C245.219 12.1794 245.472 11.813 245.647 11.3429C245.827 10.8728 245.917 10.322 245.917 9.69058C245.917 9.05916 245.829 8.51071 245.654 8.04521C245.479 7.57971 245.226 7.22022 244.894 6.96673C244.562 6.71324 244.159 6.5865 243.684 6.5865C243.2 6.5865 242.792 6.71785 242.46 6.98056C242.128 7.24327 241.877 7.60737 241.707 8.07286C241.536 8.53836 241.451 9.0776 241.451 9.69058C241.451 10.3082 241.536 10.8543 241.707 11.329C241.882 11.7991 242.133 12.1678 242.46 12.4352C242.792 12.6979 243.2 12.8292 243.684 12.8292ZM258.024 10.4787V4.38115H260.969V15H258.141V13.0712H258.031C257.791 13.6934 257.392 14.1934 256.835 14.5714C256.282 14.9493 255.606 15.1383 254.809 15.1383C254.099 15.1383 253.475 14.977 252.936 14.6543C252.396 14.3317 251.975 13.8731 251.67 13.2786C251.371 12.684 251.219 11.972 251.214 11.1424V4.38115H254.159V10.617C254.164 11.2438 254.332 11.7392 254.664 12.1033C254.996 12.4674 255.441 12.6495 255.998 12.6495C256.353 12.6495 256.685 12.5688 256.994 12.4075C257.302 12.2416 257.551 11.9973 257.74 11.6747C257.934 11.3521 258.028 10.9534 258.024 10.4787ZM268.973 4.38115V6.59341H262.578V4.38115H268.973ZM264.03 1.83706H266.975V11.7369C266.975 12.0088 267.016 12.2208 267.099 12.3729C267.182 12.5204 267.297 12.6241 267.445 12.684C267.597 12.744 267.772 12.7739 267.97 12.7739C268.109 12.7739 268.247 12.7624 268.385 12.7393C268.523 12.7117 268.629 12.691 268.703 12.6771L269.166 14.8686C269.019 14.9147 268.811 14.9677 268.544 15.0277C268.277 15.0922 267.952 15.1314 267.569 15.1452C266.86 15.1728 266.237 15.0784 265.703 14.8617C265.173 14.6451 264.76 14.3087 264.465 13.8524C264.17 13.3961 264.025 12.82 264.03 12.1241V1.83706ZM275.575 15.2074C274.501 15.2074 273.572 14.9793 272.789 14.523C272.01 14.0621 271.409 13.4215 270.985 12.6011C270.56 11.7761 270.348 10.8198 270.348 9.73206C270.348 8.63515 270.56 7.6765 270.985 6.85612C271.409 6.03113 272.01 5.3905 272.789 4.93422C273.572 4.47333 274.501 4.24289 275.575 4.24289C276.649 4.24289 277.575 4.47333 278.354 4.93422C279.138 5.3905 279.741 6.03113 280.165 6.85612C280.589 7.6765 280.801 8.63515 280.801 9.73206C280.801 10.8198 280.589 11.7761 280.165 12.6011C279.741 13.4215 279.138 14.0621 278.354 14.523C277.575 14.9793 276.649 15.2074 275.575 15.2074ZM275.589 12.926C276.077 12.926 276.485 12.7877 276.812 12.5112C277.14 12.2301 277.386 11.8475 277.552 11.3636C277.723 10.8797 277.808 10.3289 277.808 9.71132C277.808 9.09373 277.723 8.54297 277.552 8.05904C277.386 7.5751 277.14 7.19257 276.812 6.91143C276.485 6.63029 276.077 6.48971 275.589 6.48971C275.096 6.48971 274.681 6.63029 274.344 6.91143C274.013 7.19257 273.761 7.5751 273.591 8.05904C273.425 8.54297 273.342 9.09373 273.342 9.71132C273.342 10.3289 273.425 10.8797 273.591 11.3636C273.761 11.8475 274.013 12.2301 274.344 12.5112C274.681 12.7877 275.096 12.926 275.589 12.926ZM291.552 7.40918L288.855 7.5751C288.809 7.34466 288.71 7.13726 288.558 6.95291C288.406 6.76394 288.206 6.61415 287.957 6.50354C287.712 6.38832 287.42 6.33071 287.079 6.33071C286.622 6.33071 286.238 6.42749 285.924 6.62107C285.611 6.81003 285.454 7.06352 285.454 7.38153C285.454 7.63502 285.555 7.84933 285.758 8.02447C285.961 8.19961 286.309 8.34018 286.802 8.44618L288.724 8.83333C289.756 9.04533 290.526 9.38639 291.033 9.8565C291.54 10.3266 291.794 10.9442 291.794 11.7093C291.794 12.4052 291.588 13.0159 291.178 13.5413C290.773 14.0667 290.215 14.4769 289.505 14.7719C288.8 15.0622 287.987 15.2074 287.065 15.2074C285.659 15.2074 284.539 14.9147 283.705 14.3294C282.875 13.7395 282.389 12.9375 282.246 11.9236L285.143 11.7715C285.231 12.2001 285.443 12.5273 285.779 12.7532C286.115 12.9744 286.546 13.085 287.072 13.085C287.588 13.085 288.003 12.9859 288.316 12.7877C288.634 12.585 288.796 12.3245 288.8 12.0065C288.796 11.7392 288.683 11.5203 288.461 11.3498C288.24 11.1746 287.899 11.041 287.438 10.9488L285.599 10.5824C284.562 10.375 283.79 10.0155 283.283 9.50392C282.781 8.99233 282.53 8.34018 282.53 7.54745C282.53 6.86534 282.714 6.27771 283.083 5.78456C283.456 5.29141 283.979 4.91118 284.652 4.64386C285.33 4.37655 286.122 4.24289 287.03 4.24289C288.371 4.24289 289.427 4.52633 290.197 5.09323C290.971 5.66012 291.423 6.4321 291.552 7.40918ZM67.9751 29.3812L64.2627 40H60.9443L57.2319 29.3812H60.3429L62.5482 36.9789H62.6588L64.8572 29.3812H67.9751ZM73.9794 40.2074C72.8871 40.2074 71.9468 39.9862 71.1587 39.5437C70.3752 39.0967 69.7715 38.4652 69.3474 37.6495C68.9234 36.8291 68.7114 35.8589 68.7114 34.739C68.7114 33.6467 68.9234 32.688 69.3474 31.863C69.7715 31.038 70.3683 30.3951 71.138 29.9342C71.9123 29.4733 72.8202 29.2429 73.8618 29.2429C74.5624 29.2429 75.2145 29.3558 75.8183 29.5816C76.4267 29.8029 76.9567 30.137 77.4084 30.5841C77.8646 31.0311 78.2195 31.5934 78.473 32.2709C78.7265 32.9438 78.8532 33.7319 78.8532 34.6353V35.4441H69.8867V33.619H76.081C76.081 33.195 75.9888 32.8194 75.8045 32.4921C75.6201 32.1649 75.3643 31.9091 75.0371 31.7248C74.7145 31.5358 74.3389 31.4413 73.9102 31.4413C73.4632 31.4413 73.0668 31.545 72.7211 31.7524C72.3801 31.9552 72.1128 32.2294 71.9192 32.5751C71.7256 32.9162 71.6265 33.2964 71.6219 33.7158V35.451C71.6219 35.9765 71.7187 36.4304 71.9123 36.813C72.1105 37.1955 72.3893 37.4905 72.7488 37.6979C73.1083 37.9053 73.5346 38.009 74.0278 38.009C74.355 38.009 74.6546 37.9629 74.9265 37.8707C75.1984 37.7785 75.4312 37.6403 75.6247 37.4559C75.8183 37.2715 75.9658 37.0457 76.0672 36.7784L78.791 36.9581C78.6528 37.6126 78.3693 38.1841 77.9407 38.6726C77.5167 39.1566 76.9682 39.5345 76.2953 39.8064C75.627 40.0737 74.855 40.2074 73.9794 40.2074ZM83.7202 33.861V40H80.7751V29.3812H83.5819V31.2547H83.7064C83.9414 30.6371 84.3355 30.1485 84.8886 29.789C85.4416 29.4249 86.1122 29.2429 86.9003 29.2429C87.6378 29.2429 88.2807 29.4042 88.8291 29.7268C89.3776 30.0494 89.8039 30.5103 90.1081 31.1095C90.4123 31.704 90.5644 32.4138 90.5644 33.2388V40H87.6193V33.7642C87.6239 33.1143 87.458 32.6074 87.1216 32.2433C86.7851 31.8746 86.3219 31.6902 85.732 31.6902C85.3356 31.6902 84.9853 31.7755 84.6812 31.946C84.3816 32.1165 84.1465 32.3654 83.976 32.6926C83.8101 33.0153 83.7248 33.4047 83.7202 33.861ZM96.7985 40.1728C95.9919 40.1728 95.2614 39.9654 94.6069 39.5506C93.9571 39.1312 93.4409 38.5159 93.0584 37.7048C92.6804 36.889 92.4915 35.8889 92.4915 34.7044C92.4915 33.4877 92.6874 32.476 93.0791 31.6695C93.4709 30.8583 93.9917 30.2522 94.6415 29.8513C95.296 29.4457 96.0127 29.2429 96.7916 29.2429C97.3861 29.2429 97.8816 29.3443 98.2779 29.5471C98.6789 29.7453 99.0015 29.9941 99.2458 30.2937C99.4947 30.5887 99.6836 30.879 99.8127 31.1648H99.9025V25.8415H102.841V40H99.9371V38.2993H99.8127C99.6744 38.5943 99.4785 38.887 99.225 39.1773C98.9762 39.4631 98.6512 39.7004 98.2503 39.8894C97.8539 40.0784 97.37 40.1728 96.7985 40.1728ZM97.7318 37.8292C98.2065 37.8292 98.6074 37.7002 98.9347 37.4421C99.2665 37.1794 99.52 36.813 99.6951 36.3429C99.8749 35.8728 99.9648 35.322 99.9648 34.6906C99.9648 34.0592 99.8772 33.5107 99.7021 33.0452C99.5269 32.5797 99.2734 32.2202 98.9416 31.9667C98.6098 31.7132 98.2065 31.5865 97.7318 31.5865C97.2478 31.5865 96.8399 31.7179 96.5081 31.9806C96.1763 32.2433 95.9251 32.6074 95.7546 33.0729C95.584 33.5384 95.4988 34.0776 95.4988 34.6906C95.4988 35.3082 95.584 35.8543 95.7546 36.329C95.9297 36.7991 96.1809 37.1678 96.5081 37.4352C96.8399 37.6979 97.2478 37.8292 97.7318 37.8292ZM105.262 40V29.3812H108.207V40H105.262ZM106.742 28.0123C106.304 28.0123 105.928 27.8671 105.615 27.5768C105.306 27.2818 105.151 26.9292 105.151 26.519C105.151 26.1135 105.306 25.7655 105.615 25.4751C105.928 25.1802 106.304 25.0327 106.742 25.0327C107.179 25.0327 107.553 25.1802 107.861 25.4751C108.175 25.7655 108.332 26.1135 108.332 26.519C108.332 26.9292 108.175 27.2818 107.861 27.5768C107.553 27.8671 107.179 28.0123 106.742 28.0123ZM114.479 40.1728C113.673 40.1728 112.942 39.9654 112.288 39.5506C111.638 39.1312 111.122 38.5159 110.739 37.7048C110.361 36.889 110.172 35.8889 110.172 34.7044C110.172 33.4877 110.368 32.476 110.76 31.6695C111.152 30.8583 111.672 30.2522 112.322 29.8513C112.977 29.4457 113.693 29.2429 114.472 29.2429C115.067 29.2429 115.562 29.3443 115.959 29.5471C116.36 29.7453 116.682 29.9941 116.927 30.2937C117.175 30.5887 117.364 30.879 117.493 31.1648H117.583V25.8415H120.521V40H117.618V38.2993H117.493C117.355 38.5943 117.159 38.887 116.906 39.1773C116.657 39.4631 116.332 39.7004 115.931 39.8894C115.535 40.0784 115.051 40.1728 114.479 40.1728ZM115.413 37.8292C115.887 37.8292 116.288 37.7002 116.615 37.4421C116.947 37.1794 117.201 36.813 117.376 36.3429C117.556 35.8728 117.646 35.322 117.646 34.6906C117.646 34.0592 117.558 33.5107 117.383 33.0452C117.208 32.5797 116.954 32.2202 116.622 31.9667C116.291 31.7132 115.887 31.5865 115.413 31.5865C114.929 31.5865 114.521 31.7179 114.189 31.9806C113.857 32.2433 113.606 32.6074 113.435 33.0729C113.265 33.5384 113.18 34.0776 113.18 34.6906C113.18 35.3082 113.265 35.8543 113.435 36.329C113.61 36.7991 113.862 37.1678 114.189 37.4352C114.521 37.6979 114.929 37.8292 115.413 37.8292ZM127.741 40.2074C126.667 40.2074 125.738 39.9793 124.955 39.523C124.176 39.0621 123.574 38.4215 123.15 37.6011C122.726 36.7761 122.514 35.8198 122.514 34.7321C122.514 33.6351 122.726 32.6765 123.15 31.8561C123.574 31.0311 124.176 30.3905 124.955 29.9342C125.738 29.4733 126.667 29.2429 127.741 29.2429C128.815 29.2429 129.741 29.4733 130.52 29.9342C131.303 30.3905 131.907 31.0311 132.331 31.8561C132.755 32.6765 132.967 33.6351 132.967 34.7321C132.967 35.8198 132.755 36.7761 132.331 37.6011C131.907 38.4215 131.303 39.0621 130.52 39.523C129.741 39.9793 128.815 40.2074 127.741 40.2074ZM127.755 37.926C128.243 37.926 128.651 37.7877 128.978 37.5112C129.305 37.2301 129.552 36.8475 129.718 36.3636C129.888 35.8797 129.974 35.3289 129.974 34.7113C129.974 34.0937 129.888 33.543 129.718 33.059C129.552 32.5751 129.305 32.1926 128.978 31.9114C128.651 31.6303 128.243 31.4897 127.755 31.4897C127.261 31.4897 126.847 31.6303 126.51 31.9114C126.178 32.1926 125.927 32.5751 125.757 33.059C125.591 33.543 125.508 34.0937 125.508 34.7113C125.508 35.3289 125.591 35.8797 125.757 36.3636C125.927 36.8475 126.178 37.2301 126.51 37.5112C126.847 37.7877 127.261 37.926 127.755 37.926ZM143.717 32.4092L141.021 32.5751C140.975 32.3447 140.876 32.1373 140.724 31.9529C140.572 31.7639 140.371 31.6142 140.122 31.5035C139.878 31.3883 139.586 31.3307 139.244 31.3307C138.788 31.3307 138.403 31.4275 138.09 31.6211C137.777 31.81 137.62 32.0635 137.62 32.3815C137.62 32.635 137.721 32.8493 137.924 33.0245C138.127 33.1996 138.475 33.3402 138.968 33.4462L140.89 33.8333C141.922 34.0453 142.692 34.3864 143.199 34.8565C143.706 35.3266 143.959 35.9442 143.959 36.7093C143.959 37.4052 143.754 38.0159 143.344 38.5413C142.938 39.0667 142.381 39.4769 141.671 39.7719C140.966 40.0622 140.152 40.2074 139.231 40.2074C137.825 40.2074 136.705 39.9147 135.871 39.3294C135.041 38.7395 134.555 37.9375 134.412 36.9236L137.309 36.7715C137.396 37.2001 137.608 37.5273 137.945 37.7532C138.281 37.9744 138.712 38.085 139.238 38.085C139.754 38.085 140.169 37.9859 140.482 37.7877C140.8 37.585 140.961 37.3245 140.966 37.0065C140.961 36.7392 140.848 36.5203 140.627 36.3498C140.406 36.1746 140.065 36.041 139.604 35.9488L137.765 35.5824C136.728 35.375 135.956 35.0155 135.449 34.5039C134.947 33.9923 134.696 33.3402 134.696 32.5475C134.696 31.8653 134.88 31.2777 135.249 30.7846C135.622 30.2914 136.145 29.9112 136.818 29.6439C137.495 29.3765 138.288 29.2429 139.196 29.2429C140.537 29.2429 141.593 29.5263 142.362 30.0932C143.137 30.6601 143.588 31.4321 143.717 32.4092Z" fill="#4D4F5C"/>
<path d="M158.069 269.439H159.341L160.408 270.842L160.688 271.216L162.278 273.33H161.006L159.959 271.927L159.697 271.571L158.069 269.439ZM162.671 267.643C162.671 268.653 162.488 269.526 162.124 270.262C161.759 270.998 161.259 271.565 160.623 271.964C159.987 272.363 159.26 272.563 158.443 272.563C157.627 272.563 156.9 272.363 156.264 271.964C155.628 271.565 155.128 270.998 154.763 270.262C154.398 269.526 154.216 268.653 154.216 267.643C154.216 266.633 154.398 265.76 154.763 265.024C155.128 264.289 155.628 263.721 156.264 263.322C156.9 262.923 157.627 262.724 158.443 262.724C159.26 262.724 159.987 262.923 160.623 263.322C161.259 263.721 161.759 264.289 162.124 265.024C162.488 265.76 162.671 266.633 162.671 267.643ZM161.549 267.643C161.549 266.814 161.41 266.114 161.132 265.543C160.858 264.973 160.485 264.541 160.015 264.248C159.547 263.955 159.023 263.809 158.443 263.809C157.864 263.809 157.338 263.955 156.868 264.248C156.4 264.541 156.027 264.973 155.75 265.543C155.476 266.114 155.338 266.814 155.338 267.643C155.338 268.472 155.476 269.172 155.75 269.743C156.027 270.313 156.4 270.745 156.868 271.038C157.338 271.331 157.864 271.478 158.443 271.478C159.023 271.478 159.547 271.331 160.015 271.038C160.485 270.745 160.858 270.313 161.132 269.743C161.41 269.172 161.549 268.472 161.549 267.643ZM171.523 262.855V272.432H170.363V264.07H170.307L167.969 265.623V264.445L170.363 262.855H171.523Z" fill="#373D3F"/>
<path d="M364.361 269.439H365.633L366.699 270.842L366.98 271.216L368.57 273.33H367.298L366.25 271.927L365.988 271.571L364.361 269.439ZM368.963 267.643C368.963 268.653 368.78 269.526 368.415 270.262C368.051 270.998 367.55 271.565 366.914 271.964C366.278 272.363 365.552 272.563 364.735 272.563C363.918 272.563 363.192 272.363 362.556 271.964C361.92 271.565 361.42 270.998 361.055 270.262C360.69 269.526 360.508 268.653 360.508 267.643C360.508 266.633 360.69 265.76 361.055 265.024C361.42 264.289 361.92 263.721 362.556 263.322C363.192 262.923 363.918 262.724 364.735 262.724C365.552 262.724 366.278 262.923 366.914 263.322C367.55 263.721 368.051 264.289 368.415 265.024C368.78 265.76 368.963 266.633 368.963 267.643ZM367.84 267.643C367.84 266.814 367.701 266.114 367.424 265.543C367.15 264.973 366.777 264.541 366.306 264.248C365.839 263.955 365.315 263.809 364.735 263.809C364.155 263.809 363.63 263.955 363.159 264.248C362.692 264.541 362.319 264.973 362.042 265.543C361.767 266.114 361.63 266.814 361.63 267.643C361.63 268.472 361.767 269.172 362.042 269.743C362.319 270.313 362.692 270.745 363.159 271.038C363.63 271.331 364.155 271.478 364.735 271.478C365.315 271.478 365.839 271.331 366.306 271.038C366.777 270.745 367.15 270.313 367.424 269.743C367.701 269.172 367.84 268.472 367.84 267.643ZM377.815 262.855V272.432H376.655V264.07H376.599L374.261 265.623V264.445L376.655 262.855H377.815Z" fill="#373D3F"/>
<path d="M570.653 269.439H571.925L572.991 270.842L573.271 271.216L574.861 273.33H573.589L572.542 271.927L572.28 271.571L570.653 269.439ZM575.254 267.643C575.254 268.653 575.072 269.526 574.707 270.262C574.342 270.998 573.842 271.565 573.206 271.964C572.57 272.363 571.844 272.563 571.027 272.563C570.21 272.563 569.484 272.363 568.848 271.964C568.212 271.565 567.711 270.998 567.347 270.262C566.982 269.526 566.799 268.653 566.799 267.643C566.799 266.633 566.982 265.76 567.347 265.024C567.711 264.289 568.212 263.721 568.848 263.322C569.484 262.923 570.21 262.724 571.027 262.724C571.844 262.724 572.57 262.923 573.206 263.322C573.842 263.721 574.342 264.289 574.707 265.024C575.072 265.76 575.254 266.633 575.254 267.643ZM574.132 267.643C574.132 266.814 573.993 266.114 573.716 265.543C573.441 264.973 573.069 264.541 572.598 264.248C572.13 263.955 571.607 263.809 571.027 263.809C570.447 263.809 569.922 263.955 569.451 264.248C568.983 264.541 568.611 264.973 568.333 265.543C568.059 266.114 567.922 266.814 567.922 267.643C567.922 268.472 568.059 269.172 568.333 269.743C568.611 270.313 568.983 270.745 569.451 271.038C569.922 271.331 570.447 271.478 571.027 271.478C571.607 271.478 572.13 271.331 572.598 271.038C573.069 270.745 573.441 270.313 573.716 269.743C573.993 269.172 574.132 268.472 574.132 267.643ZM584.106 262.855V272.432H582.947V264.07H582.891L580.552 265.623V264.445L582.947 262.855H584.106Z" fill="#373D3F"/>
<path d="M60.2125 251.386H679.087" stroke="#E0E0E0" stroke-width="1.01296"/>
<path d="M60.2125 41.9429H679.087" stroke="#E0E0E0" stroke-width="1.01296"/>
<path d="M60.2125 94.1208H679.087" stroke="#E0E0E0" stroke-width="1.01296"/>
<path d="M60.2125 146.299H679.087" stroke="#E0E0E0" stroke-width="1.01296"/>
<path d="M60.2125 198.477H679.087" stroke="#E0E0E0" stroke-width="1.01296"/>
<path d="M60.2125 250.655H679.087" stroke="#E0E0E0" stroke-width="1.01296"/>
<path d="M60.2125 251.386V255.775" stroke="#E0E0E0" stroke-width="1.01296"/>
<path d="M266.504 251.386V255.775" stroke="#E0E0E0" stroke-width="1.01296"/>
<path d="M472.796 251.386V255.775" stroke="#E0E0E0" stroke-width="1.01296"/>
<path d="M679.088 251.386V255.775" stroke="#E0E0E0" stroke-width="1.01296"/>
<mask id="mask0_21_864" style="mask-type:luminance" maskUnits="userSpaceOnUse" x="56" y="41" width="627" height="210">
<path d="M682.4 41.9429H56.9V250.655H682.4V41.9429Z" fill="white"/>
</mask>
<g mask="url(#mask0_21_864)">
<path d="M91.1561 250.655V174.127H235.56V250.655H91.1561Z" fill="#3B76EF"/>
</g>
<mask id="mask1_21_864" style="mask-type:luminance" maskUnits="userSpaceOnUse" x="56" y="41" width="627" height="210">
<path d="M682.4 41.9429H56.9V250.655H682.4V41.9429Z" fill="white"/>
</mask>
<g mask="url(#mask1_21_864)">
<path d="M297.448 250.655V154.995H441.852V250.655H297.448Z" fill="#3B76EF"/>
</g>
<mask id="mask2_21_864" style="mask-type:luminance" maskUnits="userSpaceOnUse" x="56" y="41" width="627" height="210">
<path d="M682.4 41.9429H56.9V250.655H682.4V41.9429Z" fill="white"/>
</mask>
<g mask="url(#mask2_21_864)">
<path d="M503.739 250.655V178.296H648.143V250.655H650.268H503.739Z" fill="#3B76EF"/>
</g>
<mask id="mask3_21_864" style="mask-type:luminance" maskUnits="userSpaceOnUse" x="56" y="41" width="627" height="210">
<path d="M682.4 41.9429H56.9V250.655H682.4V41.9429Z" fill="white"/>
</mask>
<g mask="url(#mask3_21_864)">
<path d="M91.1561 174.127V151.517H235.56V174.127H91.1561Z" fill="#A66DD4"/>
</g>
<mask id="mask4_21_864" style="mask-type:luminance" maskUnits="userSpaceOnUse" x="56" y="41" width="627" height="210">
<path d="M682.4 41.9429H56.9V250.655H682.4V41.9429Z" fill="white"/>
</mask>
<g mask="url(#mask4_21_864)">
<path d="M297.448 154.995V114.992H441.852V154.995H297.448Z" fill="#A66DD4"/>
</g>
<mask id="mask5_21_864" style="mask-type:luminance" maskUnits="userSpaceOnUse" x="56" y="41" width="627" height="210">
<path d="M682.4 41.9429H56.9V250.655H682.4V41.9429Z" fill="white"/>
</mask>
<g mask="url(#mask5_21_864)">
<path d="M503.739 179.345V144.013H648.143V179.345H650.411H503.739Z" fill="#A66DD4"/>
</g>
<path d="M160.941 162.324V171.165H159.072V164.098H159.02L156.995 165.367V163.71L159.184 162.324H160.941ZM166.31 171.285C165.665 171.285 165.091 171.175 164.587 170.953C164.087 170.729 163.691 170.421 163.4 170.029C163.112 169.635 162.964 169.18 162.956 168.665H164.838C164.849 168.881 164.92 169.071 165.049 169.235C165.181 169.396 165.357 169.521 165.576 169.611C165.794 169.7 166.04 169.744 166.314 169.744C166.599 169.744 166.851 169.694 167.069 169.593C167.288 169.493 167.459 169.353 167.583 169.175C167.707 168.996 167.769 168.79 167.769 168.557C167.769 168.321 167.702 168.113 167.57 167.931C167.441 167.747 167.253 167.603 167.009 167.5C166.767 167.396 166.479 167.344 166.146 167.344H165.321V165.972H166.146C166.428 165.972 166.676 165.923 166.892 165.825C167.111 165.727 167.281 165.592 167.402 165.419C167.523 165.244 167.583 165.039 167.583 164.806C167.583 164.585 167.53 164.39 167.423 164.223C167.32 164.054 167.173 163.921 166.983 163.826C166.796 163.731 166.577 163.684 166.327 163.684C166.074 163.684 165.842 163.73 165.632 163.822C165.422 163.911 165.253 164.039 165.127 164.206C165 164.373 164.933 164.569 164.924 164.793H163.133C163.141 164.284 163.287 163.835 163.569 163.446C163.851 163.058 164.23 162.754 164.708 162.536C165.189 162.314 165.731 162.203 166.335 162.203C166.946 162.203 167.479 162.314 167.937 162.536C168.394 162.757 168.75 163.057 169.003 163.434C169.259 163.808 169.386 164.228 169.383 164.694C169.386 165.189 169.232 165.602 168.921 165.933C168.613 166.264 168.212 166.474 167.717 166.563V166.632C168.367 166.716 168.862 166.941 169.202 167.31C169.544 167.675 169.714 168.133 169.711 168.683C169.714 169.186 169.569 169.634 169.275 170.025C168.984 170.416 168.583 170.724 168.071 170.949C167.559 171.173 166.971 171.285 166.31 171.285Z" fill="white"/>
<path d="M362.532 143.336V141.99L365.679 139.076C365.947 138.817 366.171 138.584 366.352 138.377C366.536 138.169 366.676 137.967 366.771 137.768C366.866 137.567 366.913 137.349 366.913 137.116C366.913 136.857 366.854 136.634 366.736 136.447C366.618 136.257 366.457 136.112 366.253 136.011C366.049 135.908 365.817 135.856 365.558 135.856C365.288 135.856 365.052 135.91 364.85 136.02C364.649 136.129 364.493 136.286 364.384 136.49C364.275 136.695 364.22 136.938 364.22 137.22H362.446C362.446 136.641 362.577 136.139 362.839 135.713C363.1 135.287 363.467 134.958 363.939 134.725C364.411 134.492 364.955 134.375 365.571 134.375C366.204 134.375 366.755 134.487 367.224 134.712C367.696 134.933 368.063 135.241 368.325 135.636C368.587 136.03 368.718 136.482 368.718 136.991C368.718 137.325 368.652 137.654 368.519 137.98C368.39 138.305 368.158 138.666 367.824 139.063C367.49 139.457 367.02 139.931 366.413 140.483L365.122 141.748V141.808H368.834V143.336H362.532ZM373.456 143.457C372.812 143.457 372.238 143.346 371.734 143.125C371.233 142.9 370.838 142.593 370.547 142.201C370.259 141.807 370.111 141.352 370.102 140.837H371.984C371.996 141.053 372.066 141.243 372.196 141.407C372.328 141.568 372.504 141.693 372.723 141.782C372.941 141.872 373.187 141.916 373.461 141.916C373.746 141.916 373.997 141.866 374.216 141.765C374.435 141.664 374.606 141.525 374.73 141.346C374.853 141.168 374.915 140.962 374.915 140.729C374.915 140.493 374.849 140.285 374.717 140.103C374.587 139.919 374.4 139.775 374.156 139.672C373.914 139.568 373.626 139.516 373.292 139.516H372.468V138.144H373.292C373.574 138.144 373.823 138.095 374.039 137.997C374.258 137.899 374.428 137.764 374.548 137.591C374.669 137.415 374.73 137.211 374.73 136.978C374.73 136.756 374.676 136.562 374.57 136.395C374.466 136.226 374.32 136.093 374.13 135.998C373.943 135.903 373.724 135.856 373.474 135.856C373.22 135.856 372.989 135.902 372.779 135.994C372.569 136.083 372.4 136.211 372.274 136.378C372.147 136.545 372.079 136.741 372.071 136.965H370.279C370.288 136.456 370.433 136.007 370.715 135.618C370.997 135.23 371.377 134.926 371.855 134.708C372.335 134.486 372.878 134.375 373.482 134.375C374.092 134.375 374.626 134.486 375.084 134.708C375.541 134.929 375.897 135.228 376.15 135.605C376.406 135.979 376.533 136.4 376.53 136.866C376.533 137.361 376.379 137.774 376.068 138.105C375.76 138.436 375.359 138.646 374.864 138.735V138.804C375.514 138.887 376.009 139.113 376.348 139.482C376.691 139.847 376.861 140.305 376.858 140.854C376.861 141.358 376.715 141.805 376.422 142.197C376.131 142.588 375.73 142.896 375.218 143.121C374.705 143.345 374.118 143.457 373.456 143.457Z" fill="white"/>
<path d="M568.646 170.295V168.948L571.793 166.034C572.06 165.775 572.285 165.542 572.466 165.335C572.65 165.128 572.79 164.925 572.885 164.727C572.98 164.525 573.027 164.308 573.027 164.075C573.027 163.816 572.968 163.593 572.85 163.406C572.732 163.216 572.571 163.07 572.367 162.97C572.162 162.866 571.931 162.814 571.672 162.814C571.401 162.814 571.165 162.869 570.964 162.978C570.762 163.088 570.607 163.244 570.498 163.449C570.388 163.653 570.334 163.896 570.334 164.178H568.559C568.559 163.6 568.69 163.098 568.952 162.672C569.214 162.246 569.581 161.916 570.053 161.683C570.525 161.45 571.069 161.334 571.685 161.334C572.318 161.334 572.869 161.446 573.338 161.67C573.81 161.892 574.177 162.2 574.439 162.594C574.701 162.988 574.831 163.44 574.831 163.95C574.831 164.283 574.765 164.613 574.633 164.938C574.503 165.263 574.272 165.624 573.938 166.021C573.604 166.416 573.134 166.889 572.526 167.442L571.236 168.706V168.767H574.948V170.295H568.646ZM579.769 170.489C579.026 170.486 578.387 170.304 577.852 169.941C577.32 169.578 576.91 169.053 576.622 168.365C576.337 167.678 576.196 166.85 576.199 165.883C576.199 164.919 576.341 164.098 576.626 163.419C576.914 162.739 577.324 162.223 577.856 161.869C578.392 161.512 579.029 161.334 579.769 161.334C580.508 161.334 581.144 161.512 581.677 161.869C582.212 162.226 582.623 162.744 582.911 163.423C583.199 164.099 583.341 164.919 583.338 165.883C583.338 166.853 583.195 167.682 582.907 168.37C582.622 169.057 582.213 169.583 581.681 169.945C581.148 170.308 580.511 170.489 579.769 170.489ZM579.769 168.94C580.275 168.94 580.679 168.685 580.982 168.175C581.284 167.666 581.433 166.902 581.43 165.883C581.43 165.213 581.361 164.655 581.223 164.209C581.088 163.762 580.895 163.427 580.645 163.203C580.397 162.978 580.105 162.866 579.769 162.866C579.265 162.866 578.862 163.118 578.56 163.621C578.258 164.125 578.105 164.879 578.102 165.883C578.102 166.562 578.17 167.129 578.305 167.584C578.443 168.036 578.638 168.375 578.888 168.603C579.138 168.827 579.432 168.94 579.769 168.94Z" fill="white"/>
<mask id="mask6_21_864" style="mask-type:luminance" maskUnits="userSpaceOnUse" x="56" y="41" width="627" height="210">
<path d="M682.4 41.9429H56.9V250.655H682.4V41.9429Z" fill="white"/>
</mask>
<g mask="url(#mask6_21_864)">
<path d="M91.1561 151.517V128.906H235.56V151.517H91.1561Z" fill="#63C7FF"/>
</g>
<mask id="mask7_21_864" style="mask-type:luminance" maskUnits="userSpaceOnUse" x="56" y="41" width="627" height="210">
<path d="M682.4 41.9429H56.9V250.655H682.4V41.9429Z" fill="white"/>
</mask>
<g mask="url(#mask7_21_864)">
<path d="M297.448 114.992V74.989H441.852V114.992H297.448Z" fill="#63C7FF"/>
</g>
<mask id="mask8_21_864" style="mask-type:luminance" maskUnits="userSpaceOnUse" x="56" y="41" width="627" height="210">
<path d="M682.4 41.9429H56.9V250.655H682.4V41.9429Z" fill="white"/>
</mask>
<g mask="url(#mask8_21_864)">
<path d="M503.739 144.56V109.228H648.143V144.56H650.411H503.739Z" fill="#63C7FF"/>
</g>
<path d="M155.703 219.18V217.708L159.394 211.893H160.663V213.931H159.912L157.585 217.613V217.682H162.83V219.18H155.703ZM159.947 220.734V218.731L159.981 218.079V211.893H161.734V220.734H159.947ZM163.942 219.18V217.708L167.632 211.893H168.901V213.931H168.15L165.824 217.613V217.682H171.068V219.18H163.942ZM168.185 220.734V218.731L168.219 218.079V211.893H169.972V220.734H168.185Z" fill="white"/>
<path d="M365.761 211.289C365.151 211.289 364.607 211.176 364.13 210.952C363.655 210.727 363.278 210.418 362.999 210.024C362.72 209.63 362.574 209.178 362.563 208.668H364.376C364.396 209.011 364.54 209.289 364.807 209.502C365.075 209.714 365.393 209.821 365.761 209.821C366.055 209.821 366.314 209.756 366.538 209.627C366.766 209.494 366.943 209.312 367.069 209.078C367.199 208.843 367.263 208.572 367.263 208.267C367.263 207.956 367.197 207.683 367.065 207.447C366.935 207.211 366.756 207.027 366.525 206.894C366.295 206.762 366.032 206.694 365.735 206.691C365.476 206.691 365.225 206.745 364.98 206.851C364.738 206.958 364.55 207.103 364.414 207.287L362.753 206.989L363.171 202.327H368.576V203.855H364.712L364.484 206.07H364.535C364.691 205.851 364.925 205.67 365.239 205.526C365.553 205.382 365.904 205.31 366.292 205.31C366.825 205.31 367.299 205.435 367.717 205.686C368.134 205.936 368.463 206.28 368.705 206.717C368.947 207.152 369.066 207.653 369.063 208.219C369.066 208.815 368.928 209.345 368.649 209.808C368.373 210.268 367.986 210.631 367.488 210.896C366.993 211.158 366.417 211.289 365.761 211.289ZM373.596 211.289C372.986 211.289 372.442 211.176 371.964 210.952C371.489 210.727 371.112 210.418 370.833 210.024C370.554 209.63 370.409 209.178 370.397 208.668H372.21C372.23 209.011 372.374 209.289 372.642 209.502C372.91 209.714 373.228 209.821 373.596 209.821C373.889 209.821 374.148 209.756 374.373 209.627C374.6 209.494 374.777 209.312 374.904 209.078C375.033 208.843 375.098 208.572 375.098 208.267C375.098 207.956 375.032 207.683 374.9 207.447C374.77 207.211 374.59 207.027 374.36 206.894C374.13 206.762 373.866 206.694 373.57 206.691C373.311 206.691 373.059 206.745 372.815 206.851C372.573 206.958 372.384 207.103 372.249 207.287L370.587 206.989L371.006 202.327H376.41V203.855H372.547L372.318 206.07H372.37C372.525 205.851 372.76 205.67 373.074 205.526C373.387 205.382 373.738 205.31 374.127 205.31C374.659 205.31 375.134 205.435 375.551 205.686C375.969 205.936 376.298 206.28 376.54 206.717C376.782 207.152 376.901 207.653 376.898 208.219C376.901 208.815 376.763 209.345 376.484 209.808C376.207 210.268 375.82 210.631 375.323 210.896C374.828 211.158 374.252 211.289 373.596 211.289Z" fill="white"/>
<path d="M569.491 221.789V220.317L573.182 214.502H574.451V216.54H573.7L571.373 220.222V220.291H576.618V221.789H569.491ZM573.734 223.343V221.34L573.769 220.688V214.502H575.521V223.343H573.734ZM581.59 214.502V223.343H579.721V216.276H579.67L577.645 217.545V215.888L579.834 214.502H581.59Z" fill="white"/>
<path d="M160.941 139.714V148.554H159.072V141.488H159.02L156.995 142.757V141.099L159.184 139.714H160.941ZM166.31 148.675C165.665 148.675 165.091 148.564 164.587 148.342C164.087 148.118 163.691 147.81 163.4 147.419C163.112 147.024 162.964 146.57 162.956 146.055H164.838C164.849 146.27 164.92 146.46 165.049 146.624C165.181 146.786 165.357 146.911 165.576 147C165.794 147.089 166.04 147.134 166.314 147.134C166.599 147.134 166.851 147.083 167.069 146.983C167.288 146.882 167.459 146.742 167.583 146.564C167.707 146.386 167.769 146.18 167.769 145.947C167.769 145.711 167.702 145.502 167.57 145.321C167.441 145.137 167.253 144.993 167.009 144.889C166.767 144.786 166.479 144.734 166.146 144.734H165.321V143.361H166.146C166.428 143.361 166.676 143.312 166.892 143.214C167.111 143.116 167.281 142.981 167.402 142.809C167.523 142.633 167.583 142.429 167.583 142.196C167.583 141.974 167.53 141.78 167.423 141.613C167.32 141.443 167.173 141.311 166.983 141.216C166.796 141.121 166.577 141.073 166.327 141.073C166.074 141.073 165.842 141.119 165.632 141.211C165.422 141.301 165.253 141.429 165.127 141.596C165 141.762 164.933 141.958 164.924 142.183H163.133C163.141 141.673 163.287 141.224 163.569 140.836C163.851 140.447 164.23 140.144 164.708 139.925C165.189 139.703 165.731 139.593 166.335 139.593C166.946 139.593 167.479 139.703 167.937 139.925C168.394 140.147 168.75 140.446 169.003 140.823C169.259 141.197 169.386 141.617 169.383 142.083C169.386 142.578 169.232 142.991 168.921 143.322C168.613 143.653 168.212 143.863 167.717 143.952V144.022C168.367 144.105 168.862 144.331 169.202 144.699C169.544 145.065 169.714 145.522 169.711 146.072C169.714 146.576 169.569 147.023 169.275 147.414C168.984 147.806 168.583 148.114 168.071 148.338C167.559 148.563 166.971 148.675 166.31 148.675Z" fill="white"/>
<path d="M362.532 103.333V101.986L365.679 99.0728C365.947 98.8138 366.171 98.5807 366.352 98.3735C366.536 98.1663 366.676 97.9634 366.771 97.7648C366.866 97.5634 366.913 97.3461 366.913 97.113C366.913 96.854 366.854 96.631 366.736 96.444C366.618 96.254 366.457 96.1087 366.253 96.008C366.049 95.9044 365.817 95.8526 365.558 95.8526C365.288 95.8526 365.052 95.9073 364.85 96.0166C364.649 96.126 364.493 96.2828 364.384 96.4871C364.275 96.6914 364.22 96.9346 364.22 97.2166H362.446C362.446 96.6382 362.577 96.136 362.839 95.7101C363.1 95.2842 363.467 94.9547 363.939 94.7216C364.411 94.4885 364.955 94.372 365.571 94.372C366.204 94.372 366.755 94.4842 367.224 94.7087C367.696 94.9303 368.063 95.2382 368.325 95.6324C368.587 96.0267 368.718 96.4785 368.718 96.9878C368.718 97.3217 368.652 97.6512 368.519 97.9763C368.39 98.3015 368.158 98.6627 367.824 99.0598C367.49 99.4541 367.02 99.9275 366.413 100.48L365.122 101.745V101.805H368.834V103.333H362.532ZM373.456 103.454C372.812 103.454 372.238 103.343 371.734 103.122C371.233 102.897 370.838 102.589 370.547 102.198C370.259 101.804 370.111 101.349 370.102 100.834H371.984C371.996 101.05 372.066 101.24 372.196 101.404C372.328 101.565 372.504 101.69 372.723 101.779C372.941 101.868 373.187 101.913 373.461 101.913C373.746 101.913 373.997 101.863 374.216 101.762C374.435 101.661 374.606 101.522 374.73 101.343C374.853 101.165 374.915 100.959 374.915 100.726C374.915 100.49 374.849 100.281 374.717 100.1C374.587 99.9159 374.4 99.7721 374.156 99.6685C373.914 99.5649 373.626 99.5131 373.292 99.5131H372.468V98.1404H373.292C373.574 98.1404 373.823 98.0915 374.039 97.9936C374.258 97.8958 374.428 97.7605 374.548 97.5879C374.669 97.4123 374.73 97.208 374.73 96.9749C374.73 96.7533 374.676 96.5591 374.57 96.3922C374.466 96.2224 374.32 96.09 374.13 95.995C373.943 95.9001 373.724 95.8526 373.474 95.8526C373.22 95.8526 372.989 95.8986 372.779 95.9907C372.569 96.0799 372.4 96.208 372.274 96.3749C372.147 96.5418 372.079 96.7375 372.071 96.9619H370.279C370.288 96.4526 370.433 96.0037 370.715 95.6152C370.997 95.2267 371.377 94.9231 371.855 94.7044C372.335 94.4828 372.878 94.372 373.482 94.372C374.092 94.372 374.626 94.4828 375.084 94.7044C375.541 94.9259 375.897 95.2252 376.15 95.6022C376.406 95.9763 376.533 96.3965 376.53 96.8627C376.533 97.3576 376.379 97.7706 376.068 98.1015C375.76 98.4325 375.359 98.6425 374.864 98.7318V98.8008C375.514 98.8843 376.009 99.1102 376.348 99.4785C376.691 99.844 376.861 100.302 376.858 100.851C376.861 101.355 376.715 101.802 376.422 102.194C376.131 102.585 375.73 102.893 375.218 103.117C374.705 103.342 374.118 103.454 373.456 103.454Z" fill="white"/>
<path d="M568.646 135.51V134.163L571.793 131.249C572.06 130.99 572.285 130.757 572.466 130.55C572.65 130.343 572.79 130.14 572.885 129.941C572.98 129.74 573.027 129.523 573.027 129.29C573.027 129.031 572.968 128.808 572.85 128.62C572.732 128.431 572.571 128.285 572.367 128.184C572.162 128.081 571.931 128.029 571.672 128.029C571.401 128.029 571.165 128.084 570.964 128.193C570.762 128.302 570.607 128.459 570.498 128.664C570.388 128.868 570.334 129.111 570.334 129.393H568.559C568.559 128.815 568.69 128.313 568.952 127.887C569.214 127.461 569.581 127.131 570.053 126.898C570.525 126.665 571.069 126.548 571.685 126.548C572.318 126.548 572.869 126.661 573.338 126.885C573.81 127.107 574.177 127.415 574.439 127.809C574.701 128.203 574.831 128.655 574.831 129.164C574.831 129.498 574.765 129.828 574.633 130.153C574.503 130.478 574.272 130.839 573.938 131.236C573.604 131.631 573.134 132.104 572.526 132.656L571.236 133.921V133.982H574.948V135.51H568.646ZM579.769 135.704C579.026 135.701 578.387 135.518 577.852 135.156C577.32 134.793 576.91 134.268 576.622 133.58C576.337 132.892 576.196 132.065 576.199 131.098C576.199 130.134 576.341 129.313 576.626 128.633C576.914 127.954 577.324 127.438 577.856 127.084C578.392 126.727 579.029 126.548 579.769 126.548C580.508 126.548 581.144 126.727 581.677 127.084C582.212 127.441 582.623 127.959 582.911 128.638C583.199 129.314 583.341 130.134 583.338 131.098C583.338 132.068 583.195 132.897 582.907 133.585C582.622 134.272 582.213 134.798 581.681 135.16C581.148 135.523 580.511 135.704 579.769 135.704ZM579.769 134.154C580.275 134.154 580.679 133.9 580.982 133.39C581.284 132.881 581.433 132.117 581.43 131.098C581.43 130.428 581.361 129.869 581.223 129.423C581.088 128.977 580.895 128.642 580.645 128.418C580.397 128.193 580.105 128.081 579.769 128.081C579.265 128.081 578.862 128.333 578.56 128.836C578.258 129.34 578.105 130.094 578.102 131.098C578.102 131.777 578.17 132.344 578.305 132.799C578.443 133.251 578.638 133.59 578.888 133.818C579.138 134.042 579.432 134.154 579.769 134.154Z" fill="white"/>
<path d="M25.9437 36.4229V46H24.784V37.6387H24.7279L22.3897 39.1913V38.0128L24.784 36.4229H25.9437ZM28.6981 46V45.1583L31.8593 41.6978C32.2302 41.2925 32.5358 40.9402 32.7758 40.6409C33.0159 40.3385 33.1936 40.0548 33.3089 39.7898C33.4274 39.5217 33.4866 39.2412 33.4866 38.9481C33.4866 38.6114 33.4056 38.3199 33.2435 38.0736C33.0845 37.8274 32.8662 37.6372 32.5888 37.5031C32.3113 37.3691 31.9996 37.302 31.6535 37.302C31.2856 37.302 30.9645 37.3784 30.6902 37.5312C30.419 37.6808 30.2085 37.8913 30.0589 38.1625C29.9124 38.4337 29.8391 38.7517 29.8391 39.1165H28.7355C28.7355 38.5553 28.8649 38.0627 29.1236 37.6387C29.3824 37.2148 29.7347 36.8843 30.1805 36.6474C30.6294 36.4104 31.1329 36.292 31.6909 36.292C32.2521 36.292 32.7493 36.4104 33.1827 36.6474C33.616 36.8843 33.9558 37.2038 34.2021 37.606C34.4484 38.0082 34.5715 38.4555 34.5715 38.9481C34.5715 39.3004 34.5076 39.6449 34.3798 39.9816C34.2551 40.3152 34.0369 40.6877 33.7251 41.0992C33.4165 41.5076 32.9878 42.0064 32.4391 42.5956L30.288 44.8964V44.9712H34.7399V46H28.6981ZM39.795 46.1309C39.0904 46.1309 38.4903 45.9392 37.9946 45.5557C37.4989 45.1692 37.1201 44.6096 36.8582 43.877C36.5964 43.1412 36.4654 42.2527 36.4654 41.2114C36.4654 40.1764 36.5964 39.2926 36.8582 38.56C37.1232 37.8242 37.5036 37.2631 37.9993 36.8765C38.4981 36.4868 39.0966 36.292 39.795 36.292C40.4933 36.292 41.0903 36.4868 41.586 36.8765C42.0848 37.2631 42.4652 37.8242 42.727 38.56C42.992 39.2926 43.1245 40.1764 43.1245 41.2114C43.1245 42.2527 42.9936 43.1412 42.7317 43.877C42.4698 44.6096 42.091 45.1692 41.5954 45.5557C41.0997 45.9392 40.4995 46.1309 39.795 46.1309ZM39.795 45.1021C40.4933 45.1021 41.0358 44.7655 41.4223 44.0921C41.8089 43.4187 42.0022 42.4585 42.0022 41.2114C42.0022 40.3822 41.9133 39.6761 41.7356 39.0931C41.5611 38.5101 41.3085 38.0658 40.9781 37.7603C40.6507 37.4548 40.2564 37.302 39.795 37.302C39.1029 37.302 38.562 37.6434 38.1723 38.3262C37.7826 39.0058 37.5878 39.9675 37.5878 41.2114C37.5878 42.0407 37.675 42.7453 37.8496 43.3251C38.0242 43.905 38.2752 44.3461 38.6025 44.6485C38.933 44.9509 39.3305 45.1021 39.795 45.1021Z" fill="#373D3F"/>
<path d="M31.5026 88.4699C31.8955 88.473 32.2883 88.5478 32.6811 88.6943C33.0739 88.8409 33.4324 89.084 33.7566 89.4238C34.0809 89.7605 34.3412 90.2204 34.5376 90.8034C34.734 91.3863 34.8322 92.1174 34.8322 92.9966C34.8322 93.8476 34.7511 94.6036 34.589 95.2646C34.43 95.9224 34.1993 96.4773 33.8969 96.9293C33.5976 97.3814 33.2329 97.7243 32.8027 97.9581C32.3756 98.1919 31.8923 98.3089 31.353 98.3089C30.8168 98.3089 30.3382 98.2029 29.9174 97.9909C29.4996 97.7758 29.1567 97.478 28.8886 97.0977C28.6236 96.7142 28.4537 96.27 28.3789 95.7649H29.5199C29.6228 96.2045 29.827 96.5677 30.1325 96.8545C30.4411 97.1382 30.848 97.2801 31.353 97.2801C32.0919 97.2801 32.6748 96.9574 33.1019 96.3121C33.5322 95.6667 33.7473 94.7549 33.7473 93.5764H33.6725C33.4979 93.8383 33.2906 94.0643 33.0505 94.2545C32.8105 94.4447 32.5439 94.5912 32.2509 94.6941C31.9578 94.7969 31.6461 94.8484 31.3156 94.8484C30.7669 94.8484 30.2634 94.7128 29.8051 94.4415C29.35 94.1672 28.9852 93.7915 28.7109 93.3145C28.4397 92.8344 28.304 92.2858 28.304 91.6685C28.304 91.0824 28.435 90.5462 28.6969 90.0598C28.9618 89.5704 29.3328 89.1807 29.8098 88.8907C30.2899 88.6008 30.8542 88.4605 31.5026 88.4699ZM31.5026 89.4987C31.1098 89.4987 30.756 89.5969 30.4411 89.7933C30.1294 89.9866 29.8815 90.2484 29.6976 90.5789C29.5168 90.9062 29.4264 91.2694 29.4264 91.6685C29.4264 92.0675 29.5137 92.4307 29.6882 92.7581C29.8659 93.0823 30.1075 93.341 30.4131 93.5343C30.7217 93.7245 31.0724 93.8196 31.4652 93.8196C31.7614 93.8196 32.0373 93.7619 32.2929 93.6466C32.5486 93.5281 32.7715 93.3675 32.9617 93.1649C33.1549 92.9591 33.3061 92.7269 33.4153 92.4681C33.5244 92.2063 33.5789 91.9335 33.5789 91.6498C33.5789 91.2757 33.4885 90.9249 33.3077 90.5976C33.13 90.2703 32.8837 90.0053 32.5688 89.8026C32.2571 89.6 31.9017 89.4987 31.5026 89.4987ZM39.7949 98.3089C39.0904 98.3089 38.4902 98.1171 37.9945 97.7337C37.4989 97.3471 37.1201 96.7875 36.8582 96.0549C36.5963 95.3191 36.4654 94.4306 36.4654 93.3894C36.4654 92.3543 36.5963 91.4705 36.8582 90.7379C37.1232 90.0022 37.5035 89.441 37.9992 89.0544C38.498 88.6647 39.0966 88.4699 39.7949 88.4699C40.4933 88.4699 41.0903 88.6647 41.586 89.0544C42.0848 89.441 42.4651 90.0022 42.727 90.7379C42.992 91.4705 43.1245 92.3543 43.1245 93.3894C43.1245 94.4306 42.9935 95.3191 42.7317 96.0549C42.4698 96.7875 42.091 97.3471 41.5953 97.7337C41.0996 98.1171 40.4995 98.3089 39.7949 98.3089ZM39.7949 97.2801C40.4933 97.2801 41.0357 96.9434 41.4223 96.27C41.8089 95.5966 42.0022 94.6364 42.0022 93.3894C42.0022 92.5601 41.9133 91.854 41.7356 91.271C41.561 90.688 41.3085 90.2438 40.978 89.9382C40.6507 89.6327 40.2563 89.48 39.7949 89.48C39.1028 89.48 38.5619 89.8213 38.1723 90.5041C37.7826 91.1837 37.5877 92.1455 37.5877 93.3894C37.5877 94.2186 37.675 94.9232 37.8496 95.5031C38.0242 96.0829 38.2751 96.5241 38.6025 96.8265C38.9329 97.1289 39.3304 97.2801 39.7949 97.2801Z" fill="#373D3F"/>
<path d="M31.6336 150.487C31.2408 150.481 30.848 150.406 30.4552 150.262C30.0623 150.119 29.7038 149.877 29.3796 149.538C29.0554 149.195 28.7951 148.732 28.5987 148.149C28.4022 147.563 28.304 146.827 28.304 145.942C28.304 145.094 28.3835 144.342 28.5425 143.688C28.7015 143.03 28.9322 142.476 29.2346 142.027C29.537 141.575 29.9018 141.232 30.3289 140.999C30.7591 140.765 31.2439 140.648 31.7832 140.648C32.3194 140.648 32.7964 140.755 33.2142 140.971C33.635 141.183 33.978 141.479 34.243 141.859C34.508 142.239 34.6794 142.677 34.7574 143.173H33.6163C33.5103 142.743 33.3046 142.386 32.9991 142.102C32.6936 141.819 32.2883 141.677 31.7832 141.677C31.0413 141.677 30.4567 141.999 30.0296 142.645C29.6056 143.29 29.3921 144.196 29.389 145.362H29.4638C29.6384 145.097 29.8457 144.871 30.0857 144.684C30.3289 144.493 30.597 144.347 30.89 144.244C31.1831 144.141 31.4933 144.09 31.8206 144.09C32.3693 144.09 32.8713 144.227 33.3264 144.501C33.7816 144.772 34.1463 145.148 34.4207 145.628C34.695 146.105 34.8322 146.652 34.8322 147.27C34.8322 147.862 34.6997 148.404 34.4347 148.897C34.1697 149.386 33.7972 149.776 33.3171 150.066C32.8401 150.353 32.2789 150.493 31.6336 150.487ZM31.6336 149.458C32.0264 149.458 32.3787 149.36 32.6904 149.163C33.0053 148.967 33.2532 148.704 33.434 148.373C33.6179 148.043 33.7099 147.675 33.7099 147.27C33.7099 146.874 33.621 146.514 33.4433 146.189C33.2687 145.862 33.0271 145.602 32.7185 145.408C32.413 145.215 32.0638 145.118 31.671 145.118C31.3748 145.118 31.0989 145.178 30.8433 145.296C30.5876 145.412 30.3632 145.571 30.1699 145.773C29.9797 145.976 29.8301 146.208 29.721 146.47C29.6119 146.729 29.5573 147.001 29.5573 147.288C29.5573 147.669 29.6461 148.024 29.8238 148.354C30.0047 148.685 30.251 148.952 30.5627 149.154C30.8776 149.357 31.2345 149.458 31.6336 149.458ZM39.7949 150.487C39.0904 150.487 38.4902 150.295 37.9945 149.912C37.4989 149.525 37.1201 148.966 36.8582 148.233C36.5963 147.497 36.4654 146.609 36.4654 145.567C36.4654 144.532 36.5963 143.649 36.8582 142.916C37.1232 142.18 37.5035 141.619 37.9992 141.232C38.498 140.843 39.0966 140.648 39.7949 140.648C40.4933 140.648 41.0903 140.843 41.586 141.232C42.0848 141.619 42.4651 142.18 42.727 142.916C42.992 143.649 43.1245 144.532 43.1245 145.567C43.1245 146.609 42.9935 147.497 42.7317 148.233C42.4698 148.966 42.091 149.525 41.5953 149.912C41.0996 150.295 40.4995 150.487 39.7949 150.487ZM39.7949 149.458C40.4933 149.458 41.0357 149.121 41.4223 148.448C41.8089 147.775 42.0022 146.814 42.0022 145.567C42.0022 144.738 41.9133 144.032 41.7356 143.449C41.561 142.866 41.3085 142.422 40.978 142.116C40.6507 141.811 40.2563 141.658 39.7949 141.658C39.1028 141.658 38.5619 141.999 38.1723 142.682C37.7826 143.362 37.5877 144.324 37.5877 145.567C37.5877 146.397 37.675 147.101 37.8496 147.681C38.0242 148.261 38.2751 148.702 38.6025 149.005C38.9329 149.307 39.3304 149.458 39.7949 149.458Z" fill="#373D3F"/>
<path d="M31.5225 202.665C30.9052 202.665 30.355 202.559 29.8718 202.347C29.3917 202.135 29.0098 201.84 28.7261 201.463C28.4455 201.083 28.2927 200.641 28.2678 200.14H29.4462C29.4712 200.448 29.5772 200.715 29.7642 200.939C29.9513 201.161 30.196 201.332 30.4984 201.454C30.8008 201.575 31.1359 201.636 31.5038 201.636C31.9153 201.636 32.2801 201.564 32.5981 201.421C32.9161 201.277 33.1655 201.078 33.3463 200.822C33.5271 200.567 33.6175 200.27 33.6175 199.934C33.6175 199.581 33.5302 199.271 33.3556 199.003C33.1811 198.732 32.9254 198.52 32.5887 198.367C32.252 198.214 31.8405 198.138 31.3542 198.138H30.5873V197.109H31.3542C31.7345 197.109 32.0681 197.041 32.3549 196.904C32.6448 196.766 32.8709 196.573 33.033 196.324C33.1982 196.074 33.2808 195.781 33.2808 195.445C33.2808 195.12 33.2091 194.838 33.0657 194.598C32.9223 194.358 32.7197 194.171 32.4578 194.037C32.199 193.903 31.8935 193.836 31.5412 193.836C31.2108 193.836 30.899 193.897 30.606 194.018C30.316 194.137 30.0791 194.31 29.8952 194.537C29.7112 194.762 29.6115 195.033 29.5959 195.351H28.4736C28.4923 194.849 28.6435 194.409 28.9272 194.032C29.2109 193.652 29.5818 193.356 30.0401 193.144C30.5015 192.932 31.0081 192.826 31.5599 192.826C32.1523 192.826 32.6604 192.946 33.0844 193.186C33.5084 193.423 33.8342 193.736 34.0618 194.126C34.2893 194.515 34.4031 194.936 34.4031 195.388C34.4031 195.928 34.2613 196.388 33.9776 196.768C33.697 197.148 33.3151 197.412 32.8319 197.558V197.633C33.4367 197.733 33.909 197.99 34.2488 198.405C34.5886 198.816 34.7585 199.326 34.7585 199.934C34.7585 200.454 34.6167 200.922 34.333 201.337C34.0524 201.748 33.669 202.072 33.1826 202.309C32.6963 202.546 32.1429 202.665 31.5225 202.665ZM39.7949 202.665C39.0904 202.665 38.4902 202.473 37.9945 202.09C37.4989 201.703 37.1201 201.143 36.8582 200.411C36.5963 199.675 36.4654 198.787 36.4654 197.745C36.4654 196.71 36.5963 195.826 36.8582 195.094C37.1232 194.358 37.5035 193.797 37.9992 193.41C38.498 193.021 39.0966 192.826 39.7949 192.826C40.4933 192.826 41.0903 193.021 41.586 193.41C42.0848 193.797 42.4651 194.358 42.727 195.094C42.992 195.826 43.1245 196.71 43.1245 197.745C43.1245 198.787 42.9935 199.675 42.7317 200.411C42.4698 201.143 42.091 201.703 41.5953 202.09C41.0996 202.473 40.4995 202.665 39.7949 202.665ZM39.7949 201.636C40.4933 201.636 41.0357 201.299 41.4223 200.626C41.8089 199.952 42.0022 198.992 42.0022 197.745C42.0022 196.916 41.9133 196.21 41.7356 195.627C41.561 195.044 41.3085 194.6 40.978 194.294C40.6507 193.989 40.2563 193.836 39.7949 193.836C39.1028 193.836 38.5619 194.177 38.1723 194.86C37.7826 195.54 37.5877 196.501 37.5877 197.745C37.5877 198.575 37.675 199.279 37.8496 199.859C38.0242 200.439 38.2751 200.88 38.6025 201.182C38.9329 201.485 39.3304 201.636 39.7949 201.636Z" fill="#373D3F"/>
<path d="M39.7952 254.843C39.0906 254.843 38.4905 254.651 37.9948 254.267C37.4991 253.881 37.1203 253.321 36.8585 252.589C36.5966 251.853 36.4656 250.964 36.4656 249.923C36.4656 248.888 36.5966 248.004 36.8585 247.272C37.1235 246.536 37.5038 245.975 37.9995 245.588C38.4983 245.198 39.0969 245.004 39.7952 245.004C40.4935 245.004 41.0905 245.198 41.5862 245.588C42.085 245.975 42.4654 246.536 42.7272 247.272C42.9922 248.004 43.1247 248.888 43.1247 249.923C43.1247 250.964 42.9938 251.853 42.7319 252.589C42.47 253.321 42.0913 253.881 41.5956 254.267C41.0999 254.651 40.4998 254.843 39.7952 254.843ZM39.7952 253.814C40.4935 253.814 41.036 253.477 41.4225 252.804C41.8091 252.13 42.0024 251.17 42.0024 249.923C42.0024 249.094 41.9136 248.388 41.7359 247.805C41.5613 247.222 41.3088 246.778 40.9783 246.472C40.651 246.166 40.2566 246.014 39.7952 246.014C39.1031 246.014 38.5622 246.355 38.1725 247.038C37.7828 247.717 37.588 248.679 37.588 249.923C37.588 250.752 37.6753 251.457 37.8498 252.037C38.0244 252.617 38.2754 253.058 38.6027 253.36C38.9332 253.663 39.3307 253.814 39.7952 253.814Z" fill="#373D3F"/>
</svg>