<svg width="341" height="422" viewBox="0 0 341 422" fill="none" xmlns="http://www.w3.org/2000/svg">
<rect width="341" height="422" rx="7" fill="#F7FAFF" fill-opacity="0.7"/>
<path d="M25.9264 46.3366V45.5876C25.9264 45.0188 26.0466 44.4963 26.2871 44.0201C26.5321 43.5392 26.8858 43.1554 27.3482 42.8687C27.8152 42.5774 28.384 42.4318 29.0544 42.4318C29.7342 42.4318 30.3052 42.5751 30.7676 42.8618C31.2346 43.1485 31.586 43.5323 31.8218 44.0132C32.0623 44.4894 32.1825 45.0142 32.1825 45.5876V46.3366C32.1825 46.9054 32.0623 47.4302 31.8218 47.9111C31.5814 48.3873 31.2277 48.7688 30.7607 49.0555C30.2936 49.3468 29.7249 49.4924 29.0544 49.4924C28.3747 49.4924 27.8037 49.3468 27.3413 49.0555C26.8789 48.7688 26.5275 48.3873 26.2871 47.9111C26.0466 47.4302 25.9264 46.9054 25.9264 46.3366ZM27.9447 45.5876V46.3366C27.9447 46.6649 28.0233 46.9747 28.1805 47.266C28.3424 47.5574 28.6337 47.703 29.0544 47.703C29.4752 47.703 29.7619 47.5597 29.9145 47.273C30.0717 46.9863 30.1503 46.6742 30.1503 46.3366V45.5876C30.1503 45.25 30.0763 44.9356 29.9284 44.6443C29.7804 44.353 29.4891 44.2074 29.0544 44.2074C28.6383 44.2074 28.3493 44.353 28.1875 44.6443C28.0256 44.9356 27.9447 45.25 27.9447 45.5876ZM18.6369 38.2079V37.4588C18.6369 36.8854 18.7594 36.3606 19.0045 35.8844C19.2495 35.4035 19.6032 35.0197 20.0656 34.733C20.5326 34.4464 21.0968 34.303 21.758 34.303C22.4423 34.303 23.0157 34.4464 23.478 34.733C23.9404 35.0197 24.2919 35.4035 24.5323 35.8844C24.7727 36.3606 24.893 36.8854 24.893 37.4588V38.2079C24.893 38.7812 24.7704 39.306 24.5254 39.7823C24.2849 40.2586 23.9312 40.64 23.4642 40.9267C23.0018 41.2088 22.4331 41.3498 21.758 41.3498C21.0829 41.3498 20.5118 41.2065 20.0448 40.9198C19.5824 40.6285 19.231 40.247 18.9906 39.7754C18.7548 39.2991 18.6369 38.7766 18.6369 38.2079ZM20.669 37.4588V38.2079C20.669 38.5454 20.7477 38.8575 20.9049 39.1442C21.0667 39.4309 21.3511 39.5742 21.758 39.5742C22.1834 39.5742 22.4724 39.4309 22.6249 39.1442C22.7822 38.8575 22.8608 38.5454 22.8608 38.2079V37.4588C22.8608 37.1213 22.7868 36.8068 22.6388 36.5155C22.4909 36.2242 22.1972 36.0786 21.758 36.0786C21.3464 36.0786 21.0621 36.2265 20.9049 36.5225C20.7477 36.8184 20.669 37.1305 20.669 37.4588ZM19.5524 49L29.318 34.7955H31.1352L21.3696 49H19.5524ZM39.5397 34.7955H43.2434L47.1552 44.3391H47.3216L51.2334 34.7955H54.9372V49H52.0241V39.7546H51.9062L48.2302 48.9306H46.2466L42.5706 39.7199H42.4527V49H39.5397V34.7955ZM62.2111 49.2081C61.1152 49.2081 60.172 48.9861 59.3813 48.5422C58.5952 48.0937 57.9895 47.4602 57.5641 46.6418C57.1387 45.8188 56.926 44.8454 56.926 43.7218C56.926 42.626 57.1387 41.6642 57.5641 40.8365C57.9895 40.0089 58.5883 39.3638 59.3605 38.9015C60.1373 38.4391 61.0482 38.2079 62.0932 38.2079C62.796 38.2079 63.4503 38.3212 64.056 38.5477C64.6664 38.7697 65.1981 39.1049 65.6513 39.5534C66.109 40.0019 66.4651 40.5661 66.7194 41.2458C66.9737 41.9208 67.1008 42.7115 67.1008 43.6178V44.4293H58.1051V42.5982H64.3196C64.3196 42.1728 64.2271 41.796 64.0422 41.4677C63.8572 41.1394 63.6006 40.8828 63.2723 40.6978C62.9486 40.5083 62.5718 40.4135 62.1417 40.4135C61.6932 40.4135 61.2956 40.5175 60.9488 40.7256C60.6066 40.929 60.3384 41.2041 60.1442 41.5509C59.95 41.8931 59.8506 42.2746 59.846 42.6953V44.4362C59.846 44.9634 59.9431 45.4188 60.1373 45.8026C60.3361 46.1864 60.6159 46.4823 60.9765 46.6904C61.3372 46.8984 61.7649 47.0025 62.2596 47.0025C62.5879 47.0025 62.8885 46.9562 63.1613 46.8638C63.4341 46.7713 63.6676 46.6326 63.8618 46.4476C64.056 46.2627 64.204 46.0361 64.3057 45.7679L67.0384 45.9482C66.8997 46.6048 66.6153 47.1782 66.1853 47.6683C65.7599 48.1538 65.2097 48.533 64.5346 48.8058C63.8641 49.074 63.0896 49.2081 62.2111 49.2081ZM74.6956 38.3466V40.5661H68.2799V38.3466H74.6956ZM69.7365 35.7942H72.6911V45.7263C72.6911 45.9991 72.7327 46.2118 72.816 46.3644C72.8992 46.5124 73.0148 46.6164 73.1627 46.6765C73.3153 46.7366 73.491 46.7667 73.6899 46.7667C73.8286 46.7667 73.9673 46.7551 74.106 46.732C74.2447 46.7042 74.3511 46.6834 74.4251 46.6696L74.8898 48.8682C74.7418 48.9145 74.5337 48.9676 74.2655 49.0277C73.9974 49.0925 73.6714 49.1318 73.2876 49.1457C72.5755 49.1734 71.9513 49.0786 71.4149 48.8613C70.8832 48.644 70.4693 48.3064 70.1734 47.8487C69.8775 47.3909 69.7318 46.8129 69.7365 46.1147V35.7942ZM79.6581 49.2011C78.9784 49.2011 78.3727 49.0832 77.841 48.8474C77.3092 48.607 76.8884 48.2532 76.5786 47.7862C76.2735 47.3146 76.1209 46.7274 76.1209 46.0245C76.1209 45.4327 76.2295 44.9356 76.4469 44.5333C76.6642 44.1311 76.9601 43.8074 77.3346 43.5623C77.7092 43.3173 78.1346 43.1323 78.6108 43.0075C79.0917 42.8826 79.5957 42.7948 80.1228 42.7439C80.7424 42.6792 81.2418 42.6191 81.621 42.5636C82.0001 42.5035 82.2753 42.4156 82.4463 42.3C82.6174 42.1844 82.703 42.0133 82.703 41.7868V41.7451C82.703 41.3059 82.5642 40.966 82.2868 40.7256C82.014 40.4851 81.6256 40.3649 81.1216 40.3649C80.5898 40.3649 80.1668 40.4828 79.8523 40.7186C79.5379 40.9498 79.3298 41.2411 79.2281 41.5926L76.4954 41.3706C76.6341 40.7233 76.9069 40.1638 77.3138 39.6921C77.7207 39.2159 78.2455 38.8506 78.8883 38.5963C79.5356 38.3373 80.2847 38.2079 81.1355 38.2079C81.7273 38.2079 82.2937 38.2772 82.8347 38.4159C83.3804 38.5547 83.8636 38.7697 84.2843 39.061C84.7097 39.3523 85.045 39.7268 85.29 40.1846C85.5351 40.6377 85.6576 41.181 85.6576 41.8145V49H82.8555V47.5227H82.7723C82.6012 47.8556 82.3724 48.1492 82.0857 48.4035C81.799 48.6532 81.4545 48.8497 81.0522 48.9931C80.65 49.1318 80.1853 49.2011 79.6581 49.2011ZM80.5043 47.162C80.939 47.162 81.3227 47.0765 81.6557 46.9054C81.9886 46.7297 82.2498 46.4939 82.4394 46.1979C82.629 45.902 82.7238 45.5668 82.7238 45.1922V44.0617C82.6313 44.1218 82.5041 44.1773 82.3423 44.2282C82.1851 44.2744 82.0071 44.3183 81.8082 44.3599C81.6094 44.3969 81.4106 44.4316 81.2118 44.464C81.0129 44.4917 80.8326 44.5172 80.6708 44.5403C80.324 44.5911 80.0211 44.6721 79.7622 44.783C79.5032 44.894 79.3021 45.0443 79.1588 45.2339C79.0154 45.4188 78.9437 45.65 78.9437 45.9274C78.9437 46.3297 79.0894 46.6372 79.3807 46.8499C79.6766 47.058 80.0512 47.162 80.5043 47.162ZM96.8139 41.3845L94.1089 41.5509C94.0627 41.3197 93.9633 41.1117 93.8107 40.9267C93.6581 40.7371 93.4569 40.5869 93.2072 40.4759C92.9622 40.3603 92.6686 40.3025 92.3264 40.3025C91.8686 40.3025 91.4825 40.3996 91.1681 40.5938C90.8537 40.7834 90.6965 41.0377 90.6965 41.3567C90.6965 41.611 90.7982 41.8261 91.0017 42.0018C91.2051 42.1775 91.5542 42.3185 92.049 42.4248L93.9771 42.8133C95.0129 43.026 95.7851 43.3681 96.2937 43.8398C96.8023 44.3114 97.0566 44.931 97.0566 45.6986C97.0566 46.3968 96.8509 47.0094 96.4393 47.5365C96.0324 48.0637 95.4729 48.4752 94.7609 48.7711C94.0534 49.0624 93.2373 49.2081 92.3125 49.2081C90.9022 49.2081 89.7786 48.9145 88.9417 48.3272C88.1094 47.7354 87.6216 46.9308 87.4783 45.9136L90.3844 45.761C90.4722 46.191 90.6849 46.5193 91.0225 46.7459C91.36 46.9678 91.7923 47.0788 92.3195 47.0788C92.8373 47.0788 93.2535 46.9794 93.5679 46.7805C93.887 46.5771 94.0488 46.3158 94.0534 45.9968C94.0488 45.7286 93.9355 45.509 93.7136 45.3379C93.4916 45.1622 93.1494 45.0281 92.6871 44.9356L90.8421 44.568C89.8018 44.3599 89.0273 43.9993 88.5186 43.486C88.0146 42.9728 87.7626 42.3185 87.7626 41.5232C87.7626 40.8389 87.9476 40.2493 88.3175 39.7546C88.692 39.2598 89.2168 38.8783 89.8919 38.6102C90.5716 38.342 91.3669 38.2079 92.2778 38.2079C93.6234 38.2079 94.6823 38.4922 95.4545 39.061C96.2313 39.6297 96.6844 40.4042 96.8139 41.3845ZM106.475 49.2011C105.796 49.2011 105.19 49.0832 104.658 48.8474C104.127 48.607 103.706 48.2532 103.396 47.7862C103.091 47.3146 102.938 46.7274 102.938 46.0245C102.938 45.4327 103.047 44.9356 103.264 44.5333C103.481 44.1311 103.777 43.8074 104.152 43.5623C104.526 43.3173 104.952 43.1323 105.428 43.0075C105.909 42.8826 106.413 42.7948 106.94 42.7439C107.56 42.6792 108.059 42.6191 108.438 42.5636C108.817 42.5035 109.093 42.4156 109.264 42.3C109.435 42.1844 109.52 42.0133 109.52 41.7868V41.7451C109.52 41.3059 109.382 40.966 109.104 40.7256C108.831 40.4851 108.443 40.3649 107.939 40.3649C107.407 40.3649 106.984 40.4828 106.67 40.7186C106.355 40.9498 106.147 41.2411 106.045 41.5926L103.313 41.3706C103.451 40.7233 103.724 40.1638 104.131 39.6921C104.538 39.2159 105.063 38.8506 105.706 38.5963C106.353 38.3373 107.102 38.2079 107.953 38.2079C108.545 38.2079 109.111 38.2772 109.652 38.4159C110.198 38.5547 110.681 38.7697 111.102 39.061C111.527 39.3523 111.862 39.7268 112.107 40.1846C112.352 40.6377 112.475 41.181 112.475 41.8145V49H109.673V47.5227H109.59C109.419 47.8556 109.19 48.1492 108.903 48.4035C108.616 48.6532 108.272 48.8497 107.87 48.9931C107.467 49.1318 107.003 49.2011 106.475 49.2011ZM107.322 47.162C107.756 47.162 108.14 47.0765 108.473 46.9054C108.806 46.7297 109.067 46.4939 109.257 46.1979C109.446 45.902 109.541 45.5668 109.541 45.1922V44.0617C109.449 44.1218 109.321 44.1773 109.16 44.2282C109.002 44.2744 108.824 44.3183 108.626 44.3599C108.427 44.3969 108.228 44.4316 108.029 44.464C107.83 44.4917 107.65 44.5172 107.488 44.5403C107.141 44.5911 106.838 44.6721 106.579 44.783C106.321 44.894 106.119 45.0443 105.976 45.2339C105.833 45.4188 105.761 45.65 105.761 45.9274C105.761 46.3297 105.907 46.6372 106.198 46.8499C106.494 47.058 106.868 47.162 107.322 47.162ZM117.722 34.7955V49H114.767V34.7955H117.722ZM124.902 49.2081C123.811 49.2081 122.872 48.9769 122.086 48.5145C121.305 48.0475 120.704 47.4001 120.283 46.5725C119.867 45.7448 119.659 44.7923 119.659 43.7149C119.659 42.6237 119.869 41.6665 120.29 40.8435C120.715 40.0158 121.319 39.3708 122.1 38.9084C122.882 38.4414 123.811 38.2079 124.888 38.2079C125.818 38.2079 126.632 38.3766 127.33 38.7142C128.028 39.0517 128.58 39.5257 128.987 40.136C129.394 40.7464 129.619 41.4631 129.66 42.2861H126.872C126.793 41.7544 126.585 41.3267 126.248 41.003C125.915 40.6747 125.478 40.5106 124.937 40.5106C124.479 40.5106 124.079 40.6354 123.737 40.8851C123.399 41.1302 123.136 41.4885 122.946 41.9601C122.757 42.4318 122.662 43.0028 122.662 43.6733C122.662 44.353 122.754 44.931 122.939 45.4072C123.129 45.8835 123.395 46.2465 123.737 46.4962C124.079 46.7459 124.479 46.8707 124.937 46.8707C125.274 46.8707 125.577 46.8013 125.845 46.6626C126.118 46.5239 126.343 46.3228 126.518 46.0592C126.699 45.791 126.816 45.4697 126.872 45.0951H129.66C129.614 45.9089 129.392 46.6256 128.994 47.2452C128.601 47.8602 128.058 48.3411 127.364 48.6879C126.671 49.0347 125.85 49.2081 124.902 49.2081ZM134.59 49.2011C133.91 49.2011 133.304 49.0832 132.773 48.8474C132.241 48.607 131.82 48.2532 131.51 47.7862C131.205 47.3146 131.053 46.7274 131.053 46.0245C131.053 45.4327 131.161 44.9356 131.378 44.5333C131.596 44.1311 131.892 43.8074 132.266 43.5623C132.641 43.3173 133.066 43.1323 133.542 43.0075C134.023 42.8826 134.527 42.7948 135.054 42.7439C135.674 42.6792 136.173 42.6191 136.553 42.5636C136.932 42.5035 137.207 42.4156 137.378 42.3C137.549 42.1844 137.635 42.0133 137.635 41.7868V41.7451C137.635 41.3059 137.496 40.966 137.218 40.7256C136.946 40.4851 136.557 40.3649 136.053 40.3649C135.521 40.3649 135.098 40.4828 134.784 40.7186C134.47 40.9498 134.261 41.2411 134.16 41.5926L131.427 41.3706C131.566 40.7233 131.839 40.1638 132.245 39.6921C132.652 39.2159 133.177 38.8506 133.82 38.5963C134.467 38.3373 135.216 38.2079 136.067 38.2079C136.659 38.2079 137.225 38.2772 137.766 38.4159C138.312 38.5547 138.795 38.7697 139.216 39.061C139.641 39.3523 139.977 39.7268 140.222 40.1846C140.467 40.6377 140.589 41.181 140.589 41.8145V49H137.787V47.5227H137.704C137.533 47.8556 137.304 48.1492 137.017 48.4035C136.731 48.6532 136.386 48.8497 135.984 48.9931C135.582 49.1318 135.117 49.2011 134.59 49.2011ZM135.436 47.162C135.871 47.162 136.254 47.0765 136.587 46.9054C136.92 46.7297 137.181 46.4939 137.371 46.1979C137.561 45.902 137.655 45.5668 137.655 45.1922V44.0617C137.563 44.1218 137.436 44.1773 137.274 44.2282C137.117 44.2744 136.939 44.3183 136.74 44.3599C136.541 44.3969 136.342 44.4316 136.143 44.464C135.945 44.4917 135.764 44.5172 135.602 44.5403C135.256 44.5911 134.953 44.6721 134.694 44.783C134.435 44.894 134.234 45.0443 134.09 45.2339C133.947 45.4188 133.875 45.65 133.875 45.9274C133.875 46.3297 134.021 46.6372 134.312 46.8499C134.608 47.058 134.983 47.162 135.436 47.162ZM145.836 42.841V49H142.882V38.3466H145.697V40.2262H145.822C146.058 39.6066 146.453 39.1165 147.008 38.7558C147.563 38.3905 148.236 38.2079 149.027 38.2079C149.766 38.2079 150.412 38.3697 150.962 38.6934C151.512 39.0171 151.94 39.4794 152.245 40.0805C152.55 40.677 152.703 41.3891 152.703 42.2168V49H149.748V42.7439C149.753 42.0919 149.586 41.5833 149.249 41.218C148.911 40.8481 148.446 40.6632 147.855 40.6632C147.457 40.6632 147.105 40.7487 146.8 40.9198C146.5 41.0909 146.264 41.3406 146.093 41.6688C145.926 41.9925 145.841 42.3832 145.836 42.841ZM159.845 49.2081C158.754 49.2081 157.815 48.9769 157.029 48.5145C156.247 48.0475 155.646 47.4001 155.226 46.5725C154.809 45.7448 154.601 44.7923 154.601 43.7149C154.601 42.6237 154.812 41.6665 155.232 40.8435C155.658 40.0158 156.261 39.3708 157.043 38.9084C157.824 38.4414 158.754 38.2079 159.831 38.2079C160.76 38.2079 161.574 38.3766 162.272 38.7142C162.971 39.0517 163.523 39.5257 163.93 40.136C164.337 40.7464 164.561 41.4631 164.603 42.2861H161.815C161.736 41.7544 161.528 41.3267 161.19 41.003C160.857 40.6747 160.42 40.5106 159.879 40.5106C159.422 40.5106 159.022 40.6354 158.68 40.8851C158.342 41.1302 158.078 41.4885 157.889 41.9601C157.699 42.4318 157.605 43.0028 157.605 43.6733C157.605 44.353 157.697 44.931 157.882 45.4072C158.072 45.8835 158.337 46.2465 158.68 46.4962C159.022 46.7459 159.422 46.8707 159.879 46.8707C160.217 46.8707 160.52 46.8013 160.788 46.6626C161.061 46.5239 161.285 46.3228 161.461 46.0592C161.641 45.791 161.759 45.4697 161.815 45.0951H164.603C164.557 45.9089 164.335 46.6256 163.937 47.2452C163.544 47.8602 163.001 48.3411 162.307 48.6879C161.613 49.0347 160.793 49.2081 159.845 49.2081ZM159.151 48.9445H160.511L160.4 49.5479C160.876 49.6219 161.264 49.7999 161.565 50.082C161.87 50.364 162.025 50.7478 162.03 51.2333C162.034 51.9223 161.715 52.4702 161.072 52.8771C160.43 53.2886 159.528 53.4944 158.367 53.4944L158.34 52.1766C158.922 52.1766 159.378 52.1049 159.706 51.9616C160.039 51.8229 160.212 51.6056 160.226 51.3096C160.236 51.0276 160.127 50.8126 159.9 50.6646C159.674 50.5166 159.32 50.4126 158.839 50.3525L159.151 48.9445ZM169.532 49.2011C168.853 49.2011 168.247 49.0832 167.715 48.8474C167.183 48.607 166.763 48.2532 166.453 47.7862C166.148 47.3146 165.995 46.7274 165.995 46.0245C165.995 45.4327 166.104 44.9356 166.321 44.5333C166.538 44.1311 166.834 43.8074 167.209 43.5623C167.583 43.3173 168.009 43.1323 168.485 43.0075C168.966 42.8826 169.47 42.7948 169.997 42.7439C170.617 42.6792 171.116 42.6191 171.495 42.5636C171.874 42.5035 172.15 42.4156 172.321 42.3C172.492 42.1844 172.577 42.0133 172.577 41.7868V41.7451C172.577 41.3059 172.439 40.966 172.161 40.7256C171.888 40.4851 171.5 40.3649 170.996 40.3649C170.464 40.3649 170.041 40.4828 169.727 40.7186C169.412 40.9498 169.204 41.2411 169.102 41.5926L166.37 41.3706C166.508 40.7233 166.781 40.1638 167.188 39.6921C167.595 39.2159 168.12 38.8506 168.763 38.5963C169.41 38.3373 170.159 38.2079 171.01 38.2079C171.602 38.2079 172.168 38.2772 172.709 38.4159C173.255 38.5547 173.738 38.7697 174.159 39.061C174.584 39.3523 174.919 39.7268 175.164 40.1846C175.409 40.6377 175.532 41.181 175.532 41.8145V49H172.73V47.5227H172.647C172.476 47.8556 172.247 48.1492 171.96 48.4035C171.673 48.6532 171.329 48.8497 170.927 48.9931C170.524 49.1318 170.06 49.2011 169.532 49.2011ZM170.379 47.162C170.813 47.162 171.197 47.0765 171.53 46.9054C171.863 46.7297 172.124 46.4939 172.314 46.1979C172.503 45.902 172.598 45.5668 172.598 45.1922V44.0617C172.506 44.1218 172.378 44.1773 172.217 44.2282C172.059 44.2744 171.881 44.3183 171.683 44.3599C171.484 44.3969 171.285 44.4316 171.086 44.464C170.887 44.4917 170.707 44.5172 170.545 44.5403C170.198 44.5911 169.895 44.6721 169.636 44.783C169.378 44.894 169.176 45.0443 169.033 45.2339C168.89 45.4188 168.818 45.65 168.818 45.9274C168.818 46.3297 168.964 46.6372 169.255 46.8499C169.551 47.058 169.925 47.162 170.379 47.162ZM181.75 49.1734C180.941 49.1734 180.208 48.9653 179.551 48.5492C178.899 48.1284 178.381 47.5111 177.998 46.6973C177.618 45.8789 177.429 44.8755 177.429 43.6872C177.429 42.4665 177.625 41.4515 178.018 40.6423C178.411 39.8285 178.934 39.2205 179.586 38.8182C180.242 38.4113 180.961 38.2079 181.743 38.2079C182.339 38.2079 182.836 38.3096 183.234 38.5131C183.636 38.7119 183.96 38.9616 184.205 39.2621C184.455 39.558 184.644 39.8494 184.774 40.136H184.864V34.7955H187.812V49H184.899V47.2938H184.774C184.635 47.5897 184.439 47.8833 184.184 48.1746C183.935 48.4613 183.609 48.6994 183.206 48.889C182.809 49.0786 182.323 49.1734 181.75 49.1734ZM182.686 46.8222C183.162 46.8222 183.565 46.6927 183.893 46.4337C184.226 46.1702 184.48 45.8026 184.656 45.331C184.836 44.8593 184.926 44.3068 184.926 43.6733C184.926 43.0398 184.839 42.4896 184.663 42.0226C184.487 41.5556 184.233 41.1949 183.9 40.9406C183.567 40.6863 183.162 40.5591 182.686 40.5591C182.201 40.5591 181.791 40.6909 181.459 40.9545C181.126 41.218 180.874 41.5833 180.703 42.0503C180.531 42.5173 180.446 43.0583 180.446 43.6733C180.446 44.2929 180.531 44.8408 180.703 45.3171C180.878 45.7887 181.13 46.1586 181.459 46.4268C181.791 46.6904 182.201 46.8222 182.686 46.8222ZM193.279 49.2011C192.599 49.2011 191.993 49.0832 191.462 48.8474C190.93 48.607 190.509 48.2532 190.199 47.7862C189.894 47.3146 189.742 46.7274 189.742 46.0245C189.742 45.4327 189.85 44.9356 190.068 44.5333C190.285 44.1311 190.581 43.8074 190.955 43.5623C191.33 43.3173 191.755 43.1323 192.232 43.0075C192.712 42.8826 193.216 42.7948 193.744 42.7439C194.363 42.6792 194.863 42.6191 195.242 42.5636C195.621 42.5035 195.896 42.4156 196.067 42.3C196.238 42.1844 196.324 42.0133 196.324 41.7868V41.7451C196.324 41.3059 196.185 40.966 195.908 40.7256C195.635 40.4851 195.246 40.3649 194.742 40.3649C194.211 40.3649 193.788 40.4828 193.473 40.7186C193.159 40.9498 192.951 41.2411 192.849 41.5926L190.116 41.3706C190.255 40.7233 190.528 40.1638 190.935 39.6921C191.341 39.2159 191.866 38.8506 192.509 38.5963C193.156 38.3373 193.905 38.2079 194.756 38.2079C195.348 38.2079 195.915 38.2772 196.455 38.4159C197.001 38.5547 197.484 38.7697 197.905 39.061C198.33 39.3523 198.666 39.7268 198.911 40.1846C199.156 40.6377 199.278 41.181 199.278 41.8145V49H196.476V47.5227H196.393C196.222 47.8556 195.993 48.1492 195.706 48.4035C195.42 48.6532 195.075 48.8497 194.673 48.9931C194.271 49.1318 193.806 49.2011 193.279 49.2011ZM194.125 47.162C194.56 47.162 194.943 47.0765 195.276 46.9054C195.609 46.7297 195.871 46.4939 196.06 46.1979C196.25 45.902 196.345 45.5668 196.345 45.1922V44.0617C196.252 44.1218 196.125 44.1773 195.963 44.2282C195.806 44.2744 195.628 44.3183 195.429 44.3599C195.23 44.3969 195.031 44.4316 194.833 44.464C194.634 44.4917 194.453 44.5172 194.292 44.5403C193.945 44.5911 193.642 44.6721 193.383 44.783C193.124 44.894 192.923 45.0443 192.78 45.2339C192.636 45.4188 192.565 45.65 192.565 45.9274C192.565 46.3297 192.71 46.6372 193.001 46.8499C193.297 47.058 193.672 47.162 194.125 47.162ZM210.435 41.3845L207.73 41.5509C207.683 41.3197 207.584 41.1117 207.431 40.9267C207.279 40.7371 207.078 40.5869 206.828 40.4759C206.583 40.3603 206.289 40.3025 205.947 40.3025C205.489 40.3025 205.103 40.3996 204.789 40.5938C204.474 40.7834 204.317 41.0377 204.317 41.3567C204.317 41.611 204.419 41.8261 204.622 42.0018C204.826 42.1775 205.175 42.3185 205.67 42.4248L207.598 42.8133C208.634 43.026 209.406 43.3681 209.914 43.8398C210.423 44.3114 210.677 44.931 210.677 45.6986C210.677 46.3968 210.472 47.0094 210.06 47.5365C209.653 48.0637 209.094 48.4752 208.382 48.7711C207.674 49.0624 206.858 49.2081 205.933 49.2081C204.523 49.2081 203.399 48.9145 202.562 48.3272C201.73 47.7354 201.242 46.9308 201.099 45.9136L204.005 45.761C204.093 46.191 204.306 46.5193 204.643 46.7459C204.981 46.9678 205.413 47.0788 205.94 47.0788C206.458 47.0788 206.874 46.9794 207.189 46.7805C207.508 46.5771 207.67 46.3158 207.674 45.9968C207.67 45.7286 207.556 45.509 207.334 45.3379C207.112 45.1622 206.77 45.0281 206.308 44.9356L204.463 44.568C203.423 44.3599 202.648 43.9993 202.139 43.486C201.635 42.9728 201.383 42.3185 201.383 41.5232C201.383 40.8389 201.568 40.2493 201.938 39.7546C202.313 39.2598 202.838 38.8783 203.513 38.6102C204.192 38.342 204.988 38.2079 205.899 38.2079C207.244 38.2079 208.303 38.4922 209.075 39.061C209.852 39.6297 210.305 40.4042 210.435 41.3845ZM219.562 49H216.344L221.248 34.7955H225.118L230.014 49H226.796L223.238 38.0414H223.127L219.562 49ZM219.361 43.4167H226.963V45.761H219.361V43.4167ZM234.623 42.841V49H231.669V38.3466H234.485V40.2262H234.609C234.845 39.6066 235.241 39.1165 235.795 38.7558C236.35 38.3905 237.023 38.2079 237.814 38.2079C238.554 38.2079 239.199 38.3697 239.749 38.6934C240.299 39.0171 240.727 39.4794 241.032 40.0805C241.337 40.677 241.49 41.3891 241.49 42.2168V49H238.535V42.7439C238.54 42.0919 238.373 41.5833 238.036 41.218C237.698 40.8481 237.233 40.6632 236.642 40.6632C236.244 40.6632 235.893 40.7487 235.587 40.9198C235.287 41.0909 235.051 41.3406 234.88 41.6688C234.713 41.9925 234.628 42.3832 234.623 42.841ZM250.65 44.464V38.3466H253.605V49H250.768V47.0649H250.657C250.417 47.6891 250.017 48.1908 249.457 48.57C248.902 48.9491 248.225 49.1387 247.425 49.1387C246.713 49.1387 246.086 48.9769 245.545 48.6532C245.004 48.3295 244.581 47.8695 244.276 47.273C243.976 46.6765 243.823 45.9621 243.818 45.1298V38.3466H246.773V44.6027C246.778 45.2315 246.946 45.7286 247.279 46.0939C247.612 46.4592 248.059 46.6418 248.618 46.6418C248.974 46.6418 249.307 46.5609 249.617 46.3991C249.927 46.2326 250.176 45.9875 250.366 45.6639C250.56 45.3402 250.655 44.9402 250.65 44.464ZM259.006 49.2011C258.326 49.2011 257.721 49.0832 257.189 48.8474C256.657 48.607 256.236 48.2532 255.927 47.7862C255.621 47.3146 255.469 46.7274 255.469 46.0245C255.469 45.4327 255.578 44.9356 255.795 44.5333C256.012 44.1311 256.308 43.8074 256.683 43.5623C257.057 43.3173 257.483 43.1323 257.959 43.0075C258.44 42.8826 258.944 42.7948 259.471 42.7439C260.09 42.6792 260.59 42.6191 260.969 42.5636C261.348 42.5035 261.623 42.4156 261.794 42.3C261.965 42.1844 262.051 42.0133 262.051 41.7868V41.7451C262.051 41.3059 261.912 40.966 261.635 40.7256C261.362 40.4851 260.974 40.3649 260.47 40.3649C259.938 40.3649 259.515 40.4828 259.2 40.7186C258.886 40.9498 258.678 41.2411 258.576 41.5926L255.843 41.3706C255.982 40.7233 256.255 40.1638 256.662 39.6921C257.069 39.2159 257.594 38.8506 258.236 38.5963C258.884 38.3373 259.633 38.2079 260.483 38.2079C261.075 38.2079 261.642 38.2772 262.183 38.4159C262.728 38.5547 263.212 38.7697 263.632 39.061C264.058 39.3523 264.393 39.7268 264.638 40.1846C264.883 40.6377 265.006 41.181 265.006 41.8145V49H262.204V47.5227H262.12C261.949 47.8556 261.72 48.1492 261.434 48.4035C261.147 48.6532 260.803 48.8497 260.4 48.9931C259.998 49.1318 259.533 49.2011 259.006 49.2011ZM259.852 47.162C260.287 47.162 260.671 47.0765 261.004 46.9054C261.337 46.7297 261.598 46.4939 261.787 46.1979C261.977 45.902 262.072 45.5668 262.072 45.1922V44.0617C261.979 44.1218 261.852 44.1773 261.69 44.2282C261.533 44.2744 261.355 44.3183 261.156 44.3599C260.957 44.3969 260.759 44.4316 260.56 44.464C260.361 44.4917 260.181 44.5172 260.019 44.5403C259.672 44.5911 259.369 44.6721 259.11 44.783C258.851 44.894 258.65 45.0443 258.507 45.2339C258.363 45.4188 258.292 45.65 258.292 45.9274C258.292 46.3297 258.437 46.6372 258.729 46.8499C259.025 47.058 259.399 47.162 259.852 47.162ZM270.253 34.7955V49H267.298V34.7955H270.253Z" fill="#4D4F5C"/>
<line x1="28.8967" y1="175.2" x2="311.937" y2="175.2" stroke="#2D2E5F" stroke-width="6.96" stroke-linecap="round" stroke-linejoin="round"/>
<line x1="28.8967" y1="175.2" x2="213.337" y2="175.2" stroke="#0075FF" stroke-width="6.96" stroke-linecap="round" stroke-linejoin="round"/>
<path d="M34.7167 132.98C34.4234 131.5 33.51 130.76 31.9767 130.76C30.79 130.76 29.9034 131.22 29.3167 132.14C28.73 133.047 28.4434 134.547 28.4567 136.64C28.7634 135.947 29.27 135.407 29.9767 135.02C30.6967 134.62 31.4967 134.42 32.3767 134.42C33.75 134.42 34.8434 134.847 35.6567 135.7C36.4834 136.553 36.8967 137.733 36.8967 139.24C36.8967 140.147 36.7167 140.96 36.3567 141.68C36.01 142.4 35.4767 142.973 34.7567 143.4C34.05 143.827 33.19 144.04 32.1767 144.04C30.8034 144.04 29.73 143.733 28.9567 143.12C28.1834 142.507 27.6434 141.66 27.3367 140.58C27.03 139.5 26.8767 138.167 26.8767 136.58C26.8767 131.687 28.5834 129.24 31.9967 129.24C33.3034 129.24 34.33 129.593 35.0767 130.3C35.8234 131.007 36.2634 131.9 36.3967 132.98H34.7167ZM31.9967 135.96C31.4234 135.96 30.8834 136.08 30.3767 136.32C29.87 136.547 29.4567 136.9 29.1367 137.38C28.83 137.847 28.6767 138.42 28.6767 139.1C28.6767 140.113 28.97 140.94 29.5567 141.58C30.1434 142.207 30.9834 142.52 32.0767 142.52C33.01 142.52 33.75 142.233 34.2967 141.66C34.8567 141.073 35.1367 140.287 35.1367 139.3C35.1367 138.26 34.87 137.447 34.3367 136.86C33.8034 136.26 33.0234 135.96 31.9967 135.96ZM39.352 136.62C39.352 134.327 39.7253 132.54 40.472 131.26C41.2187 129.967 42.5253 129.32 44.392 129.32C46.2453 129.32 47.5453 129.967 48.292 131.26C49.0387 132.54 49.412 134.327 49.412 136.62C49.412 138.953 49.0387 140.767 48.292 142.06C47.5453 143.353 46.2453 144 44.392 144C42.5253 144 41.2187 143.353 40.472 142.06C39.7253 140.767 39.352 138.953 39.352 136.62ZM47.612 136.62C47.612 135.46 47.532 134.48 47.372 133.68C47.2253 132.867 46.912 132.213 46.432 131.72C45.9653 131.227 45.2853 130.98 44.392 130.98C43.4853 130.98 42.792 131.227 42.312 131.72C41.8453 132.213 41.532 132.867 41.372 133.68C41.2253 134.48 41.152 135.46 41.152 136.62C41.152 137.82 41.2253 138.827 41.372 139.64C41.532 140.453 41.8453 141.107 42.312 141.6C42.792 142.093 43.4853 142.34 44.392 142.34C45.2853 142.34 45.9653 142.093 46.432 141.6C46.912 141.107 47.2253 140.453 47.372 139.64C47.532 138.827 47.612 137.82 47.612 136.62ZM51.5106 132.8C51.5106 131.893 51.7839 131.173 52.3306 130.64C52.8773 130.093 53.5773 129.82 54.4306 129.82C55.2839 129.82 55.9839 130.093 56.5306 130.64C57.0773 131.173 57.3506 131.893 57.3506 132.8C57.3506 133.72 57.0773 134.453 56.5306 135C55.9839 135.533 55.2839 135.8 54.4306 135.8C53.5773 135.8 52.8773 135.533 52.3306 135C51.7839 134.453 51.5106 133.72 51.5106 132.8ZM63.1906 130.04L55.0906 144H53.2906L61.3906 130.04H63.1906ZM54.4306 130.94C53.9773 130.94 53.6173 131.1 53.3506 131.42C53.0973 131.727 52.9706 132.187 52.9706 132.8C52.9706 133.413 53.0973 133.88 53.3506 134.2C53.6173 134.52 53.9773 134.68 54.4306 134.68C54.8839 134.68 55.2439 134.52 55.5106 134.2C55.7773 133.867 55.9106 133.4 55.9106 132.8C55.9106 132.187 55.7773 131.727 55.5106 131.42C55.2439 131.1 54.8839 130.94 54.4306 130.94ZM59.1706 141.24C59.1706 140.32 59.4439 139.593 59.9906 139.06C60.5373 138.513 61.2373 138.24 62.0906 138.24C62.9439 138.24 63.6373 138.513 64.1706 139.06C64.7173 139.593 64.9906 140.32 64.9906 141.24C64.9906 142.147 64.7173 142.873 64.1706 143.42C63.6373 143.967 62.9439 144.24 62.0906 144.24C61.2373 144.24 60.5373 143.973 59.9906 143.44C59.4439 142.893 59.1706 142.16 59.1706 141.24ZM62.0706 139.38C61.6173 139.38 61.2573 139.54 60.9906 139.86C60.7239 140.167 60.5906 140.627 60.5906 141.24C60.5906 141.84 60.7239 142.3 60.9906 142.62C61.2573 142.927 61.6173 143.08 62.0706 143.08C62.5239 143.08 62.8839 142.927 63.1506 142.62C63.4173 142.3 63.5506 141.84 63.5506 141.24C63.5506 140.627 63.4173 140.167 63.1506 139.86C62.8839 139.54 62.5239 139.38 62.0706 139.38Z" fill="black"/>
<path opacity="0.5" d="M32.6705 314.248V315.185H28.8523V314.248H32.6705ZM36.9968 320.171V309.262H37.6957V320.171H36.9968ZM39.3491 312.535C39.2979 312.103 39.0906 311.767 38.7269 311.529C38.3633 311.29 37.9173 311.171 37.3888 311.171C37.0025 311.171 36.6644 311.233 36.3746 311.358C36.0877 311.483 35.8633 311.655 35.7013 311.874C35.5423 312.093 35.4627 312.341 35.4627 312.62C35.4627 312.853 35.5181 313.053 35.6289 313.221C35.7425 313.385 35.8874 313.523 36.0636 313.634C36.2397 313.742 36.4244 313.831 36.6175 313.902C36.8107 313.971 36.9883 314.026 37.1502 314.069L38.0366 314.307C38.2638 314.367 38.5167 314.449 38.7951 314.554C39.0763 314.66 39.3448 314.803 39.6005 314.985C39.859 315.164 40.0721 315.394 40.2397 315.675C40.4073 315.956 40.4911 316.302 40.4911 316.711C40.4911 317.182 40.3675 317.608 40.1204 317.989C39.8761 318.37 39.5181 318.672 39.0465 318.897C38.5778 319.121 38.0082 319.233 37.3377 319.233C36.7127 319.233 36.1715 319.133 35.7141 318.931C35.2596 318.729 34.9016 318.448 34.6403 318.087C34.3817 317.726 34.2354 317.307 34.2013 316.83H35.2923C35.3207 317.16 35.4315 317.432 35.6246 317.648C35.8207 317.861 36.0678 318.02 36.3661 318.125C36.6673 318.228 36.9911 318.279 37.3377 318.279C37.7411 318.279 38.1033 318.213 38.4244 318.083C38.7454 317.949 38.9996 317.765 39.1871 317.529C39.3746 317.29 39.4684 317.012 39.4684 316.694C39.4684 316.404 39.3874 316.168 39.2255 315.986C39.0636 315.804 38.8505 315.657 38.5863 315.543C38.3221 315.429 38.0366 315.33 37.7298 315.245L36.6559 314.938C35.9741 314.742 35.4343 314.462 35.0366 314.098C34.6388 313.735 34.44 313.259 34.44 312.671C34.44 312.182 34.5721 311.756 34.8363 311.392C35.1033 311.026 35.4613 310.742 35.9102 310.54C36.3619 310.336 36.8661 310.233 37.4229 310.233C37.9854 310.233 38.4854 310.334 38.9229 310.536C39.3604 310.735 39.707 311.008 39.9627 311.354C40.2212 311.701 40.3576 312.094 40.3718 312.535H39.3491ZM45.1435 310.353V319.08H44.0866V311.461H44.0355L41.9048 312.875V311.802L44.0866 310.353H45.1435ZM50.4489 319.199C49.8636 319.199 49.3466 319.096 48.8977 318.888C48.4517 318.678 48.1037 318.39 47.8537 318.023C47.6037 317.654 47.4801 317.233 47.483 316.762C47.4801 316.392 47.5526 316.052 47.7003 315.739C47.848 315.424 48.0497 315.161 48.3054 314.951C48.5639 314.738 48.8523 314.603 49.1705 314.546V314.495C48.7528 314.387 48.4205 314.152 48.1733 313.792C47.9261 313.428 47.804 313.015 47.8068 312.552C47.804 312.108 47.9162 311.712 48.1435 311.363C48.3707 311.013 48.6832 310.738 49.081 310.536C49.4815 310.334 49.9375 310.233 50.4489 310.233C50.9545 310.233 51.4063 310.334 51.804 310.536C52.2017 310.738 52.5142 311.013 52.7415 311.363C52.9716 311.712 53.0881 312.108 53.0909 312.552C53.0881 313.015 52.9616 313.428 52.7116 313.792C52.4645 314.152 52.1364 314.387 51.7273 314.495V314.546C52.0426 314.603 52.3267 314.738 52.5795 314.951C52.8324 315.161 53.0341 315.424 53.1847 315.739C53.3352 316.052 53.4119 316.392 53.4148 316.762C53.4119 317.233 53.2841 317.654 53.0312 318.023C52.7812 318.39 52.4332 318.678 51.9872 318.888C51.544 319.096 51.0313 319.199 50.4489 319.199ZM50.4489 318.262C50.8438 318.262 51.1847 318.198 51.4716 318.07C51.7585 317.942 51.9801 317.762 52.1364 317.529C52.2926 317.296 52.3722 317.023 52.375 316.711C52.3722 316.381 52.2869 316.09 52.1193 315.837C51.9517 315.584 51.723 315.385 51.4332 315.24C51.1463 315.096 50.8182 315.023 50.4489 315.023C50.0767 315.023 49.7443 315.096 49.4517 315.24C49.1619 315.385 48.9332 315.584 48.7656 315.837C48.6009 316.09 48.5199 316.381 48.5227 316.711C48.5199 317.023 48.5952 317.296 48.7486 317.529C48.9048 317.762 49.1278 317.942 49.4176 318.07C49.7074 318.198 50.0511 318.262 50.4489 318.262ZM50.4489 314.12C50.7614 314.12 51.0384 314.057 51.2798 313.932C51.5241 313.807 51.7159 313.633 51.8551 313.408C51.9943 313.184 52.0653 312.921 52.0682 312.62C52.0653 312.324 51.9957 312.067 51.8594 311.848C51.723 311.627 51.5341 311.456 51.2926 311.337C51.0511 311.215 50.7699 311.154 50.4489 311.154C50.1222 311.154 49.8366 311.215 49.5923 311.337C49.348 311.456 49.1591 311.627 49.0256 311.848C48.892 312.067 48.8267 312.324 48.8295 312.62C48.8267 312.921 48.8935 313.184 49.0298 313.408C49.169 313.633 49.3608 313.807 49.6051 313.932C49.8494 314.057 50.1307 314.12 50.4489 314.12ZM56.2955 317.887L56.2273 318.347C56.179 318.671 56.1051 319.017 56.0057 319.387C55.9091 319.756 55.8082 320.104 55.7031 320.431C55.598 320.758 55.5114 321.017 55.4432 321.211H54.6761C54.7131 321.029 54.7614 320.789 54.821 320.49C54.8807 320.192 54.9403 319.858 55 319.489C55.0625 319.123 55.1136 318.748 55.1534 318.364L55.2045 317.887H56.2955ZM60.6932 319.199C60.1932 319.199 59.7429 319.1 59.3423 318.901C58.9418 318.702 58.6207 318.429 58.3793 318.083C58.1378 317.736 58.0057 317.341 57.983 316.898H59.0057C59.0455 317.293 59.2244 317.62 59.5426 317.878C59.8636 318.134 60.2472 318.262 60.6932 318.262C61.0511 318.262 61.3693 318.178 61.6477 318.01C61.929 317.843 62.1491 317.613 62.3082 317.32C62.4702 317.025 62.5511 316.691 62.5511 316.319C62.5511 315.938 62.4673 315.598 62.2997 315.3C62.1349 314.999 61.9077 314.762 61.6179 314.588C61.3281 314.415 60.9972 314.327 60.625 314.324C60.358 314.321 60.0838 314.363 59.8026 314.448C59.5213 314.53 59.2898 314.637 59.108 314.767L58.1193 314.648L58.6477 310.353H63.1818V311.29H59.5341L59.2273 313.864H59.2784C59.4574 313.722 59.6818 313.604 59.9517 313.51C60.2216 313.417 60.5028 313.37 60.7955 313.37C61.3295 313.37 61.8054 313.498 62.223 313.753C62.6435 314.006 62.973 314.353 63.2116 314.793C63.4531 315.233 63.5739 315.736 63.5739 316.302C63.5739 316.858 63.4489 317.356 63.1989 317.793C62.9517 318.228 62.6108 318.571 62.1761 318.824C61.7415 319.074 61.2472 319.199 60.6932 319.199ZM65.5394 319.08L69.4428 311.358V311.29H64.9428V310.353H70.5337V311.341L66.6474 319.08H65.5394ZM74.7812 319.199C74.1392 319.199 73.5923 319.025 73.1406 318.675C72.6889 318.323 72.3438 317.813 72.1051 317.145C71.8665 316.475 71.7472 315.665 71.7472 314.716C71.7472 313.773 71.8665 312.968 72.1051 312.3C72.3466 311.63 72.6932 311.118 73.1449 310.766C73.5994 310.411 74.1449 310.233 74.7812 310.233C75.4176 310.233 75.9616 310.411 76.4134 310.766C76.8679 311.118 77.2145 311.63 77.4531 312.3C77.6946 312.968 77.8153 313.773 77.8153 314.716C77.8153 315.665 77.696 316.475 77.4574 317.145C77.2188 317.813 76.8736 318.323 76.4219 318.675C75.9702 319.025 75.4233 319.199 74.7812 319.199ZM74.7812 318.262C75.4176 318.262 75.9119 317.955 76.2642 317.341C76.6165 316.728 76.7926 315.853 76.7926 314.716C76.7926 313.961 76.7116 313.317 76.5497 312.786C76.3906 312.255 76.1605 311.85 75.8594 311.571C75.5611 311.293 75.2017 311.154 74.7812 311.154C74.1506 311.154 73.6577 311.465 73.3026 312.087C72.9474 312.706 72.7699 313.583 72.7699 314.716C72.7699 315.472 72.8494 316.114 73.0085 316.642C73.1676 317.171 73.3963 317.573 73.6946 317.848C73.9957 318.124 74.358 318.262 74.7812 318.262Z" fill="#4D4F5C"/>
<path opacity="0.5" d="M279.943 320.154V309.415H280.631V320.154H279.943ZM282.258 312.637C282.208 312.212 282.004 311.882 281.646 311.647C281.288 311.412 280.849 311.294 280.329 311.294C279.949 311.294 279.616 311.356 279.33 311.479C279.048 311.602 278.827 311.771 278.668 311.987C278.511 312.202 278.433 312.447 278.433 312.721C278.433 312.95 278.487 313.147 278.596 313.312C278.708 313.474 278.851 313.61 279.024 313.719C279.198 313.825 279.379 313.913 279.57 313.983C279.76 314.05 279.935 314.105 280.094 314.147L280.966 314.382C281.19 314.441 281.439 314.522 281.713 314.625C281.99 314.729 282.254 314.87 282.506 315.049C282.76 315.225 282.97 315.451 283.135 315.728C283.3 316.005 283.383 316.345 283.383 316.748C283.383 317.212 283.261 317.631 283.018 318.006C282.777 318.381 282.425 318.679 281.961 318.9C281.499 319.121 280.938 319.231 280.279 319.231C279.663 319.231 279.131 319.132 278.68 318.933C278.233 318.735 277.88 318.458 277.623 318.103C277.369 317.747 277.225 317.335 277.191 316.865H278.265C278.293 317.19 278.402 317.458 278.592 317.671C278.785 317.88 279.028 318.037 279.322 318.14C279.619 318.241 279.937 318.291 280.279 318.291C280.676 318.291 281.032 318.227 281.348 318.098C281.664 317.967 281.914 317.785 282.099 317.553C282.284 317.318 282.376 317.044 282.376 316.731C282.376 316.446 282.296 316.214 282.137 316.035C281.977 315.856 281.768 315.71 281.508 315.598C281.248 315.486 280.966 315.389 280.664 315.305L279.607 315.003C278.936 314.81 278.405 314.534 278.013 314.176C277.622 313.818 277.426 313.35 277.426 312.771C277.426 312.29 277.556 311.871 277.816 311.513C278.079 311.152 278.431 310.872 278.873 310.674C279.318 310.472 279.814 310.372 280.362 310.372C280.916 310.372 281.408 310.471 281.839 310.669C282.27 310.865 282.611 311.134 282.862 311.475C283.117 311.816 283.251 312.203 283.265 312.637H282.258ZM287.845 319.197C287.291 319.197 286.798 319.102 286.364 318.912C285.933 318.722 285.591 318.458 285.336 318.119C285.085 317.778 284.948 317.382 284.925 316.932H285.982C286.005 317.209 286.1 317.448 286.268 317.65C286.435 317.848 286.655 318.002 286.926 318.111C287.197 318.22 287.498 318.275 287.828 318.275C288.197 318.275 288.524 318.21 288.81 318.082C289.095 317.953 289.319 317.774 289.481 317.545C289.643 317.315 289.724 317.05 289.724 316.748C289.724 316.432 289.646 316.153 289.489 315.913C289.333 315.67 289.103 315.479 288.801 315.342C288.499 315.205 288.13 315.137 287.694 315.137H287.006V314.214H287.694C288.035 314.214 288.334 314.152 288.592 314.029C288.852 313.906 289.054 313.733 289.2 313.509C289.348 313.286 289.422 313.023 289.422 312.721C289.422 312.43 289.358 312.177 289.229 311.961C289.1 311.746 288.919 311.578 288.684 311.458C288.452 311.338 288.178 311.278 287.862 311.278C287.565 311.278 287.286 311.332 287.023 311.441C286.763 311.548 286.55 311.703 286.385 311.907C286.22 312.108 286.131 312.352 286.117 312.637H285.11C285.127 312.187 285.262 311.792 285.517 311.454C285.771 311.113 286.104 310.847 286.515 310.657C286.929 310.467 287.383 310.372 287.878 310.372C288.41 310.372 288.866 310.479 289.246 310.695C289.626 310.907 289.918 311.188 290.123 311.538C290.327 311.887 290.429 312.265 290.429 312.67C290.429 313.154 290.302 313.567 290.047 313.908C289.795 314.249 289.453 314.485 289.019 314.617V314.684C289.562 314.773 289.986 315.004 290.29 315.376C290.595 315.745 290.748 316.202 290.748 316.748C290.748 317.215 290.62 317.634 290.366 318.006C290.114 318.375 289.77 318.666 289.334 318.879C288.898 319.091 288.401 319.197 287.845 319.197ZM295.484 310.489V319.08H294.443V311.58H294.393L292.296 312.972V311.915L294.443 310.489H295.484ZM298.94 317.905L298.873 318.358C298.825 318.677 298.753 319.018 298.655 319.382C298.56 319.746 298.46 320.088 298.357 320.41C298.253 320.731 298.168 320.987 298.101 321.177H297.346C297.382 320.998 297.43 320.762 297.489 320.468C297.547 320.175 297.606 319.846 297.665 319.483C297.726 319.122 297.777 318.753 297.816 318.375L297.866 317.905H298.94ZM300.556 317.318V316.462L304.331 310.489H304.952V311.815H304.533L301.68 316.328V316.395H306.764V317.318H300.556ZM304.6 319.08V317.058V316.66V310.489H305.59V319.08H304.6ZM311.239 319.197C310.685 319.197 310.192 319.102 309.758 318.912C309.328 318.722 308.985 318.458 308.731 318.119C308.479 317.778 308.342 317.382 308.32 316.932H309.377C309.399 317.209 309.494 317.448 309.662 317.65C309.83 317.848 310.049 318.002 310.32 318.111C310.592 318.22 310.892 318.275 311.222 318.275C311.591 318.275 311.919 318.21 312.204 318.082C312.489 317.953 312.713 317.774 312.875 317.545C313.037 317.315 313.118 317.05 313.118 316.748C313.118 316.432 313.04 316.153 312.883 315.913C312.727 315.67 312.498 315.479 312.196 315.342C311.894 315.205 311.524 315.137 311.088 315.137H310.4V314.214H311.088C311.429 314.214 311.729 314.152 311.986 314.029C312.246 313.906 312.449 313.733 312.594 313.509C312.742 313.286 312.816 313.023 312.816 312.721C312.816 312.43 312.752 312.177 312.623 311.961C312.495 311.746 312.313 311.578 312.078 311.458C311.846 311.338 311.572 311.278 311.256 311.278C310.959 311.278 310.68 311.332 310.417 311.441C310.157 311.548 309.944 311.703 309.779 311.907C309.614 312.108 309.525 312.352 309.511 312.637H308.504C308.521 312.187 308.657 311.792 308.911 311.454C309.166 311.113 309.498 310.847 309.909 310.657C310.323 310.467 310.778 310.372 311.273 310.372C311.804 310.372 312.26 310.479 312.64 310.695C313.021 310.907 313.313 311.188 313.517 311.538C313.721 311.887 313.823 312.265 313.823 312.67C313.823 313.154 313.696 313.567 313.441 313.908C313.19 314.249 312.847 314.485 312.414 314.617V314.684C312.956 314.773 313.38 315.004 313.685 315.376C313.99 315.745 314.142 316.202 314.142 316.748C314.142 317.215 314.015 317.634 313.76 318.006C313.509 318.375 313.165 318.666 312.728 318.879C312.292 319.091 311.796 319.197 311.239 319.197ZM318.66 319.197C318.028 319.197 317.489 319.025 317.045 318.681C316.6 318.335 316.26 317.833 316.025 317.176C315.79 316.516 315.673 315.719 315.673 314.785C315.673 313.856 315.79 313.063 316.025 312.406C316.263 311.746 316.604 311.243 317.049 310.896C317.496 310.546 318.033 310.372 318.66 310.372C319.286 310.372 319.822 310.546 320.266 310.896C320.714 311.243 321.055 311.746 321.29 312.406C321.528 313.063 321.646 313.856 321.646 314.785C321.646 315.719 321.529 316.516 321.294 317.176C321.059 317.833 320.719 318.335 320.275 318.681C319.83 319.025 319.292 319.197 318.66 319.197ZM318.66 318.275C319.286 318.275 319.773 317.973 320.119 317.368C320.466 316.764 320.64 315.903 320.64 314.785C320.64 314.041 320.56 313.407 320.401 312.884C320.244 312.361 320.017 311.963 319.721 311.689C319.427 311.415 319.074 311.278 318.66 311.278C318.039 311.278 317.554 311.584 317.204 312.196C316.855 312.806 316.68 313.669 316.68 314.785C316.68 315.528 316.758 316.16 316.915 316.681C317.071 317.201 317.296 317.596 317.59 317.868C317.886 318.139 318.243 318.275 318.66 318.275Z" fill="#4D4F5C"/>
<mask id="path-8-inside-1_21_776" fill="white">
<path d="M18 351.08H310.5V392.08H18V351.08Z"/>
</mask>
<path d="M18 352.08H310.5V350.08H18V352.08Z" fill="#EFEFEF" mask="url(#path-8-inside-1_21_776)"/>
<path d="M119.899 374.989L122.135 381.751H122.223L124.455 374.989H126.166L123.138 383.58H121.216L118.192 374.989H119.899ZM127.231 383.58V377.137H128.749V383.58H127.231ZM127.994 376.222C127.754 376.222 127.547 376.143 127.373 375.983C127.2 375.821 127.113 375.627 127.113 375.4C127.113 375.171 127.2 374.976 127.373 374.817C127.547 374.655 127.754 374.574 127.994 374.574C128.237 374.574 128.444 374.655 128.615 374.817C128.788 374.976 128.875 375.171 128.875 375.4C128.875 375.627 128.788 375.821 128.615 375.983C128.444 376.143 128.237 376.222 127.994 376.222ZM133.163 383.706C132.517 383.706 131.959 383.572 131.489 383.303C131.022 383.032 130.663 382.649 130.411 382.154C130.16 381.656 130.034 381.07 130.034 380.396C130.034 379.733 130.16 379.152 130.411 378.651C130.666 378.148 131.021 377.756 131.477 377.477C131.933 377.194 132.468 377.053 133.083 377.053C133.481 377.053 133.855 377.117 134.208 377.246C134.563 377.372 134.876 377.567 135.147 377.833C135.421 378.099 135.637 378.437 135.793 378.848C135.95 379.257 136.028 379.743 136.028 380.308V380.774H130.747V379.75H134.573C134.57 379.459 134.507 379.201 134.384 378.974C134.261 378.745 134.089 378.564 133.868 378.433C133.65 378.302 133.395 378.236 133.104 378.236C132.794 378.236 132.521 378.311 132.286 378.462C132.052 378.611 131.868 378.806 131.737 379.05C131.608 379.29 131.543 379.554 131.54 379.842V380.736C131.54 381.111 131.608 381.432 131.745 381.701C131.882 381.966 132.074 382.171 132.32 382.313C132.566 382.453 132.854 382.523 133.184 382.523C133.405 382.523 133.605 382.492 133.784 382.431C133.963 382.366 134.118 382.273 134.25 382.15C134.381 382.026 134.48 381.874 134.547 381.692L135.965 381.852C135.876 382.226 135.705 382.554 135.453 382.833C135.205 383.11 134.886 383.325 134.497 383.479C134.108 383.63 133.664 383.706 133.163 383.706ZM138.608 383.58L136.787 377.137H138.335L139.468 381.667H139.527L140.684 377.137H142.215L143.373 381.642H143.436L144.552 377.137H146.104L144.279 383.58H142.698L141.49 379.226H141.402L140.194 383.58H138.608ZM150.161 383.58V374.989H155.665V376.294H151.718V378.626H155.287V379.93H151.718V383.58H150.161ZM160.719 380.87V377.137H162.237V383.58H160.765V382.435H160.698C160.552 382.796 160.313 383.091 159.98 383.32C159.65 383.549 159.243 383.664 158.76 383.664C158.337 383.664 157.964 383.57 157.64 383.383C157.318 383.193 157.066 382.917 156.885 382.556C156.703 382.193 156.612 381.754 156.612 381.239V377.137H158.13V381.004C158.13 381.413 158.242 381.737 158.466 381.978C158.69 382.218 158.983 382.338 159.347 382.338C159.571 382.338 159.787 382.284 159.997 382.175C160.207 382.066 160.379 381.903 160.513 381.688C160.65 381.47 160.719 381.197 160.719 380.87ZM165.317 374.989V383.58H163.799V374.989H165.317ZM168.397 374.989V383.58H166.879V374.989H168.397ZM172.956 383.58V374.989H176.177C176.837 374.989 177.391 375.104 177.839 375.333C178.289 375.562 178.629 375.884 178.858 376.298C179.09 376.709 179.206 377.189 179.206 377.737C179.206 378.288 179.089 378.766 178.854 379.171C178.622 379.574 178.279 379.886 177.826 380.107C177.373 380.325 176.816 380.434 176.156 380.434H173.862V379.142H175.947C176.333 379.142 176.649 379.089 176.895 378.982C177.141 378.873 177.323 378.715 177.44 378.508C177.56 378.299 177.62 378.041 177.62 377.737C177.62 377.432 177.56 377.172 177.44 376.956C177.32 376.738 177.137 376.573 176.891 376.461C176.644 376.347 176.327 376.289 175.938 376.289H174.512V383.58H172.956ZM177.394 379.687L179.521 383.58H177.784L175.695 379.687H177.394ZM183.332 383.706C182.686 383.706 182.128 383.572 181.658 383.303C181.191 383.032 180.832 382.649 180.58 382.154C180.328 381.656 180.202 381.07 180.202 380.396C180.202 379.733 180.328 379.152 180.58 378.651C180.834 378.148 181.19 377.756 181.645 377.477C182.101 377.194 182.637 377.053 183.252 377.053C183.649 377.053 184.024 377.117 184.376 377.246C184.731 377.372 185.045 377.567 185.316 377.833C185.59 378.099 185.805 378.437 185.962 378.848C186.118 379.257 186.197 379.743 186.197 380.308V380.774H180.915V379.75H184.741C184.738 379.459 184.675 379.201 184.552 378.974C184.429 378.745 184.257 378.564 184.036 378.433C183.818 378.302 183.564 378.236 183.273 378.236C182.962 378.236 182.69 378.311 182.455 378.462C182.22 378.611 182.037 378.806 181.905 379.05C181.777 379.29 181.711 379.554 181.708 379.842V380.736C181.708 381.111 181.777 381.432 181.914 381.701C182.051 381.966 182.242 382.171 182.488 382.313C182.735 382.453 183.023 382.523 183.353 382.523C183.574 382.523 183.773 382.492 183.952 382.431C184.131 382.366 184.287 382.273 184.418 382.15C184.55 382.026 184.649 381.874 184.716 381.692L186.134 381.852C186.044 382.226 185.874 382.554 185.622 382.833C185.373 383.11 185.054 383.325 184.666 383.479C184.277 383.63 183.832 383.706 183.332 383.706ZM187.481 385.996V377.137H188.975V378.202H189.063C189.141 378.046 189.252 377.879 189.394 377.703C189.537 377.524 189.73 377.372 189.973 377.246C190.216 377.117 190.527 377.053 190.904 377.053C191.402 377.053 191.851 377.18 192.251 377.435C192.653 377.686 192.972 378.06 193.207 378.555C193.445 379.047 193.564 379.651 193.564 380.367C193.564 381.074 193.448 381.676 193.216 382.171C192.983 382.665 192.667 383.043 192.268 383.303C191.868 383.563 191.415 383.693 190.908 383.693C190.539 383.693 190.233 383.632 189.99 383.509C189.747 383.386 189.551 383.237 189.403 383.064C189.257 382.888 189.144 382.721 189.063 382.565H189V385.996H187.481ZM188.97 380.358C188.97 380.775 189.029 381.14 189.147 381.453C189.267 381.766 189.439 382.011 189.663 382.187C189.889 382.361 190.163 382.447 190.485 382.447C190.82 382.447 191.101 382.358 191.328 382.179C191.554 381.997 191.725 381.75 191.84 381.436C191.957 381.12 192.016 380.761 192.016 380.358C192.016 379.958 191.959 379.603 191.844 379.293C191.729 378.982 191.559 378.739 191.332 378.563C191.106 378.387 190.823 378.299 190.485 378.299C190.16 378.299 189.885 378.384 189.658 378.555C189.432 378.725 189.26 378.964 189.142 379.272C189.028 379.58 188.97 379.942 188.97 380.358ZM197.675 383.706C197.045 383.706 196.5 383.567 196.039 383.291C195.577 383.014 195.219 382.626 194.965 382.129C194.713 381.631 194.587 381.049 194.587 380.384C194.587 379.718 194.713 379.135 194.965 378.634C195.219 378.134 195.577 377.745 196.039 377.468C196.5 377.191 197.045 377.053 197.675 377.053C198.304 377.053 198.849 377.191 199.311 377.468C199.772 377.745 200.129 378.134 200.38 378.634C200.635 379.135 200.762 379.718 200.762 380.384C200.762 381.049 200.635 381.631 200.38 382.129C200.129 382.626 199.772 383.014 199.311 383.291C198.849 383.567 198.304 383.706 197.675 383.706ZM197.683 382.489C198.024 382.489 198.309 382.396 198.539 382.208C198.768 382.018 198.939 381.764 199.051 381.445C199.165 381.126 199.223 380.771 199.223 380.379C199.223 379.985 199.165 379.628 199.051 379.31C198.939 378.988 198.768 378.732 198.539 378.542C198.309 378.352 198.024 378.257 197.683 378.257C197.333 378.257 197.043 378.352 196.811 378.542C196.581 378.732 196.409 378.988 196.295 379.31C196.183 379.628 196.127 379.985 196.127 380.379C196.127 380.771 196.183 381.126 196.295 381.445C196.409 381.764 196.581 382.018 196.811 382.208C197.043 382.396 197.333 382.489 197.683 382.489ZM202.051 383.58V377.137H203.523V378.211H203.59C203.708 377.839 203.909 377.552 204.194 377.351C204.482 377.147 204.811 377.044 205.18 377.044C205.264 377.044 205.358 377.049 205.461 377.057C205.567 377.063 205.656 377.072 205.725 377.086V378.483C205.661 378.461 205.559 378.441 205.419 378.425C205.282 378.405 205.149 378.395 205.021 378.395C204.744 378.395 204.495 378.455 204.274 378.576C204.056 378.693 203.884 378.857 203.758 379.066C203.632 379.276 203.569 379.518 203.569 379.792V383.58H202.051ZM210.298 377.137V378.311H206.594V377.137H210.298ZM207.508 375.593H209.027V381.642C209.027 381.846 209.058 382.003 209.119 382.112C209.183 382.218 209.267 382.291 209.371 382.33C209.474 382.369 209.589 382.389 209.715 382.389C209.81 382.389 209.896 382.382 209.975 382.368C210.056 382.354 210.117 382.341 210.159 382.33L210.415 383.517C210.334 383.545 210.218 383.576 210.067 383.609C209.919 383.643 209.737 383.662 209.522 383.668C209.141 383.679 208.799 383.622 208.494 383.496C208.189 383.367 207.947 383.169 207.768 382.9C207.592 382.632 207.505 382.296 207.508 381.894V375.593Z" fill="#3B86FF"/>
</svg>