<svg width="360" height="422" viewBox="0 0 360 422" fill="none" xmlns="http://www.w3.org/2000/svg">
<rect width="360" height="422" rx="7" fill="#F7FAFF" fill-opacity="0.7"/>
<path d="M30.0264 46.3366V45.5876C30.0264 45.0188 30.1466 44.4963 30.387 44.0201C30.6321 43.5392 30.9858 43.1554 31.4482 42.8687C31.9152 42.5774 32.484 42.4318 33.1544 42.4318C33.8341 42.4318 34.4052 42.5751 34.8676 42.8618C35.3346 43.1485 35.686 43.5323 35.9218 44.0132C36.1623 44.4894 36.2825 45.0142 36.2825 45.5876V46.3366C36.2825 46.9054 36.1623 47.4302 35.9218 47.9111C35.6814 48.3873 35.3276 48.7688 34.8606 49.0555C34.3936 49.3468 33.8249 49.4924 33.1544 49.4924C32.4747 49.4924 31.9037 49.3468 31.4413 49.0555C30.9789 48.7688 30.6275 48.3873 30.387 47.9111C30.1466 47.4302 30.0264 46.9054 30.0264 46.3366ZM32.0447 45.5876V46.3366C32.0447 46.6649 32.1233 46.9747 32.2805 47.266C32.4423 47.5574 32.7336 47.703 33.1544 47.703C33.5752 47.703 33.8619 47.5597 34.0145 47.273C34.1717 46.9863 34.2503 46.6742 34.2503 46.3366V45.5876C34.2503 45.25 34.1763 44.9356 34.0283 44.6443C33.8804 44.353 33.5891 44.2074 33.1544 44.2074C32.7383 44.2074 32.4493 44.353 32.2874 44.6443C32.1256 44.9356 32.0447 45.25 32.0447 45.5876ZM22.7368 38.2079V37.4588C22.7368 36.8854 22.8594 36.3606 23.1044 35.8844C23.3495 35.4035 23.7032 35.0197 24.1656 34.733C24.6326 34.4464 25.1967 34.303 25.8579 34.303C26.5423 34.303 27.1156 34.4464 27.578 34.733C28.0404 35.0197 28.3918 35.4035 28.6323 35.8844C28.8727 36.3606 28.9929 36.8854 28.9929 37.4588V38.2079C28.9929 38.7812 28.8704 39.306 28.6253 39.7823C28.3849 40.2586 28.0312 40.64 27.5642 40.9267C27.1018 41.2088 26.533 41.3498 25.8579 41.3498C25.1829 41.3498 24.6118 41.2065 24.1448 40.9198C23.6824 40.6285 23.331 40.247 23.0906 39.7754C22.8547 39.2991 22.7368 38.7766 22.7368 38.2079ZM24.769 37.4588V38.2079C24.769 38.5454 24.8476 38.8575 25.0048 39.1442C25.1667 39.4309 25.451 39.5742 25.8579 39.5742C26.2833 39.5742 26.5723 39.4309 26.7249 39.1442C26.8821 38.8575 26.9607 38.5454 26.9607 38.2079V37.4588C26.9607 37.1213 26.8868 36.8068 26.7388 36.5155C26.5908 36.2242 26.2972 36.0786 25.8579 36.0786C25.4464 36.0786 25.1621 36.2265 25.0048 36.5225C24.8476 36.8184 24.769 37.1305 24.769 37.4588ZM23.6524 49L33.418 34.7955H35.2352L25.4695 49H23.6524ZM43.6396 34.7955H47.3434L51.2552 44.3391H51.4216L55.3334 34.7955H59.0371V49H56.1241V39.7546H56.0062L52.3302 48.9306H50.3466L46.6706 39.7199H46.5527V49H43.6396V34.7955ZM66.3111 49.2081C65.2152 49.2081 64.2719 48.9861 63.4813 48.5422C62.6952 48.0937 62.0895 47.4602 61.6641 46.6418C61.2387 45.8188 61.026 44.8454 61.026 43.7218C61.026 42.626 61.2387 41.6642 61.6641 40.8365C62.0895 40.0089 62.6883 39.3638 63.4605 38.9015C64.2373 38.4391 65.1482 38.2079 66.1932 38.2079C66.896 38.2079 67.5503 38.3212 68.156 38.5477C68.7664 38.7697 69.2981 39.1049 69.7512 39.5534C70.209 40.0019 70.565 40.5661 70.8194 41.2458C71.0737 41.9208 71.2008 42.7115 71.2008 43.6178V44.4293H62.2051V42.5982H68.4196C68.4196 42.1728 68.3271 41.796 68.1421 41.4677C67.9572 41.1394 67.7005 40.8828 67.3723 40.6978C67.0486 40.5083 66.6717 40.4135 66.2417 40.4135C65.7932 40.4135 65.3955 40.5175 65.0488 40.7256C64.7066 40.929 64.4384 41.2041 64.2442 41.5509C64.05 41.8931 63.9506 42.2746 63.946 42.6953V44.4362C63.946 44.9634 64.0431 45.4188 64.2373 45.8026C64.4361 46.1864 64.7158 46.4823 65.0765 46.6904C65.4372 46.8984 65.8649 47.0025 66.3596 47.0025C66.6879 47.0025 66.9885 46.9562 67.2613 46.8638C67.5341 46.7713 67.7676 46.6326 67.9618 46.4476C68.156 46.2627 68.304 46.0361 68.4057 45.7679L71.1384 45.9482C70.9997 46.6048 70.7153 47.1782 70.2853 47.6683C69.8599 48.1538 69.3097 48.533 68.6346 48.8058C67.9641 49.074 67.1896 49.2081 66.3111 49.2081ZM78.7955 38.3466V40.5661H72.3799V38.3466H78.7955ZM73.8364 35.7942H76.7911V45.7263C76.7911 45.9991 76.8327 46.2118 76.9159 46.3644C76.9992 46.5124 77.1148 46.6164 77.2627 46.6765C77.4153 46.7366 77.591 46.7667 77.7898 46.7667C77.9286 46.7667 78.0673 46.7551 78.206 46.732C78.3447 46.7042 78.4511 46.6834 78.525 46.6696L78.9897 48.8682C78.8418 48.9145 78.6337 48.9676 78.3655 49.0277C78.0973 49.0925 77.7713 49.1318 77.3876 49.1457C76.6755 49.1734 76.0513 49.0786 75.5149 48.8613C74.9832 48.644 74.5693 48.3064 74.2734 47.8487C73.9775 47.3909 73.8318 46.8129 73.8364 46.1147V35.7942ZM83.7581 49.2011C83.0784 49.2011 82.4727 49.0832 81.9409 48.8474C81.4092 48.607 80.9884 48.2532 80.6786 47.7862C80.3734 47.3146 80.2208 46.7274 80.2208 46.0245C80.2208 45.4327 80.3295 44.9356 80.5468 44.5333C80.7642 44.1311 81.0601 43.8074 81.4346 43.5623C81.8091 43.3173 82.2345 43.1323 82.7108 43.0075C83.1917 42.8826 83.6957 42.7948 84.2228 42.7439C84.8424 42.6792 85.3418 42.6191 85.7209 42.5636C86.1001 42.5035 86.3752 42.4156 86.5463 42.3C86.7174 42.1844 86.8029 42.0133 86.8029 41.7868V41.7451C86.8029 41.3059 86.6642 40.966 86.3868 40.7256C86.114 40.4851 85.7256 40.3649 85.2216 40.3649C84.6898 40.3649 84.2667 40.4828 83.9523 40.7186C83.6379 40.9498 83.4298 41.2411 83.3281 41.5926L80.5954 41.3706C80.7341 40.7233 81.0069 40.1638 81.4138 39.6921C81.8207 39.2159 82.3455 38.8506 82.9882 38.5963C83.6356 38.3373 84.3846 38.2079 85.2354 38.2079C85.8273 38.2079 86.3937 38.2772 86.9347 38.4159C87.4803 38.5547 87.9635 38.7697 88.3843 39.061C88.8097 39.3523 89.1449 39.7268 89.39 40.1846C89.6351 40.6377 89.7576 41.181 89.7576 41.8145V49H86.9555V47.5227H86.8723C86.7012 47.8556 86.4723 48.1492 86.1856 48.4035C85.899 48.6532 85.5545 48.8497 85.1522 48.9931C84.7499 49.1318 84.2852 49.2011 83.7581 49.2011ZM84.6043 47.162C85.0389 47.162 85.4227 47.0765 85.7556 46.9054C86.0885 46.7297 86.3498 46.4939 86.5394 46.1979C86.729 45.902 86.8237 45.5668 86.8237 45.1922V44.0617C86.7313 44.1218 86.6041 44.1773 86.4423 44.2282C86.2851 44.2744 86.107 44.3183 85.9082 44.3599C85.7094 44.3969 85.5106 44.4316 85.3117 44.464C85.1129 44.4917 84.9326 44.5172 84.7707 44.5403C84.424 44.5911 84.1211 44.6721 83.8621 44.783C83.6032 44.894 83.4021 45.0443 83.2587 45.2339C83.1154 45.4188 83.0437 45.65 83.0437 45.9274C83.0437 46.3297 83.1894 46.6372 83.4807 46.8499C83.7766 47.058 84.1511 47.162 84.6043 47.162ZM100.914 41.3845L98.2089 41.5509C98.1626 41.3197 98.0632 41.1117 97.9106 40.9267C97.7581 40.7371 97.5569 40.5869 97.3072 40.4759C97.0622 40.3603 96.7685 40.3025 96.4264 40.3025C95.9686 40.3025 95.5825 40.3996 95.2681 40.5938C94.9537 40.7834 94.7965 41.0377 94.7965 41.3567C94.7965 41.611 94.8982 41.8261 95.1016 42.0018C95.3051 42.1775 95.6542 42.3185 96.1489 42.4248L98.0771 42.8133C99.1128 43.026 99.885 43.3681 100.394 43.8398C100.902 44.3114 101.157 44.931 101.157 45.6986C101.157 46.3968 100.951 47.0094 100.539 47.5365C100.132 48.0637 99.5729 48.4752 98.8608 48.7711C98.1534 49.0624 97.3373 49.2081 96.4125 49.2081C95.0022 49.2081 93.8786 48.9145 93.0417 48.3272C92.2094 47.7354 91.7216 46.9308 91.5782 45.9136L94.4843 45.761C94.5722 46.191 94.7849 46.5193 95.1224 46.7459C95.46 46.9678 95.8923 47.0788 96.4194 47.0788C96.9373 47.0788 97.3535 46.9794 97.6679 46.7805C97.9869 46.5771 98.1488 46.3158 98.1534 45.9968C98.1488 45.7286 98.0355 45.509 97.8135 45.3379C97.5916 45.1622 97.2494 45.0281 96.787 44.9356L94.9421 44.568C93.9017 44.3599 93.1272 43.9993 92.6186 43.486C92.1146 42.9728 91.8626 42.3185 91.8626 41.5232C91.8626 40.8389 92.0476 40.2493 92.4175 39.7546C92.792 39.2598 93.3168 38.8783 93.9919 38.6102C94.6716 38.342 95.4669 38.2079 96.3778 38.2079C97.7234 38.2079 98.7822 38.4922 99.5544 39.061C100.331 39.6297 100.784 40.4042 100.914 41.3845ZM107.538 49V38.3466H110.353V40.2262H110.478C110.7 39.602 111.07 39.1095 111.588 38.7489C112.106 38.3882 112.726 38.2079 113.447 38.2079C114.177 38.2079 114.799 38.3905 115.313 38.7558C115.826 39.1165 116.168 39.6066 116.339 40.2262H116.45C116.667 39.6158 117.06 39.128 117.629 38.7627C118.203 38.3928 118.88 38.2079 119.661 38.2079C120.655 38.2079 121.462 38.5246 122.082 39.1581C122.706 39.7869 123.018 40.6793 123.018 41.8353V49H120.071V42.4179C120.071 41.8261 119.913 41.3822 119.599 41.0862C119.285 40.7903 118.891 40.6423 118.42 40.6423C117.883 40.6423 117.465 40.8134 117.164 41.1556C116.864 41.4931 116.714 41.9393 116.714 42.4942V49H113.849V42.3555C113.849 41.833 113.699 41.4168 113.398 41.107C113.102 40.7972 112.712 40.6423 112.226 40.6423C111.898 40.6423 111.602 40.7256 111.338 40.892C111.079 41.0539 110.874 41.2828 110.721 41.5787C110.568 41.87 110.492 42.2122 110.492 42.6052V49H107.538ZM130.207 49.2081C129.111 49.2081 128.168 48.9861 127.377 48.5422C126.591 48.0937 125.986 47.4602 125.56 46.6418C125.135 45.8188 124.922 44.8454 124.922 43.7218C124.922 42.626 125.135 41.6642 125.56 40.8365C125.986 40.0089 126.584 39.3638 127.357 38.9015C128.133 38.4391 129.044 38.2079 130.089 38.2079C130.792 38.2079 131.446 38.3212 132.052 38.5477C132.663 38.7697 133.194 39.1049 133.647 39.5534C134.105 40.0019 134.461 40.5661 134.716 41.2458C134.97 41.9208 135.097 42.7115 135.097 43.6178V44.4293H126.101V42.5982H132.316C132.316 42.1728 132.223 41.796 132.038 41.4677C131.853 41.1394 131.597 40.8828 131.268 40.6978C130.945 40.5083 130.568 40.4135 130.138 40.4135C129.689 40.4135 129.292 40.5175 128.945 40.7256C128.603 40.929 128.335 41.2041 128.14 41.5509C127.946 41.8931 127.847 42.2746 127.842 42.6953V44.4362C127.842 44.9634 127.939 45.4188 128.133 45.8026C128.332 46.1864 128.612 46.4823 128.973 46.6904C129.333 46.8984 129.761 47.0025 130.256 47.0025C130.584 47.0025 130.885 46.9562 131.157 46.8638C131.43 46.7713 131.664 46.6326 131.858 46.4476C132.052 46.2627 132.2 46.0361 132.302 45.7679L135.035 45.9482C134.896 46.6048 134.611 47.1782 134.181 47.6683C133.756 48.1538 133.206 48.533 132.531 48.8058C131.86 49.074 131.086 49.2081 130.207 49.2081ZM139.98 42.841V49H137.025V38.3466H139.841V40.2262H139.966C140.202 39.6066 140.597 39.1165 141.152 38.7558C141.707 38.3905 142.38 38.2079 143.17 38.2079C143.91 38.2079 144.555 38.3697 145.105 38.6934C145.656 39.0171 146.083 39.4794 146.389 40.0805C146.694 40.677 146.846 41.3891 146.846 42.2168V49H143.892V42.7439C143.896 42.0919 143.73 41.5833 143.392 41.218C143.055 40.8481 142.59 40.6632 141.998 40.6632C141.6 40.6632 141.249 40.7487 140.944 40.9198C140.643 41.0909 140.408 41.3406 140.236 41.6688C140.07 41.9925 139.984 42.3832 139.98 42.841ZM158.039 41.3845L155.334 41.5509C155.288 41.3197 155.188 41.1117 155.036 40.9267C154.883 40.7371 154.682 40.5869 154.432 40.4759C154.187 40.3603 153.894 40.3025 153.551 40.3025C153.094 40.3025 152.708 40.3996 152.393 40.5938C152.079 40.7834 151.922 41.0377 151.922 41.3567C151.922 41.611 152.023 41.8261 152.227 42.0018C152.43 42.1775 152.779 42.3185 153.274 42.4248L155.202 42.8133C156.238 43.026 157.01 43.3681 157.519 43.8398C158.027 44.3114 158.282 44.931 158.282 45.6986C158.282 46.3968 158.076 47.0094 157.664 47.5365C157.258 48.0637 156.698 48.4752 155.986 48.7711C155.278 49.0624 154.462 49.2081 153.538 49.2081C152.127 49.2081 151.004 48.9145 150.167 48.3272C149.334 47.7354 148.847 46.9308 148.703 45.9136L151.609 45.761C151.697 46.191 151.91 46.5193 152.248 46.7459C152.585 46.9678 153.017 47.0788 153.545 47.0788C154.062 47.0788 154.479 46.9794 154.793 46.7805C155.112 46.5771 155.274 46.3158 155.278 45.9968C155.274 45.7286 155.161 45.509 154.939 45.3379C154.717 45.1622 154.375 45.0281 153.912 44.9356L152.067 44.568C151.027 44.3599 150.252 43.9993 149.744 43.486C149.24 42.9728 148.988 42.3185 148.988 41.5232C148.988 40.8389 149.173 40.2493 149.543 39.7546C149.917 39.2598 150.442 38.8783 151.117 38.6102C151.797 38.342 152.592 38.2079 153.503 38.2079C154.848 38.2079 155.907 38.4922 156.68 39.061C157.456 39.6297 157.909 40.4042 158.039 41.3845ZM163.18 49.2011C162.5 49.2011 161.895 49.0832 161.363 48.8474C160.831 48.607 160.41 48.2532 160.101 47.7862C159.795 47.3146 159.643 46.7274 159.643 46.0245C159.643 45.4327 159.752 44.9356 159.969 44.5333C160.186 44.1311 160.482 43.8074 160.857 43.5623C161.231 43.3173 161.657 43.1323 162.133 43.0075C162.614 42.8826 163.118 42.7948 163.645 42.7439C164.264 42.6792 164.764 42.6191 165.143 42.5636C165.522 42.5035 165.797 42.4156 165.968 42.3C166.139 42.1844 166.225 42.0133 166.225 41.7868V41.7451C166.225 41.3059 166.086 40.966 165.809 40.7256C165.536 40.4851 165.148 40.3649 164.644 40.3649C164.112 40.3649 163.689 40.4828 163.374 40.7186C163.06 40.9498 162.852 41.2411 162.75 41.5926L160.017 41.3706C160.156 40.7233 160.429 40.1638 160.836 39.6921C161.243 39.2159 161.768 38.8506 162.41 38.5963C163.058 38.3373 163.807 38.2079 164.657 38.2079C165.249 38.2079 165.816 38.2772 166.357 38.4159C166.902 38.5547 167.386 38.7697 167.806 39.061C168.232 39.3523 168.567 39.7268 168.812 40.1846C169.057 40.6377 169.18 41.181 169.18 41.8145V49H166.378V47.5227H166.294C166.123 47.8556 165.894 48.1492 165.608 48.4035C165.321 48.6532 164.976 48.8497 164.574 48.9931C164.172 49.1318 163.707 49.2011 163.18 49.2011ZM164.026 47.162C164.461 47.162 164.845 47.0765 165.178 46.9054C165.511 46.7297 165.772 46.4939 165.961 46.1979C166.151 45.902 166.246 45.5668 166.246 45.1922V44.0617C166.153 44.1218 166.026 44.1773 165.864 44.2282C165.707 44.2744 165.529 44.3183 165.33 44.3599C165.131 44.3969 164.933 44.4316 164.734 44.464C164.535 44.4917 164.355 44.5172 164.193 44.5403C163.846 44.5911 163.543 44.6721 163.284 44.783C163.025 44.894 162.824 45.0443 162.681 45.2339C162.537 45.4188 162.466 45.65 162.466 45.9274C162.466 46.3297 162.611 46.6372 162.903 46.8499C163.199 47.058 163.573 47.162 164.026 47.162ZM174.427 34.7955V49H171.472V34.7955H174.427Z" fill="#4D4F5C"/>
<path opacity="0.5" d="M38.7704 314.248V315.185H34.9522V314.248H38.7704ZM43.0968 320.171V309.262H43.7956V320.171H43.0968ZM45.4491 312.535C45.3979 312.103 45.1905 311.767 44.8269 311.529C44.4633 311.29 44.0172 311.171 43.4888 311.171C43.1025 311.171 42.7644 311.233 42.4746 311.358C42.1877 311.483 41.9633 311.655 41.8013 311.874C41.6422 312.093 41.5627 312.341 41.5627 312.62C41.5627 312.853 41.6181 313.053 41.7289 313.221C41.8425 313.385 41.9874 313.523 42.1635 313.634C42.3397 313.742 42.5243 313.831 42.7175 313.902C42.9107 313.971 43.0883 314.026 43.2502 314.069L44.1366 314.307C44.3638 314.367 44.6167 314.449 44.8951 314.554C45.1763 314.66 45.4448 314.803 45.7005 314.985C45.959 315.164 46.1721 315.394 46.3397 315.675C46.5073 315.956 46.5911 316.302 46.5911 316.711C46.5911 317.182 46.4675 317.608 46.2204 317.989C45.976 318.37 45.6181 318.672 45.1465 318.897C44.6777 319.121 44.1081 319.233 43.4377 319.233C42.8127 319.233 42.2715 319.133 41.8141 318.931C41.3596 318.729 41.0016 318.448 40.7402 318.087C40.4817 317.726 40.3354 317.307 40.3013 316.83H41.3922C41.4206 317.16 41.5314 317.432 41.7246 317.648C41.9206 317.861 42.1678 318.02 42.4661 318.125C42.7672 318.228 43.0911 318.279 43.4377 318.279C43.8411 318.279 44.2033 318.213 44.5243 318.083C44.8454 317.949 45.0996 317.765 45.2871 317.529C45.4746 317.29 45.5684 317.012 45.5684 316.694C45.5684 316.404 45.4874 316.168 45.3255 315.986C45.1635 315.804 44.9505 315.657 44.6863 315.543C44.4221 315.429 44.1366 315.33 43.8297 315.245L42.7559 314.938C42.0741 314.742 41.5343 314.462 41.1366 314.098C40.7388 313.735 40.54 313.259 40.54 312.671C40.54 312.182 40.6721 311.756 40.9363 311.392C41.2033 311.026 41.5613 310.742 42.0101 310.54C42.4618 310.336 42.9661 310.233 43.5229 310.233C44.0854 310.233 44.5854 310.334 45.0229 310.536C45.4604 310.735 45.807 311.008 46.0627 311.354C46.3212 311.701 46.4576 312.094 46.4718 312.535H45.4491ZM51.2434 310.353V319.08H50.1866V311.461H50.1355L48.0048 312.875V311.802L50.1866 310.353H51.2434ZM56.5488 319.199C55.9636 319.199 55.4466 319.096 54.9977 318.888C54.5517 318.678 54.2037 318.39 53.9537 318.023C53.7037 317.654 53.5801 317.233 53.5829 316.762C53.5801 316.392 53.6525 316.052 53.8003 315.739C53.948 315.424 54.1497 315.161 54.4054 314.951C54.6639 314.738 54.9522 314.603 55.2704 314.546V314.495C54.8528 314.387 54.5204 314.152 54.2733 313.792C54.0261 313.428 53.904 313.015 53.9068 312.552C53.904 312.108 54.0162 311.712 54.2434 311.363C54.4707 311.013 54.7832 310.738 55.1809 310.536C55.5815 310.334 56.0375 310.233 56.5488 310.233C57.0545 310.233 57.5062 310.334 57.904 310.536C58.3017 310.738 58.6142 311.013 58.8415 311.363C59.0716 311.712 59.188 312.108 59.1909 312.552C59.188 313.015 59.0616 313.428 58.8116 313.792C58.5645 314.152 58.2363 314.387 57.8272 314.495V314.546C58.1426 314.603 58.4267 314.738 58.6795 314.951C58.9324 315.161 59.1341 315.424 59.2846 315.739C59.4352 316.052 59.5119 316.392 59.5147 316.762C59.5119 317.233 59.3841 317.654 59.1312 318.023C58.8812 318.39 58.5332 318.678 58.0872 318.888C57.644 319.096 57.1312 319.199 56.5488 319.199ZM56.5488 318.262C56.9437 318.262 57.2846 318.198 57.5716 318.07C57.8585 317.942 58.0801 317.762 58.2363 317.529C58.3926 317.296 58.4721 317.023 58.475 316.711C58.4721 316.381 58.3869 316.09 58.2193 315.837C58.0517 315.584 57.823 315.385 57.5332 315.24C57.2463 315.096 56.9182 315.023 56.5488 315.023C56.1767 315.023 55.8443 315.096 55.5517 315.24C55.2619 315.385 55.0332 315.584 54.8656 315.837C54.7008 316.09 54.6199 316.381 54.6227 316.711C54.6199 317.023 54.6951 317.296 54.8486 317.529C55.0048 317.762 55.2278 317.942 55.5176 318.07C55.8074 318.198 56.1511 318.262 56.5488 318.262ZM56.5488 314.12C56.8613 314.12 57.1383 314.057 57.3798 313.932C57.6241 313.807 57.8159 313.633 57.9551 313.408C58.0943 313.184 58.1653 312.921 58.1682 312.62C58.1653 312.324 58.0957 312.067 57.9594 311.848C57.823 311.627 57.6341 311.456 57.3926 311.337C57.1511 311.215 56.8699 311.154 56.5488 311.154C56.2221 311.154 55.9366 311.215 55.6923 311.337C55.448 311.456 55.2591 311.627 55.1255 311.848C54.992 312.067 54.9267 312.324 54.9295 312.62C54.9267 312.921 54.9934 313.184 55.1298 313.408C55.269 313.633 55.4608 313.807 55.7051 313.932C55.9494 314.057 56.2307 314.12 56.5488 314.12ZM62.3954 317.887L62.3272 318.347C62.279 318.671 62.2051 319.017 62.1057 319.387C62.0091 319.756 61.9082 320.104 61.8031 320.431C61.698 320.758 61.6113 321.017 61.5432 321.211H60.7761C60.813 321.029 60.8613 320.789 60.921 320.49C60.9807 320.192 61.0403 319.858 61.1 319.489C61.1625 319.123 61.2136 318.748 61.2534 318.364L61.3045 317.887H62.3954ZM66.7932 319.199C66.2932 319.199 65.8429 319.1 65.4423 318.901C65.0417 318.702 64.7207 318.429 64.4792 318.083C64.2378 317.736 64.1057 317.341 64.0829 316.898H65.1057C65.1454 317.293 65.3244 317.62 65.6426 317.878C65.9636 318.134 66.3471 318.262 66.7932 318.262C67.1511 318.262 67.4693 318.178 67.7477 318.01C68.029 317.843 68.2491 317.613 68.4082 317.32C68.5701 317.025 68.6511 316.691 68.6511 316.319C68.6511 315.938 68.5673 315.598 68.3997 315.3C68.2349 314.999 68.0076 314.762 67.7179 314.588C67.4281 314.415 67.0971 314.327 66.725 314.324C66.4579 314.321 66.1838 314.363 65.9025 314.448C65.6213 314.53 65.3897 314.637 65.2079 314.767L64.2193 314.648L64.7477 310.353H69.2818V311.29H65.6341L65.3272 313.864H65.3784C65.5574 313.722 65.7818 313.604 66.0517 313.51C66.3216 313.417 66.6028 313.37 66.8954 313.37C67.4295 313.37 67.9054 313.498 68.323 313.753C68.7434 314.006 69.073 314.353 69.3116 314.793C69.5531 315.233 69.6738 315.736 69.6738 316.302C69.6738 316.858 69.5488 317.356 69.2988 317.793C69.0517 318.228 68.7108 318.571 68.2761 318.824C67.8415 319.074 67.3471 319.199 66.7932 319.199ZM71.6394 319.08L75.5428 311.358V311.29H71.0428V310.353H76.6337V311.341L72.7473 319.08H71.6394ZM80.8812 319.199C80.2392 319.199 79.6923 319.025 79.2406 318.675C78.7889 318.323 78.4437 317.813 78.2051 317.145C77.9665 316.475 77.8471 315.665 77.8471 314.716C77.8471 313.773 77.9665 312.968 78.2051 312.3C78.4466 311.63 78.7932 311.118 79.2449 310.766C79.6994 310.411 80.2449 310.233 80.8812 310.233C81.5176 310.233 82.0616 310.411 82.5133 310.766C82.9679 311.118 83.3145 311.63 83.5531 312.3C83.7946 312.968 83.9153 313.773 83.9153 314.716C83.9153 315.665 83.796 316.475 83.5574 317.145C83.3187 317.813 82.9736 318.323 82.5219 318.675C82.0701 319.025 81.5233 319.199 80.8812 319.199ZM80.8812 318.262C81.5176 318.262 82.0119 317.955 82.3642 317.341C82.7165 316.728 82.8926 315.853 82.8926 314.716C82.8926 313.961 82.8116 313.317 82.6497 312.786C82.4906 312.255 82.2605 311.85 81.9594 311.571C81.6611 311.293 81.3017 311.154 80.8812 311.154C80.2505 311.154 79.7576 311.465 79.4025 312.087C79.0474 312.706 78.8699 313.583 78.8699 314.716C78.8699 315.472 78.9494 316.114 79.1085 316.642C79.2676 317.171 79.4963 317.573 79.7946 317.848C80.0957 318.124 80.4579 318.262 80.8812 318.262Z" fill="#4D4F5C"/>
<path opacity="0.5" d="M286.043 320.154V309.415H286.731V320.154H286.043ZM288.358 312.637C288.308 312.212 288.104 311.882 287.746 311.647C287.388 311.412 286.949 311.294 286.429 311.294C286.048 311.294 285.716 311.356 285.43 311.479C285.148 311.602 284.927 311.771 284.768 311.987C284.611 312.202 284.533 312.447 284.533 312.721C284.533 312.95 284.587 313.147 284.696 313.312C284.808 313.474 284.951 313.61 285.124 313.719C285.298 313.825 285.479 313.913 285.67 313.983C285.86 314.05 286.035 314.105 286.194 314.147L287.066 314.382C287.29 314.441 287.539 314.522 287.813 314.625C288.09 314.729 288.354 314.87 288.606 315.049C288.86 315.225 289.07 315.451 289.235 315.728C289.4 316.005 289.483 316.345 289.483 316.748C289.483 317.212 289.361 317.631 289.118 318.006C288.877 318.381 288.525 318.679 288.061 318.9C287.599 319.121 287.038 319.231 286.378 319.231C285.763 319.231 285.231 319.132 284.78 318.933C284.333 318.735 283.98 318.458 283.723 318.103C283.469 317.747 283.325 317.335 283.291 316.865H284.365C284.393 317.19 284.502 317.458 284.692 317.671C284.885 317.88 285.128 318.037 285.422 318.14C285.719 318.241 286.037 318.291 286.378 318.291C286.776 318.291 287.132 318.227 287.448 318.098C287.764 317.967 288.014 317.785 288.199 317.553C288.384 317.318 288.476 317.044 288.476 316.731C288.476 316.446 288.396 316.214 288.237 316.035C288.077 315.856 287.868 315.71 287.608 315.598C287.347 315.486 287.066 315.389 286.764 315.305L285.707 315.003C285.036 314.81 284.505 314.534 284.113 314.176C283.722 313.818 283.526 313.35 283.526 312.771C283.526 312.29 283.656 311.871 283.916 311.513C284.179 311.152 284.531 310.872 284.973 310.674C285.418 310.472 285.914 310.372 286.462 310.372C287.016 310.372 287.508 310.471 287.939 310.669C288.37 310.865 288.711 311.134 288.962 311.475C289.217 311.816 289.351 312.203 289.365 312.637H288.358ZM293.945 319.197C293.391 319.197 292.898 319.102 292.464 318.912C292.033 318.722 291.691 318.458 291.436 318.119C291.185 317.778 291.048 317.382 291.025 316.932H292.082C292.105 317.209 292.2 317.448 292.368 317.65C292.535 317.848 292.755 318.002 293.026 318.111C293.297 318.22 293.598 318.275 293.928 318.275C294.297 318.275 294.624 318.21 294.91 318.082C295.195 317.953 295.419 317.774 295.581 317.545C295.743 317.315 295.824 317.05 295.824 316.748C295.824 316.432 295.746 316.153 295.589 315.913C295.433 315.67 295.203 315.479 294.901 315.342C294.599 315.205 294.23 315.137 293.794 315.137H293.106V314.214H293.794C294.135 314.214 294.434 314.152 294.691 314.029C294.952 313.906 295.154 313.733 295.3 313.509C295.448 313.286 295.522 313.023 295.522 312.721C295.522 312.43 295.458 312.177 295.329 311.961C295.2 311.746 295.019 311.578 294.784 311.458C294.552 311.338 294.278 311.278 293.962 311.278C293.665 311.278 293.386 311.332 293.123 311.441C292.863 311.548 292.65 311.703 292.485 311.907C292.32 312.108 292.231 312.352 292.217 312.637H291.21C291.227 312.187 291.362 311.792 291.617 311.454C291.871 311.113 292.204 310.847 292.615 310.657C293.029 310.467 293.483 310.372 293.978 310.372C294.51 310.372 294.966 310.479 295.346 310.695C295.726 310.907 296.018 311.188 296.223 311.538C296.427 311.887 296.529 312.265 296.529 312.67C296.529 313.154 296.402 313.567 296.147 313.908C295.895 314.249 295.553 314.485 295.119 314.617V314.684C295.662 314.773 296.086 315.004 296.39 315.376C296.695 315.745 296.848 316.202 296.848 316.748C296.848 317.215 296.72 317.634 296.466 318.006C296.214 318.375 295.87 318.666 295.434 318.879C294.998 319.091 294.501 319.197 293.945 319.197ZM301.584 310.489V319.08H300.543V311.58H300.493L298.395 312.972V311.915L300.543 310.489H301.584ZM305.04 317.905L304.973 318.358C304.925 318.677 304.853 319.018 304.755 319.382C304.66 319.746 304.56 320.088 304.457 320.41C304.353 320.731 304.268 320.987 304.201 321.177H303.446C303.482 320.998 303.53 320.762 303.589 320.468C303.647 320.175 303.706 319.846 303.765 319.483C303.826 319.122 303.877 318.753 303.916 318.375L303.966 317.905H305.04ZM306.656 317.318V316.462L310.431 310.489H311.052V311.815H310.633L307.78 316.328V316.395H312.864V317.318H306.656ZM310.7 319.08V317.058V316.66V310.489H311.69V319.08H310.7ZM317.339 319.197C316.785 319.197 316.292 319.102 315.858 318.912C315.428 318.722 315.085 318.458 314.831 318.119C314.579 317.778 314.442 317.382 314.42 316.932H315.477C315.499 317.209 315.594 317.448 315.762 317.65C315.93 317.848 316.149 318.002 316.42 318.111C316.692 318.22 316.992 318.275 317.322 318.275C317.691 318.275 318.019 318.21 318.304 318.082C318.589 317.953 318.813 317.774 318.975 317.545C319.137 317.315 319.218 317.05 319.218 316.748C319.218 316.432 319.14 316.153 318.983 315.913C318.827 315.67 318.598 315.479 318.296 315.342C317.993 315.205 317.624 315.137 317.188 315.137H316.5V314.214H317.188C317.529 314.214 317.828 314.152 318.086 314.029C318.346 313.906 318.549 313.733 318.694 313.509C318.842 313.286 318.916 313.023 318.916 312.721C318.916 312.43 318.852 312.177 318.723 311.961C318.595 311.746 318.413 311.578 318.178 311.458C317.946 311.338 317.672 311.278 317.356 311.278C317.059 311.278 316.78 311.332 316.517 311.441C316.257 311.548 316.044 311.703 315.879 311.907C315.714 312.108 315.625 312.352 315.611 312.637H314.604C314.621 312.187 314.757 311.792 315.011 311.454C315.265 311.113 315.598 310.847 316.009 310.657C316.423 310.467 316.878 310.372 317.373 310.372C317.904 310.372 318.36 310.479 318.74 310.695C319.12 310.907 319.413 311.188 319.617 311.538C319.821 311.887 319.923 312.265 319.923 312.67C319.923 313.154 319.796 313.567 319.541 313.908C319.29 314.249 318.947 314.485 318.514 314.617V314.684C319.056 314.773 319.48 315.004 319.785 315.376C320.089 315.745 320.242 316.202 320.242 316.748C320.242 317.215 320.115 317.634 319.86 318.006C319.608 318.375 319.265 318.666 318.828 318.879C318.392 319.091 317.896 319.197 317.339 319.197ZM324.76 319.197C324.128 319.197 323.589 319.025 323.145 318.681C322.7 318.335 322.36 317.833 322.125 317.176C321.89 316.516 321.773 315.719 321.773 314.785C321.773 313.856 321.89 313.063 322.125 312.406C322.363 311.746 322.704 311.243 323.149 310.896C323.596 310.546 324.133 310.372 324.76 310.372C325.386 310.372 325.922 310.546 326.366 310.896C326.814 311.243 327.155 311.746 327.39 312.406C327.628 313.063 327.746 313.856 327.746 314.785C327.746 315.719 327.629 316.516 327.394 317.176C327.159 317.833 326.819 318.335 326.375 318.681C325.93 319.025 325.392 319.197 324.76 319.197ZM324.76 318.275C325.386 318.275 325.873 317.973 326.219 317.368C326.566 316.764 326.74 315.903 326.74 314.785C326.74 314.041 326.66 313.407 326.501 312.884C326.344 312.361 326.117 311.963 325.821 311.689C325.527 311.415 325.174 311.278 324.76 311.278C324.139 311.278 323.654 311.584 323.304 312.196C322.955 312.806 322.78 313.669 322.78 314.785C322.78 315.528 322.858 316.16 323.015 316.681C323.171 317.201 323.396 317.596 323.69 317.868C323.986 318.139 324.343 318.275 324.76 318.275Z" fill="#4D4F5C"/>
<mask id="path-5-inside-1_21_747" fill="white">
<path d="M24.1 351.08H287.6V392.08H24.1V351.08Z"/>
</mask>
<path d="M24.1 352.08H287.6V350.08H24.1V352.08Z" fill="#EFEFEF" mask="url(#path-5-inside-1_21_747)"/>
<path d="M111.999 374.989L114.235 381.751H114.323L116.555 374.989H118.266L115.238 383.58H113.316L110.292 374.989H111.999ZM119.331 383.58V377.137H120.849V383.58H119.331ZM120.094 376.222C119.854 376.222 119.647 376.143 119.473 375.983C119.3 375.821 119.213 375.627 119.213 375.4C119.213 375.171 119.3 374.976 119.473 374.817C119.647 374.655 119.854 374.574 120.094 374.574C120.337 374.574 120.544 374.655 120.715 374.817C120.888 374.976 120.975 375.171 120.975 375.4C120.975 375.627 120.888 375.821 120.715 375.983C120.544 376.143 120.337 376.222 120.094 376.222ZM125.263 383.706C124.617 383.706 124.059 383.572 123.589 383.303C123.122 383.032 122.763 382.649 122.511 382.154C122.26 381.656 122.134 381.07 122.134 380.396C122.134 379.733 122.26 379.152 122.511 378.651C122.766 378.148 123.121 377.756 123.577 377.477C124.033 377.194 124.568 377.053 125.183 377.053C125.58 377.053 125.955 377.117 126.308 377.246C126.663 377.372 126.976 377.567 127.247 377.833C127.521 378.099 127.737 378.437 127.893 378.848C128.05 379.257 128.128 379.743 128.128 380.308V380.774H122.847V379.75H126.673C126.67 379.459 126.607 379.201 126.484 378.974C126.361 378.745 126.189 378.564 125.968 378.433C125.75 378.302 125.495 378.236 125.204 378.236C124.894 378.236 124.621 378.311 124.386 378.462C124.151 378.611 123.968 378.806 123.837 379.05C123.708 379.29 123.643 379.554 123.64 379.842V380.736C123.64 381.111 123.708 381.432 123.845 381.701C123.982 381.966 124.174 382.171 124.42 382.313C124.666 382.453 124.954 382.523 125.284 382.523C125.505 382.523 125.705 382.492 125.884 382.431C126.063 382.366 126.218 382.273 126.35 382.15C126.481 382.026 126.58 381.874 126.647 381.692L128.065 381.852C127.976 382.226 127.805 382.554 127.553 382.833C127.305 383.11 126.986 383.325 126.597 383.479C126.208 383.63 125.764 383.706 125.263 383.706ZM130.708 383.58L128.887 377.137H130.435L131.568 381.667H131.627L132.784 377.137H134.315L135.473 381.642H135.536L136.652 377.137H138.204L136.379 383.58H134.798L133.59 379.226H133.502L132.294 383.58H130.708ZM142.261 383.58V374.989H147.765V376.294H143.818V378.626H147.387V379.93H143.818V383.58H142.261ZM152.819 380.87V377.137H154.337V383.58H152.865V382.435H152.798C152.652 382.796 152.413 383.091 152.08 383.32C151.75 383.549 151.343 383.664 150.86 383.664C150.437 383.664 150.064 383.57 149.74 383.383C149.418 383.193 149.166 382.917 148.985 382.556C148.803 382.193 148.712 381.754 148.712 381.239V377.137H150.23V381.004C150.23 381.413 150.342 381.737 150.566 381.978C150.79 382.218 151.083 382.338 151.447 382.338C151.671 382.338 151.887 382.284 152.097 382.175C152.307 382.066 152.479 381.903 152.613 381.688C152.75 381.47 152.819 381.197 152.819 380.87ZM157.417 374.989V383.58H155.899V374.989H157.417ZM160.497 374.989V383.58H158.979V374.989H160.497ZM165.056 383.58V374.989H168.277C168.937 374.989 169.491 375.104 169.939 375.333C170.389 375.562 170.729 375.884 170.958 376.298C171.19 376.709 171.306 377.189 171.306 377.737C171.306 378.288 171.189 378.766 170.954 379.171C170.722 379.574 170.379 379.886 169.926 380.107C169.473 380.325 168.916 380.434 168.256 380.434H165.962V379.142H168.047C168.433 379.142 168.749 379.089 168.995 378.982C169.241 378.873 169.423 378.715 169.54 378.508C169.66 378.299 169.72 378.041 169.72 377.737C169.72 377.432 169.66 377.172 169.54 376.956C169.42 376.738 169.237 376.573 168.991 376.461C168.744 376.347 168.427 376.289 168.038 376.289H166.612V383.58H165.056ZM169.494 379.687L171.621 383.58H169.884L167.795 379.687H169.494ZM175.432 383.706C174.786 383.706 174.228 383.572 173.758 383.303C173.291 383.032 172.932 382.649 172.68 382.154C172.428 381.656 172.302 381.07 172.302 380.396C172.302 379.733 172.428 379.152 172.68 378.651C172.934 378.148 173.289 377.756 173.745 377.477C174.201 377.194 174.737 377.053 175.352 377.053C175.749 377.053 176.124 377.117 176.476 377.246C176.831 377.372 177.144 377.567 177.416 377.833C177.69 378.099 177.905 378.437 178.062 378.848C178.218 379.257 178.297 379.743 178.297 380.308V380.774H173.015V379.75H176.841C176.838 379.459 176.775 379.201 176.652 378.974C176.529 378.745 176.357 378.564 176.136 378.433C175.918 378.302 175.664 378.236 175.373 378.236C175.062 378.236 174.79 378.311 174.555 378.462C174.32 378.611 174.137 378.806 174.005 379.05C173.877 379.29 173.811 379.554 173.808 379.842V380.736C173.808 381.111 173.877 381.432 174.014 381.701C174.151 381.966 174.342 382.171 174.588 382.313C174.835 382.453 175.123 382.523 175.453 382.523C175.674 382.523 175.873 382.492 176.052 382.431C176.231 382.366 176.387 382.273 176.518 382.15C176.649 382.026 176.749 381.874 176.816 381.692L178.234 381.852C178.144 382.226 177.974 382.554 177.722 382.833C177.473 383.11 177.154 383.325 176.766 383.479C176.377 383.63 175.932 383.706 175.432 383.706ZM179.581 385.996V377.137H181.075V378.202H181.163C181.241 378.046 181.351 377.879 181.494 377.703C181.637 377.524 181.83 377.372 182.073 377.246C182.316 377.117 182.627 377.053 183.004 377.053C183.502 377.053 183.951 377.18 184.351 377.435C184.753 377.686 185.072 378.06 185.307 378.555C185.545 379.047 185.664 379.651 185.664 380.367C185.664 381.074 185.548 381.676 185.316 382.171C185.083 382.665 184.767 383.043 184.368 383.303C183.968 383.563 183.515 383.693 183.008 383.693C182.639 383.693 182.333 383.632 182.09 383.509C181.846 383.386 181.651 383.237 181.503 383.064C181.357 382.888 181.244 382.721 181.163 382.565H181.1V385.996H179.581ZM181.07 380.358C181.07 380.775 181.129 381.14 181.247 381.453C181.367 381.766 181.539 382.011 181.763 382.187C181.989 382.361 182.263 382.447 182.585 382.447C182.92 382.447 183.201 382.358 183.428 382.179C183.654 381.997 183.825 381.75 183.94 381.436C184.057 381.12 184.116 380.761 184.116 380.358C184.116 379.958 184.059 379.603 183.944 379.293C183.829 378.982 183.659 378.739 183.432 378.563C183.206 378.387 182.923 378.299 182.585 378.299C182.26 378.299 181.985 378.384 181.758 378.555C181.532 378.725 181.36 378.964 181.242 379.272C181.128 379.58 181.07 379.942 181.07 380.358ZM189.775 383.706C189.145 383.706 188.6 383.567 188.139 383.291C187.677 383.014 187.319 382.626 187.065 382.129C186.813 381.631 186.687 381.049 186.687 380.384C186.687 379.718 186.813 379.135 187.065 378.634C187.319 378.134 187.677 377.745 188.139 377.468C188.6 377.191 189.145 377.053 189.775 377.053C190.404 377.053 190.949 377.191 191.411 377.468C191.872 377.745 192.229 378.134 192.48 378.634C192.735 379.135 192.862 379.718 192.862 380.384C192.862 381.049 192.735 381.631 192.48 382.129C192.229 382.626 191.872 383.014 191.411 383.291C190.949 383.567 190.404 383.706 189.775 383.706ZM189.783 382.489C190.124 382.489 190.409 382.396 190.639 382.208C190.868 382.018 191.039 381.764 191.151 381.445C191.265 381.126 191.322 380.771 191.322 380.379C191.322 379.985 191.265 379.628 191.151 379.31C191.039 378.988 190.868 378.732 190.639 378.542C190.409 378.352 190.124 378.257 189.783 378.257C189.433 378.257 189.143 378.352 188.91 378.542C188.681 378.732 188.509 378.988 188.395 379.31C188.283 379.628 188.227 379.985 188.227 380.379C188.227 380.771 188.283 381.126 188.395 381.445C188.509 381.764 188.681 382.018 188.91 382.208C189.143 382.396 189.433 382.489 189.783 382.489ZM194.151 383.58V377.137H195.623V378.211H195.69C195.808 377.839 196.009 377.552 196.294 377.351C196.582 377.147 196.911 377.044 197.28 377.044C197.364 377.044 197.458 377.049 197.561 377.057C197.667 377.063 197.756 377.072 197.825 377.086V378.483C197.761 378.461 197.659 378.441 197.519 378.425C197.382 378.405 197.249 378.395 197.121 378.395C196.844 378.395 196.595 378.455 196.374 378.576C196.156 378.693 195.984 378.857 195.858 379.066C195.732 379.276 195.669 379.518 195.669 379.792V383.58H194.151ZM202.398 377.137V378.311H198.694V377.137H202.398ZM199.608 375.593H201.127V381.642C201.127 381.846 201.157 382.003 201.219 382.112C201.283 382.218 201.367 382.291 201.471 382.33C201.574 382.369 201.689 382.389 201.815 382.389C201.91 382.389 201.996 382.382 202.075 382.368C202.156 382.354 202.217 382.341 202.259 382.33L202.515 383.517C202.434 383.545 202.318 383.576 202.167 383.609C202.019 383.643 201.837 383.662 201.622 383.668C201.241 383.679 200.899 383.622 200.594 383.496C200.289 383.367 200.047 383.169 199.868 382.9C199.692 382.632 199.605 382.296 199.608 381.894V375.593Z" fill="#3B86FF"/>
<line x1="37.6312" y1="171.969" x2="324.84" y2="171.969" stroke="#2D2E5F" stroke-width="7.0625" stroke-linecap="round" stroke-linejoin="round"/>
<line x1="37.6312" y1="171.969" x2="161.225" y2="171.969" stroke="#0075FF" stroke-width="7.0625" stroke-linecap="round" stroke-linejoin="round"/>
<path d="M34.9 136.78V135.4L41.92 125.68H44.1V135.2H46.1V136.78H44.1V140H42.3V136.78H34.9ZM42.38 127.58L37 135.2H42.38V127.58ZM47.9181 132.62C47.9181 130.327 48.2914 128.54 49.0381 127.26C49.7848 125.967 51.0914 125.32 52.9581 125.32C54.8114 125.32 56.1114 125.967 56.8581 127.26C57.6048 128.54 57.9781 130.327 57.9781 132.62C57.9781 134.953 57.6048 136.767 56.8581 138.06C56.1114 139.353 54.8114 140 52.9581 140C51.0914 140 49.7848 139.353 49.0381 138.06C48.2914 136.767 47.9181 134.953 47.9181 132.62ZM56.1781 132.62C56.1781 131.46 56.0981 130.48 55.9381 129.68C55.7914 128.867 55.4781 128.213 54.9981 127.72C54.5314 127.227 53.8514 126.98 52.9581 126.98C52.0514 126.98 51.3581 127.227 50.8781 127.72C50.4114 128.213 50.0981 128.867 49.9381 129.68C49.7914 130.48 49.7181 131.46 49.7181 132.62C49.7181 133.82 49.7914 134.827 49.9381 135.64C50.0981 136.453 50.4114 137.107 50.8781 137.6C51.3581 138.093 52.0514 138.34 52.9581 138.34C53.8514 138.34 54.5314 138.093 54.9981 137.6C55.4781 137.107 55.7914 136.453 55.9381 135.64C56.0981 134.827 56.1781 133.82 56.1781 132.62ZM60.0767 128.8C60.0767 127.893 60.35 127.173 60.8967 126.64C61.4434 126.093 62.1434 125.82 62.9967 125.82C63.85 125.82 64.55 126.093 65.0967 126.64C65.6434 127.173 65.9167 127.893 65.9167 128.8C65.9167 129.72 65.6434 130.453 65.0967 131C64.55 131.533 63.85 131.8 62.9967 131.8C62.1434 131.8 61.4434 131.533 60.8967 131C60.35 130.453 60.0767 129.72 60.0767 128.8ZM71.7567 126.04L63.6567 140H61.8567L69.9567 126.04H71.7567ZM62.9967 126.94C62.5434 126.94 62.1834 127.1 61.9167 127.42C61.6634 127.727 61.5367 128.187 61.5367 128.8C61.5367 129.413 61.6634 129.88 61.9167 130.2C62.1834 130.52 62.5434 130.68 62.9967 130.68C63.45 130.68 63.81 130.52 64.0767 130.2C64.3434 129.867 64.4767 129.4 64.4767 128.8C64.4767 128.187 64.3434 127.727 64.0767 127.42C63.81 127.1 63.45 126.94 62.9967 126.94ZM67.7367 137.24C67.7367 136.32 68.01 135.593 68.5567 135.06C69.1034 134.513 69.8034 134.24 70.6567 134.24C71.51 134.24 72.2034 134.513 72.7367 135.06C73.2834 135.593 73.5567 136.32 73.5567 137.24C73.5567 138.147 73.2834 138.873 72.7367 139.42C72.2034 139.967 71.51 140.24 70.6567 140.24C69.8034 140.24 69.1034 139.973 68.5567 139.44C68.01 138.893 67.7367 138.16 67.7367 137.24ZM70.6367 135.38C70.1834 135.38 69.8234 135.54 69.5567 135.86C69.29 136.167 69.1567 136.627 69.1567 137.24C69.1567 137.84 69.29 138.3 69.5567 138.62C69.8234 138.927 70.1834 139.08 70.6367 139.08C71.09 139.08 71.45 138.927 71.7167 138.62C71.9834 138.3 72.1167 137.84 72.1167 137.24C72.1167 136.627 71.9834 136.167 71.7167 135.86C71.45 135.54 71.09 135.38 70.6367 135.38Z" fill="black"/>
</svg>