<svg width="686" height="281" viewBox="0 0 686 281" fill="none" xmlns="http://www.w3.org/2000/svg">
<rect x="0.400024" width="684.9" height="276" rx="4.95521" fill="#F7FAFF" fill-opacity="0.7"/>
<path d="M22.5107 35.2365V25.1813H24.6366V29.33H28.9523V25.1813H31.0733V35.2365H28.9523V31.0828H24.6366V35.2365H22.5107ZM36.1942 35.3838C35.4316 35.3838 34.772 35.2218 34.2156 34.8977C33.6624 34.5704 33.2352 34.1154 32.9341 33.5328C32.633 32.9469 32.4824 32.2677 32.4824 31.4953C32.4824 30.7162 32.633 30.0354 32.9341 29.4528C33.2352 28.8669 33.6624 28.4119 34.2156 28.0879C34.772 27.7606 35.4316 27.5969 36.1942 27.5969C36.9569 27.5969 37.6148 27.7606 38.1679 28.0879C38.7244 28.4119 39.1532 28.8669 39.4543 29.4528C39.7554 30.0354 39.906 30.7162 39.906 31.4953C39.906 32.2677 39.7554 32.9469 39.4543 33.5328C39.1532 34.1154 38.7244 34.5704 38.1679 34.8977C37.6148 35.2218 36.9569 35.3838 36.1942 35.3838ZM36.204 33.7636C36.551 33.7636 36.8407 33.6654 37.0731 33.469C37.3055 33.2693 37.4806 32.9977 37.5984 32.654C37.7195 32.3103 37.7801 31.9191 37.7801 31.4805C37.7801 31.0419 37.7195 30.6508 37.5984 30.3071C37.4806 29.9634 37.3055 29.6917 37.0731 29.4921C36.8407 29.2924 36.551 29.1926 36.204 29.1926C35.8538 29.1926 35.5592 29.2924 35.3203 29.4921C35.0846 29.6917 34.9062 29.9634 34.7851 30.3071C34.6673 30.6508 34.6083 31.0419 34.6083 31.4805C34.6083 31.9191 34.6673 32.3103 34.7851 32.654C34.9062 32.9977 35.0846 33.2693 35.3203 33.469C35.5592 33.6654 35.8538 33.7636 36.204 33.7636ZM41.266 35.2365V27.6951H43.2937V29.0109H43.3723C43.5098 28.5428 43.7405 28.1893 44.0646 27.9504C44.3886 27.7082 44.7618 27.5871 45.184 27.5871C45.2887 27.5871 45.4017 27.5936 45.5228 27.6067C45.6439 27.6198 45.7503 27.6378 45.8419 27.6607V29.5166C45.7437 29.4872 45.6079 29.461 45.4344 29.4381C45.2609 29.4152 45.1022 29.4037 44.9582 29.4037C44.6505 29.4037 44.3755 29.4708 44.1333 29.605C43.8944 29.7359 43.7045 29.9192 43.5638 30.1549C43.4263 30.3906 43.3576 30.6622 43.3576 30.9699V35.2365H41.266ZM48.8577 35.3789C48.3766 35.3789 47.9478 35.2954 47.5714 35.1285C47.195 34.9583 46.8971 34.7079 46.6778 34.3773C46.4618 34.0434 46.3538 33.6277 46.3538 33.1302C46.3538 32.7112 46.4307 32.3594 46.5845 32.0746C46.7384 31.7898 46.9478 31.5607 47.213 31.3872C47.4781 31.2138 47.7792 31.0828 48.1164 30.9945C48.4568 30.9061 48.8136 30.8439 49.1867 30.8079C49.6253 30.7621 49.9788 30.7195 50.2472 30.6802C50.5156 30.6377 50.7104 30.5755 50.8315 30.4937C50.9526 30.4118 51.0131 30.2907 51.0131 30.1303V30.1009C51.0131 29.7899 50.9149 29.5494 50.7186 29.3791C50.5254 29.2089 50.2505 29.1238 49.8937 29.1238C49.5173 29.1238 49.2178 29.2073 48.9952 29.3742C48.7726 29.5379 48.6254 29.7441 48.5533 29.9929L46.6189 29.8358C46.7171 29.3775 46.9102 28.9815 47.1982 28.6476C47.4863 28.3105 47.8578 28.0519 48.3128 27.8718C48.771 27.6885 49.3013 27.5969 49.9035 27.5969C50.3225 27.5969 50.7235 27.646 51.1064 27.7442C51.4927 27.8424 51.8347 27.9946 52.1326 28.2008C52.4337 28.407 52.671 28.6721 52.8445 28.9962C53.018 29.317 53.1047 29.7016 53.1047 30.15V35.2365H51.1212V34.1907H51.0622C50.9411 34.4264 50.7791 34.6342 50.5762 34.8143C50.3732 34.991 50.1294 35.1301 49.8446 35.2316C49.5598 35.3298 49.2309 35.3789 48.8577 35.3789ZM49.4567 33.9354C49.7644 33.9354 50.0361 33.8749 50.2718 33.7538C50.5074 33.6294 50.6924 33.4624 50.8266 33.253C50.9608 33.0435 51.0279 32.8062 51.0279 32.541V31.7408C50.9624 31.7833 50.8724 31.8226 50.7578 31.8586C50.6465 31.8913 50.5205 31.9224 50.3798 31.9519C50.239 31.9781 50.0983 32.0026 49.9575 32.0255C49.8168 32.0452 49.6891 32.0632 49.5746 32.0795C49.3291 32.1155 49.1147 32.1728 48.9314 32.2514C48.7481 32.3299 48.6057 32.4363 48.5042 32.5705C48.4028 32.7014 48.352 32.8651 48.352 33.0615C48.352 33.3462 48.4551 33.5639 48.6614 33.7145C48.8708 33.8618 49.136 33.9354 49.4567 33.9354ZM61.0021 29.8456L59.0873 29.9634C59.0545 29.7998 58.9842 29.6525 58.8761 29.5215C58.7681 29.3873 58.6257 29.281 58.449 29.2024C58.2755 29.1206 58.0677 29.0797 57.8255 29.0797C57.5014 29.0797 57.2281 29.1484 57.0055 29.2859C56.7829 29.4201 56.6717 29.6001 56.6717 29.8259C56.6717 30.006 56.7437 30.1582 56.8877 30.2825C57.0317 30.4069 57.2788 30.5068 57.6291 30.582L58.994 30.857C59.7272 31.0076 60.2738 31.2498 60.6338 31.5836C60.9939 31.9175 61.1739 32.3561 61.1739 32.8995C61.1739 33.3937 61.0283 33.8274 60.737 34.2005C60.4489 34.5737 60.0529 34.865 59.5488 35.0745C59.048 35.2807 58.4703 35.3838 57.8156 35.3838C56.8173 35.3838 56.0219 35.176 55.4295 34.7603C54.8403 34.3413 54.495 33.7718 54.3935 33.0517L56.4507 32.9436C56.5129 33.2481 56.6635 33.4804 56.9024 33.6408C57.1414 33.7979 57.4474 33.8765 57.8205 33.8765C58.1871 33.8765 58.4817 33.8061 58.7043 33.6654C58.9302 33.5214 59.0447 33.3364 59.048 33.1106C59.0447 32.9207 58.9645 32.7653 58.8074 32.6441C58.6503 32.5198 58.4081 32.4248 58.0808 32.3594L56.7748 32.0992C56.0383 31.9519 55.49 31.6966 55.13 31.3332C54.7732 30.9699 54.5948 30.5068 54.5948 29.9438C54.5948 29.4593 54.7257 29.042 54.9876 28.6918C55.2527 28.3415 55.6242 28.0715 56.1021 27.8817C56.5833 27.6918 57.1463 27.5969 57.7911 27.5969C58.7436 27.5969 59.4931 27.7982 60.0398 28.2008C60.5897 28.6034 60.9104 29.1517 61.0021 29.8456ZM68.4699 35.3593C67.897 35.3593 67.3782 35.212 66.9135 34.9174C66.4519 34.6195 66.0853 34.1825 65.8137 33.6065C65.5453 33.0271 65.4111 32.3168 65.4111 31.4756C65.4111 30.6115 65.5502 29.893 65.8284 29.3202C66.1066 28.7441 66.4765 28.3137 66.938 28.029C67.4028 27.7409 67.9118 27.5969 68.4649 27.5969C68.8872 27.5969 69.2391 27.6689 69.5205 27.8129C69.8053 27.9537 70.0344 28.1304 70.2079 28.3432C70.3847 28.5527 70.5189 28.7589 70.6105 28.9618H70.6743V25.1813H72.761V35.2365H70.6989V34.0287H70.6105C70.5123 34.2382 70.3732 34.446 70.1932 34.6522C70.0164 34.8552 69.7857 35.0238 69.5009 35.158C69.2194 35.2922 68.8757 35.3593 68.4699 35.3593ZM69.1327 33.6948C69.4698 33.6948 69.7546 33.6032 69.987 33.4199C70.2226 33.2333 70.4027 32.9731 70.5271 32.6392C70.6547 32.3054 70.7185 31.9142 70.7185 31.4658C70.7185 31.0174 70.6563 30.6279 70.532 30.2973C70.4076 29.9667 70.2276 29.7114 69.9919 29.5314C69.7562 29.3513 69.4698 29.2613 69.1327 29.2613C68.789 29.2613 68.4993 29.3546 68.2636 29.5412C68.028 29.7277 67.8496 29.9863 67.7285 30.3169C67.6074 30.6475 67.5468 31.0305 67.5468 31.4658C67.5468 31.9044 67.6074 32.2923 67.7285 32.6294C67.8529 32.9633 68.0312 33.2251 68.2636 33.415C68.4993 33.6016 68.789 33.6948 69.1327 33.6948ZM77.9175 35.3838C77.1417 35.3838 76.474 35.2267 75.9143 34.9125C75.3579 34.595 74.9291 34.1465 74.6279 33.5672C74.3268 32.9846 74.1762 32.2956 74.1762 31.5002C74.1762 30.7244 74.3268 30.0436 74.6279 29.4577C74.9291 28.8718 75.353 28.4152 75.8996 28.0879C76.4495 27.7606 77.0943 27.5969 77.834 27.5969C78.3315 27.5969 78.7947 27.6771 79.2235 27.8375C79.6556 27.9946 80.032 28.2319 80.3527 28.5494C80.6768 28.8669 80.9288 29.2662 81.1088 29.7474C81.2889 30.2253 81.3789 30.785 81.3789 31.4265V32.001H75.0109V30.7048H79.4101C79.4101 30.4037 79.3446 30.1369 79.2137 29.9045C79.0827 29.6721 78.9011 29.4904 78.6687 29.3595C78.4396 29.2253 78.1728 29.1582 77.8684 29.1582C77.5509 29.1582 77.2694 29.2319 77.0239 29.3791C76.7817 29.5232 76.5919 29.7179 76.4544 29.9634C76.3169 30.2056 76.2465 30.4757 76.2433 30.7735V32.0059C76.2433 32.379 76.312 32.7014 76.4495 32.9731C76.5902 33.2448 76.7882 33.4543 77.0436 33.6016C77.2989 33.7488 77.6016 33.8225 77.9519 33.8225C78.1843 33.8225 78.397 33.7898 78.5901 33.7243C78.7832 33.6588 78.9485 33.5606 79.086 33.4297C79.2235 33.2988 79.3282 33.1384 79.4002 32.9486L81.3347 33.0762C81.2365 33.541 81.0352 33.9469 80.7308 34.2938C80.4297 34.6375 80.0402 34.9059 79.5623 35.099C79.0877 35.2889 78.5394 35.3838 77.9175 35.3838ZM85.9437 35.2365V27.6951H87.9371V29.0256H88.0255C88.1826 28.5838 88.4445 28.2352 88.8111 27.9799C89.1777 27.7246 89.6163 27.5969 90.1269 27.5969C90.644 27.5969 91.0843 27.7262 91.4476 27.9848C91.8109 28.2401 92.0531 28.587 92.1743 29.0256H92.2528C92.4067 28.5936 92.6849 28.2483 93.0875 27.9897C93.4933 27.7278 93.9729 27.5969 94.526 27.5969C95.2298 27.5969 95.8009 27.8211 96.2395 28.2695C96.6814 28.7147 96.9024 29.3464 96.9024 30.1647V35.2365H94.8157V30.5771C94.8157 30.1582 94.7044 29.8439 94.4818 29.6345C94.2593 29.425 93.9811 29.3202 93.6472 29.3202C93.2675 29.3202 92.9713 29.4413 92.7585 29.6836C92.5458 29.9225 92.4394 30.2384 92.4394 30.6311V35.2365H90.4116V30.5329C90.4116 30.1631 90.3053 29.8685 90.0925 29.6492C89.883 29.4299 89.6064 29.3202 89.2628 29.3202C89.0304 29.3202 88.8209 29.3791 88.6343 29.497C88.451 29.6115 88.3053 29.7736 88.1973 29.983C88.0893 30.1893 88.0353 30.4315 88.0353 30.7097V35.2365H85.9437ZM100.705 35.3789C100.224 35.3789 99.795 35.2954 99.4186 35.1285C99.0422 34.9583 98.7444 34.7079 98.5251 34.3773C98.309 34.0434 98.201 33.6277 98.201 33.1302C98.201 32.7112 98.2779 32.3594 98.4318 32.0746C98.5856 31.7898 98.7951 31.5607 99.0602 31.3872C99.3253 31.2138 99.6265 31.0828 99.9636 30.9945C100.304 30.9061 100.661 30.8439 101.034 30.8079C101.473 30.7621 101.826 30.7195 102.094 30.6802C102.363 30.6377 102.558 30.5755 102.679 30.4937C102.8 30.4118 102.86 30.2907 102.86 30.1303V30.1009C102.86 29.7899 102.762 29.5494 102.566 29.3791C102.373 29.2089 102.098 29.1238 101.741 29.1238C101.365 29.1238 101.065 29.2073 100.842 29.3742C100.62 29.5379 100.473 29.7441 100.401 29.9929L98.4661 29.8358C98.5643 29.3775 98.7574 28.9815 99.0455 28.6476C99.3335 28.3105 99.705 28.0519 100.16 27.8718C100.618 27.6885 101.149 27.5969 101.751 27.5969C102.17 27.5969 102.571 27.646 102.954 27.7442C103.34 27.8424 103.682 27.9946 103.98 28.2008C104.281 28.407 104.518 28.6721 104.692 28.9962C104.865 29.317 104.952 29.7016 104.952 30.15V35.2365H102.968V34.1907H102.909C102.788 34.4264 102.626 34.6342 102.423 34.8143C102.22 34.991 101.977 35.1301 101.692 35.2316C101.407 35.3298 101.078 35.3789 100.705 35.3789ZM101.304 33.9354C101.612 33.9354 101.883 33.8749 102.119 33.7538C102.355 33.6294 102.54 33.4624 102.674 33.253C102.808 33.0435 102.875 32.8062 102.875 32.541V31.7408C102.81 31.7833 102.72 31.8226 102.605 31.8586C102.494 31.8913 102.368 31.9224 102.227 31.9519C102.086 31.9781 101.946 32.0026 101.805 32.0255C101.664 32.0452 101.536 32.0632 101.422 32.0795C101.176 32.1155 100.962 32.1728 100.779 32.2514C100.595 32.3299 100.453 32.4363 100.351 32.5705C100.25 32.7014 100.199 32.8651 100.199 33.0615C100.199 33.3462 100.302 33.5639 100.509 33.7145C100.718 33.8618 100.983 33.9354 101.304 33.9354ZM106.575 35.2365V27.6951H108.666V35.2365H106.575ZM107.625 26.723C107.314 26.723 107.048 26.6199 106.825 26.4136C106.606 26.2042 106.496 25.9538 106.496 25.6624C106.496 25.3744 106.606 25.1273 106.825 24.9211C107.048 24.7116 107.314 24.6068 107.625 24.6068C107.936 24.6068 108.201 24.7116 108.421 24.9211C108.643 25.1273 108.755 25.3744 108.755 25.6624C108.755 25.9538 108.643 26.2042 108.421 26.4136C108.201 26.6199 107.936 26.723 107.625 26.723ZM116.616 29.8456L114.702 29.9634C114.669 29.7998 114.598 29.6525 114.49 29.5215C114.382 29.3873 114.24 29.281 114.063 29.2024C113.89 29.1206 113.682 29.0797 113.44 29.0797C113.116 29.0797 112.842 29.1484 112.62 29.2859C112.397 29.4201 112.286 29.6001 112.286 29.8259C112.286 30.006 112.358 30.1582 112.502 30.2825C112.646 30.4069 112.893 30.5068 113.243 30.582L114.608 30.857C115.341 31.0076 115.888 31.2498 116.248 31.5836C116.608 31.9175 116.788 32.3561 116.788 32.8995C116.788 33.3937 116.643 33.8274 116.351 34.2005C116.063 34.5737 115.667 34.865 115.163 35.0745C114.662 35.2807 114.085 35.3838 113.43 35.3838C112.432 35.3838 111.636 35.176 111.044 34.7603C110.455 34.3413 110.109 33.7718 110.008 33.0517L112.065 32.9436C112.127 33.2481 112.278 33.4804 112.517 33.6408C112.756 33.7979 113.062 33.8765 113.435 33.8765C113.801 33.8765 114.096 33.8061 114.319 33.6654C114.544 33.5214 114.659 33.3364 114.662 33.1106C114.659 32.9207 114.579 32.7653 114.422 32.6441C114.265 32.5198 114.022 32.4248 113.695 32.3594L112.389 32.0992C111.653 31.9519 111.104 31.6966 110.744 31.3332C110.387 30.9699 110.209 30.5068 110.209 29.9438C110.209 29.4593 110.34 29.042 110.602 28.6918C110.867 28.3415 111.239 28.0715 111.716 27.8817C112.198 27.6918 112.761 27.5969 113.405 27.5969C114.358 27.5969 115.107 27.7982 115.654 28.2008C116.204 28.6034 116.525 29.1517 116.616 29.8456ZM128.336 27.6951L125.699 35.2365H123.343L120.706 27.6951H122.916L124.482 33.0909H124.56L126.122 27.6951H128.336ZM132.6 35.3838C131.824 35.3838 131.157 35.2267 130.597 34.9125C130.04 34.595 129.612 34.1465 129.311 33.5672C129.009 32.9846 128.859 32.2956 128.859 31.5002C128.859 30.7244 129.009 30.0436 129.311 29.4577C129.612 28.8718 130.036 28.4152 130.582 28.0879C131.132 27.7606 131.777 27.5969 132.517 27.5969C133.014 27.5969 133.477 27.6771 133.906 27.8375C134.338 27.9946 134.715 28.2319 135.035 28.5494C135.359 28.8669 135.611 29.2662 135.791 29.7474C135.972 30.2253 136.062 30.785 136.062 31.4265V32.001H129.694V30.7048H134.093C134.093 30.4037 134.027 30.1369 133.896 29.9045C133.765 29.6721 133.584 29.4904 133.351 29.3595C133.122 29.2253 132.855 29.1582 132.551 29.1582C132.234 29.1582 131.952 29.2319 131.707 29.3791C131.464 29.5232 131.274 29.7179 131.137 29.9634C131 30.2056 130.929 30.4757 130.926 30.7735V32.0059C130.926 32.379 130.995 32.7014 131.132 32.9731C131.273 33.2448 131.471 33.4543 131.726 33.6016C131.981 33.7488 132.284 33.8225 132.634 33.8225C132.867 33.8225 133.08 33.7898 133.273 33.7243C133.466 33.6588 133.631 33.5606 133.769 33.4297C133.906 33.2988 134.011 33.1384 134.083 32.9486L136.017 33.0762C135.919 33.541 135.718 33.9469 135.413 34.2938C135.112 34.6375 134.723 34.9059 134.245 35.099C133.77 35.2889 133.222 35.3838 132.6 35.3838ZM139.518 30.8766V35.2365H137.426V27.6951H139.42V29.0256H139.508C139.675 28.587 139.955 28.2401 140.348 27.9848C140.741 27.7262 141.217 27.5969 141.777 27.5969C142.3 27.5969 142.757 27.7115 143.146 27.9406C143.536 28.1697 143.839 28.497 144.055 28.9225C144.271 29.3448 144.379 29.8488 144.379 30.4347V35.2365H142.287V30.8079C142.29 30.3464 142.173 29.9863 141.934 29.7277C141.695 29.4659 141.366 29.335 140.947 29.335C140.665 29.335 140.416 29.3955 140.2 29.5166C139.988 29.6377 139.821 29.8145 139.7 30.0469C139.582 30.276 139.521 30.5526 139.518 30.8766ZM148.806 35.3593C148.233 35.3593 147.714 35.212 147.25 34.9174C146.788 34.6195 146.422 34.1825 146.15 33.6065C145.881 33.0271 145.747 32.3168 145.747 31.4756C145.747 30.6115 145.886 29.893 146.165 29.3202C146.443 28.7441 146.813 28.3137 147.274 28.029C147.739 27.7409 148.248 27.5969 148.801 27.5969C149.223 27.5969 149.575 27.6689 149.857 27.8129C150.142 27.9537 150.371 28.1304 150.544 28.3432C150.721 28.5527 150.855 28.7589 150.947 28.9618H151.011V25.1813H153.097V35.2365H151.035V34.0287H150.947C150.849 34.2382 150.709 34.446 150.529 34.6522C150.353 34.8552 150.122 35.0238 149.837 35.158C149.556 35.2922 149.212 35.3593 148.806 35.3593ZM149.469 33.6948C149.806 33.6948 150.091 33.6032 150.323 33.4199C150.559 33.2333 150.739 32.9731 150.863 32.6392C150.991 32.3054 151.055 31.9142 151.055 31.4658C151.055 31.0174 150.993 30.6279 150.868 30.2973C150.744 29.9667 150.564 29.7114 150.328 29.5314C150.092 29.3513 149.806 29.2613 149.469 29.2613C149.125 29.2613 148.836 29.3546 148.6 29.5412C148.364 29.7277 148.186 29.9863 148.065 30.3169C147.944 30.6475 147.883 31.0305 147.883 31.4658C147.883 31.9044 147.944 32.2923 148.065 32.6294C148.189 32.9633 148.367 33.2251 148.6 33.415C148.836 33.6016 149.125 33.6948 149.469 33.6948ZM156.967 35.3789C156.486 35.3789 156.057 35.2954 155.681 35.1285C155.305 34.9583 155.007 34.7079 154.787 34.3773C154.571 34.0434 154.463 33.6277 154.463 33.1302C154.463 32.7112 154.54 32.3594 154.694 32.0746C154.848 31.7898 155.057 31.5607 155.323 31.3872C155.588 31.2138 155.889 31.0828 156.226 30.9945C156.566 30.9061 156.923 30.8439 157.296 30.8079C157.735 30.7621 158.088 30.7195 158.357 30.6802C158.625 30.6377 158.82 30.5755 158.941 30.4937C159.062 30.4118 159.123 30.2907 159.123 30.1303V30.1009C159.123 29.7899 159.025 29.5494 158.828 29.3791C158.635 29.2089 158.36 29.1238 158.003 29.1238C157.627 29.1238 157.327 29.2073 157.105 29.3742C156.882 29.5379 156.735 29.7441 156.663 29.9929L154.728 29.8358C154.827 29.3775 155.02 28.9815 155.308 28.6476C155.596 28.3105 155.967 28.0519 156.422 27.8718C156.881 27.6885 157.411 27.5969 158.013 27.5969C158.432 27.5969 158.833 27.646 159.216 27.7442C159.602 27.8424 159.944 27.9946 160.242 28.2008C160.543 28.407 160.781 28.6721 160.954 28.9962C161.128 29.317 161.214 29.7016 161.214 30.15V35.2365H159.231V34.1907H159.172C159.051 34.4264 158.889 34.6342 158.686 34.8143C158.483 34.991 158.239 35.1301 157.954 35.2316C157.669 35.3298 157.34 35.3789 156.967 35.3789ZM157.566 33.9354C157.874 33.9354 158.146 33.8749 158.381 33.7538C158.617 33.6294 158.802 33.4624 158.936 33.253C159.07 33.0435 159.137 32.8062 159.137 32.541V31.7408C159.072 31.7833 158.982 31.8226 158.867 31.8586C158.756 31.8913 158.63 31.9224 158.489 31.9519C158.349 31.9781 158.208 32.0026 158.067 32.0255C157.926 32.0452 157.799 32.0632 157.684 32.0795C157.439 32.1155 157.224 32.1728 157.041 32.2514C156.858 32.3299 156.715 32.4363 156.614 32.5705C156.512 32.7014 156.462 32.8651 156.462 33.0615C156.462 33.3462 156.565 33.5639 156.771 33.7145C156.98 33.8618 157.246 33.9354 157.566 33.9354ZM169.112 29.8456L167.197 29.9634C167.164 29.7998 167.094 29.6525 166.986 29.5215C166.878 29.3873 166.735 29.281 166.559 29.2024C166.385 29.1206 166.177 29.0797 165.935 29.0797C165.611 29.0797 165.338 29.1484 165.115 29.2859C164.893 29.4201 164.781 29.6001 164.781 29.8259C164.781 30.006 164.853 30.1582 164.997 30.2825C165.141 30.4069 165.388 30.5068 165.739 30.582L167.104 30.857C167.837 31.0076 168.383 31.2498 168.743 31.5836C169.104 31.9175 169.284 32.3561 169.284 32.8995C169.284 33.3937 169.138 33.8274 168.847 34.2005C168.559 34.5737 168.162 34.865 167.658 35.0745C167.158 35.2807 166.58 35.3838 165.925 35.3838C164.927 35.3838 164.132 35.176 163.539 34.7603C162.95 34.3413 162.605 33.7718 162.503 33.0517L164.56 32.9436C164.623 33.2481 164.773 33.4804 165.012 33.6408C165.251 33.7979 165.557 33.8765 165.93 33.8765C166.297 33.8765 166.591 33.8061 166.814 33.6654C167.04 33.5214 167.154 33.3364 167.158 33.1106C167.154 32.9207 167.074 32.7653 166.917 32.6441C166.76 32.5198 166.518 32.4248 166.19 32.3594L164.884 32.0992C164.148 31.9519 163.6 31.6966 163.24 31.3332C162.883 30.9699 162.704 30.5068 162.704 29.9438C162.704 29.4593 162.835 29.042 163.097 28.6918C163.362 28.3415 163.734 28.0715 164.212 27.8817C164.693 27.6918 165.256 27.5969 165.901 27.5969C166.853 27.5969 167.603 27.7982 168.149 28.2008C168.699 28.6034 169.02 29.1517 169.112 29.8456Z" fill="#4D4F5C"/>
<path d="M564.021 26.2516V32.2365H563.296V27.0114H563.261L561.8 27.9816V27.2452L563.296 26.2516H564.021ZM570.453 26.2516H571.177V30.5299C571.177 30.9117 571.107 31.2361 570.967 31.503C570.827 31.7699 570.629 31.9725 570.374 32.1109C570.118 32.2492 569.817 32.3183 569.471 32.3183C569.143 32.3183 568.852 32.2589 568.597 32.1401C568.342 32.0193 568.141 31.8478 567.995 31.6258C567.849 31.4037 567.776 31.1397 567.776 30.8338H568.489C568.489 31.0033 568.531 31.1514 568.614 31.278C568.7 31.4027 568.817 31.5001 568.965 31.5702C569.113 31.6404 569.282 31.6754 569.471 31.6754C569.679 31.6754 569.856 31.6316 570.003 31.5439C570.149 31.4563 570.26 31.3277 570.336 31.1582C570.414 30.9867 570.453 30.7773 570.453 30.5299V26.2516ZM573.857 32.3417C573.573 32.3417 573.314 32.2881 573.083 32.181C572.851 32.0719 572.667 31.9151 572.53 31.7105C572.394 31.504 572.326 31.2546 572.326 30.9624C572.326 30.7052 572.376 30.4968 572.478 30.337C572.579 30.1753 572.714 30.0487 572.884 29.9571C573.053 29.8656 573.24 29.7974 573.445 29.7526C573.652 29.7058 573.859 29.6688 574.067 29.6415C574.34 29.6064 574.561 29.5801 574.731 29.5626C574.902 29.5431 575.027 29.511 575.105 29.4662C575.185 29.4214 575.225 29.3434 575.225 29.2324V29.209C575.225 28.9207 575.146 28.6966 574.988 28.5369C574.832 28.3771 574.595 28.2973 574.278 28.2973C573.949 28.2973 573.69 28.3693 573.503 28.5135C573.316 28.6577 573.185 28.8116 573.109 28.9752L572.454 28.7414C572.571 28.4687 572.727 28.2563 572.922 28.1044C573.119 27.9505 573.333 27.8433 573.565 27.7829C573.799 27.7206 574.028 27.6894 574.254 27.6894C574.399 27.6894 574.564 27.7069 574.751 27.742C574.94 27.7751 575.122 27.8443 575.298 27.9495C575.475 28.0547 575.622 28.2135 575.739 28.4258C575.856 28.6382 575.914 28.9226 575.914 29.2791V32.2365H575.225V31.6287H575.19C575.143 31.7261 575.065 31.8303 574.956 31.9414C574.847 32.0524 574.702 32.1469 574.52 32.2248C574.339 32.3028 574.118 32.3417 573.857 32.3417ZM573.962 31.7222C574.235 31.7222 574.465 31.6686 574.652 31.5615C574.841 31.4543 574.983 31.316 575.079 31.1465C575.176 30.977 575.225 30.7987 575.225 30.6117V29.9805C575.195 30.0156 575.131 30.0477 575.032 30.0769C574.934 30.1042 574.821 30.1286 574.693 30.15C574.566 30.1695 574.442 30.187 574.322 30.2026C574.203 30.2162 574.106 30.2279 574.032 30.2377C573.853 30.261 573.686 30.299 573.53 30.3516C573.376 30.4023 573.251 30.4792 573.156 30.5825C573.062 30.6838 573.015 30.8221 573.015 30.9975C573.015 31.2371 573.104 31.4183 573.281 31.541C573.461 31.6618 573.688 31.7222 573.962 31.7222ZM577.863 29.5363V32.2365H577.173V27.7479H577.839V28.4492H577.898C578.003 28.2213 578.163 28.0381 578.377 27.8998C578.591 27.7595 578.868 27.6894 579.207 27.6894C579.511 27.6894 579.777 27.7518 580.005 27.8764C580.233 27.9992 580.41 28.1862 580.537 28.4375C580.663 28.6869 580.727 29.0025 580.727 29.3843V32.2365H580.037V29.4311C580.037 29.0785 579.945 28.8038 579.762 28.607C579.579 28.4083 579.328 28.3089 579.008 28.3089C578.788 28.3089 578.591 28.3567 578.418 28.4521C578.247 28.5476 578.111 28.6869 578.012 28.87C577.912 29.0532 577.863 29.2752 577.863 29.5363ZM584.29 32.2365V31.7105L586.265 29.548C586.497 29.2947 586.688 29.0746 586.838 28.8876C586.988 28.6986 587.099 28.5213 587.171 28.3557C587.245 28.1882 587.282 28.0128 587.282 27.8297C587.282 27.6193 587.231 27.4371 587.13 27.2832C587.031 27.1293 586.894 27.0105 586.721 26.9267C586.548 26.8429 586.353 26.801 586.137 26.801C585.907 26.801 585.706 26.8488 585.535 26.9442C585.365 27.0377 585.234 27.1692 585.14 27.3387C585.048 27.5082 585.003 27.7069 585.003 27.9349H584.313C584.313 27.5842 584.394 27.2764 584.556 27.0114C584.717 26.7465 584.937 26.54 585.216 26.3919C585.497 26.2438 585.811 26.1698 586.16 26.1698C586.511 26.1698 586.821 26.2438 587.092 26.3919C587.363 26.54 587.575 26.7397 587.729 26.991C587.883 27.2423 587.96 27.5219 587.96 27.8297C587.96 28.0498 587.92 28.2651 587.84 28.4755C587.762 28.684 587.626 28.9168 587.431 29.1739C587.238 29.4292 586.97 29.7409 586.627 30.1091L585.283 31.5468V31.5936H588.065V32.2365H584.29ZM591.224 32.3183C590.784 32.3183 590.409 32.1985 590.099 31.9589C589.789 31.7173 589.553 31.3676 589.389 30.9098C589.225 30.45 589.144 29.8948 589.144 29.2441C589.144 28.5973 589.225 28.045 589.389 27.5871C589.555 27.1274 589.792 26.7767 590.102 26.5351C590.414 26.2916 590.788 26.1698 591.224 26.1698C591.661 26.1698 592.034 26.2916 592.344 26.5351C592.655 26.7767 592.893 27.1274 593.057 27.5871C593.222 28.045 593.305 28.5973 593.305 29.2441C593.305 29.8948 593.223 30.45 593.059 30.9098C592.896 31.3676 592.659 31.7173 592.349 31.9589C592.04 32.1985 591.665 32.3183 591.224 32.3183ZM591.224 31.6754C591.661 31.6754 592 31.465 592.241 31.0442C592.483 30.6234 592.604 30.0234 592.604 29.2441C592.604 28.7259 592.548 28.2846 592.437 27.9203C592.328 27.556 592.17 27.2783 591.964 27.0874C591.759 26.8965 591.513 26.801 591.224 26.801C590.792 26.801 590.454 27.0144 590.21 27.441C589.967 27.8657 589.845 28.4667 589.845 29.2441C589.845 29.7623 589.899 30.2026 590.009 30.565C590.118 30.9273 590.275 31.203 590.479 31.392C590.686 31.5809 590.934 31.6754 591.224 31.6754ZM594.415 32.2365V31.7105L596.391 29.548C596.623 29.2947 596.814 29.0746 596.964 28.8876C597.114 28.6986 597.225 28.5213 597.297 28.3557C597.371 28.1882 597.408 28.0128 597.408 27.8297C597.408 27.6193 597.357 27.4371 597.256 27.2832C597.157 27.1293 597.02 27.0105 596.847 26.9267C596.673 26.8429 596.479 26.801 596.262 26.801C596.032 26.801 595.832 26.8488 595.66 26.9442C595.491 27.0377 595.359 27.1692 595.266 27.3387C595.174 27.5082 595.128 27.7069 595.128 27.9349H594.439C594.439 27.5842 594.52 27.2764 594.681 27.0114C594.843 26.7465 595.063 26.54 595.342 26.3919C595.622 26.2438 595.937 26.1698 596.286 26.1698C596.636 26.1698 596.947 26.2438 597.218 26.3919C597.489 26.54 597.701 26.7397 597.855 26.991C598.009 27.2423 598.086 27.5219 598.086 27.8297C598.086 28.0498 598.046 28.2651 597.966 28.4755C597.888 28.684 597.752 28.9168 597.557 29.1739C597.364 29.4292 597.096 29.7409 596.753 30.1091L595.409 31.5468V31.5936H598.191V32.2365H594.415ZM599.129 31.0091V30.413L601.759 26.2516H602.192V27.1751H601.899L599.912 30.3195V30.3662H603.454V31.0091H599.129ZM601.946 32.2365V30.828V30.5503V26.2516H602.636V32.2365H601.946ZM608.827 27.7479V28.3323H606.501V27.7479H608.827ZM607.179 26.6725H607.869V30.9507C607.869 31.1455 607.897 31.2916 607.954 31.389C608.012 31.4845 608.086 31.5488 608.176 31.5819C608.267 31.6131 608.364 31.6287 608.465 31.6287C608.541 31.6287 608.603 31.6248 608.652 31.617C608.701 31.6072 608.74 31.5994 608.769 31.5936L608.909 32.2131C608.863 32.2307 608.797 32.2482 608.713 32.2657C608.63 32.2852 608.524 32.295 608.395 32.295C608.2 32.295 608.009 32.2531 607.822 32.1693C607.637 32.0855 607.483 31.9579 607.36 31.7865C607.24 31.615 607.179 31.3988 607.179 31.1377V26.6725ZM611.64 32.33C611.235 32.33 610.879 32.2336 610.574 32.0407C610.27 31.8478 610.032 31.578 609.86 31.2312C609.691 30.8845 609.606 30.4792 609.606 30.0156C609.606 29.548 609.691 29.1398 609.86 28.7911C610.032 28.4424 610.27 28.1716 610.574 27.9787C610.879 27.7858 611.235 27.6894 611.64 27.6894C612.045 27.6894 612.4 27.7858 612.704 27.9787C613.01 28.1716 613.247 28.4424 613.417 28.7911C613.588 29.1398 613.674 29.548 613.674 30.0156C613.674 30.4792 613.588 30.8845 613.417 31.2312C613.247 31.578 613.01 31.8478 612.704 32.0407C612.4 32.2336 612.045 32.33 611.64 32.33ZM611.64 31.7105C611.948 31.7105 612.201 31.6316 612.4 31.4738C612.599 31.316 612.746 31.1085 612.841 30.8513C612.937 30.5942 612.984 30.3156 612.984 30.0156C612.984 29.7155 612.937 29.436 612.841 29.1769C612.746 28.9178 612.599 28.7083 612.4 28.5486C612.201 28.3888 611.948 28.3089 611.64 28.3089C611.332 28.3089 611.079 28.3888 610.88 28.5486C610.682 28.7083 610.535 28.9178 610.439 29.1769C610.344 29.436 610.296 29.7155 610.296 30.0156C610.296 30.3156 610.344 30.5942 610.439 30.8513C610.535 31.1085 610.682 31.316 610.88 31.4738C611.079 31.6316 611.332 31.7105 611.64 31.7105ZM619.052 32.3183C618.666 32.3183 618.322 32.2521 618.02 32.1196C617.72 31.9871 617.482 31.803 617.304 31.5673C617.129 31.3296 617.034 31.054 617.018 30.7403H617.754C617.77 30.9332 617.836 31.0997 617.953 31.24C618.07 31.3783 618.223 31.4855 618.412 31.5615C618.601 31.6374 618.81 31.6754 619.04 31.6754C619.297 31.6754 619.525 31.6306 619.724 31.541C619.923 31.4514 620.079 31.3267 620.192 31.1669C620.305 31.0072 620.361 30.8221 620.361 30.6117C620.361 30.3916 620.306 30.1977 620.197 30.0302C620.088 29.8607 619.929 29.7282 619.718 29.6327C619.508 29.5373 619.251 29.4895 618.947 29.4895H618.467V28.8466H618.947C619.184 28.8466 619.393 28.8038 619.572 28.7181C619.753 28.6323 619.894 28.5116 619.996 28.3557C620.099 28.1998 620.151 28.0167 620.151 27.8063C620.151 27.6037 620.106 27.4274 620.016 27.2774C619.927 27.1274 619.8 27.0105 619.636 26.9267C619.475 26.8429 619.284 26.801 619.064 26.801C618.857 26.801 618.662 26.839 618.479 26.915C618.298 26.989 618.15 27.0972 618.035 27.2394C617.92 27.3796 617.858 27.5491 617.848 27.7479H617.147C617.158 27.4342 617.253 27.1595 617.43 26.9238C617.607 26.6861 617.839 26.501 618.125 26.3685C618.414 26.2361 618.73 26.1698 619.075 26.1698C619.445 26.1698 619.763 26.2448 620.028 26.3948C620.293 26.5429 620.496 26.7387 620.639 26.9822C620.781 27.2257 620.852 27.4887 620.852 27.7712C620.852 28.1083 620.763 28.3956 620.586 28.6333C620.411 28.871 620.172 29.0356 619.87 29.1272V29.1739C620.248 29.2363 620.543 29.397 620.756 29.6561C620.968 29.9133 621.074 30.2318 621.074 30.6117C621.074 30.9371 620.985 31.2293 620.808 31.4884C620.633 31.7456 620.393 31.9482 620.089 32.0962C619.785 32.2443 619.44 32.3183 619.052 32.3183ZM624.373 26.2516V32.2365H623.649V27.0114H623.614L622.152 27.9816V27.2452L623.649 26.2516H624.373ZM630.361 32.2365H628.514V26.2516H630.443C631.024 26.2516 631.52 26.3715 631.933 26.6111C632.346 26.8488 632.663 27.1907 632.883 27.6368C633.103 28.081 633.213 28.6129 633.213 29.2324C633.213 29.8558 633.102 30.3925 632.88 30.8426C632.658 31.2907 632.335 31.6355 631.91 31.8771C631.485 32.1167 630.969 32.2365 630.361 32.2365ZM629.239 31.5936H630.314C630.809 31.5936 631.219 31.4981 631.545 31.3072C631.87 31.1163 632.113 30.8445 632.272 30.4919C632.432 30.1393 632.512 29.7194 632.512 29.2324C632.512 28.7492 632.433 28.3333 632.275 27.9846C632.117 27.6339 631.882 27.365 631.568 27.178C631.254 26.989 630.864 26.8945 630.396 26.8945H629.239V31.5936ZM636.217 32.33C635.785 32.33 635.412 32.2346 635.098 32.0436C634.786 31.8508 634.546 31.5819 634.376 31.2371C634.209 30.8903 634.125 30.487 634.125 30.0273C634.125 29.5675 634.209 29.1623 634.376 28.8116C634.546 28.459 634.782 28.1843 635.084 27.9875C635.388 27.7888 635.742 27.6894 636.147 27.6894C636.381 27.6894 636.612 27.7284 636.84 27.8063C637.068 27.8842 637.275 28.0109 637.462 28.1862C637.649 28.3596 637.798 28.5895 637.909 28.8759C638.021 29.1623 638.076 29.5149 638.076 29.9337V30.226H634.616V29.6298H637.375C637.375 29.3766 637.324 29.1506 637.223 28.9518C637.123 28.7531 636.981 28.5963 636.796 28.4814C636.613 28.3664 636.397 28.3089 636.147 28.3089C635.873 28.3089 635.635 28.3771 635.434 28.5135C635.236 28.6479 635.083 28.8233 634.975 29.0395C634.868 29.2558 634.815 29.4876 634.815 29.735V30.1325C634.815 30.4714 634.873 30.7588 634.99 30.9945C635.109 31.2283 635.274 31.4066 635.484 31.5293C635.694 31.6501 635.939 31.7105 636.217 31.7105C636.399 31.7105 636.562 31.6852 636.708 31.6345C636.856 31.5819 636.984 31.504 637.091 31.4007C637.198 31.2955 637.281 31.165 637.34 31.0091L638.006 31.1962C637.936 31.4222 637.818 31.6209 637.652 31.7923C637.487 31.9618 637.282 32.0943 637.039 32.1898C636.795 32.2833 636.521 32.33 636.217 32.33ZM640.949 32.33C640.528 32.33 640.165 32.2307 639.862 32.032C639.558 31.8332 639.324 31.5595 639.16 31.2108C638.997 30.8621 638.915 30.4636 638.915 30.0156C638.915 29.5597 638.998 29.1574 639.166 28.8087C639.336 28.458 639.571 28.1843 639.873 27.9875C640.177 27.7888 640.532 27.6894 640.937 27.6894C641.253 27.6894 641.537 27.7479 641.79 27.8648C642.044 27.9816 642.251 28.1453 642.413 28.3557C642.574 28.5661 642.675 28.8116 642.714 29.0921H642.024C641.971 28.8876 641.855 28.7064 641.673 28.5486C641.494 28.3888 641.253 28.3089 640.949 28.3089C640.68 28.3089 640.444 28.3791 640.241 28.5193C640.041 28.6577 639.884 28.8535 639.771 29.1067C639.66 29.358 639.604 29.6532 639.604 29.9922C639.604 30.339 639.659 30.6409 639.768 30.8981C639.879 31.1553 640.035 31.355 640.236 31.4972C640.438 31.6394 640.676 31.7105 640.949 31.7105C641.128 31.7105 641.291 31.6793 641.437 31.617C641.583 31.5546 641.706 31.465 641.808 31.3481C641.909 31.2312 641.981 31.091 642.024 30.9273H642.714C642.675 31.1923 642.578 31.4309 642.424 31.6433C642.272 31.8537 642.071 32.0212 641.819 32.1459C641.57 32.2687 641.28 32.33 640.949 32.33ZM646.025 32.2365V31.7105L648 29.548C648.232 29.2947 648.423 29.0746 648.573 28.8876C648.723 28.6986 648.834 28.5213 648.906 28.3557C648.98 28.1882 649.017 28.0128 649.017 27.8297C649.017 27.6193 648.966 27.4371 648.865 27.2832C648.766 27.1293 648.629 27.0105 648.456 26.9267C648.283 26.8429 648.088 26.801 647.872 26.801C647.642 26.801 647.441 26.8488 647.27 26.9442C647.1 27.0377 646.969 27.1692 646.875 27.3387C646.784 27.5082 646.738 27.7069 646.738 27.9349H646.048C646.048 27.5842 646.129 27.2764 646.291 27.0114C646.452 26.7465 646.672 26.54 646.951 26.3919C647.232 26.2438 647.546 26.1698 647.895 26.1698C648.246 26.1698 648.556 26.2438 648.827 26.3919C649.098 26.54 649.31 26.7397 649.464 26.991C649.618 27.2423 649.695 27.5219 649.695 27.8297C649.695 28.0498 649.655 28.2651 649.575 28.4755C649.497 28.684 649.361 28.9168 649.166 29.1739C648.973 29.4292 648.705 29.7409 648.363 30.1091L647.018 31.5468V31.5936H649.8V32.2365H646.025ZM652.959 32.3183C652.519 32.3183 652.144 32.1985 651.834 31.9589C651.524 31.7173 651.288 31.3676 651.124 30.9098C650.96 30.45 650.879 29.8948 650.879 29.2441C650.879 28.5973 650.96 28.045 651.124 27.5871C651.29 27.1274 651.527 26.7767 651.837 26.5351C652.149 26.2916 652.523 26.1698 652.959 26.1698C653.396 26.1698 653.769 26.2916 654.079 26.5351C654.39 26.7767 654.628 27.1274 654.792 27.5871C654.957 28.045 655.04 28.5973 655.04 29.2441C655.04 29.8948 654.958 30.45 654.794 30.9098C654.631 31.3676 654.394 31.7173 654.084 31.9589C653.775 32.1985 653.4 32.3183 652.959 32.3183ZM652.959 31.6754C653.396 31.6754 653.735 31.465 653.976 31.0442C654.218 30.6234 654.339 30.0234 654.339 29.2441C654.339 28.7259 654.283 28.2846 654.172 27.9203C654.063 27.556 653.905 27.2783 653.699 27.0874C653.494 26.8965 653.248 26.801 652.959 26.801C652.527 26.801 652.189 27.0144 651.945 27.441C651.702 27.8657 651.58 28.4667 651.58 29.2441C651.58 29.7623 651.635 30.2026 651.744 30.565C651.853 30.9273 652.01 31.203 652.214 31.392C652.421 31.5809 652.669 31.6754 652.959 31.6754ZM656.15 32.2365V31.7105L658.126 29.548C658.358 29.2947 658.549 29.0746 658.699 28.8876C658.849 28.6986 658.96 28.5213 659.032 28.3557C659.106 28.1882 659.143 28.0128 659.143 27.8297C659.143 27.6193 659.092 27.4371 658.991 27.2832C658.892 27.1293 658.755 27.0105 658.582 26.9267C658.408 26.8429 658.214 26.801 657.997 26.801C657.767 26.801 657.567 26.8488 657.395 26.9442C657.226 27.0377 657.094 27.1692 657.001 27.3387C656.909 27.5082 656.863 27.7069 656.863 27.9349H656.174C656.174 27.5842 656.255 27.2764 656.416 27.0114C656.578 26.7465 656.798 26.54 657.077 26.3919C657.357 26.2438 657.672 26.1698 658.021 26.1698C658.371 26.1698 658.682 26.2438 658.953 26.3919C659.224 26.54 659.436 26.7397 659.59 26.991C659.744 27.2423 659.821 27.5219 659.821 27.8297C659.821 28.0498 659.781 28.2651 659.701 28.4755C659.623 28.684 659.487 28.9168 659.292 29.1739C659.099 29.4292 658.831 29.7409 658.488 30.1091L657.144 31.5468V31.5936H659.926V32.2365H656.15ZM660.864 31.0091V30.413L663.494 26.2516H663.927V27.1751H663.634L661.647 30.3195V30.3662H665.189V31.0091H660.864ZM663.681 32.2365V30.828V30.5503V26.2516H664.371V32.2365H663.681Z" fill="#A3A0FB"/>
<path d="M43.4916 269.062C42.9993 269.062 42.5799 268.928 42.2335 268.66C41.8871 268.39 41.6224 267.999 41.4394 267.487C41.2564 266.972 41.1649 266.352 41.1649 265.624C41.1649 264.901 41.2564 264.283 41.4394 263.771C41.6245 263.257 41.8903 262.865 42.2367 262.594C42.5853 262.322 43.0036 262.186 43.4916 262.186C43.9796 262.186 44.3969 262.322 44.7433 262.594C45.0918 262.865 45.3576 263.257 45.5406 263.771C45.7258 264.283 45.8184 264.901 45.8184 265.624C45.8184 266.352 45.7269 266.972 45.5439 267.487C45.3609 267.999 45.0962 268.39 44.7498 268.66C44.4034 268.928 43.984 269.062 43.4916 269.062ZM43.4916 268.343C43.9796 268.343 44.3587 268.108 44.6289 267.637C44.899 267.166 45.0341 266.495 45.0341 265.624C45.0341 265.044 44.972 264.551 44.8478 264.143C44.7258 263.736 44.5494 263.426 44.3184 263.212C44.0897 262.999 43.8141 262.892 43.4916 262.892C43.008 262.892 42.63 263.13 42.3577 263.608C42.0853 264.082 41.9492 264.755 41.9492 265.624C41.9492 266.203 42.0102 266.696 42.1322 267.101C42.2542 267.506 42.4295 267.814 42.6583 268.026C42.8892 268.237 43.167 268.343 43.4916 268.343ZM49.2432 269.062C48.7508 269.062 48.3315 268.928 47.9851 268.66C47.6387 268.39 47.374 267.999 47.1909 267.487C47.0079 266.972 46.9164 266.352 46.9164 265.624C46.9164 264.901 47.0079 264.283 47.1909 263.771C47.3761 263.257 47.6419 262.865 47.9883 262.594C48.3369 262.322 48.7552 262.186 49.2432 262.186C49.7312 262.186 50.1484 262.322 50.4948 262.594C50.8434 262.865 51.1092 263.257 51.2922 263.771C51.4774 264.283 51.57 264.901 51.57 265.624C51.57 266.352 51.4785 266.972 51.2955 267.487C51.1125 267.999 50.8478 268.39 50.5014 268.66C50.155 268.928 49.7356 269.062 49.2432 269.062ZM49.2432 268.343C49.7312 268.343 50.1103 268.108 50.3805 267.637C50.6506 267.166 50.7857 266.495 50.7857 265.624C50.7857 265.044 50.7236 264.551 50.5994 264.143C50.4774 263.736 50.3009 263.426 50.07 263.212C49.8413 262.999 49.5657 262.892 49.2432 262.892C48.7596 262.892 48.3816 263.13 48.1092 263.608C47.8369 264.082 47.7007 264.755 47.7007 265.624C47.7007 266.203 47.7617 266.696 47.8838 267.101C48.0058 267.506 48.1811 267.814 48.4099 268.026C48.6408 268.237 48.9186 268.343 49.2432 268.343ZM53.387 268.114C53.2258 268.114 53.0874 268.056 52.9719 267.941C52.8565 267.825 52.7987 267.687 52.7987 267.526C52.7987 267.365 52.8565 267.226 52.9719 267.111C53.0874 266.995 53.2258 266.938 53.387 266.938C53.5482 266.938 53.6865 266.995 53.802 267.111C53.9175 267.226 53.9752 267.365 53.9752 267.526C53.9752 267.633 53.948 267.731 53.8935 267.82C53.8412 267.909 53.7704 267.981 53.6811 268.036C53.5939 268.088 53.4959 268.114 53.387 268.114ZM53.387 264.728C53.2258 264.728 53.0874 264.671 52.9719 264.555C52.8565 264.44 52.7987 264.301 52.7987 264.14C52.7987 263.979 52.8565 263.841 52.9719 263.725C53.0874 263.61 53.2258 263.552 53.387 263.552C53.5482 263.552 53.6865 263.61 53.802 263.725C53.9175 263.841 53.9752 263.979 53.9752 264.14C53.9752 264.247 53.948 264.345 53.8935 264.434C53.8412 264.524 53.7704 264.596 53.6811 264.65C53.5939 264.702 53.4959 264.728 53.387 264.728ZM57.5291 269.062C57.0367 269.062 56.6173 268.928 56.2709 268.66C55.9245 268.39 55.6598 267.999 55.4768 267.487C55.2938 266.972 55.2023 266.352 55.2023 265.624C55.2023 264.901 55.2938 264.283 55.4768 263.771C55.662 263.257 55.9278 262.865 56.2742 262.594C56.6228 262.322 57.0411 262.186 57.5291 262.186C58.0171 262.186 58.4343 262.322 58.7807 262.594C59.1293 262.865 59.3951 263.257 59.5781 263.771C59.7633 264.283 59.8559 264.901 59.8559 265.624C59.8559 266.352 59.7644 266.972 59.5814 267.487C59.3984 267.999 59.1337 268.39 58.7873 268.66C58.4409 268.928 58.0215 269.062 57.5291 269.062ZM57.5291 268.343C58.0171 268.343 58.3962 268.108 58.6663 267.637C58.9365 267.166 59.0716 266.495 59.0716 265.624C59.0716 265.044 59.0095 264.551 58.8853 264.143C58.7633 263.736 58.5868 263.426 58.3559 263.212C58.1271 262.999 57.8515 262.892 57.5291 262.892C57.0454 262.892 56.6675 263.13 56.3951 263.608C56.1228 264.082 55.9866 264.755 55.9866 265.624C55.9866 266.203 56.0476 266.696 56.1696 267.101C56.2916 267.506 56.467 267.814 56.6958 268.026C56.9267 268.237 57.2045 268.343 57.5291 268.343ZM50.5104 280.062C50.018 280.062 49.5986 279.928 49.2522 279.66C48.9058 279.39 48.6411 278.999 48.4581 278.487C48.2751 277.972 48.1836 277.352 48.1836 276.624C48.1836 275.901 48.2751 275.283 48.4581 274.771C48.6433 274.257 48.9091 273.865 49.2555 273.594C49.6041 273.322 50.0224 273.186 50.5104 273.186C50.9984 273.186 51.4156 273.322 51.762 273.594C52.1106 273.865 52.3764 274.257 52.5594 274.771C52.7446 275.283 52.8371 275.901 52.8371 276.624C52.8371 277.352 52.7456 277.972 52.5626 278.487C52.3796 278.999 52.1149 279.39 51.7685 279.66C51.4221 279.928 51.0027 280.062 50.5104 280.062ZM50.5104 279.343C50.9984 279.343 51.3775 279.108 51.6476 278.637C51.9178 278.166 52.0528 277.495 52.0528 276.624C52.0528 276.044 51.9907 275.551 51.8666 275.143C51.7446 274.736 51.5681 274.426 51.3372 274.212C51.1084 273.999 50.8328 273.892 50.5104 273.892C50.0267 273.892 49.6487 274.13 49.3764 274.608C49.1041 275.082 48.9679 275.755 48.9679 276.624C48.9679 277.203 49.0289 277.696 49.1509 278.101C49.2729 278.506 49.4483 278.814 49.677 279.026C49.908 279.237 50.1857 279.343 50.5104 279.343Z" fill="#373D3F"/>
<path d="M137.1 269.062C136.608 269.062 136.188 268.928 135.842 268.66C135.495 268.39 135.231 267.999 135.048 267.487C134.865 266.972 134.773 266.351 134.773 265.624C134.773 264.901 134.865 264.283 135.048 263.771C135.233 263.257 135.499 262.865 135.845 262.594C136.194 262.322 136.612 262.186 137.1 262.186C137.588 262.186 138.005 262.322 138.352 262.594C138.7 262.865 138.966 263.257 139.149 263.771C139.334 264.283 139.427 264.901 139.427 265.624C139.427 266.351 139.335 266.972 139.152 267.487C138.969 267.999 138.705 268.39 138.358 268.66C138.012 268.928 137.592 269.062 137.1 269.062ZM137.1 268.343C137.588 268.343 137.967 268.107 138.237 267.637C138.507 267.166 138.643 266.495 138.643 265.624C138.643 265.044 138.58 264.551 138.456 264.143C138.334 263.736 138.158 263.426 137.927 263.212C137.698 262.999 137.422 262.892 137.1 262.892C136.616 262.892 136.238 263.13 135.966 263.608C135.694 264.082 135.558 264.755 135.558 265.624C135.558 266.203 135.619 266.696 135.741 267.101C135.863 267.506 136.038 267.814 136.267 268.026C136.498 268.237 136.775 268.343 137.1 268.343ZM143.022 262.277V268.97H142.211V263.127H142.172L140.538 264.212V263.389L142.211 262.277H143.022ZM145.522 268.114C145.36 268.114 145.222 268.056 145.107 267.941C144.991 267.825 144.933 267.687 144.933 267.526C144.933 267.365 144.991 267.226 145.107 267.111C145.222 266.995 145.36 266.938 145.522 266.938C145.683 266.938 145.821 266.995 145.937 267.111C146.052 267.226 146.11 267.365 146.11 267.526C146.11 267.633 146.083 267.731 146.028 267.82C145.976 267.909 145.905 267.981 145.816 268.036C145.729 268.088 145.63 268.114 145.522 268.114ZM145.522 264.728C145.36 264.728 145.222 264.671 145.107 264.555C144.991 264.44 144.933 264.301 144.933 264.14C144.933 263.979 144.991 263.841 145.107 263.725C145.222 263.61 145.36 263.552 145.522 263.552C145.683 263.552 145.821 263.61 145.937 263.725C146.052 263.841 146.11 263.979 146.11 264.14C146.11 264.247 146.083 264.345 146.028 264.434C145.976 264.524 145.905 264.596 145.816 264.65C145.729 264.702 145.63 264.728 145.522 264.728ZM149.664 269.062C149.171 269.062 148.752 268.928 148.406 268.66C148.059 268.39 147.794 267.999 147.611 267.487C147.428 266.972 147.337 266.351 147.337 265.624C147.337 264.901 147.428 264.283 147.611 263.771C147.797 263.257 148.062 262.865 148.409 262.594C148.757 262.322 149.176 262.186 149.664 262.186C150.152 262.186 150.569 262.322 150.915 262.594C151.264 262.865 151.53 263.257 151.713 263.771C151.898 264.283 151.99 264.901 151.99 265.624C151.99 266.351 151.899 266.972 151.716 267.487C151.533 267.999 151.268 268.39 150.922 268.66C150.575 268.928 150.156 269.062 149.664 269.062ZM149.664 268.343C150.152 268.343 150.531 268.107 150.801 267.637C151.071 267.166 151.206 266.495 151.206 265.624C151.206 265.044 151.144 264.551 151.02 264.143C150.898 263.736 150.721 263.426 150.49 263.212C150.262 262.999 149.986 262.892 149.664 262.892C149.18 262.892 148.802 263.13 148.53 263.608C148.257 264.082 148.121 264.755 148.121 265.624C148.121 266.203 148.182 266.696 148.304 267.101C148.426 267.506 148.602 267.814 148.83 268.026C149.061 268.237 149.339 268.343 149.664 268.343ZM155.415 269.062C154.923 269.062 154.503 268.928 154.157 268.66C153.811 268.39 153.546 267.999 153.363 267.487C153.18 266.972 153.088 266.351 153.088 265.624C153.088 264.901 153.18 264.283 153.363 263.771C153.548 263.257 153.814 262.865 154.16 262.594C154.509 262.322 154.927 262.186 155.415 262.186C155.903 262.186 156.32 262.322 156.667 262.594C157.015 262.865 157.281 263.257 157.464 263.771C157.649 264.283 157.742 264.901 157.742 265.624C157.742 266.351 157.651 266.972 157.468 267.487C157.285 267.999 157.02 268.39 156.673 268.66C156.327 268.928 155.908 269.062 155.415 269.062ZM155.415 268.343C155.903 268.343 156.282 268.107 156.553 267.637C156.823 267.166 156.958 266.495 156.958 265.624C156.958 265.044 156.896 264.551 156.771 264.143C156.649 263.736 156.473 263.426 156.242 263.212C156.013 262.999 155.738 262.892 155.415 262.892C154.932 262.892 154.554 263.13 154.281 263.608C154.009 264.082 153.873 264.755 153.873 265.624C153.873 266.203 153.934 266.696 154.056 267.101C154.178 267.506 154.353 267.814 154.582 268.026C154.813 268.237 155.091 268.343 155.415 268.343Z" fill="#373D3F"/>
<path d="M234.325 269.062C233.833 269.062 233.414 268.928 233.067 268.66C232.721 268.39 232.456 267.999 232.273 267.487C232.09 266.972 231.998 266.351 231.998 265.624C231.998 264.901 232.09 264.283 232.273 263.771C232.458 263.257 232.724 262.865 233.07 262.594C233.419 262.322 233.837 262.186 234.325 262.186C234.813 262.186 235.23 262.322 235.577 262.594C235.925 262.865 236.191 263.257 236.374 263.771C236.559 264.283 236.652 264.901 236.652 265.624C236.652 266.351 236.561 266.972 236.378 267.487C236.195 267.999 235.93 268.39 235.583 268.66C235.237 268.928 234.818 269.062 234.325 269.062ZM234.325 268.343C234.813 268.343 235.192 268.107 235.463 267.637C235.733 267.166 235.868 266.495 235.868 265.624C235.868 265.044 235.806 264.551 235.681 264.143C235.559 263.736 235.383 263.426 235.152 263.212C234.923 262.999 234.648 262.892 234.325 262.892C233.842 262.892 233.464 263.13 233.191 263.608C232.919 264.082 232.783 264.755 232.783 265.624C232.783 266.203 232.844 266.696 232.966 267.101C233.088 267.506 233.263 267.814 233.492 268.026C233.723 268.237 234.001 268.343 234.325 268.343ZM237.894 268.97V268.382L240.103 265.964C240.362 265.68 240.576 265.434 240.744 265.225C240.911 265.014 241.035 264.816 241.116 264.63C241.199 264.443 241.24 264.247 241.24 264.042C241.24 263.807 241.184 263.603 241.07 263.431C240.959 263.259 240.807 263.126 240.613 263.032C240.419 262.939 240.201 262.892 239.959 262.892C239.702 262.892 239.478 262.945 239.286 263.052C239.096 263.157 238.949 263.304 238.845 263.493C238.742 263.683 238.691 263.905 238.691 264.16H237.92C237.92 263.768 238.01 263.423 238.191 263.127C238.372 262.831 238.618 262.6 238.93 262.434C239.244 262.269 239.595 262.186 239.985 262.186C240.378 262.186 240.725 262.269 241.028 262.434C241.331 262.6 241.568 262.823 241.74 263.104C241.912 263.385 241.998 263.698 241.998 264.042C241.998 264.288 241.954 264.529 241.864 264.764C241.777 264.997 241.625 265.258 241.407 265.545C241.191 265.831 240.892 266.179 240.508 266.591L239.005 268.199V268.251H242.116V268.97H237.894ZM244.041 268.114C243.88 268.114 243.741 268.056 243.626 267.941C243.51 267.825 243.453 267.687 243.453 267.526C243.453 267.365 243.51 267.226 243.626 267.111C243.741 266.995 243.88 266.938 244.041 266.938C244.202 266.938 244.34 266.995 244.456 267.111C244.571 267.226 244.629 267.365 244.629 267.526C244.629 267.633 244.602 267.731 244.547 267.82C244.495 267.909 244.424 267.981 244.335 268.036C244.248 268.088 244.15 268.114 244.041 268.114ZM244.041 264.728C243.88 264.728 243.741 264.671 243.626 264.555C243.51 264.44 243.453 264.301 243.453 264.14C243.453 263.979 243.51 263.841 243.626 263.725C243.741 263.61 243.88 263.552 244.041 263.552C244.202 263.552 244.34 263.61 244.456 263.725C244.571 263.841 244.629 263.979 244.629 264.14C244.629 264.247 244.602 264.345 244.547 264.434C244.495 264.524 244.424 264.596 244.335 264.65C244.248 264.702 244.15 264.728 244.041 264.728ZM248.183 269.062C247.691 269.062 247.271 268.928 246.925 268.66C246.578 268.39 246.314 267.999 246.131 267.487C245.948 266.972 245.856 266.351 245.856 265.624C245.856 264.901 245.948 264.283 246.131 263.771C246.316 263.257 246.582 262.865 246.928 262.594C247.277 262.322 247.695 262.186 248.183 262.186C248.671 262.186 249.088 262.322 249.435 262.594C249.783 262.865 250.049 263.257 250.232 263.771C250.417 264.283 250.51 264.901 250.51 265.624C250.51 266.351 250.418 266.972 250.235 267.487C250.052 267.999 249.788 268.39 249.441 268.66C249.095 268.928 248.675 269.062 248.183 269.062ZM248.183 268.343C248.671 268.343 249.05 268.107 249.32 267.637C249.59 267.166 249.725 266.495 249.725 265.624C249.725 265.044 249.663 264.551 249.539 264.143C249.417 263.736 249.241 263.426 249.01 263.212C248.781 262.999 248.505 262.892 248.183 262.892C247.699 262.892 247.321 263.13 247.049 263.608C246.777 264.082 246.641 264.755 246.641 265.624C246.641 266.203 246.702 266.696 246.824 267.101C246.946 267.506 247.121 267.814 247.35 268.026C247.581 268.237 247.858 268.343 248.183 268.343ZM241.254 280.062C240.762 280.062 240.342 279.928 239.996 279.66C239.65 279.39 239.385 278.999 239.202 278.487C239.019 277.972 238.927 277.351 238.927 276.624C238.927 275.901 239.019 275.283 239.202 274.771C239.387 274.257 239.653 273.865 239.999 273.594C240.348 273.322 240.766 273.186 241.254 273.186C241.742 273.186 242.159 273.322 242.506 273.594C242.854 273.865 243.12 274.257 243.303 274.771C243.488 275.283 243.581 275.901 243.581 276.624C243.581 277.351 243.489 277.972 243.306 278.487C243.123 278.999 242.859 279.39 242.512 279.66C242.166 279.928 241.747 280.062 241.254 280.062ZM241.254 279.343C241.742 279.343 242.121 279.107 242.391 278.637C242.662 278.166 242.797 277.495 242.797 276.624C242.797 276.044 242.735 275.551 242.61 275.143C242.488 274.736 242.312 274.426 242.081 274.212C241.852 273.999 241.577 273.892 241.254 273.892C240.77 273.892 240.392 274.13 240.12 274.608C239.848 275.082 239.712 275.755 239.712 276.624C239.712 277.203 239.773 277.696 239.895 278.101C240.017 278.506 240.192 278.814 240.421 279.026C240.652 279.237 240.93 279.343 241.254 279.343Z" fill="#373D3F"/>
<path d="M329.035 269.062C328.543 269.062 328.123 268.928 327.777 268.66C327.431 268.39 327.166 267.999 326.983 267.487C326.8 266.972 326.708 266.351 326.708 265.624C326.708 264.901 326.8 264.283 326.983 263.771C327.168 263.257 327.434 262.865 327.78 262.594C328.129 262.322 328.547 262.186 329.035 262.186C329.523 262.186 329.94 262.322 330.287 262.594C330.635 262.865 330.901 263.257 331.084 263.771C331.269 264.283 331.362 264.901 331.362 265.624C331.362 266.351 331.271 266.972 331.088 267.487C330.905 267.999 330.64 268.39 330.293 268.66C329.947 268.928 329.528 269.062 329.035 269.062ZM329.035 268.343C329.523 268.343 329.902 268.107 330.172 267.637C330.443 267.166 330.578 266.495 330.578 265.624C330.578 265.044 330.516 264.551 330.391 264.143C330.269 263.736 330.093 263.426 329.862 263.212C329.633 262.999 329.358 262.892 329.035 262.892C328.552 262.892 328.174 263.13 327.901 263.608C327.629 264.082 327.493 264.755 327.493 265.624C327.493 266.203 327.554 266.696 327.676 267.101C327.798 267.506 327.973 267.814 328.202 268.026C328.433 268.237 328.711 268.343 329.035 268.343ZM334.865 269.062C334.434 269.062 334.049 268.988 333.712 268.839C333.376 268.691 333.109 268.485 332.911 268.222C332.715 267.956 332.608 267.648 332.591 267.297H333.414C333.432 267.513 333.506 267.699 333.637 267.856C333.767 268.011 333.938 268.13 334.15 268.215C334.361 268.3 334.595 268.343 334.852 268.343C335.14 268.343 335.395 268.293 335.617 268.192C335.839 268.092 336.013 267.953 336.14 267.774C336.266 267.595 336.329 267.389 336.329 267.153C336.329 266.907 336.268 266.69 336.146 266.503C336.024 266.313 335.846 266.165 335.61 266.058C335.375 265.952 335.087 265.898 334.748 265.898H334.212V265.179H334.748C335.013 265.179 335.247 265.131 335.447 265.036C335.65 264.94 335.808 264.805 335.921 264.63C336.036 264.456 336.094 264.251 336.094 264.016C336.094 263.789 336.044 263.592 335.944 263.425C335.843 263.257 335.702 263.126 335.519 263.032C335.338 262.939 335.125 262.892 334.878 262.892C334.647 262.892 334.43 262.934 334.225 263.019C334.022 263.102 333.857 263.223 333.728 263.382C333.599 263.539 333.53 263.728 333.519 263.951H332.735C332.748 263.6 332.853 263.293 333.052 263.029C333.25 262.763 333.509 262.556 333.829 262.408C334.152 262.26 334.506 262.186 334.891 262.186C335.305 262.186 335.66 262.27 335.957 262.438C336.253 262.603 336.481 262.822 336.64 263.094C336.799 263.367 336.878 263.661 336.878 263.977C336.878 264.354 336.779 264.675 336.581 264.941C336.385 265.207 336.118 265.391 335.78 265.493V265.545C336.203 265.615 336.533 265.795 336.77 266.085C337.008 266.372 337.127 266.728 337.127 267.153C337.127 267.517 337.028 267.844 336.829 268.134C336.633 268.421 336.365 268.648 336.025 268.813C335.686 268.979 335.299 269.062 334.865 269.062ZM339.038 268.114C338.877 268.114 338.739 268.056 338.623 267.941C338.508 267.825 338.45 267.687 338.45 267.526C338.45 267.365 338.508 267.226 338.623 267.111C338.739 266.995 338.877 266.938 339.038 266.938C339.2 266.938 339.338 266.995 339.453 267.111C339.569 267.226 339.627 267.365 339.627 267.526C339.627 267.633 339.599 267.731 339.545 267.82C339.493 267.909 339.422 267.981 339.333 268.036C339.245 268.088 339.147 268.114 339.038 268.114ZM339.038 264.728C338.877 264.728 338.739 264.671 338.623 264.555C338.508 264.44 338.45 264.301 338.45 264.14C338.45 263.979 338.508 263.841 338.623 263.725C338.739 263.61 338.877 263.552 339.038 263.552C339.2 263.552 339.338 263.61 339.453 263.725C339.569 263.841 339.627 263.979 339.627 264.14C339.627 264.247 339.599 264.345 339.545 264.434C339.493 264.524 339.422 264.596 339.333 264.65C339.245 264.702 339.147 264.728 339.038 264.728ZM343.181 269.062C342.688 269.062 342.269 268.928 341.922 268.66C341.576 268.39 341.311 267.999 341.128 267.487C340.945 266.972 340.854 266.351 340.854 265.624C340.854 264.901 340.945 264.283 341.128 263.771C341.313 263.257 341.579 262.865 341.926 262.594C342.274 262.322 342.693 262.186 343.181 262.186C343.669 262.186 344.086 262.322 344.432 262.594C344.781 262.865 345.047 263.257 345.23 263.771C345.415 264.283 345.507 264.901 345.507 265.624C345.507 266.351 345.416 266.972 345.233 267.487C345.05 267.999 344.785 268.39 344.439 268.66C344.092 268.928 343.673 269.062 343.181 269.062ZM343.181 268.343C343.669 268.343 344.048 268.107 344.318 267.637C344.588 267.166 344.723 266.495 344.723 265.624C344.723 265.044 344.661 264.551 344.537 264.143C344.415 263.736 344.238 263.426 344.007 263.212C343.779 262.999 343.503 262.892 343.181 262.892C342.697 262.892 342.319 263.13 342.047 263.608C341.774 264.082 341.638 264.755 341.638 265.624C341.638 266.203 341.699 266.696 341.821 267.101C341.943 267.506 342.118 267.814 342.347 268.026C342.578 268.237 342.856 268.343 343.181 268.343ZM336.108 280.062C335.616 280.062 335.196 279.928 334.85 279.66C334.503 279.39 334.239 278.999 334.056 278.487C333.873 277.972 333.781 277.351 333.781 276.624C333.781 275.901 333.873 275.283 334.056 274.771C334.241 274.257 334.507 273.865 334.853 273.594C335.202 273.322 335.62 273.186 336.108 273.186C336.596 273.186 337.013 273.322 337.36 273.594C337.708 273.865 337.974 274.257 338.157 274.771C338.342 275.283 338.435 275.901 338.435 276.624C338.435 277.351 338.343 277.972 338.16 278.487C337.977 278.999 337.712 279.39 337.366 279.66C337.02 279.928 336.6 280.062 336.108 280.062ZM336.108 279.343C336.596 279.343 336.975 279.107 337.245 278.637C337.515 278.166 337.65 277.495 337.65 276.624C337.65 276.044 337.588 275.551 337.464 275.143C337.342 274.736 337.166 274.426 336.935 274.212C336.706 273.999 336.43 273.892 336.108 273.892C335.624 273.892 335.246 274.13 334.974 274.608C334.702 275.082 334.565 275.755 334.565 276.624C334.565 277.203 334.626 277.696 334.748 278.101C334.87 278.506 335.046 278.814 335.275 279.026C335.506 279.237 335.783 279.343 336.108 279.343Z" fill="#373D3F"/>
<path d="M424.212 269.062C423.72 269.062 423.3 268.928 422.954 268.66C422.608 268.39 422.343 267.999 422.16 267.487C421.977 266.972 421.885 266.351 421.885 265.624C421.885 264.901 421.977 264.283 422.16 263.771C422.345 263.257 422.611 262.865 422.957 262.594C423.306 262.322 423.724 262.186 424.212 262.186C424.7 262.186 425.117 262.322 425.464 262.594C425.812 262.865 426.078 263.257 426.261 263.771C426.446 264.283 426.539 264.901 426.539 265.624C426.539 266.351 426.448 266.972 426.265 267.487C426.082 267.999 425.817 268.39 425.47 268.66C425.124 268.928 424.705 269.062 424.212 269.062ZM424.212 268.343C424.7 268.343 425.079 268.107 425.349 267.637C425.62 267.166 425.755 266.495 425.755 265.624C425.755 265.044 425.693 264.551 425.568 264.143C425.446 263.736 425.27 263.426 425.039 263.212C424.81 262.999 424.535 262.892 424.212 262.892C423.729 262.892 423.351 263.13 423.078 263.608C422.806 264.082 422.67 264.755 422.67 265.624C422.67 266.203 422.731 266.696 422.853 267.101C422.975 267.506 423.15 267.814 423.379 268.026C423.61 268.237 423.888 268.343 424.212 268.343ZM427.624 267.598V266.931L430.565 262.277H431.049V263.31H430.722L428.5 266.826V266.879H432.461V267.598H427.624ZM430.774 268.97V267.395V267.085V262.277H431.546V268.97H430.774ZM434.26 268.114C434.099 268.114 433.961 268.056 433.845 267.941C433.73 267.825 433.672 267.687 433.672 267.526C433.672 267.365 433.73 267.226 433.845 267.111C433.961 266.995 434.099 266.938 434.26 266.938C434.422 266.938 434.56 266.995 434.675 267.111C434.791 267.226 434.849 267.365 434.849 267.526C434.849 267.633 434.821 267.731 434.767 267.82C434.715 267.909 434.644 267.981 434.554 268.036C434.467 268.088 434.369 268.114 434.26 268.114ZM434.26 264.728C434.099 264.728 433.961 264.671 433.845 264.555C433.73 264.44 433.672 264.301 433.672 264.14C433.672 263.979 433.73 263.841 433.845 263.725C433.961 263.61 434.099 263.552 434.26 263.552C434.422 263.552 434.56 263.61 434.675 263.725C434.791 263.841 434.849 263.979 434.849 264.14C434.849 264.247 434.821 264.345 434.767 264.434C434.715 264.524 434.644 264.596 434.554 264.65C434.467 264.702 434.369 264.728 434.26 264.728ZM438.402 269.062C437.91 269.062 437.491 268.928 437.144 268.66C436.798 268.39 436.533 267.999 436.35 267.487C436.167 266.972 436.076 266.351 436.076 265.624C436.076 264.901 436.167 264.283 436.35 263.771C436.535 263.257 436.801 262.865 437.148 262.594C437.496 262.322 437.914 262.186 438.402 262.186C438.89 262.186 439.308 262.322 439.654 262.594C440.003 262.865 440.268 263.257 440.451 263.771C440.637 264.283 440.729 264.901 440.729 265.624C440.729 266.351 440.638 266.972 440.455 267.487C440.272 267.999 440.007 268.39 439.661 268.66C439.314 268.928 438.895 269.062 438.402 269.062ZM438.402 268.343C438.89 268.343 439.27 268.107 439.54 267.637C439.81 267.166 439.945 266.495 439.945 265.624C439.945 265.044 439.883 264.551 439.759 264.143C439.637 263.736 439.46 263.426 439.229 263.212C439.001 262.999 438.725 262.892 438.402 262.892C437.919 262.892 437.541 263.13 437.269 263.608C436.996 264.082 436.86 264.755 436.86 265.624C436.86 266.203 436.921 266.696 437.043 267.101C437.165 267.506 437.34 267.814 437.569 268.026C437.8 268.237 438.078 268.343 438.402 268.343ZM431.307 280.062C430.815 280.062 430.396 279.928 430.049 279.66C429.703 279.39 429.438 278.999 429.255 278.487C429.072 277.972 428.981 277.351 428.981 276.624C428.981 275.901 429.072 275.283 429.255 274.771C429.44 274.257 429.706 273.865 430.052 273.594C430.401 273.322 430.819 273.186 431.307 273.186C431.795 273.186 432.213 273.322 432.559 273.594C432.908 273.865 433.173 274.257 433.356 274.771C433.542 275.283 433.634 275.901 433.634 276.624C433.634 277.351 433.543 277.972 433.36 278.487C433.177 278.999 432.912 279.39 432.566 279.66C432.219 279.928 431.8 280.062 431.307 280.062ZM431.307 279.343C431.795 279.343 432.174 279.107 432.445 278.637C432.715 278.166 432.85 277.495 432.85 276.624C432.85 276.044 432.788 275.551 432.664 275.143C432.542 274.736 432.365 274.426 432.134 274.212C431.905 273.999 431.63 273.892 431.307 273.892C430.824 273.892 430.446 274.13 430.173 274.608C429.901 275.082 429.765 275.755 429.765 276.624C429.765 277.203 429.826 277.696 429.948 278.101C430.07 278.506 430.245 278.814 430.474 279.026C430.705 279.237 430.983 279.343 431.307 279.343Z" fill="#373D3F"/>
<path d="M519.909 269.062C519.417 269.062 518.998 268.928 518.651 268.66C518.305 268.39 518.04 267.999 517.857 267.487C517.674 266.972 517.583 266.351 517.583 265.624C517.583 264.901 517.674 264.283 517.857 263.771C518.042 263.257 518.308 262.865 518.654 262.594C519.003 262.322 519.421 262.186 519.909 262.186C520.397 262.186 520.815 262.322 521.161 262.594C521.51 262.865 521.775 263.257 521.958 263.771C522.144 264.283 522.236 264.901 522.236 265.624C522.236 266.351 522.145 266.972 521.962 267.487C521.779 267.999 521.514 268.39 521.167 268.66C520.821 268.928 520.402 269.062 519.909 269.062ZM519.909 268.343C520.397 268.343 520.776 268.107 521.047 267.637C521.317 267.166 521.452 266.495 521.452 265.624C521.452 265.044 521.39 264.551 521.266 264.143C521.144 263.736 520.967 263.426 520.736 263.212C520.507 262.999 520.232 262.892 519.909 262.892C519.426 262.892 519.048 263.13 518.775 263.608C518.503 264.082 518.367 264.755 518.367 265.624C518.367 266.203 518.428 266.696 518.55 267.101C518.672 267.506 518.847 267.814 519.076 268.026C519.307 268.237 519.585 268.343 519.909 268.343ZM525.569 269.062C525.186 269.062 524.841 268.985 524.533 268.833C524.226 268.68 523.98 268.471 523.795 268.206C523.61 267.94 523.508 267.637 523.491 267.297H524.275C524.306 267.6 524.443 267.85 524.687 268.049C524.933 268.245 525.227 268.343 525.569 268.343C525.844 268.343 526.088 268.278 526.301 268.15C526.517 268.021 526.686 267.845 526.808 267.621C526.932 267.394 526.994 267.138 526.994 266.853C526.994 266.561 526.93 266.3 526.801 266.072C526.675 265.841 526.501 265.659 526.279 265.526C526.056 265.393 525.803 265.325 525.517 265.323C525.312 265.321 525.102 265.353 524.886 265.418C524.671 265.481 524.493 265.563 524.354 265.663L523.596 265.572L524.001 262.277H527.478V262.996H524.681L524.445 264.97H524.484C524.622 264.861 524.794 264.771 525.001 264.699C525.208 264.627 525.423 264.591 525.648 264.591C526.057 264.591 526.422 264.689 526.743 264.885C527.065 265.079 527.318 265.345 527.501 265.683C527.686 266.02 527.779 266.406 527.779 266.84C527.779 267.267 527.683 267.648 527.491 267.983C527.301 268.317 527.04 268.58 526.707 268.774C526.373 268.966 525.994 269.062 525.569 269.062ZM529.652 268.114C529.491 268.114 529.352 268.056 529.237 267.941C529.121 267.825 529.064 267.687 529.064 267.526C529.064 267.365 529.121 267.226 529.237 267.111C529.352 266.995 529.491 266.938 529.652 266.938C529.813 266.938 529.951 266.995 530.067 267.111C530.182 267.226 530.24 267.365 530.24 267.526C530.24 267.633 530.213 267.731 530.158 267.82C530.106 267.909 530.035 267.981 529.946 268.036C529.859 268.088 529.761 268.114 529.652 268.114ZM529.652 264.728C529.491 264.728 529.352 264.671 529.237 264.555C529.121 264.44 529.064 264.301 529.064 264.14C529.064 263.979 529.121 263.841 529.237 263.725C529.352 263.61 529.491 263.552 529.652 263.552C529.813 263.552 529.951 263.61 530.067 263.725C530.182 263.841 530.24 263.979 530.24 264.14C530.24 264.247 530.213 264.345 530.158 264.434C530.106 264.524 530.035 264.596 529.946 264.65C529.859 264.702 529.761 264.728 529.652 264.728ZM533.794 269.062C533.302 269.062 532.882 268.928 532.536 268.66C532.189 268.39 531.925 267.999 531.742 267.487C531.559 266.972 531.467 266.351 531.467 265.624C531.467 264.901 531.559 264.283 531.742 263.771C531.927 263.257 532.193 262.865 532.539 262.594C532.888 262.322 533.306 262.186 533.794 262.186C534.282 262.186 534.699 262.322 535.046 262.594C535.394 262.865 535.66 263.257 535.843 263.771C536.028 264.283 536.121 264.901 536.121 265.624C536.121 266.351 536.029 266.972 535.846 267.487C535.663 267.999 535.399 268.39 535.052 268.66C534.706 268.928 534.286 269.062 533.794 269.062ZM533.794 268.343C534.282 268.343 534.661 268.107 534.931 267.637C535.201 267.166 535.336 266.495 535.336 265.624C535.336 265.044 535.274 264.551 535.15 264.143C535.028 263.736 534.852 263.426 534.621 263.212C534.392 262.999 534.116 262.892 533.794 262.892C533.31 262.892 532.932 263.13 532.66 263.608C532.388 264.082 532.252 264.755 532.252 265.624C532.252 266.203 532.313 266.696 532.435 267.101C532.557 267.506 532.732 267.814 532.961 268.026C533.192 268.237 533.469 268.343 533.794 268.343ZM526.852 280.062C526.359 280.062 525.94 279.928 525.594 279.66C525.247 279.39 524.982 278.999 524.799 278.487C524.616 277.972 524.525 277.351 524.525 276.624C524.525 275.901 524.616 275.283 524.799 274.771C524.985 274.257 525.25 273.865 525.597 273.594C525.945 273.322 526.364 273.186 526.852 273.186C527.34 273.186 527.757 273.322 528.103 273.594C528.452 273.865 528.718 274.257 528.901 274.771C529.086 275.283 529.178 275.901 529.178 276.624C529.178 277.351 529.087 277.972 528.904 278.487C528.721 278.999 528.456 279.39 528.11 279.66C527.763 279.928 527.344 280.062 526.852 280.062ZM526.852 279.343C527.34 279.343 527.719 279.107 527.989 278.637C528.259 278.166 528.394 277.495 528.394 276.624C528.394 276.044 528.332 275.551 528.208 275.143C528.086 274.736 527.909 274.426 527.678 274.212C527.45 273.999 527.174 273.892 526.852 273.892C526.368 273.892 525.99 274.13 525.718 274.608C525.445 275.082 525.309 275.755 525.309 276.624C525.309 277.203 525.37 277.696 525.492 278.101C525.614 278.506 525.79 278.814 526.018 279.026C526.249 279.237 526.527 279.343 526.852 279.343Z" fill="#373D3F"/>
<path d="M614.692 269.062C614.199 269.062 613.78 268.928 613.434 268.66C613.087 268.39 612.822 267.999 612.639 267.487C612.456 266.972 612.365 266.351 612.365 265.624C612.365 264.901 612.456 264.283 612.639 263.771C612.825 263.257 613.09 262.865 613.437 262.594C613.785 262.322 614.204 262.186 614.692 262.186C615.18 262.186 615.597 262.322 615.943 262.594C616.292 262.865 616.558 263.257 616.741 263.771C616.926 264.283 617.018 264.901 617.018 265.624C617.018 266.351 616.927 266.972 616.744 267.487C616.561 267.999 616.296 268.39 615.95 268.66C615.603 268.928 615.184 269.062 614.692 269.062ZM614.692 268.343C615.18 268.343 615.559 268.107 615.829 267.637C616.099 267.166 616.234 266.495 616.234 265.624C616.234 265.044 616.172 264.551 616.048 264.143C615.926 263.736 615.749 263.426 615.518 263.212C615.29 262.999 615.014 262.892 614.692 262.892C614.208 262.892 613.83 263.13 613.558 263.608C613.285 264.082 613.149 264.755 613.149 265.624C613.149 266.203 613.21 266.696 613.332 267.101C613.454 267.506 613.63 267.814 613.858 268.026C614.089 268.237 614.367 268.343 614.692 268.343ZM620.482 269.062C620.208 269.057 619.933 269.005 619.659 268.905C619.384 268.805 619.134 268.636 618.907 268.398C618.681 268.159 618.499 267.835 618.362 267.428C618.224 267.018 618.156 266.504 618.156 265.885C618.156 265.293 618.211 264.768 618.322 264.31C618.433 263.85 618.595 263.464 618.806 263.15C619.017 262.834 619.272 262.594 619.571 262.431C619.871 262.268 620.21 262.186 620.587 262.186C620.962 262.186 621.295 262.261 621.587 262.411C621.881 262.56 622.121 262.767 622.306 263.032C622.491 263.298 622.611 263.604 622.665 263.951H621.868C621.794 263.65 621.65 263.401 621.437 263.202C621.223 263.004 620.94 262.905 620.587 262.905C620.069 262.905 619.66 263.13 619.362 263.581C619.065 264.032 618.916 264.665 618.914 265.48H618.966C619.088 265.295 619.233 265.137 619.401 265.006C619.571 264.873 619.758 264.771 619.963 264.699C620.168 264.627 620.384 264.591 620.613 264.591C620.997 264.591 621.347 264.687 621.665 264.879C621.984 265.068 622.238 265.331 622.43 265.666C622.622 266 622.718 266.382 622.718 266.813C622.718 267.227 622.625 267.606 622.44 267.951C622.255 268.293 621.994 268.565 621.659 268.768C621.326 268.968 620.933 269.066 620.482 269.062ZM620.482 268.343C620.757 268.343 621.003 268.274 621.221 268.137C621.441 268 621.614 267.816 621.741 267.585C621.869 267.354 621.933 267.097 621.933 266.813C621.933 266.537 621.871 266.285 621.747 266.058C621.625 265.83 621.456 265.648 621.241 265.513C621.027 265.378 620.783 265.31 620.509 265.31C620.302 265.31 620.109 265.352 619.93 265.434C619.752 265.515 619.595 265.626 619.46 265.768C619.327 265.909 619.222 266.072 619.146 266.255C619.07 266.435 619.032 266.626 619.032 266.826C619.032 267.092 619.094 267.341 619.218 267.572C619.344 267.802 619.516 267.989 619.734 268.13C619.954 268.272 620.204 268.343 620.482 268.343ZM624.578 268.114C624.417 268.114 624.278 268.056 624.163 267.941C624.048 267.825 623.99 267.687 623.99 267.526C623.99 267.365 624.048 267.226 624.163 267.111C624.278 266.995 624.417 266.938 624.578 266.938C624.739 266.938 624.878 266.995 624.993 267.111C625.109 267.226 625.166 267.365 625.166 267.526C625.166 267.633 625.139 267.731 625.085 267.82C625.032 267.909 624.961 267.981 624.872 268.036C624.785 268.088 624.687 268.114 624.578 268.114ZM624.578 264.728C624.417 264.728 624.278 264.671 624.163 264.555C624.048 264.44 623.99 264.301 623.99 264.14C623.99 263.979 624.048 263.841 624.163 263.725C624.278 263.61 624.417 263.552 624.578 263.552C624.739 263.552 624.878 263.61 624.993 263.725C625.109 263.841 625.166 263.979 625.166 264.14C625.166 264.247 625.139 264.345 625.085 264.434C625.032 264.524 624.961 264.596 624.872 264.65C624.785 264.702 624.687 264.728 624.578 264.728ZM628.72 269.062C628.228 269.062 627.808 268.928 627.462 268.66C627.116 268.39 626.851 267.999 626.668 267.487C626.485 266.972 626.393 266.351 626.393 265.624C626.393 264.901 626.485 264.283 626.668 263.771C626.853 263.257 627.119 262.865 627.465 262.594C627.814 262.322 628.232 262.186 628.72 262.186C629.208 262.186 629.625 262.322 629.972 262.594C630.32 262.865 630.586 263.257 630.769 263.771C630.954 264.283 631.047 264.901 631.047 265.624C631.047 266.351 630.955 266.972 630.772 267.487C630.589 267.999 630.325 268.39 629.978 268.66C629.632 268.928 629.213 269.062 628.72 269.062ZM628.72 268.343C629.208 268.343 629.587 268.107 629.857 267.637C630.128 267.166 630.263 266.495 630.263 265.624C630.263 265.044 630.201 264.551 630.076 264.143C629.954 263.736 629.778 263.426 629.547 263.212C629.318 262.999 629.043 262.892 628.72 262.892C628.237 262.892 627.859 263.13 627.586 263.608C627.314 264.082 627.178 264.755 627.178 265.624C627.178 266.203 627.239 266.696 627.361 267.101C627.483 267.506 627.658 267.814 627.887 268.026C628.118 268.237 628.396 268.343 628.72 268.343ZM621.706 280.062C621.214 280.062 620.794 279.928 620.448 279.66C620.101 279.39 619.837 278.999 619.654 278.487C619.471 277.972 619.379 277.351 619.379 276.624C619.379 275.901 619.471 275.283 619.654 274.771C619.839 274.257 620.105 273.865 620.451 273.594C620.8 273.322 621.218 273.186 621.706 273.186C622.194 273.186 622.611 273.322 622.958 273.594C623.306 273.865 623.572 274.257 623.755 274.771C623.94 275.283 624.033 275.901 624.033 276.624C624.033 277.351 623.941 277.972 623.758 278.487C623.575 278.999 623.31 279.39 622.964 279.66C622.618 279.928 622.198 280.062 621.706 280.062ZM621.706 279.343C622.194 279.343 622.573 279.107 622.843 278.637C623.113 278.166 623.248 277.495 623.248 276.624C623.248 276.044 623.186 275.551 623.062 275.143C622.94 274.736 622.764 274.426 622.533 274.212C622.304 273.999 622.028 273.892 621.706 273.892C621.222 273.892 620.844 274.13 620.572 274.608C620.3 275.082 620.163 275.755 620.163 276.624C620.163 277.203 620.224 277.696 620.346 278.101C620.468 278.506 620.644 278.814 620.873 279.026C621.104 279.237 621.381 279.343 621.706 279.343Z" fill="#373D3F"/>
<path d="M50.6039 252.176H669.399" stroke="#E0E0E0" stroke-width="0.707888"/>
<path d="M50.6038 47.257H669.399" stroke="#E0E0E0" stroke-width="0.707888"/>
<path d="M50.6035 88.0992H669.399" stroke="#E0E0E0" stroke-width="0.707888"/>
<path d="M50.6035 128.941H669.399" stroke="#E0E0E0" stroke-width="0.707888"/>
<path d="M50.6035 169.783H669.399" stroke="#E0E0E0" stroke-width="0.707888"/>
<path d="M50.6035 210.625H669.399" stroke="#E0E0E0" stroke-width="0.707888"/>
<path d="M50.6035 251.467H669.399" stroke="#E0E0E0" stroke-width="0.707888"/>
<path d="M50.6035 252.176V256.427" stroke="#E0E0E0" stroke-width="0.707888"/>
<path d="M145.803 252.176V256.427" stroke="#E0E0E0" stroke-width="0.707888"/>
<path d="M241.002 252.176V256.427" stroke="#E0E0E0" stroke-width="0.707888"/>
<path d="M336.201 252.176V256.427" stroke="#E0E0E0" stroke-width="0.707888"/>
<path d="M431.4 252.176V256.427" stroke="#E0E0E0" stroke-width="0.707888"/>
<path d="M526.6 252.176V256.427" stroke="#E0E0E0" stroke-width="0.707888"/>
<path d="M621.799 252.176V256.427" stroke="#E0E0E0" stroke-width="0.707888"/>
<mask id="mask0_21_805" style="mask-type:luminance" maskUnits="userSpaceOnUse" x="47" y="45" width="626" height="208">
<path d="M672.159 45.8401H47.8431V252.885H672.159V45.8401Z" fill="white"/>
</mask>
<g mask="url(#mask0_21_805)">
<path d="M50.6034 251.467V229.004C100.583 229.004 143.423 210.625 193.402 210.625C226.722 210.625 255.282 235.13 288.602 235.13C321.921 235.13 350.481 188.162 383.801 188.162C417.12 188.162 445.68 206.541 479 206.541C512.32 206.541 540.88 69.72 574.199 69.72C607.519 69.72 636.079 88.099 669.398 88.099C669.398 88.099 669.398 88.099 669.398 251.467" fill="url(#paint0_linear_21_805)"/>
</g>
<mask id="mask1_21_805" style="mask-type:luminance" maskUnits="userSpaceOnUse" x="47" y="45" width="626" height="208">
<path d="M672.159 45.8401H47.8431V252.885H672.159V45.8401Z" fill="white"/>
</mask>
<g mask="url(#mask1_21_805)">
<path d="M50.6034 229.004C100.583 229.004 143.423 210.625 193.402 210.625C226.722 210.625 255.282 235.13 288.602 235.13C321.921 235.13 350.481 188.162 383.801 188.162C417.12 188.162 445.68 206.541 479 206.541C512.32 206.541 540.88 69.72 574.199 69.72C607.519 69.72 636.079 88.099 669.399 88.099" stroke="#160483" stroke-width="2.83155"/>
</g>
<path d="M36.6241 41.4159V48.1087H35.8137V42.2656H35.7745L34.1405 43.3506V42.527L35.8137 41.4159H36.6241ZM38.549 48.1087V47.5205L40.7581 45.1022C41.0174 44.819 41.2309 44.5728 41.3986 44.3636C41.5664 44.1523 41.6906 43.9541 41.7712 43.7689C41.8539 43.5815 41.8953 43.3854 41.8953 43.1806C41.8953 42.9453 41.8387 42.7416 41.7254 42.5695C41.6143 42.3974 41.4618 42.2645 41.2679 42.1708C41.074 42.0772 40.8561 42.0303 40.6143 42.0303C40.3572 42.0303 40.1328 42.0837 39.9411 42.1905C39.7516 42.295 39.6045 42.4421 39.4999 42.6316C39.3975 42.8212 39.3463 43.0434 39.3463 43.2983H38.5751C38.5751 42.9061 38.6655 42.5619 38.8463 42.2656C39.0272 41.9693 39.2734 41.7384 39.5849 41.5728C39.8986 41.4072 40.2505 41.3244 40.6405 41.3244C41.0326 41.3244 41.3801 41.4072 41.6829 41.5728C41.9858 41.7384 42.2232 41.9617 42.3953 42.2427C42.5675 42.5238 42.6535 42.8364 42.6535 43.1806C42.6535 43.4268 42.6088 43.6676 42.5195 43.9029C42.4324 44.136 42.2799 44.3963 42.062 44.6839C41.8463 44.9693 41.5468 45.3179 41.1633 45.7296L39.6601 47.3375V47.3898H42.7712V48.1087H38.549ZM40.5522 59.2002C40.0598 59.2002 39.6405 59.0662 39.2941 58.7982C38.9477 58.5281 38.683 58.137 38.4999 57.6251C38.3169 57.1109 38.2254 56.49 38.2254 55.7623C38.2254 55.039 38.3169 54.4214 38.4999 53.9094C38.6851 53.3952 38.9509 53.0031 39.2973 52.7329C39.6459 52.4606 40.0642 52.3244 40.5522 52.3244C41.0402 52.3244 41.4574 52.4606 41.8038 52.7329C42.1524 53.0031 42.4182 53.3952 42.6012 53.9094C42.7864 54.4214 42.879 55.039 42.879 55.7623C42.879 56.49 42.7875 57.1109 42.6045 57.6251C42.4215 58.137 42.1568 58.5281 41.8104 58.7982C41.464 59.0662 41.0446 59.2002 40.5522 59.2002ZM40.5522 58.4813C41.0402 58.4813 41.4193 58.246 41.6895 57.7754C41.9596 57.3048 42.0947 56.6338 42.0947 55.7623C42.0947 55.1828 42.0326 54.6893 41.9084 54.2819C41.7864 53.8745 41.6099 53.5641 41.379 53.3506C41.1503 53.1371 40.8747 53.0303 40.5522 53.0303C40.0686 53.0303 39.6906 53.2689 39.4182 53.746C39.1459 54.2209 39.0097 54.8931 39.0097 55.7623C39.0097 56.3418 39.0707 56.8342 39.1928 57.2394C39.3148 57.6447 39.4901 57.9529 39.7189 58.1643C39.9498 58.3756 40.2276 58.4813 40.5522 58.4813Z" fill="#373D3F"/>
<path d="M36.4443 82.258V88.9507H35.6338V83.1077H35.5946L33.9606 84.1926V83.3691L35.6338 82.258H36.4443ZM40.5521 89.0422C40.0597 89.0422 39.6403 88.9083 39.2939 88.6403C38.9475 88.3701 38.6828 87.9791 38.4998 87.4671C38.3168 86.9529 38.2253 86.332 38.2253 85.6044C38.2253 84.8811 38.3168 84.2634 38.4998 83.7514C38.685 83.2373 38.9508 82.8451 39.2972 82.575C39.6458 82.3026 40.0641 82.1665 40.5521 82.1665C41.0401 82.1665 41.4573 82.3026 41.8037 82.575C42.1523 82.8451 42.4181 83.2373 42.6011 83.7514C42.7863 84.2634 42.8789 84.8811 42.8789 85.6044C42.8789 86.332 42.7874 86.9529 42.6044 87.4671C42.4214 87.9791 42.1567 88.3701 41.8103 88.6403C41.4639 88.9083 41.0445 89.0422 40.5521 89.0422ZM40.5521 88.3233C41.0401 88.3233 41.4192 88.088 41.6893 87.6174C41.9595 87.1468 42.0946 86.4758 42.0946 85.6044C42.0946 85.0249 42.0325 84.5314 41.9083 84.124C41.7863 83.7166 41.6098 83.4061 41.3789 83.1926C41.1501 82.9791 40.8745 82.8724 40.5521 82.8724C40.0684 82.8724 39.6904 83.1109 39.4181 83.588C39.1458 84.063 39.0096 84.7351 39.0096 85.6044C39.0096 86.1839 39.0706 86.6763 39.1926 87.0815C39.3146 87.4867 39.49 87.795 39.7188 88.0063C39.9497 88.2176 40.2275 88.3233 40.5521 88.3233ZM40.5521 100.042C40.0597 100.042 39.6403 99.9083 39.2939 99.6403C38.9475 99.3701 38.6828 98.9791 38.4998 98.4671C38.3168 97.9529 38.2253 97.332 38.2253 96.6044C38.2253 95.8811 38.3168 95.2634 38.4998 94.7514C38.685 94.2373 38.9508 93.8451 39.2972 93.575C39.6458 93.3026 40.0641 93.1665 40.5521 93.1665C41.0401 93.1665 41.4573 93.3026 41.8037 93.575C42.1523 93.8451 42.4181 94.2373 42.6011 94.7514C42.7863 95.2634 42.8789 95.8811 42.8789 96.6044C42.8789 97.332 42.7874 97.9529 42.6044 98.4671C42.4214 98.9791 42.1567 99.3701 41.8103 99.6403C41.4639 99.9083 41.0445 100.042 40.5521 100.042ZM40.5521 99.3233C41.0401 99.3233 41.4192 99.088 41.6893 98.6174C41.9595 98.1468 42.0946 97.4758 42.0946 96.6044C42.0946 96.0249 42.0325 95.5314 41.9083 95.124C41.7863 94.7166 41.6098 94.4061 41.3789 94.1926C41.1501 93.9791 40.8745 93.8724 40.5521 93.8724C40.0684 93.8724 39.6904 94.1109 39.4181 94.588C39.1458 95.063 39.0096 95.7351 39.0096 96.6044C39.0096 97.1839 39.0706 97.6763 39.1926 98.0815C39.3146 98.4867 39.49 98.795 39.7188 99.0063C39.9497 99.2176 40.2275 99.3233 40.5521 99.3233Z" fill="#373D3F"/>
<path d="M35.0832 129.884C34.6344 129.884 34.2379 129.805 33.8936 129.646C33.5516 129.485 33.2847 129.264 33.093 128.982C32.9013 128.699 32.8065 128.377 32.8087 128.015C32.8065 127.732 32.862 127.47 32.9753 127.231C33.0886 126.989 33.2433 126.787 33.4394 126.626C33.6376 126.463 33.8588 126.359 34.1028 126.316V126.277C33.7825 126.194 33.5276 126.014 33.3381 125.737C33.1485 125.459 33.0549 125.142 33.057 124.786C33.0549 124.447 33.1409 124.143 33.3152 123.875C33.4895 123.607 33.7291 123.395 34.0342 123.241C34.3413 123.086 34.691 123.009 35.0832 123.009C35.471 123.009 35.8174 123.086 36.1224 123.241C36.4274 123.395 36.667 123.607 36.8413 123.875C37.0178 124.143 37.1071 124.447 37.1093 124.786C37.1071 125.142 37.0102 125.459 36.8184 125.737C36.6289 126.014 36.3773 126.194 36.0635 126.277V126.316C36.3054 126.359 36.5232 126.463 36.7171 126.626C36.911 126.787 37.0657 126.989 37.1812 127.231C37.2967 127.47 37.3555 127.732 37.3577 128.015C37.3555 128.377 37.2574 128.699 37.0635 128.982C36.8718 129.264 36.6049 129.485 36.2629 129.646C35.923 129.805 35.5298 129.884 35.0832 129.884ZM35.0832 129.165C35.386 129.165 35.6474 129.116 35.8675 129.018C36.0875 128.92 36.2574 128.782 36.3773 128.603C36.4971 128.425 36.5581 128.216 36.5603 127.976C36.5581 127.723 36.4927 127.5 36.3642 127.306C36.2357 127.112 36.0603 126.96 35.8381 126.848C35.618 126.737 35.3664 126.682 35.0832 126.682C34.7978 126.682 34.5429 126.737 34.3185 126.848C34.0962 126.96 33.9209 127.112 33.7923 127.306C33.666 127.5 33.6039 127.723 33.6061 127.976C33.6039 128.216 33.6616 128.425 33.7793 128.603C33.8991 128.782 34.0701 128.92 34.2923 129.018C34.5145 129.116 34.7782 129.165 35.0832 129.165ZM35.0832 125.989C35.3228 125.989 35.5352 125.941 35.7204 125.845C35.9078 125.749 36.0548 125.615 36.1616 125.443C36.2683 125.271 36.3228 125.07 36.325 124.839C36.3228 124.612 36.2694 124.415 36.1649 124.247C36.0603 124.077 35.9154 123.947 35.7302 123.855C35.545 123.761 35.3293 123.715 35.0832 123.715C34.8326 123.715 34.6137 123.761 34.4263 123.855C34.2389 123.947 34.0941 124.077 33.9917 124.247C33.8893 124.415 33.8392 124.612 33.8413 124.839C33.8392 125.07 33.8904 125.271 33.9949 125.443C34.1017 125.615 34.2487 125.749 34.4361 125.845C34.6235 125.941 34.8392 125.989 35.0832 125.989ZM40.7931 129.884C40.3007 129.884 39.8813 129.75 39.5349 129.482C39.1885 129.212 38.9238 128.821 38.7408 128.309C38.5578 127.795 38.4663 127.174 38.4663 126.447C38.4663 125.723 38.5578 125.106 38.7408 124.594C38.926 124.079 39.1918 123.687 39.5382 123.417C39.8868 123.145 40.3051 123.009 40.7931 123.009C41.2811 123.009 41.6983 123.145 42.0447 123.417C42.3933 123.687 42.6591 124.079 42.8421 124.594C43.0273 125.106 43.1199 125.723 43.1199 126.447C43.1199 127.174 43.0284 127.795 42.8454 128.309C42.6624 128.821 42.3976 129.212 42.0512 129.482C41.7048 129.75 41.2855 129.884 40.7931 129.884ZM40.7931 129.165C41.2811 129.165 41.6602 128.93 41.9303 128.46C42.2005 127.989 42.3356 127.318 42.3356 126.447C42.3356 125.867 42.2735 125.374 42.1493 124.966C42.0273 124.559 41.8508 124.248 41.6199 124.035C41.3911 123.821 41.1155 123.715 40.7931 123.715C40.3094 123.715 39.9314 123.953 39.6591 124.43C39.3868 124.905 39.2506 125.577 39.2506 126.447C39.2506 127.026 39.3116 127.518 39.4336 127.924C39.5556 128.329 39.731 128.637 39.9598 128.848C40.1907 129.06 40.4685 129.165 40.7931 129.165Z" fill="#373D3F"/>
<path d="M35.0897 170.726C34.8152 170.722 34.5407 170.67 34.2662 170.569C33.9917 170.469 33.7411 170.3 33.5145 170.063C33.288 169.823 33.1061 169.5 32.9688 169.092C32.8315 168.683 32.7629 168.169 32.7629 167.55C32.7629 166.957 32.8185 166.432 32.9296 165.975C33.0407 165.515 33.2019 165.128 33.4132 164.815C33.6246 164.499 33.8795 164.259 34.1779 164.096C34.4786 163.932 34.8174 163.851 35.1943 163.851C35.569 163.851 35.9023 163.926 36.1943 164.076C36.4884 164.224 36.728 164.431 36.9132 164.697C37.0984 164.963 37.2182 165.269 37.2727 165.615H36.4753C36.4012 165.315 36.2574 165.065 36.0439 164.867C35.8304 164.669 35.5472 164.57 35.1943 164.57C34.6758 164.57 34.2673 164.795 33.9688 165.246C33.6725 165.697 33.5233 166.33 33.5211 167.145H33.5734C33.6954 166.959 33.8403 166.802 34.008 166.671C34.1779 166.538 34.3653 166.436 34.5701 166.364C34.7749 166.292 34.9917 166.256 35.2204 166.256C35.6039 166.256 35.9546 166.352 36.2727 166.543C36.5908 166.733 36.8457 166.995 37.0374 167.331C37.2291 167.664 37.325 168.047 37.325 168.478C37.325 168.892 37.2324 169.271 37.0472 169.615C36.862 169.957 36.6017 170.23 36.2662 170.432C35.9328 170.633 35.5407 170.731 35.0897 170.726ZM35.0897 170.007C35.3642 170.007 35.6104 169.939 35.8283 169.802C36.0483 169.664 36.2215 169.48 36.3479 169.249C36.4764 169.018 36.5407 168.761 36.5407 168.478C36.5407 168.201 36.4786 167.95 36.3544 167.723C36.2324 167.494 36.0635 167.312 35.8479 167.177C35.6344 167.042 35.3904 166.975 35.1158 166.975C34.9089 166.975 34.7161 167.016 34.5374 167.099C34.3588 167.18 34.2019 167.291 34.0668 167.432C33.9339 167.574 33.8294 167.736 33.7531 167.919C33.6769 168.1 33.6387 168.291 33.6387 168.491C33.6387 168.757 33.7008 169.005 33.825 169.236C33.9514 169.467 34.1235 169.653 34.3413 169.795C34.5614 169.937 34.8108 170.007 35.0897 170.007ZM40.7931 170.726C40.3007 170.726 39.8813 170.592 39.5349 170.324C39.1885 170.054 38.9238 169.663 38.7408 169.151C38.5578 168.637 38.4663 168.016 38.4663 167.288C38.4663 166.565 38.5578 165.948 38.7408 165.436C38.926 164.921 39.1918 164.529 39.5382 164.259C39.8868 163.987 40.3051 163.851 40.7931 163.851C41.2811 163.851 41.6983 163.987 42.0447 164.259C42.3933 164.529 42.6591 164.921 42.8421 165.436C43.0273 165.948 43.1199 166.565 43.1199 167.288C43.1199 168.016 43.0284 168.637 42.8454 169.151C42.6624 169.663 42.3976 170.054 42.0512 170.324C41.7048 170.592 41.2855 170.726 40.7931 170.726ZM40.7931 170.007C41.2811 170.007 41.6602 169.772 41.9303 169.302C42.2005 168.831 42.3356 168.16 42.3356 167.288C42.3356 166.709 42.2735 166.215 42.1493 165.808C42.0273 165.401 41.8508 165.09 41.6199 164.877C41.3911 164.663 41.1155 164.556 40.7931 164.556C40.3094 164.556 39.9314 164.795 39.6591 165.272C39.3868 165.747 39.2506 166.419 39.2506 167.288C39.2506 167.868 39.3116 168.36 39.4336 168.766C39.5556 169.171 39.731 169.479 39.9598 169.69C40.1907 169.902 40.4685 170.007 40.7931 170.007Z" fill="#373D3F"/>
<path d="M32.5489 210.104V209.438L35.49 204.784H35.9737V205.817H35.6469L33.4247 209.333V209.386H37.3854V210.104H32.5489ZM35.6992 211.477V209.902V209.591V204.784H36.4704V211.477H35.6992ZM40.7931 211.568C40.3007 211.568 39.8813 211.435 39.5349 211.167C39.1885 210.896 38.9238 210.505 38.7408 209.993C38.5578 209.479 38.4663 208.858 38.4663 208.131C38.4663 207.407 38.5578 206.79 38.7408 206.278C38.926 205.764 39.1918 205.371 39.5382 205.101C39.8868 204.829 40.3051 204.693 40.7931 204.693C41.2811 204.693 41.6983 204.829 42.0447 205.101C42.3933 205.371 42.6591 205.764 42.8421 206.278C43.0273 206.79 43.1199 207.407 43.1199 208.131C43.1199 208.858 43.0284 209.479 42.8454 209.993C42.6624 210.505 42.3976 210.896 42.0512 211.167C41.7048 211.435 41.2855 211.568 40.7931 211.568ZM40.7931 210.85C41.2811 210.85 41.6602 210.614 41.9303 210.144C42.2005 209.673 42.3356 209.002 42.3356 208.131C42.3356 207.551 42.2735 207.058 42.1493 206.65C42.0273 206.243 41.8508 205.932 41.6199 205.719C41.3911 205.505 41.1155 205.399 40.7931 205.399C40.3094 205.399 39.9314 205.637 39.6591 206.114C39.3868 206.589 39.2506 207.261 39.2506 208.131C39.2506 208.71 39.3116 209.202 39.4336 209.608C39.5556 210.013 39.731 210.321 39.9598 210.533C40.1907 210.744 40.4685 210.85 40.7931 210.85Z" fill="#373D3F"/>
<path d="M33.7286 252.319V251.731L35.9377 249.312C36.1969 249.029 36.4104 248.783 36.5782 248.574C36.746 248.363 36.8701 248.164 36.9507 247.979C37.0335 247.792 37.0749 247.596 37.0749 247.391C37.0749 247.156 37.0183 246.952 36.905 246.78C36.7939 246.608 36.6414 246.475 36.4475 246.381C36.2536 246.287 36.0357 246.241 35.7939 246.241C35.5368 246.241 35.3124 246.294 35.1207 246.401C34.9312 246.505 34.7841 246.652 34.6795 246.842C34.5771 247.031 34.5259 247.254 34.5259 247.508H33.7547C33.7547 247.116 33.8451 246.772 34.0259 246.476C34.2068 246.18 34.4529 245.949 34.7645 245.783C35.0782 245.617 35.4301 245.535 35.82 245.535C36.2122 245.535 36.5597 245.617 36.8625 245.783C37.1653 245.949 37.4028 246.172 37.5749 246.453C37.747 246.734 37.8331 247.047 37.8331 247.391C37.8331 247.637 37.7884 247.878 37.6991 248.113C37.612 248.346 37.4595 248.607 37.2416 248.894C37.0259 249.18 36.7263 249.528 36.3429 249.94L34.8397 251.548V251.6H37.9507V252.319H33.7286ZM41.4834 252.41C40.991 252.41 40.5716 252.276 40.2252 252.008C39.8788 251.738 39.6141 251.347 39.4311 250.835C39.2481 250.321 39.1566 249.7 39.1566 248.973C39.1566 248.249 39.2481 247.632 39.4311 247.12C39.6163 246.605 39.8821 246.213 40.2285 245.943C40.5771 245.671 40.9954 245.535 41.4834 245.535C41.9714 245.535 42.3886 245.671 42.735 245.943C43.0836 246.213 43.3494 246.605 43.5324 247.12C43.7176 247.632 43.8102 248.249 43.8102 248.973C43.8102 249.7 43.7187 250.321 43.5357 250.835C43.3527 251.347 43.088 251.738 42.7416 252.008C42.3951 252.276 41.9758 252.41 41.4834 252.41ZM41.4834 251.691C41.9714 251.691 42.3505 251.456 42.6206 250.986C42.8908 250.515 43.0259 249.844 43.0259 248.973C43.0259 248.393 42.9638 247.9 42.8396 247.492C42.7176 247.085 42.5411 246.774 42.3102 246.561C42.0814 246.347 41.8058 246.241 41.4834 246.241C40.9997 246.241 40.6217 246.479 40.3494 246.956C40.0771 247.431 39.9409 248.103 39.9409 248.973C39.9409 249.552 40.0019 250.044 40.1239 250.45C40.2459 250.855 40.4213 251.163 40.6501 251.374C40.881 251.586 41.1588 251.691 41.4834 251.691Z" fill="#373D3F"/>
<defs>
<linearGradient id="paint0_linear_21_805" x1="50.6034" y1="69.72" x2="50.6034" y2="251.467" gradientUnits="userSpaceOnUse">
<stop stop-color="#008FFB" stop-opacity="0.4225"/>
<stop offset="1" stop-color="#80C7FD" stop-opacity="0.25"/>
</linearGradient>
</defs>
</svg>