<svg width="733" height="422" viewBox="0 0 733 422" fill="none" xmlns="http://www.w3.org/2000/svg">
<rect width="733" height="422" rx="7" fill="#F7FAFF" fill-opacity="0.7"/>
<path d="M31.1713 37H27.8759L32.8972 22.4545H36.8603L41.8745 37H38.579L34.9355 25.7784H34.8219L31.1713 37ZM30.9654 31.2827H38.7495V33.6832H30.9654V31.2827ZM43.6252 37V22.4545H49.3638C50.467 22.4545 51.4069 22.6652 52.1834 23.0866C52.9599 23.5033 53.5518 24.0833 53.959 24.8267C54.3709 25.5653 54.5769 26.4176 54.5769 27.3835C54.5769 28.3494 54.3685 29.2017 53.9519 29.9403C53.5352 30.679 52.9315 31.2543 52.1408 31.6662C51.3548 32.0781 50.4031 32.2841 49.2857 32.2841H45.628V29.8196H48.7885C49.3804 29.8196 49.8681 29.7178 50.2516 29.5142C50.6398 29.3059 50.9287 29.0194 51.1181 28.6548C51.3122 28.2855 51.4093 27.8617 51.4093 27.3835C51.4093 26.9006 51.3122 26.4792 51.1181 26.1193C50.9287 25.7547 50.6398 25.473 50.2516 25.2741C49.8633 25.0705 49.3709 24.9688 48.7743 24.9688H46.7005V37H43.6252ZM64.2573 37.206C63.5612 37.206 62.941 37.0852 62.3965 36.8438C61.852 36.5975 61.4211 36.2353 61.1039 35.7571C60.7914 35.2741 60.6351 34.6728 60.6351 33.9531C60.6351 33.3471 60.7464 32.8381 60.9689 32.4261C61.1915 32.0142 61.4945 31.6828 61.878 31.4318C62.2615 31.1809 62.6971 30.9915 63.1848 30.8636C63.6772 30.7358 64.1933 30.6458 64.7331 30.5938C65.3676 30.5275 65.879 30.4659 66.2672 30.4091C66.6555 30.3475 66.9372 30.2576 67.1124 30.1392C67.2876 30.0208 67.3752 29.8456 67.3752 29.6136V29.571C67.3752 29.1212 67.2331 28.7732 66.949 28.527C66.6697 28.2808 66.2719 28.1577 65.7558 28.1577C65.2113 28.1577 64.7781 28.2784 64.4561 28.5199C64.1342 28.7566 63.9211 29.0549 63.8169 29.4148L61.0186 29.1875C61.1607 28.5246 61.44 27.9517 61.8567 27.4688C62.2734 26.9811 62.8108 26.607 63.4689 26.3466C64.1318 26.0814 64.8988 25.9489 65.7701 25.9489C66.3761 25.9489 66.9561 26.0199 67.5101 26.1619C68.0688 26.304 68.5636 26.5241 68.9945 26.8224C69.4301 27.1207 69.7734 27.5043 70.0243 27.973C70.2753 28.437 70.4007 28.9934 70.4007 29.642V37H67.5314V35.4872H67.4462C67.271 35.8281 67.0366 36.1288 66.7431 36.3892C66.4495 36.6449 66.0968 36.8461 65.6848 36.9929C65.2729 37.1349 64.797 37.206 64.2573 37.206ZM65.1237 35.1179C65.5688 35.1179 65.9618 35.0303 66.3027 34.8551C66.6436 34.6752 66.9112 34.4337 67.1053 34.1307C67.2994 33.8277 67.3965 33.4844 67.3965 33.1009V31.9432C67.3018 32.0047 67.1716 32.0616 67.0058 32.1136C66.8449 32.161 66.6626 32.206 66.459 32.2486C66.2554 32.2865 66.0518 32.322 65.8482 32.3551C65.6446 32.3835 65.4599 32.4096 65.2942 32.4332C64.9391 32.4853 64.629 32.5682 64.3638 32.6818C64.0987 32.7955 63.8927 32.9493 63.7459 33.1435C63.5991 33.3329 63.5257 33.5696 63.5257 33.8537C63.5257 34.2656 63.6749 34.5805 63.9732 34.7983C64.2762 35.0114 64.6597 35.1179 65.1237 35.1179ZM75.7736 30.6932V37H72.748V26.0909H75.6316V28.0156H75.7594C76.0009 27.3812 76.4057 26.8793 76.9739 26.5099C77.5421 26.1359 78.231 25.9489 79.0406 25.9489C79.7982 25.9489 80.4587 26.1146 81.0222 26.446C81.5856 26.7775 82.0236 27.2509 82.3361 27.8665C82.6486 28.4773 82.8049 29.2064 82.8049 30.054V37H79.7793V30.5938C79.784 29.9261 79.6136 29.4053 79.2679 29.0312C78.9223 28.6525 78.4464 28.4631 77.8404 28.4631C77.4332 28.4631 77.0733 28.5507 76.7608 28.7259C76.4531 28.901 76.2116 29.1567 76.0364 29.4929C75.8659 29.8243 75.7783 30.2244 75.7736 30.6932ZM89.2093 37.1776C88.3807 37.1776 87.6303 36.9645 86.9579 36.5384C86.2903 36.1075 85.76 35.4754 85.367 34.642C84.9787 33.804 84.7846 32.7765 84.7846 31.5597C84.7846 30.3097 84.9858 29.2704 85.3883 28.4418C85.7908 27.6084 86.3258 26.9858 86.9934 26.5739C87.6658 26.1572 88.402 25.9489 89.2022 25.9489C89.813 25.9489 90.322 26.053 90.7292 26.2614C91.1411 26.465 91.4726 26.7206 91.7235 27.0284C91.9792 27.3314 92.1733 27.6297 92.3059 27.9233H92.3982V22.4545H95.4167V37H92.4338V35.2528H92.3059C92.1639 35.5559 91.9626 35.8565 91.7022 36.1548C91.4465 36.4484 91.1127 36.6922 90.7008 36.8864C90.2936 37.0805 89.7965 37.1776 89.2093 37.1776ZM90.1681 34.7699C90.6558 34.7699 91.0678 34.6373 91.4039 34.3722C91.7448 34.1023 92.0053 33.7259 92.1852 33.2429C92.3698 32.7599 92.4622 32.1941 92.4622 31.5455C92.4622 30.8968 92.3722 30.3333 92.1923 29.8551C92.0124 29.3769 91.7519 29.0076 91.411 28.7472C91.0701 28.4867 90.6558 28.3565 90.1681 28.3565C89.671 28.3565 89.2519 28.4915 88.911 28.7614C88.5701 29.0312 88.3121 29.4053 88.1369 29.8835C87.9617 30.3617 87.8741 30.9157 87.8741 31.5455C87.8741 32.1799 87.9617 32.741 88.1369 33.2287C88.3168 33.7116 88.5749 34.0904 88.911 34.3651C89.2519 34.6349 89.671 34.7699 90.1681 34.7699ZM105.097 37H101.802L106.823 22.4545H110.786L115.8 37H112.505L108.861 25.7784H108.748L105.097 37ZM104.891 31.2827H112.675V33.6832H104.891V31.2827ZM117.551 37V22.4545H123.29C124.388 22.4545 125.326 22.651 126.102 23.044C126.883 23.4323 127.478 23.9839 127.885 24.6989C128.297 25.4091 128.503 26.2448 128.503 27.206C128.503 28.1719 128.294 29.0028 127.878 29.6989C127.461 30.3902 126.857 30.9205 126.067 31.2898C125.281 31.6591 124.329 31.8438 123.211 31.8438H119.369V29.3722H122.714C123.301 29.3722 123.789 29.2917 124.177 29.1307C124.566 28.9697 124.854 28.7282 125.044 28.4062C125.238 28.0843 125.335 27.6842 125.335 27.206C125.335 26.723 125.238 26.3158 125.044 25.9844C124.854 25.6529 124.563 25.402 124.17 25.2315C123.782 25.0563 123.292 24.9688 122.7 24.9688H120.626V37H117.551ZM125.406 30.3807L129.021 37H125.626L122.089 30.3807H125.406ZM28.6642 61V46.4545H34.4881C35.5582 46.4545 36.4507 46.6132 37.1656 46.9304C37.8806 47.2476 38.418 47.688 38.7779 48.2514C39.1377 48.8101 39.3176 49.4541 39.3176 50.1832C39.3176 50.7514 39.204 51.2509 38.9767 51.6818C38.7495 52.108 38.437 52.4583 38.0392 52.733C37.6462 53.0028 37.1964 53.1946 36.6898 53.3082V53.4503C37.2438 53.474 37.7622 53.6302 38.2452 53.919C38.7329 54.2079 39.1282 54.6127 39.4313 55.1335C39.7343 55.6496 39.8858 56.2652 39.8858 56.9801C39.8858 57.7519 39.6941 58.4408 39.3105 59.0469C38.9317 59.6482 38.3707 60.1241 37.6273 60.4744C36.8839 60.8248 35.9677 61 34.8787 61H28.6642ZM31.7395 58.4858H34.2466C35.1036 58.4858 35.7286 58.3224 36.1216 57.9957C36.5146 57.6643 36.7111 57.224 36.7111 56.6747C36.7111 56.2723 36.614 55.9171 36.4199 55.6094C36.2258 55.3016 35.9488 55.0601 35.5889 54.8849C35.2338 54.7098 34.8101 54.6222 34.3176 54.6222H31.7395V58.4858ZM31.7395 52.5412H34.0193C34.4407 52.5412 34.8148 52.4678 35.1415 52.321C35.4729 52.1695 35.7334 51.9564 35.9228 51.6818C36.1169 51.4072 36.2139 51.0781 36.2139 50.6946C36.2139 50.169 36.0269 49.7453 35.6529 49.4233C35.2835 49.1013 34.758 48.9403 34.0762 48.9403H31.7395V52.5412ZM44.9409 61.206C44.2448 61.206 43.6246 61.0852 43.0801 60.8438C42.5356 60.5975 42.1047 60.2353 41.7875 59.7571C41.475 59.2741 41.3187 58.6728 41.3187 57.9531C41.3187 57.3471 41.43 56.8381 41.6525 56.4261C41.875 56.0142 42.1781 55.6828 42.5616 55.4318C42.9451 55.1809 43.3807 54.9915 43.8684 54.8636C44.3608 54.7358 44.8769 54.6458 45.4167 54.5938C46.0512 54.5275 46.5625 54.4659 46.9508 54.4091C47.3391 54.3475 47.6208 54.2576 47.796 54.1392C47.9712 54.0208 48.0588 53.8456 48.0588 53.6136V53.571C48.0588 53.1212 47.9167 52.7732 47.6326 52.527C47.3533 52.2808 46.9555 52.1577 46.4394 52.1577C45.8949 52.1577 45.4617 52.2784 45.1397 52.5199C44.8178 52.7566 44.6047 53.0549 44.5005 53.4148L41.7022 53.1875C41.8443 52.5246 42.1236 51.9517 42.5403 51.4688C42.957 50.9811 43.4944 50.607 44.1525 50.3466C44.8154 50.0814 45.5824 49.9489 46.4536 49.9489C47.0597 49.9489 47.6397 50.0199 48.1937 50.1619C48.7524 50.304 49.2472 50.5241 49.6781 50.8224C50.1137 51.1207 50.457 51.5043 50.7079 51.973C50.9589 52.437 51.0843 52.9934 51.0843 53.642V61H48.215V59.4872H48.1298C47.9546 59.8281 47.7202 60.1288 47.4267 60.3892C47.1331 60.6449 46.7804 60.8461 46.3684 60.9929C45.9565 61.1349 45.4806 61.206 44.9409 61.206ZM45.8073 59.1179C46.2524 59.1179 46.6454 59.0303 46.9863 58.8551C47.3272 58.6752 47.5947 58.4337 47.7889 58.1307C47.983 57.8277 48.0801 57.4844 48.0801 57.1009V55.9432C47.9854 56.0047 47.8552 56.0616 47.6894 56.1136C47.5285 56.161 47.3462 56.206 47.1426 56.2486C46.939 56.2865 46.7354 56.322 46.5318 56.3551C46.3282 56.3835 46.1435 56.4096 45.9778 56.4332C45.6227 56.4853 45.3125 56.5682 45.0474 56.6818C44.7822 56.7955 44.5763 56.9493 44.4295 57.1435C44.2827 57.3329 44.2093 57.5696 44.2093 57.8537C44.2093 58.2656 44.3585 58.5805 44.6568 58.7983C44.9598 59.0114 45.3433 59.1179 45.8073 59.1179ZM56.4572 46.4545V61H53.4316V46.4545H56.4572ZM61.9916 61.206C61.2956 61.206 60.6754 61.0852 60.1308 60.8438C59.5863 60.5975 59.1555 60.2353 58.8382 59.7571C58.5257 59.2741 58.3695 58.6728 58.3695 57.9531C58.3695 57.3471 58.4808 56.8381 58.7033 56.4261C58.9258 56.0142 59.2289 55.6828 59.6124 55.4318C59.9959 55.1809 60.4315 54.9915 60.9192 54.8636C61.4116 54.7358 61.9277 54.6458 62.4675 54.5938C63.102 54.5275 63.6133 54.4659 64.0016 54.4091C64.3898 54.3475 64.6716 54.2576 64.8468 54.1392C65.0219 54.0208 65.1095 53.8456 65.1095 53.6136V53.571C65.1095 53.1212 64.9675 52.7732 64.6834 52.527C64.404 52.2808 64.0063 52.1577 63.4902 52.1577C62.9457 52.1577 62.5125 52.2784 62.1905 52.5199C61.8685 52.7566 61.6555 53.0549 61.5513 53.4148L58.753 53.1875C58.8951 52.5246 59.1744 51.9517 59.5911 51.4688C60.0077 50.9811 60.5451 50.607 61.2033 50.3466C61.8662 50.0814 62.6332 49.9489 63.5044 49.9489C64.1105 49.9489 64.6905 50.0199 65.2445 50.1619C65.8032 50.304 66.298 50.5241 66.7289 50.8224C67.1645 51.1207 67.5077 51.5043 67.7587 51.973C68.0096 52.437 68.1351 52.9934 68.1351 53.642V61H65.2658V59.4872H65.1806C65.0054 59.8281 64.771 60.1288 64.4774 60.3892C64.1839 60.6449 63.8311 60.8461 63.4192 60.9929C63.0073 61.1349 62.5314 61.206 61.9916 61.206ZM62.8581 59.1179C63.3032 59.1179 63.6962 59.0303 64.0371 58.8551C64.378 58.6752 64.6455 58.4337 64.8397 58.1307C65.0338 57.8277 65.1308 57.4844 65.1308 57.1009V55.9432C65.0362 56.0047 64.9059 56.0616 64.7402 56.1136C64.5792 56.161 64.3969 56.206 64.1933 56.2486C63.9898 56.2865 63.7862 56.322 63.5826 56.3551C63.379 56.3835 63.1943 56.4096 63.0286 56.4332C62.6735 56.4853 62.3633 56.5682 62.0982 56.6818C61.833 56.7955 61.6271 56.9493 61.4803 57.1435C61.3335 57.3329 61.2601 57.5696 61.2601 57.8537C61.2601 58.2656 61.4093 58.5805 61.7076 58.7983C62.0106 59.0114 62.3941 59.1179 62.8581 59.1179ZM73.508 54.6932V61H70.4824V50.0909H73.3659V52.0156H73.4938C73.7353 51.3812 74.1401 50.8793 74.7083 50.5099C75.2764 50.1359 75.9654 49.9489 76.775 49.9489C77.5326 49.9489 78.1931 50.1146 78.7566 50.446C79.32 50.7775 79.758 51.2509 80.0705 51.8665C80.383 52.4773 80.5392 53.2064 80.5392 54.054V61H77.5137V54.5938C77.5184 53.9261 77.3479 53.4053 77.0023 53.0312C76.6567 52.6525 76.1808 52.4631 75.5747 52.4631C75.1675 52.4631 74.8077 52.5507 74.4952 52.7259C74.1874 52.901 73.946 53.1567 73.7708 53.4929C73.6003 53.8243 73.5127 54.2244 73.508 54.6932ZM87.8528 61.2131C86.7354 61.2131 85.7742 60.9763 84.9693 60.5028C84.1691 60.0246 83.5536 59.3617 83.1227 58.5142C82.6965 57.6667 82.4835 56.6913 82.4835 55.5881C82.4835 54.4706 82.6989 53.4905 83.1298 52.6477C83.5654 51.8002 84.1833 51.1397 84.9835 50.6662C85.7837 50.188 86.7354 49.9489 87.8386 49.9489C88.7903 49.9489 89.6236 50.1217 90.3386 50.4673C91.0536 50.813 91.6194 51.2983 92.036 51.9233C92.4527 52.5483 92.6823 53.2822 92.725 54.125H89.8698C89.7893 53.5805 89.5763 53.1425 89.2306 52.8111C88.8897 52.4749 88.4423 52.3068 87.8883 52.3068C87.4196 52.3068 87.01 52.4347 86.6596 52.6903C86.314 52.9413 86.0441 53.3082 85.85 53.7912C85.6558 54.2741 85.5588 54.8589 85.5588 55.5455C85.5588 56.2415 85.6535 56.8333 85.8429 57.321C86.037 57.8087 86.3092 58.1804 86.6596 58.4361C87.01 58.6918 87.4196 58.8196 87.8883 58.8196C88.2339 58.8196 88.5441 58.7486 88.8187 58.6065C89.0981 58.4645 89.3277 58.2585 89.5076 57.9886C89.6923 57.714 89.813 57.3849 89.8698 57.0014H92.725C92.6776 57.8348 92.4503 58.5687 92.0431 59.2031C91.6407 59.8329 91.0843 60.3253 90.3741 60.6804C89.6639 61.0355 88.8234 61.2131 87.8528 61.2131ZM99.6337 61.2131C98.5115 61.2131 97.5456 60.9858 96.736 60.5312C95.931 60.072 95.3108 59.4233 94.8752 58.5852C94.4396 57.7424 94.2218 56.7457 94.2218 55.5952C94.2218 54.473 94.4396 53.4882 94.8752 52.6406C95.3108 51.7931 95.9239 51.1326 96.7147 50.6591C97.5101 50.1856 98.4429 49.9489 99.513 49.9489C100.233 49.9489 100.903 50.0649 101.523 50.2969C102.148 50.5241 102.692 50.8674 103.156 51.3267C103.625 51.786 103.99 52.3636 104.25 53.0597C104.511 53.7509 104.641 54.5606 104.641 55.4886V56.3196H95.4291V54.4446H101.793C101.793 54.009 101.698 53.6231 101.509 53.2869C101.319 52.9508 101.057 52.688 100.72 52.4986C100.389 52.3045 100.003 52.2074 99.5627 52.2074C99.1034 52.2074 98.6962 52.3139 98.3411 52.527C97.9907 52.7353 97.7161 53.017 97.5172 53.3722C97.3183 53.7225 97.2165 54.1132 97.2118 54.544V56.3267C97.2118 56.8665 97.3112 57.3329 97.5101 57.7259C97.7137 58.1188 98.0002 58.4219 98.3695 58.6349C98.7388 58.848 99.1768 58.9545 99.6834 58.9545C100.02 58.9545 100.327 58.9072 100.607 58.8125C100.886 58.7178 101.125 58.5758 101.324 58.3864C101.523 58.197 101.674 57.965 101.779 57.6903L104.577 57.875C104.435 58.5473 104.144 59.1345 103.703 59.6364C103.268 60.1335 102.704 60.5218 102.013 60.8011C101.326 61.0758 100.533 61.2131 99.6337 61.2131Z" fill="#4D4F5C"/>
<path d="M31.7927 73H30.702L33.8565 64.4091H34.9304L38.0849 73H36.9942L34.427 65.7682H34.3599L31.7927 73ZM32.1954 69.6442H36.5915V70.567H32.1954V69.6442ZM43.7499 66.5568L41.3673 73H40.3605L37.9779 66.5568H39.0518L40.8303 71.6912H40.8975L42.676 66.5568H43.7499ZM47.4266 75.5504C46.9484 75.5504 46.5373 75.4889 46.1934 75.3659C45.8494 75.2456 45.5628 75.0862 45.3334 74.8877C45.1069 74.6919 44.9265 74.4822 44.7923 74.2584L45.5809 73.7047C45.6704 73.8222 45.7837 73.9564 45.9207 74.1074C46.0577 74.2612 46.2451 74.3941 46.4828 74.5059C46.7233 74.6206 47.0379 74.6779 47.4266 74.6779C47.9468 74.6779 48.3761 74.5521 48.7144 74.3004C49.0528 74.0487 49.222 73.6544 49.222 73.1175V71.8087H49.1381C49.0654 71.9261 48.9619 72.0716 48.8277 72.2449C48.6963 72.4155 48.5061 72.5679 48.2572 72.7022C48.0111 72.8336 47.6783 72.8993 47.2588 72.8993C46.7387 72.8993 46.2717 72.7763 45.8578 72.5302C45.4467 72.2841 45.1209 71.9261 44.8804 71.4563C44.6427 70.9865 44.5238 70.416 44.5238 69.7449C44.5238 69.0849 44.6399 68.5102 44.872 68.0208C45.1041 67.5286 45.4271 67.1483 45.841 66.8798C46.2549 66.6086 46.7331 66.4729 47.2756 66.4729C47.6951 66.4729 48.0279 66.5428 48.274 66.6827C48.5229 66.8197 48.713 66.9763 48.8445 67.1525C48.9787 67.3259 49.0822 67.4685 49.1549 67.5803H49.2556V66.5568H50.212V73.1846C50.212 73.7383 50.0861 74.1885 49.8344 74.5353C49.5855 74.8849 49.25 75.1407 48.8277 75.3029C48.4082 75.4679 47.9412 75.5504 47.4266 75.5504ZM47.3931 72.01C47.7902 72.01 48.1258 71.9191 48.3998 71.7374C48.6739 71.5556 48.8822 71.2941 49.0248 70.9529C49.1675 70.6118 49.2388 70.2035 49.2388 69.7281C49.2388 69.2638 49.1689 68.8542 49.029 68.499C48.8892 68.1438 48.6823 67.8656 48.4082 67.6642C48.1342 67.4629 47.7958 67.3622 47.3931 67.3622C46.9736 67.3622 46.624 67.4685 46.3444 67.681C46.0675 67.8936 45.8592 68.1788 45.7194 68.5368C45.5823 68.8947 45.5138 69.2918 45.5138 69.7281C45.5138 70.1755 45.5837 70.5712 45.7236 70.9152C45.8662 71.2564 46.0759 71.5248 46.3528 71.7206C46.6324 71.9136 46.9792 72.01 47.3931 72.01ZM52.7456 73.0671C52.5387 73.0671 52.3611 72.993 52.2129 72.8448C52.0647 72.6966 51.9906 72.519 51.9906 72.3121C51.9906 72.1051 52.0647 71.9275 52.2129 71.7793C52.3611 71.6311 52.5387 71.557 52.7456 71.557C52.9526 71.557 53.1301 71.6311 53.2784 71.7793C53.4266 71.9275 53.5007 72.1051 53.5007 72.3121C53.5007 72.4491 53.4657 72.5749 53.3958 72.6896C53.3287 72.8042 53.2378 72.8965 53.1231 72.9664C53.0113 73.0336 52.8854 73.0671 52.7456 73.0671ZM61.1163 74.0739V63.3352H61.8042V74.0739H61.1163ZM63.4318 66.5568C63.3815 66.1317 63.1773 65.8018 62.8194 65.5669C62.4614 65.3319 62.0224 65.2145 61.5022 65.2145C61.1219 65.2145 60.7891 65.276 60.5039 65.3991C60.2214 65.5221 60.0005 65.6913 59.8411 65.9066C59.6845 66.122 59.6062 66.3667 59.6062 66.6407C59.6062 66.87 59.6607 67.0672 59.7698 67.2322C59.8816 67.3944 60.0243 67.53 60.1976 67.6391C60.371 67.7453 60.5528 67.8334 60.743 67.9033C60.9331 67.9705 61.1079 68.025 61.2673 68.0669L62.1398 68.3018C62.3635 68.3606 62.6124 68.4417 62.8865 68.5451C63.1634 68.6486 63.4276 68.7898 63.6793 68.9688C63.9338 69.145 64.1435 69.3715 64.3085 69.6484C64.4735 69.9252 64.556 70.265 64.556 70.6677C64.556 71.1319 64.4344 71.5514 64.1911 71.9261C63.9506 72.3009 63.5982 72.5987 63.134 72.8196C62.6726 73.0405 62.1119 73.151 61.4519 73.151C60.8366 73.151 60.3039 73.0517 59.8537 72.8532C59.4062 72.6546 59.0539 72.3778 58.7966 72.0226C58.5421 71.6675 58.3981 71.255 58.3645 70.7852H59.4384C59.4664 71.1096 59.5754 71.378 59.7656 71.5906C59.9585 71.8003 60.2018 71.9569 60.4955 72.0604C60.7919 72.161 61.1107 72.2114 61.4519 72.2114C61.849 72.2114 62.2055 72.1471 62.5216 72.0184C62.8376 71.887 63.0878 71.7052 63.2724 71.4731C63.457 71.2382 63.5493 70.9641 63.5493 70.6509C63.5493 70.3657 63.4696 70.1336 63.3102 69.9546C63.1508 69.7756 62.941 69.6302 62.681 69.5183C62.4209 69.4065 62.1398 69.3086 61.8378 69.2247L60.7807 68.9227C60.1096 68.7297 59.5782 68.4543 59.1867 68.0963C58.7952 67.7383 58.5994 67.2699 58.5994 66.6911C58.5994 66.21 58.7295 65.7906 58.9895 65.4326C59.2524 65.0719 59.6048 64.7922 60.0466 64.5937C60.4913 64.3923 60.9877 64.2916 61.5358 64.2916C62.0895 64.2916 62.5817 64.3909 63.0123 64.5895C63.443 64.7852 63.7842 65.0537 64.0359 65.3949C64.2903 65.736 64.4246 66.1234 64.4386 66.5568H63.4318ZM68.8001 73.1175C68.3079 73.1175 67.8647 73.0196 67.4703 72.8238C67.076 72.6281 66.76 72.3596 66.5223 72.0184C66.2846 71.6772 66.1546 71.2885 66.1322 70.8523H67.139C67.1781 71.241 67.3543 71.5626 67.6675 71.8171C67.9835 72.0688 68.361 72.1946 68.8001 72.1946C69.1524 72.1946 69.4657 72.1121 69.7397 71.9471C70.0166 71.7821 70.2333 71.5556 70.3899 71.2676C70.5493 70.9767 70.629 70.6481 70.629 70.2818C70.629 69.907 70.5465 69.5729 70.3815 69.2792C70.2193 68.9828 69.9956 68.7493 69.7104 68.5787C69.4251 68.4081 69.0993 68.3214 68.733 68.3186C68.4701 68.3158 68.2002 68.3564 67.9234 68.4403C67.6465 68.5214 67.4186 68.6262 67.2396 68.7549L66.2664 68.6374L66.7866 64.4091H71.2498V65.3319H67.6591L67.3571 67.8656H67.4074C67.5836 67.7258 67.8045 67.6097 68.0702 67.5174C68.3359 67.4251 68.6127 67.379 68.9008 67.379C69.4265 67.379 69.8949 67.5048 70.306 67.7565C70.7199 68.0054 71.0443 68.3466 71.2792 68.7801C71.5169 69.2135 71.6358 69.7085 71.6358 70.265C71.6358 70.8131 71.5127 71.3025 71.2666 71.7332C71.0233 72.161 70.6877 72.4994 70.2599 72.7483C69.832 72.9944 69.3454 73.1175 68.8001 73.1175ZM74.4725 71.8255L74.4054 72.2785C74.3578 72.5973 74.2851 72.9385 74.1872 73.302C74.0922 73.6656 73.9929 74.0081 73.8894 74.3297C73.7859 74.6513 73.7006 74.9072 73.6335 75.0974H72.8785C72.9148 74.9184 72.9624 74.6821 73.0211 74.3885C73.0798 74.0948 73.1385 73.7662 73.1973 73.4027C73.2588 73.0419 73.3091 72.6728 73.3483 72.2953L73.3986 71.8255H74.4725ZM78.8697 73.1175C78.3159 73.1175 77.8224 73.0224 77.3889 72.8322C76.9582 72.642 76.6157 72.3778 76.3612 72.0394C76.1095 71.6982 75.9725 71.3025 75.9501 70.8523H77.0072C77.0295 71.1291 77.1246 71.3682 77.2924 71.5696C77.4602 71.7681 77.6797 71.9219 77.951 72.031C78.2223 72.1401 78.5229 72.1946 78.8529 72.1946C79.222 72.1946 79.5492 72.1303 79.8345 72.0016C80.1197 71.873 80.3434 71.694 80.5056 71.4647C80.6678 71.2354 80.7489 70.9697 80.7489 70.6677C80.7489 70.3517 80.6706 70.0734 80.514 69.8329C80.3574 69.5896 80.1281 69.3995 79.8261 69.2625C79.524 69.1254 79.1549 69.0569 78.7186 69.0569H78.0307V68.1341H78.7186C79.0598 68.1341 79.359 68.0725 79.6163 67.9495C79.8764 67.8264 80.0792 67.6531 80.2246 67.4293C80.3728 67.2056 80.4469 66.9427 80.4469 66.6407C80.4469 66.3499 80.3826 66.0968 80.2539 65.8815C80.1253 65.6661 79.9435 65.4983 79.7086 65.3781C79.4765 65.2578 79.2024 65.1977 78.8864 65.1977C78.59 65.1977 78.3104 65.2522 78.0475 65.3613C77.7874 65.4676 77.5749 65.6228 77.4099 65.8269C77.2449 66.0283 77.1554 66.2716 77.1414 66.5568H76.1347C76.1514 66.1066 76.2871 65.7123 76.5416 65.3739C76.796 65.0327 77.1288 64.767 77.5399 64.5769C77.9538 64.3867 78.4082 64.2916 78.9032 64.2916C79.4346 64.2916 79.8904 64.3993 80.2707 64.6146C80.651 64.8272 80.9433 65.1082 81.1474 65.4578C81.3516 65.8074 81.4536 66.1849 81.4536 66.5904C81.4536 67.0742 81.3264 67.4867 81.0719 67.8278C80.8202 68.169 80.4777 68.4053 80.0442 68.5368V68.6039C80.5867 68.6934 81.0104 68.9241 81.3152 69.296C81.62 69.6652 81.7724 70.1224 81.7724 70.6677C81.7724 71.1347 81.6452 71.5542 81.3907 71.9261C81.139 72.2953 80.7951 72.5861 80.3588 72.7987C79.9225 73.0112 79.4262 73.1175 78.8697 73.1175ZM86.2902 73.1175C85.6582 73.1175 85.1199 72.9455 84.6752 72.6015C84.2306 72.2547 83.8908 71.7528 83.6559 71.0956C83.421 70.4356 83.3035 69.6386 83.3035 68.7045C83.3035 67.7761 83.421 66.9833 83.6559 66.3261C83.8936 65.6661 84.2348 65.1628 84.6794 64.816C85.1269 64.4664 85.6638 64.2916 86.2902 64.2916C86.9166 64.2916 87.4522 64.4664 87.8968 64.816C88.3443 65.1628 88.6854 65.6661 88.9203 66.3261C89.1581 66.9833 89.2769 67.7761 89.2769 68.7045C89.2769 69.6386 89.1595 70.4356 88.9245 71.0956C88.6896 71.7528 88.3499 72.2547 87.9052 72.6015C87.4606 72.9455 86.9222 73.1175 86.2902 73.1175ZM86.2902 72.1946C86.9166 72.1946 87.4032 71.8926 87.75 71.2885C88.0968 70.6845 88.2702 69.8232 88.2702 68.7045C88.2702 67.9607 88.1905 67.3273 88.0311 66.8043C87.8745 66.2814 87.6479 65.8829 87.3515 65.6088C87.0579 65.3347 86.7041 65.1977 86.2902 65.1977C85.6694 65.1977 85.1842 65.5039 84.8346 66.1164C84.4851 66.726 84.3103 67.5887 84.3103 68.7045C84.3103 69.4484 84.3886 70.0804 84.5452 70.6006C84.7018 71.1207 84.9269 71.5164 85.2206 71.7877C85.517 72.059 85.8735 72.1946 86.2902 72.1946ZM93.6059 64.2916C93.9583 64.2944 94.3106 64.3615 94.663 64.493C95.0154 64.6244 95.337 64.8426 95.6278 65.1474C95.9186 65.4494 96.1521 65.8619 96.3283 66.3848C96.5045 66.9078 96.5926 67.5636 96.5926 68.3522C96.5926 69.1156 96.5199 69.7938 96.3745 70.3867C96.2319 70.9767 96.0249 71.4745 95.7536 71.88C95.4852 72.2855 95.158 72.5931 94.7721 72.8028C94.3889 73.0126 93.9555 73.1175 93.4717 73.1175C92.9907 73.1175 92.5614 73.0224 92.1839 72.8322C91.8092 72.6392 91.5015 72.3722 91.261 72.031C91.0233 71.687 90.8709 71.2885 90.8038 70.8355H91.8273C91.9196 71.2298 92.1028 71.5556 92.3768 71.8129C92.6537 72.0674 93.0186 72.1946 93.4717 72.1946C94.1345 72.1946 94.6574 71.9052 95.0405 71.3263C95.4265 70.7474 95.6194 69.9294 95.6194 68.8723H95.5523C95.3957 69.1072 95.2097 69.31 94.9944 69.4806C94.7791 69.6512 94.54 69.7826 94.2771 69.8749C94.0142 69.9672 93.7346 70.0133 93.4381 70.0133C92.9459 70.0133 92.4943 69.8917 92.0832 69.6484C91.6749 69.4023 91.3477 69.0653 91.1016 68.6374C90.8583 68.2068 90.7367 67.7146 90.7367 67.1609C90.7367 66.6351 90.8541 66.1541 91.0891 65.7179C91.3268 65.2788 91.6595 64.9292 92.0874 64.6692C92.5181 64.4091 93.0242 64.2832 93.6059 64.2916ZM93.6059 65.2145C93.2536 65.2145 92.9362 65.3026 92.6537 65.4788C92.3741 65.6521 92.1517 65.8871 91.9867 66.1835C91.8245 66.4771 91.7434 66.8029 91.7434 67.1609C91.7434 67.5188 91.8217 67.8446 91.9783 68.1383C92.1377 68.4291 92.3545 68.6612 92.6285 68.8346C92.9054 69.0052 93.22 69.0905 93.5724 69.0905C93.838 69.0905 94.0855 69.0387 94.3148 68.9353C94.5442 68.829 94.7441 68.685 94.9147 68.5032C95.0881 68.3186 95.2237 68.1103 95.3216 67.8782C95.4195 67.6433 95.4684 67.3986 95.4684 67.1441C95.4684 66.8085 95.3873 66.4939 95.2251 66.2003C95.0657 65.9066 94.8448 65.6689 94.5623 65.4871C94.2827 65.3054 93.9639 65.2145 93.6059 65.2145Z" fill="#A3A0FB"/>
<rect x="474.98" y="38.5" width="117.53" height="31" rx="3.5" stroke="#EAF0F4"/>
<path d="M500.504 50.5455H501.726L504.599 57.5634H504.698L507.571 50.5455H508.793V59H507.835V52.5765H507.753L505.111 59H504.186L501.544 52.5765H501.462V59H500.504V50.5455ZM513.29 59.1321C512.717 59.1321 512.215 58.9959 511.783 58.7234C511.354 58.4509 511.018 58.0698 510.776 57.5799C510.536 57.09 510.417 56.5176 510.417 55.8626C510.417 55.2021 510.536 54.6255 510.776 54.1329C511.018 53.6402 511.354 53.2577 511.783 52.9852C512.215 52.7128 512.717 52.5765 513.29 52.5765C513.862 52.5765 514.363 52.7128 514.792 52.9852C515.225 53.2577 515.56 53.6402 515.8 54.1329C516.042 54.6255 516.163 55.2021 516.163 55.8626C516.163 56.5176 516.042 57.09 515.8 57.5799C515.56 58.0698 515.225 58.4509 514.792 58.7234C514.363 58.9959 513.862 59.1321 513.29 59.1321ZM513.29 58.2569C513.725 58.2569 514.082 58.1455 514.363 57.9225C514.644 57.6996 514.852 57.4065 514.987 57.0432C515.121 56.68 515.189 56.2864 515.189 55.8626C515.189 55.4387 515.121 55.0438 514.987 54.6778C514.852 54.3117 514.644 54.0159 514.363 53.7902C514.082 53.5645 513.725 53.4517 513.29 53.4517C512.855 53.4517 512.497 53.5645 512.216 53.7902C511.936 54.0159 511.728 54.3117 511.593 54.6778C511.458 55.0438 511.391 55.4387 511.391 55.8626C511.391 56.2864 511.458 56.68 511.593 57.0432C511.728 57.4065 511.936 57.6996 512.216 57.9225C512.497 58.1455 512.855 58.2569 513.29 58.2569ZM518.624 55.1855V59H517.65V52.6591H518.591V53.6499H518.674C518.823 53.3279 519.048 53.0692 519.351 52.8738C519.654 52.6756 520.045 52.5765 520.523 52.5765C520.953 52.5765 521.328 52.6646 521.65 52.8407C521.972 53.0141 522.223 53.2783 522.402 53.6333C522.581 53.9856 522.67 54.4315 522.67 54.9709V59H521.696V55.0369C521.696 54.5388 521.567 54.1507 521.308 53.8728C521.049 53.5921 520.694 53.4517 520.243 53.4517C519.932 53.4517 519.654 53.5191 519.409 53.654C519.167 53.7888 518.975 53.9856 518.835 54.2443C518.695 54.503 518.624 54.8168 518.624 55.1855ZM527.208 52.6591V53.4847H523.922V52.6591H527.208ZM524.88 51.1399H525.854V57.1836C525.854 57.4588 525.894 57.6652 525.974 57.8028C526.056 57.9377 526.161 58.0285 526.287 58.0753C526.417 58.1193 526.553 58.1413 526.696 58.1413C526.803 58.1413 526.892 58.1358 526.96 58.1248C527.029 58.1111 527.084 58.1001 527.125 58.0918L527.324 58.967C527.258 58.9917 527.165 59.0165 527.047 59.0413C526.929 59.0688 526.779 59.0826 526.597 59.0826C526.322 59.0826 526.052 59.0234 525.788 58.9051C525.526 58.7867 525.309 58.6064 525.136 58.3643C524.965 58.1221 524.88 57.8166 524.88 57.4478V51.1399ZM529.784 55.1855V59H528.81V50.5455H529.784V53.6499H529.867C530.015 53.3224 530.238 53.0623 530.535 52.8696C530.835 52.6742 531.234 52.5765 531.733 52.5765C532.165 52.5765 532.543 52.6632 532.868 52.8366C533.193 53.0072 533.444 53.2701 533.623 53.6251C533.805 53.9774 533.896 54.426 533.896 54.9709V59H532.921V55.0369C532.921 54.5333 532.791 54.1439 532.529 53.8687C532.271 53.5907 531.911 53.4517 531.452 53.4517C531.133 53.4517 530.846 53.5191 530.593 53.654C530.343 53.7888 530.145 53.9856 529.999 54.2443C529.856 54.503 529.784 54.8168 529.784 55.1855ZM536.652 50.5455V59H535.678V50.5455H536.652ZM539.064 61.3778C538.899 61.3778 538.752 61.3641 538.623 61.3366C538.493 61.3118 538.404 61.287 538.354 61.2623L538.602 60.4036C538.839 60.4641 539.048 60.4862 539.229 60.4696C539.411 60.4531 539.572 60.3719 539.712 60.2261C539.855 60.083 539.986 59.8504 540.105 59.5284L540.286 59.033L537.941 52.6591H538.998L540.749 57.712H540.815L542.565 52.6591H543.622L540.93 59.9247C540.809 60.2522 540.659 60.5233 540.48 60.738C540.301 60.9554 540.094 61.1164 539.857 61.221C539.623 61.3256 539.359 61.3778 539.064 61.3778Z" fill="#415094"/>
<g clip-path="url(#clip0_21_629)">
<path d="M561.668 40.6074L559.51 42.7656L557.352 40.6074L557.557 40.3926L559.364 42.1992V38.293H559.656V42.1992L561.463 40.3926L561.668 40.6074Z" fill="#415094"/>
</g>
<rect x="598.51" y="38.5" width="124.39" height="31" rx="3.5" stroke="#EAF0F4"/>
<path d="M625.034 59V50.5455H626.058V58.0918H629.988V59H625.034ZM633.307 59.1486C632.905 59.1486 632.54 59.0729 632.213 58.9216C631.885 58.7674 631.625 58.5459 631.433 58.2569C631.24 57.9652 631.144 57.6129 631.144 57.2001C631.144 56.8368 631.215 56.5423 631.358 56.3167C631.501 56.0882 631.693 55.9094 631.932 55.78C632.171 55.6507 632.436 55.5543 632.725 55.491C633.016 55.425 633.309 55.3727 633.604 55.3342C633.989 55.2846 634.302 55.2475 634.541 55.2227C634.783 55.1952 634.959 55.1498 635.069 55.0865C635.182 55.0232 635.239 54.9131 635.239 54.7562V54.7232C635.239 54.3159 635.127 53.9994 634.904 53.7737C634.684 53.548 634.35 53.4352 633.901 53.4352C633.436 53.4352 633.071 53.537 632.807 53.7407C632.543 53.9443 632.357 54.1618 632.25 54.3929L631.325 54.0627C631.49 53.6774 631.71 53.3774 631.986 53.1627C632.264 52.9453 632.566 52.7939 632.894 52.7086C633.224 52.6206 633.549 52.5765 633.868 52.5765C634.072 52.5765 634.306 52.6013 634.57 52.6508C634.837 52.6976 635.094 52.7953 635.342 52.9439C635.592 53.0926 635.8 53.3169 635.965 53.6168C636.13 53.9168 636.213 54.3186 636.213 54.8223V59H635.239V58.1413H635.189C635.123 58.2789 635.013 58.4262 634.859 58.5831C634.705 58.7399 634.5 58.8734 634.244 58.9835C633.988 59.0936 633.675 59.1486 633.307 59.1486ZM633.455 58.2734C633.841 58.2734 634.165 58.1978 634.43 58.0464C634.697 57.895 634.897 57.6996 635.032 57.4602C635.17 57.2207 635.239 56.9689 635.239 56.7047V55.813C635.197 55.8626 635.107 55.908 634.966 55.9493C634.829 55.9878 634.669 56.0222 634.487 56.0525C634.308 56.08 634.134 56.1048 633.963 56.1268C633.795 56.146 633.659 56.1626 633.554 56.1763C633.301 56.2093 633.065 56.263 632.844 56.3373C632.627 56.4089 632.451 56.5176 632.316 56.6634C632.184 56.8066 632.118 57.002 632.118 57.2496C632.118 57.5882 632.243 57.8441 632.493 58.0175C632.747 58.1881 633.067 58.2734 633.455 58.2734ZM642.483 54.0792L641.607 54.3269C641.552 54.181 641.471 54.0393 641.364 53.9017C641.259 53.7613 641.116 53.6457 640.935 53.5549C640.753 53.4641 640.52 53.4187 640.237 53.4187C639.849 53.4187 639.525 53.5081 639.267 53.687C639.011 53.8631 638.883 54.0874 638.883 54.3599C638.883 54.6021 638.971 54.7934 639.147 54.9337C639.323 55.0741 639.598 55.1911 639.973 55.2846L640.914 55.5158C641.481 55.6534 641.903 55.8639 642.181 56.1474C642.459 56.4281 642.598 56.79 642.598 57.2331C642.598 57.5964 642.494 57.9212 642.285 58.2074C642.078 58.4936 641.789 58.7193 641.418 58.8844C641.046 59.0495 640.614 59.1321 640.121 59.1321C639.475 59.1321 638.939 58.9917 638.515 58.711C638.092 58.4303 637.823 58.0202 637.71 57.4808L638.635 57.2496C638.723 57.5909 638.89 57.8469 639.135 58.0175C639.382 58.1881 639.706 58.2734 640.105 58.2734C640.559 58.2734 640.919 58.1771 641.186 57.9845C641.456 57.7891 641.591 57.5551 641.591 57.2827C641.591 57.0625 641.514 56.8781 641.36 56.7295C641.206 56.5781 640.969 56.4653 640.65 56.391L639.593 56.1433C639.012 56.0057 638.586 55.7924 638.313 55.5034C638.043 55.2117 637.909 54.847 637.909 54.4094C637.909 54.0517 638.009 53.7352 638.21 53.46C638.414 53.1847 638.69 52.9687 639.04 52.8118C639.392 52.655 639.791 52.5765 640.237 52.5765C640.864 52.5765 641.357 52.7141 641.715 52.9893C642.075 53.2646 642.331 53.6278 642.483 54.0792ZM646.822 52.6591V53.4847H643.536V52.6591H646.822ZM644.494 51.1399H645.468V57.1836C645.468 57.4588 645.508 57.6652 645.588 57.8028C645.671 57.9377 645.775 58.0285 645.902 58.0753C646.031 58.1193 646.167 58.1413 646.311 58.1413C646.418 58.1413 646.506 58.1358 646.575 58.1248C646.644 58.1111 646.699 58.1001 646.74 58.0918L646.938 58.967C646.872 58.9917 646.78 59.0165 646.661 59.0413C646.543 59.0688 646.393 59.0826 646.211 59.0826C645.936 59.0826 645.667 59.0234 645.402 58.9051C645.141 58.7867 644.923 58.6064 644.75 58.3643C644.579 58.1221 644.494 57.8166 644.494 57.4478V51.1399ZM650.963 50.5455H652.135L654.48 54.492H654.579L656.924 50.5455H658.097L655.042 55.5158V59H654.018V55.5158L650.963 50.5455ZM661.05 59.1321C660.439 59.1321 659.912 58.9972 659.469 58.7275C659.029 58.4551 658.689 58.0753 658.449 57.5882C658.213 57.0983 658.094 56.5286 658.094 55.8791C658.094 55.2296 658.213 54.6571 658.449 54.1618C658.689 53.6636 659.022 53.2756 659.449 52.9976C659.878 52.7169 660.379 52.5765 660.951 52.5765C661.281 52.5765 661.608 52.6316 661.93 52.7417C662.252 52.8517 662.545 53.0306 662.809 53.2783C663.073 53.5233 663.284 53.848 663.44 54.2526C663.597 54.6571 663.676 55.1553 663.676 55.747V56.1598H658.788V55.3176H662.685C662.685 54.9599 662.613 54.6406 662.47 54.3599C662.33 54.0792 662.129 53.8576 661.868 53.6953C661.609 53.5329 661.303 53.4517 660.951 53.4517C660.563 53.4517 660.227 53.548 659.944 53.7407C659.663 53.9306 659.447 54.1783 659.296 54.4838C659.144 54.7892 659.069 55.1167 659.069 55.4663V56.0277C659.069 56.5066 659.151 56.9125 659.316 57.2455C659.484 57.5758 659.717 57.8276 660.014 58.001C660.311 58.1716 660.657 58.2569 661.05 58.2569C661.306 58.2569 661.537 58.2211 661.744 58.1496C661.953 58.0753 662.133 57.9652 662.285 57.8193C662.436 57.6707 662.553 57.4863 662.635 57.2662L663.577 57.5304C663.478 57.8496 663.311 58.1303 663.077 58.3725C662.843 58.6119 662.554 58.7991 662.21 58.9339C661.866 59.0661 661.48 59.1321 661.05 59.1321ZM667.024 59.1486C666.622 59.1486 666.257 59.0729 665.93 58.9216C665.602 58.7674 665.342 58.5459 665.15 58.2569C664.957 57.9652 664.861 57.6129 664.861 57.2001C664.861 56.8368 664.932 56.5423 665.075 56.3167C665.218 56.0882 665.41 55.9094 665.649 55.78C665.888 55.6507 666.153 55.5543 666.442 55.491C666.733 55.425 667.027 55.3727 667.321 55.3342C667.706 55.2846 668.019 55.2475 668.258 55.2227C668.5 55.1952 668.676 55.1498 668.786 55.0865C668.899 55.0232 668.956 54.9131 668.956 54.7562V54.7232C668.956 54.3159 668.844 53.9994 668.621 53.7737C668.401 53.548 668.067 53.4352 667.618 53.4352C667.153 53.4352 666.788 53.537 666.524 53.7407C666.26 53.9443 666.074 54.1618 665.967 54.3929L665.042 54.0627C665.207 53.6774 665.428 53.3774 665.703 53.1627C665.981 52.9453 666.283 52.7939 666.611 52.7086C666.941 52.6206 667.266 52.5765 667.585 52.5765C667.789 52.5765 668.023 52.6013 668.287 52.6508C668.554 52.6976 668.811 52.7953 669.059 52.9439C669.309 53.0926 669.517 53.3169 669.682 53.6168C669.847 53.9168 669.93 54.3186 669.93 54.8223V59H668.956V58.1413H668.906C668.84 58.2789 668.73 58.4262 668.576 58.5831C668.422 58.7399 668.217 58.8734 667.961 58.9835C667.705 59.0936 667.393 59.1486 667.024 59.1486ZM667.172 58.2734C667.558 58.2734 667.882 58.1978 668.147 58.0464C668.414 57.895 668.614 57.6996 668.749 57.4602C668.887 57.2207 668.956 56.9689 668.956 56.7047V55.813C668.914 55.8626 668.824 55.908 668.683 55.9493C668.546 55.9878 668.386 56.0222 668.204 56.0525C668.026 56.08 667.851 56.1048 667.68 56.1268C667.512 56.146 667.376 56.1626 667.271 56.1763C667.018 56.2093 666.782 56.263 666.561 56.3373C666.344 56.4089 666.168 56.5176 666.033 56.6634C665.901 56.8066 665.835 57.002 665.835 57.2496C665.835 57.5882 665.96 57.8441 666.21 58.0175C666.464 58.1881 666.784 58.2734 667.172 58.2734ZM671.708 59V52.6591H672.649V53.6168H672.715C672.831 53.3031 673.04 53.0485 673.343 52.8531C673.646 52.6577 673.987 52.56 674.367 52.56C674.438 52.56 674.528 52.5614 674.635 52.5641C674.742 52.5669 674.824 52.571 674.879 52.5765V53.5673C674.846 53.559 674.77 53.5467 674.652 53.5301C674.536 53.5109 674.414 53.5012 674.284 53.5012C673.976 53.5012 673.701 53.5659 673.459 53.6953C673.219 53.8219 673.029 53.998 672.889 54.2237C672.751 54.4466 672.682 54.7012 672.682 54.9874V59H671.708Z" fill="#415094"/>
<g clip-path="url(#clip1_21_629)">
<path d="M692.058 40.6074L689.9 42.7656L687.742 40.6074L687.947 40.3926L689.754 42.1992V38.293H690.047V42.1992L691.853 40.3926L692.058 40.6074Z" fill="#415094"/>
</g>
<path d="M98.6044 351.745H99.7493V358.504C99.7493 359.107 99.6385 359.62 99.4169 360.041C99.1953 360.463 98.883 360.783 98.4798 361.002C98.0766 361.22 97.6011 361.329 97.0533 361.329C96.5362 361.329 96.0761 361.235 95.673 361.048C95.2698 360.857 94.9528 360.586 94.722 360.235C94.4911 359.884 94.3757 359.467 94.3757 358.984H95.5022C95.5022 359.252 95.5683 359.486 95.7007 359.686C95.8361 359.883 96.0207 360.037 96.2546 360.147C96.4885 360.258 96.7548 360.314 97.0533 360.314C97.3826 360.314 97.6627 360.244 97.8935 360.106C98.1243 359.967 98.2997 359.764 98.4198 359.497C98.5429 359.226 98.6044 358.895 98.6044 358.504V351.745ZM103.983 361.366C103.533 361.366 103.125 361.282 102.759 361.112C102.393 360.94 102.102 360.692 101.887 360.369C101.671 360.043 101.564 359.649 101.564 359.187C101.564 358.781 101.644 358.452 101.804 358.199C101.964 357.944 102.178 357.744 102.445 357.599C102.713 357.455 103.009 357.347 103.332 357.276C103.658 357.202 103.986 357.144 104.315 357.101C104.746 357.045 105.095 357.004 105.363 356.976C105.634 356.945 105.831 356.894 105.954 356.824C106.08 356.753 106.143 356.63 106.143 356.454V356.417C106.143 355.962 106.018 355.608 105.769 355.356C105.523 355.103 105.149 354.977 104.647 354.977C104.127 354.977 103.719 355.091 103.424 355.319C103.129 355.546 102.921 355.79 102.801 356.048L101.767 355.679C101.951 355.248 102.198 354.912 102.505 354.672C102.816 354.429 103.155 354.26 103.521 354.165C103.89 354.066 104.253 354.017 104.61 354.017C104.838 354.017 105.1 354.044 105.395 354.1C105.694 354.152 105.982 354.261 106.259 354.428C106.539 354.594 106.771 354.845 106.956 355.18C107.14 355.516 107.233 355.965 107.233 356.528V361.2H106.143V360.24H106.088C106.014 360.394 105.891 360.558 105.718 360.734C105.546 360.909 105.317 361.058 105.031 361.182C104.744 361.305 104.395 361.366 103.983 361.366ZM104.149 360.388C104.58 360.388 104.943 360.303 105.238 360.134C105.537 359.964 105.762 359.746 105.912 359.478C106.066 359.21 106.143 358.929 106.143 358.633V357.636C106.097 357.691 105.995 357.742 105.838 357.788C105.685 357.832 105.506 357.87 105.303 357.904C105.103 357.935 104.907 357.962 104.717 357.987C104.529 358.008 104.377 358.027 104.26 358.042C103.976 358.079 103.712 358.139 103.466 358.222C103.222 358.302 103.025 358.424 102.875 358.587C102.727 358.747 102.653 358.966 102.653 359.243C102.653 359.621 102.793 359.907 103.073 360.101C103.356 360.292 103.715 360.388 104.149 360.388ZM110.311 356.934V361.2H109.221V354.109H110.274V355.217H110.366C110.532 354.857 110.785 354.568 111.123 354.349C111.462 354.128 111.899 354.017 112.434 354.017C112.914 354.017 113.334 354.115 113.695 354.312C114.055 354.506 114.335 354.802 114.535 355.199C114.735 355.593 114.835 356.091 114.835 356.694V361.2H113.745V356.768C113.745 356.211 113.601 355.777 113.311 355.466C113.022 355.152 112.625 354.995 112.12 354.995C111.773 354.995 111.462 355.071 111.188 355.222C110.917 355.372 110.703 355.593 110.546 355.882C110.389 356.171 110.311 356.522 110.311 356.934ZM98.2484 367.745V370.995H97.2328V367.745H98.2484ZM103.254 377.329C102.558 377.329 101.966 377.14 101.476 376.761C100.987 376.38 100.613 375.827 100.355 375.104C100.096 374.378 99.9669 373.501 99.9669 372.473C99.9669 371.451 100.096 370.578 100.355 369.855C100.616 369.129 100.992 368.575 101.481 368.193C101.973 367.809 102.564 367.616 103.254 367.616C103.943 367.616 104.533 367.809 105.022 368.193C105.514 368.575 105.89 369.129 106.148 369.855C106.41 370.578 106.541 371.451 106.541 372.473C106.541 373.501 106.411 374.378 106.153 375.104C105.894 375.827 105.52 376.38 105.031 376.761C104.542 377.14 103.949 377.329 103.254 377.329ZM103.254 376.314C103.943 376.314 104.479 375.981 104.86 375.316C105.242 374.652 105.433 373.704 105.433 372.473C105.433 371.654 105.345 370.957 105.17 370.381C104.997 369.806 104.748 369.367 104.422 369.066C104.099 368.764 103.709 368.613 103.254 368.613C102.571 368.613 102.037 368.95 101.652 369.624C101.267 370.295 101.075 371.245 101.075 372.473C101.075 373.291 101.161 373.987 101.333 374.559C101.506 375.132 101.753 375.567 102.077 375.866C102.403 376.164 102.795 376.314 103.254 376.314ZM111.619 367.745V377.2H110.474V368.946H110.419L108.11 370.478V369.315L110.474 367.745H111.619Z" fill="#373D3F"/>
<path d="M190.852 361.329C190.157 361.329 189.564 361.14 189.075 360.761C188.586 360.38 188.212 359.827 187.953 359.104C187.695 358.378 187.565 357.501 187.565 356.473C187.565 355.451 187.695 354.578 187.953 353.855C188.215 353.129 188.59 352.575 189.08 352.193C189.572 351.809 190.163 351.616 190.852 351.616C191.542 351.616 192.131 351.809 192.621 352.193C193.113 352.575 193.488 353.129 193.747 353.855C194.009 354.578 194.139 355.451 194.139 356.473C194.139 357.501 194.01 358.378 193.752 359.104C193.493 359.827 193.119 360.38 192.63 360.761C192.14 361.14 191.548 361.329 190.852 361.329ZM190.852 360.314C191.542 360.314 192.077 359.981 192.459 359.316C192.841 358.652 193.031 357.704 193.031 356.473C193.031 355.654 192.944 354.957 192.768 354.381C192.596 353.806 192.347 353.367 192.02 353.066C191.697 352.764 191.308 352.613 190.852 352.613C190.169 352.613 189.635 352.95 189.251 353.624C188.866 354.295 188.673 355.245 188.673 356.473C188.673 357.291 188.76 357.987 188.932 358.559C189.104 359.132 189.352 359.567 189.675 359.866C190.001 360.164 190.394 360.314 190.852 360.314ZM199.088 361.329C198.479 361.329 197.936 361.225 197.459 361.015C196.985 360.806 196.608 360.515 196.328 360.143C196.051 359.767 195.9 359.332 195.875 358.836H197.039C197.063 359.141 197.168 359.404 197.352 359.626C197.537 359.844 197.779 360.014 198.077 360.134C198.376 360.254 198.707 360.314 199.07 360.314C199.476 360.314 199.836 360.243 200.15 360.101C200.464 359.96 200.71 359.763 200.889 359.51C201.067 359.258 201.156 358.966 201.156 358.633C201.156 358.285 201.07 357.979 200.898 357.715C200.726 357.447 200.473 357.238 200.141 357.087C199.808 356.936 199.402 356.861 198.922 356.861H198.165V355.845H198.922C199.298 355.845 199.627 355.777 199.91 355.642C200.196 355.506 200.419 355.316 200.579 355.069C200.742 354.823 200.824 354.534 200.824 354.201C200.824 353.881 200.753 353.603 200.612 353.366C200.47 353.129 200.27 352.944 200.012 352.812C199.756 352.68 199.454 352.613 199.107 352.613C198.78 352.613 198.473 352.673 198.183 352.793C197.897 352.91 197.663 353.081 197.482 353.306C197.3 353.527 197.202 353.795 197.186 354.109H196.078C196.097 353.614 196.246 353.18 196.526 352.807C196.806 352.432 197.172 352.139 197.625 351.93C198.08 351.721 198.58 351.616 199.125 351.616C199.71 351.616 200.212 351.735 200.63 351.972C201.049 352.206 201.37 352.515 201.595 352.9C201.82 353.284 201.932 353.7 201.932 354.146C201.932 354.678 201.792 355.132 201.512 355.508C201.235 355.883 200.858 356.143 200.381 356.288V356.362C200.978 356.46 201.444 356.714 201.78 357.124C202.115 357.53 202.283 358.033 202.283 358.633C202.283 359.147 202.143 359.609 201.863 360.018C201.586 360.424 201.207 360.745 200.727 360.978C200.247 361.212 199.701 361.329 199.088 361.329ZM188.761 367.745H189.906V374.504C189.906 375.107 189.795 375.62 189.574 376.041C189.352 376.463 189.04 376.783 188.637 377.002C188.233 377.22 187.758 377.329 187.21 377.329C186.693 377.329 186.233 377.235 185.83 377.048C185.427 376.857 185.11 376.586 184.879 376.235C184.648 375.884 184.532 375.467 184.532 374.984H185.659C185.659 375.252 185.725 375.486 185.857 375.686C185.993 375.883 186.177 376.037 186.411 376.147C186.645 376.258 186.911 376.314 187.21 376.314C187.539 376.314 187.819 376.244 188.05 376.106C188.281 375.967 188.456 375.764 188.577 375.497C188.7 375.226 188.761 374.895 188.761 374.504V367.745ZM194.139 377.366C193.69 377.366 193.282 377.282 192.916 377.112C192.55 376.94 192.259 376.692 192.043 376.369C191.828 376.043 191.72 375.649 191.72 375.187C191.72 374.781 191.8 374.452 191.96 374.199C192.12 373.944 192.334 373.744 192.602 373.599C192.87 373.455 193.165 373.347 193.488 373.276C193.815 373.202 194.142 373.144 194.472 373.101C194.903 373.045 195.252 373.004 195.52 372.976C195.791 372.945 195.987 372.894 196.111 372.824C196.237 372.753 196.3 372.63 196.3 372.454V372.417C196.3 371.962 196.175 371.608 195.926 371.356C195.68 371.103 195.306 370.977 194.804 370.977C194.284 370.977 193.876 371.091 193.581 371.319C193.285 371.546 193.078 371.79 192.958 372.048L191.923 371.679C192.108 371.248 192.354 370.912 192.662 370.672C192.973 370.429 193.311 370.26 193.678 370.165C194.047 370.066 194.41 370.017 194.767 370.017C194.995 370.017 195.257 370.044 195.552 370.1C195.851 370.152 196.138 370.261 196.415 370.428C196.695 370.594 196.928 370.845 197.112 371.18C197.297 371.516 197.389 371.965 197.389 372.528V377.2H196.3V376.24H196.244C196.171 376.394 196.048 376.558 195.875 376.734C195.703 376.909 195.474 377.058 195.187 377.182C194.901 377.305 194.552 377.366 194.139 377.366ZM194.306 376.388C194.736 376.388 195.1 376.303 195.395 376.134C195.694 375.964 195.918 375.746 196.069 375.478C196.223 375.21 196.3 374.929 196.3 374.633V373.636C196.254 373.691 196.152 373.742 195.995 373.788C195.841 373.832 195.663 373.87 195.46 373.904C195.26 373.935 195.064 373.962 194.873 373.987C194.686 374.008 194.533 374.027 194.416 374.042C194.133 374.079 193.869 374.139 193.622 374.222C193.379 374.302 193.182 374.424 193.031 374.587C192.884 374.747 192.81 374.966 192.81 375.243C192.81 375.621 192.95 375.907 193.23 376.101C193.513 376.292 193.872 376.388 194.306 376.388ZM200.467 372.934V377.2H199.378V370.109H200.43V371.217H200.523C200.689 370.857 200.941 370.568 201.28 370.349C201.618 370.128 202.055 370.017 202.591 370.017C203.071 370.017 203.491 370.115 203.851 370.312C204.211 370.506 204.491 370.802 204.691 371.199C204.892 371.593 204.992 372.091 204.992 372.694V377.2H203.902V372.768C203.902 372.211 203.757 371.777 203.468 371.466C203.179 371.152 202.782 370.995 202.277 370.995C201.929 370.995 201.618 371.071 201.345 371.222C201.074 371.372 200.86 371.593 200.703 371.882C200.546 372.171 200.467 372.522 200.467 372.934Z" fill="#373D3F"/>
<path d="M281.193 361.329C280.498 361.329 279.905 361.14 279.416 360.761C278.927 360.38 278.553 359.827 278.294 359.104C278.036 358.378 277.906 357.501 277.906 356.473C277.906 355.451 278.036 354.578 278.294 353.855C278.556 353.129 278.931 352.575 279.421 352.193C279.913 351.809 280.504 351.616 281.193 351.616C281.883 351.616 282.472 351.809 282.961 352.193C283.454 352.575 283.829 353.129 284.088 353.855C284.349 354.578 284.48 355.451 284.48 356.473C284.48 357.501 284.351 358.378 284.092 359.104C283.834 359.827 283.46 360.38 282.971 360.761C282.481 361.14 281.889 361.329 281.193 361.329ZM281.193 360.314C281.883 360.314 282.418 359.981 282.8 359.316C283.181 358.652 283.372 357.704 283.372 356.473C283.372 355.654 283.285 354.957 283.109 354.381C282.937 353.806 282.687 353.367 282.361 353.066C282.038 352.764 281.649 352.613 281.193 352.613C280.51 352.613 279.976 352.95 279.591 353.624C279.207 354.295 279.014 355.245 279.014 356.473C279.014 357.291 279.1 357.987 279.273 358.559C279.445 359.132 279.693 359.567 280.016 359.866C280.342 360.164 280.735 360.314 281.193 360.314ZM289.189 361.329C288.647 361.329 288.16 361.222 287.726 361.006C287.292 360.791 286.944 360.495 286.682 360.12C286.421 359.744 286.278 359.316 286.253 358.836H287.361C287.404 359.264 287.598 359.618 287.943 359.898C288.29 360.175 288.706 360.314 289.189 360.314C289.577 360.314 289.921 360.223 290.223 360.041C290.528 359.86 290.766 359.61 290.939 359.293C291.114 358.973 291.202 358.612 291.202 358.209C291.202 357.796 291.111 357.428 290.929 357.105C290.751 356.779 290.505 356.522 290.191 356.334C289.877 356.147 289.518 356.051 289.115 356.048C288.826 356.045 288.529 356.09 288.224 356.182C287.919 356.271 287.669 356.387 287.472 356.528L286.401 356.399L286.973 351.745H291.885V352.761H287.933L287.601 355.549H287.656C287.85 355.396 288.093 355.268 288.386 355.166C288.678 355.065 288.983 355.014 289.3 355.014C289.878 355.014 290.394 355.152 290.846 355.429C291.302 355.703 291.659 356.079 291.917 356.556C292.179 357.033 292.31 357.578 292.31 358.19C292.31 358.793 292.174 359.332 291.903 359.806C291.636 360.277 291.266 360.649 290.796 360.923C290.325 361.194 289.789 361.329 289.189 361.329ZM278.918 367.745H280.063V374.504C280.063 375.107 279.952 375.62 279.73 376.041C279.509 376.463 279.196 376.783 278.793 377.002C278.39 377.22 277.915 377.329 277.367 377.329C276.85 377.329 276.39 377.235 275.986 377.048C275.583 376.857 275.266 376.586 275.035 376.235C274.805 375.884 274.689 375.467 274.689 374.984H275.816C275.816 375.252 275.882 375.486 276.014 375.686C276.15 375.883 276.334 376.037 276.568 376.147C276.802 376.258 277.068 376.314 277.367 376.314C277.696 376.314 277.976 376.244 278.207 376.106C278.438 375.967 278.613 375.764 278.733 375.497C278.856 375.226 278.918 374.895 278.918 374.504V367.745ZM284.296 377.366C283.847 377.366 283.439 377.282 283.073 377.112C282.706 376.94 282.416 376.692 282.2 376.369C281.985 376.043 281.877 375.649 281.877 375.187C281.877 374.781 281.957 374.452 282.117 374.199C282.277 373.944 282.491 373.744 282.759 373.599C283.027 373.455 283.322 373.347 283.645 373.276C283.971 373.202 284.299 373.144 284.628 373.101C285.059 373.045 285.409 373.004 285.676 372.976C285.947 372.945 286.144 372.894 286.267 372.824C286.394 372.753 286.457 372.63 286.457 372.454V372.417C286.457 371.962 286.332 371.608 286.083 371.356C285.836 371.103 285.463 370.977 284.961 370.977C284.441 370.977 284.033 371.091 283.738 371.319C283.442 371.546 283.234 371.79 283.114 372.048L282.08 371.679C282.265 371.248 282.511 370.912 282.819 370.672C283.13 370.429 283.468 370.26 283.834 370.165C284.204 370.066 284.567 370.017 284.924 370.017C285.152 370.017 285.413 370.044 285.709 370.1C286.007 370.152 286.295 370.261 286.572 370.428C286.852 370.594 287.084 370.845 287.269 371.18C287.454 371.516 287.546 371.965 287.546 372.528V377.2H286.457V376.24H286.401C286.327 376.394 286.204 376.558 286.032 376.734C285.86 376.909 285.63 377.058 285.344 377.182C285.058 377.305 284.709 377.366 284.296 377.366ZM284.462 376.388C284.893 376.388 285.256 376.303 285.552 376.134C285.85 375.964 286.075 375.746 286.226 375.478C286.38 375.21 286.457 374.929 286.457 374.633V373.636C286.41 373.691 286.309 373.742 286.152 373.788C285.998 373.832 285.82 373.87 285.616 373.904C285.416 373.935 285.221 373.962 285.03 373.987C284.842 374.008 284.69 374.027 284.573 374.042C284.29 374.079 284.025 374.139 283.779 374.222C283.536 374.302 283.339 374.424 283.188 374.587C283.04 374.747 282.967 374.966 282.967 375.243C282.967 375.621 283.107 375.907 283.387 376.101C283.67 376.292 284.028 376.388 284.462 376.388ZM290.624 372.934V377.2H289.535V370.109H290.587V371.217H290.68C290.846 370.857 291.098 370.568 291.437 370.349C291.775 370.128 292.212 370.017 292.748 370.017C293.228 370.017 293.648 370.115 294.008 370.312C294.368 370.506 294.648 370.802 294.848 371.199C295.048 371.593 295.148 372.091 295.148 372.694V377.2H294.059V372.768C294.059 372.211 293.914 371.777 293.625 371.466C293.336 371.152 292.939 370.995 292.434 370.995C292.086 370.995 291.775 371.071 291.501 371.222C291.23 371.372 291.017 371.593 290.86 371.882C290.703 372.171 290.624 372.522 290.624 372.934Z" fill="#373D3F"/>
<path d="M371.718 361.329C371.023 361.329 370.43 361.14 369.941 360.761C369.451 360.38 369.078 359.827 368.819 359.104C368.56 358.378 368.431 357.501 368.431 356.473C368.431 355.451 368.56 354.578 368.819 353.855C369.081 353.129 369.456 352.575 369.945 352.193C370.438 351.809 371.029 351.616 371.718 351.616C372.408 351.616 372.997 351.809 373.486 352.193C373.979 352.575 374.354 353.129 374.613 353.855C374.874 354.578 375.005 355.451 375.005 356.473C375.005 357.501 374.876 358.378 374.617 359.104C374.359 359.827 373.985 360.38 373.495 360.761C373.006 361.14 372.414 361.329 371.718 361.329ZM371.718 360.314C372.408 360.314 372.943 359.981 373.325 359.316C373.706 358.652 373.897 357.704 373.897 356.473C373.897 355.654 373.809 354.957 373.634 354.381C373.462 353.806 373.212 353.367 372.886 353.066C372.563 352.764 372.174 352.613 371.718 352.613C371.035 352.613 370.501 352.95 370.116 353.624C369.732 354.295 369.539 355.245 369.539 356.473C369.539 357.291 369.625 357.987 369.798 358.559C369.97 359.132 370.218 359.567 370.541 359.866C370.867 360.164 371.26 360.314 371.718 360.314ZM376.801 361.2L381.03 352.835V352.761H376.155V351.745H382.211V352.816L378.001 361.2H376.801ZM369.075 367.745H370.22V374.504C370.22 375.107 370.109 375.62 369.887 376.041C369.666 376.463 369.353 376.783 368.95 377.002C368.547 377.22 368.071 377.329 367.524 377.329C367.006 377.329 366.546 377.235 366.143 377.048C365.74 376.857 365.423 376.586 365.192 376.235C364.961 375.884 364.846 375.467 364.846 374.984H365.972C365.972 375.252 366.039 375.486 366.171 375.686C366.306 375.883 366.491 376.037 366.725 376.147C366.959 376.258 367.225 376.314 367.524 376.314C367.853 376.314 368.133 376.244 368.364 376.106C368.595 375.967 368.77 375.764 368.89 375.497C369.013 375.226 369.075 374.895 369.075 374.504V367.745ZM374.453 377.366C374.003 377.366 373.596 377.282 373.229 377.112C372.863 376.94 372.572 376.692 372.357 376.369C372.142 376.043 372.034 375.649 372.034 375.187C372.034 374.781 372.114 374.452 372.274 374.199C372.434 373.944 372.648 373.744 372.916 373.599C373.183 373.455 373.479 373.347 373.802 373.276C374.128 373.202 374.456 373.144 374.785 373.101C375.216 373.045 375.565 373.004 375.833 372.976C376.104 372.945 376.301 372.894 376.424 372.824C376.55 372.753 376.613 372.63 376.613 372.454V372.417C376.613 371.962 376.489 371.608 376.239 371.356C375.993 371.103 375.619 370.977 375.118 370.977C374.597 370.977 374.19 371.091 373.894 371.319C373.599 371.546 373.391 371.79 373.271 372.048L372.237 371.679C372.422 371.248 372.668 370.912 372.976 370.672C373.286 370.429 373.625 370.26 373.991 370.165C374.361 370.066 374.724 370.017 375.081 370.017C375.308 370.017 375.57 370.044 375.865 370.1C376.164 370.152 376.452 370.261 376.729 370.428C377.009 370.594 377.241 370.845 377.426 371.18C377.611 371.516 377.703 371.965 377.703 372.528V377.2H376.613V376.24H376.558C376.484 376.394 376.361 376.558 376.189 376.734C376.016 376.909 375.787 377.058 375.501 377.182C375.215 377.305 374.865 377.366 374.453 377.366ZM374.619 376.388C375.05 376.388 375.413 376.303 375.709 376.134C376.007 375.964 376.232 375.746 376.383 375.478C376.536 375.21 376.613 374.929 376.613 374.633V373.636C376.567 373.691 376.466 373.742 376.309 373.788C376.155 373.832 375.976 373.87 375.773 373.904C375.573 373.935 375.378 373.962 375.187 373.987C374.999 374.008 374.847 374.027 374.73 374.042C374.447 374.079 374.182 374.139 373.936 374.222C373.693 374.302 373.496 374.424 373.345 374.587C373.197 374.747 373.123 374.966 373.123 375.243C373.123 375.621 373.263 375.907 373.543 376.101C373.827 376.292 374.185 376.388 374.619 376.388ZM380.781 372.934V377.2H379.691V370.109H380.744V371.217H380.836C381.002 370.857 381.255 370.568 381.593 370.349C381.932 370.128 382.369 370.017 382.904 370.017C383.385 370.017 383.805 370.115 384.165 370.312C384.525 370.506 384.805 370.802 385.005 371.199C385.205 371.593 385.305 372.091 385.305 372.694V377.2H384.216V372.768C384.216 372.211 384.071 371.777 383.782 371.466C383.492 371.152 383.095 370.995 382.591 370.995C382.243 370.995 381.932 371.071 381.658 371.222C381.387 371.372 381.173 371.593 381.016 371.882C380.859 372.171 380.781 372.522 380.781 372.934Z" fill="#373D3F"/>
<path d="M461.405 361.329C460.71 361.329 460.117 361.14 459.628 360.761C459.138 360.38 458.765 359.827 458.506 359.104C458.247 358.378 458.118 357.501 458.118 356.473C458.118 355.451 458.247 354.578 458.506 353.855C458.768 353.129 459.143 352.575 459.632 352.193C460.125 351.809 460.716 351.616 461.405 351.616C462.095 351.616 462.684 351.809 463.173 352.193C463.666 352.575 464.041 353.129 464.3 353.855C464.561 354.578 464.692 355.451 464.692 356.473C464.692 357.501 464.563 358.378 464.304 359.104C464.046 359.827 463.672 360.38 463.183 360.761C462.693 361.14 462.101 361.329 461.405 361.329ZM461.405 360.314C462.095 360.314 462.63 359.981 463.012 359.316C463.393 358.652 463.584 357.704 463.584 356.473C463.584 355.654 463.496 354.957 463.321 354.381C463.149 353.806 462.899 353.367 462.573 353.066C462.25 352.764 461.861 352.613 461.405 352.613C460.722 352.613 460.188 352.95 459.803 353.624C459.419 354.295 459.226 355.245 459.226 356.473C459.226 357.291 459.312 357.987 459.485 358.559C459.657 359.132 459.905 359.567 460.228 359.866C460.554 360.164 460.947 360.314 461.405 360.314ZM469.456 351.616C469.844 351.619 470.232 351.693 470.62 351.838C471.007 351.982 471.361 352.223 471.681 352.558C472.002 352.89 472.258 353.344 472.452 353.92C472.646 354.495 472.743 355.217 472.743 356.085C472.743 356.925 472.663 357.671 472.503 358.324C472.346 358.973 472.118 359.521 471.82 359.967C471.524 360.414 471.164 360.752 470.74 360.983C470.318 361.214 469.841 361.329 469.309 361.329C468.779 361.329 468.307 361.225 467.891 361.015C467.479 360.803 467.14 360.509 466.876 360.134C466.614 359.755 466.446 359.316 466.372 358.818H467.499C467.6 359.252 467.802 359.61 468.104 359.894C468.408 360.174 468.81 360.314 469.309 360.314C470.038 360.314 470.613 359.995 471.035 359.358C471.46 358.721 471.672 357.821 471.672 356.657H471.598C471.426 356.916 471.221 357.139 470.984 357.327C470.747 357.515 470.484 357.659 470.195 357.761C469.906 357.862 469.598 357.913 469.272 357.913C468.73 357.913 468.233 357.779 467.781 357.511C467.331 357.241 466.971 356.87 466.7 356.399C466.433 355.925 466.299 355.383 466.299 354.774C466.299 354.195 466.428 353.666 466.686 353.186C466.948 352.703 467.314 352.318 467.785 352.032C468.259 351.745 468.816 351.607 469.456 351.616ZM469.456 352.632C469.069 352.632 468.719 352.729 468.408 352.923C468.101 353.113 467.856 353.372 467.674 353.698C467.496 354.021 467.407 354.38 467.407 354.774C467.407 355.168 467.493 355.526 467.665 355.85C467.841 356.17 468.079 356.425 468.381 356.616C468.685 356.804 469.032 356.897 469.419 356.897C469.712 356.897 469.984 356.841 470.236 356.727C470.489 356.61 470.709 356.451 470.897 356.251C471.087 356.048 471.237 355.819 471.344 355.563C471.452 355.305 471.506 355.035 471.506 354.755C471.506 354.386 471.417 354.04 471.238 353.717C471.063 353.394 470.82 353.132 470.509 352.932C470.201 352.732 469.85 352.632 469.456 352.632ZM459.231 367.745H460.376V374.504C460.376 375.107 460.265 375.62 460.044 376.041C459.822 376.463 459.51 376.783 459.107 377.002C458.704 377.22 458.228 377.329 457.68 377.329C457.163 377.329 456.703 377.235 456.3 377.048C455.897 376.857 455.58 376.586 455.349 376.235C455.118 375.884 455.003 375.467 455.003 374.984H456.129C456.129 375.252 456.195 375.486 456.328 375.686C456.463 375.883 456.648 376.037 456.882 376.147C457.115 376.258 457.382 376.314 457.68 376.314C458.01 376.314 458.29 376.244 458.52 376.106C458.751 375.967 458.927 375.764 459.047 375.497C459.17 375.226 459.231 374.895 459.231 374.504V367.745ZM464.61 377.366C464.16 377.366 463.752 377.282 463.386 377.112C463.02 376.94 462.729 376.692 462.514 376.369C462.298 376.043 462.191 375.649 462.191 375.187C462.191 374.781 462.271 374.452 462.431 374.199C462.591 373.944 462.805 373.744 463.072 373.599C463.34 373.455 463.635 373.347 463.959 373.276C464.285 373.202 464.613 373.144 464.942 373.101C465.373 373.045 465.722 373.004 465.99 372.976C466.261 372.945 466.458 372.894 466.581 372.824C466.707 372.753 466.77 372.63 466.77 372.454V372.417C466.77 371.962 466.645 371.608 466.396 371.356C466.15 371.103 465.776 370.977 465.274 370.977C464.754 370.977 464.346 371.091 464.051 371.319C463.756 371.546 463.548 371.79 463.428 372.048L462.394 371.679C462.578 371.248 462.825 370.912 463.132 370.672C463.443 370.429 463.782 370.26 464.148 370.165C464.517 370.066 464.88 370.017 465.237 370.017C465.465 370.017 465.727 370.044 466.022 370.1C466.321 370.152 466.609 370.261 466.885 370.428C467.166 370.594 467.398 370.845 467.583 371.18C467.767 371.516 467.86 371.965 467.86 372.528V377.2H466.77V376.24H466.715C466.641 376.394 466.518 376.558 466.345 376.734C466.173 376.909 465.944 377.058 465.658 377.182C465.371 377.305 465.022 377.366 464.61 377.366ZM464.776 376.388C465.207 376.388 465.57 376.303 465.865 376.134C466.164 375.964 466.388 375.746 466.539 375.478C466.693 375.21 466.77 374.929 466.77 374.633V373.636C466.724 373.691 466.622 373.742 466.465 373.788C466.312 373.832 466.133 373.87 465.93 373.904C465.73 373.935 465.534 373.962 465.344 373.987C465.156 374.008 465.004 374.027 464.887 374.042C464.603 374.079 464.339 374.139 464.093 374.222C463.849 374.302 463.652 374.424 463.502 374.587C463.354 374.747 463.28 374.966 463.28 375.243C463.28 375.621 463.42 375.907 463.7 376.101C463.983 376.292 464.342 376.388 464.776 376.388ZM470.938 372.934V377.2H469.848V370.109H470.901V371.217H470.993C471.159 370.857 471.412 370.568 471.75 370.349C472.089 370.128 472.526 370.017 473.061 370.017C473.541 370.017 473.961 370.115 474.321 370.312C474.682 370.506 474.962 370.802 475.162 371.199C475.362 371.593 475.462 372.091 475.462 372.694V377.2H474.372V372.768C474.372 372.211 474.228 371.777 473.938 371.466C473.649 371.152 473.252 370.995 472.747 370.995C472.399 370.995 472.089 371.071 471.815 371.222C471.544 371.372 471.33 371.593 471.173 371.882C471.016 372.171 470.938 372.522 470.938 372.934Z" fill="#373D3F"/>
<path d="M553.878 351.745V361.2H552.733V352.946H552.677L550.369 354.478V353.315L552.733 351.745H553.878ZM559.921 351.745V361.2H558.776V352.946H558.72L556.412 354.478V353.315L558.776 351.745H559.921ZM549.388 367.745H550.533V374.504C550.533 375.107 550.422 375.62 550.201 376.041C549.979 376.463 549.667 376.783 549.263 377.002C548.86 377.22 548.385 377.329 547.837 377.329C547.32 377.329 546.86 377.235 546.457 377.048C546.053 376.857 545.736 376.586 545.506 376.235C545.275 375.884 545.159 375.467 545.159 374.984H546.286C546.286 375.252 546.352 375.486 546.484 375.686C546.62 375.883 546.804 376.037 547.038 376.147C547.272 376.258 547.538 376.314 547.837 376.314C548.166 376.314 548.446 376.244 548.677 376.106C548.908 375.967 549.083 375.764 549.203 375.497C549.326 375.226 549.388 374.895 549.388 374.504V367.745ZM554.766 377.366C554.317 377.366 553.909 377.282 553.543 377.112C553.177 376.94 552.886 376.692 552.67 376.369C552.455 376.043 552.347 375.649 552.347 375.187C552.347 374.781 552.427 374.452 552.587 374.199C552.747 373.944 552.961 373.744 553.229 373.599C553.497 373.455 553.792 373.347 554.115 373.276C554.442 373.202 554.769 373.144 555.099 373.101C555.529 373.045 555.879 373.004 556.147 372.976C556.417 372.945 556.614 372.894 556.737 372.824C556.864 372.753 556.927 372.63 556.927 372.454V372.417C556.927 371.962 556.802 371.608 556.553 371.356C556.307 371.103 555.933 370.977 555.431 370.977C554.911 370.977 554.503 371.091 554.208 371.319C553.912 371.546 553.704 371.79 553.584 372.048L552.55 371.679C552.735 371.248 552.981 370.912 553.289 370.672C553.6 370.429 553.938 370.26 554.305 370.165C554.674 370.066 555.037 370.017 555.394 370.017C555.622 370.017 555.883 370.044 556.179 370.1C556.477 370.152 556.765 370.261 557.042 370.428C557.322 370.594 557.555 370.845 557.739 371.18C557.924 371.516 558.016 371.965 558.016 372.528V377.2H556.927V376.24H556.871C556.797 376.394 556.674 376.558 556.502 376.734C556.33 376.909 556.1 377.058 555.814 377.182C555.528 377.305 555.179 377.366 554.766 377.366ZM554.932 376.388C555.363 376.388 555.726 376.303 556.022 376.134C556.32 375.964 556.545 375.746 556.696 375.478C556.85 375.21 556.927 374.929 556.927 374.633V373.636C556.881 373.691 556.779 373.742 556.622 373.788C556.468 373.832 556.29 373.87 556.087 373.904C555.887 373.935 555.691 373.962 555.5 373.987C555.313 374.008 555.16 374.027 555.043 374.042C554.76 374.079 554.495 374.139 554.249 374.222C554.006 374.302 553.809 374.424 553.658 374.587C553.511 374.747 553.437 374.966 553.437 375.243C553.437 375.621 553.577 375.907 553.857 376.101C554.14 376.292 554.498 376.388 554.932 376.388ZM561.094 372.934V377.2H560.005V370.109H561.057V371.217H561.15C561.316 370.857 561.568 370.568 561.907 370.349C562.245 370.128 562.682 370.017 563.218 370.017C563.698 370.017 564.118 370.115 564.478 370.312C564.838 370.506 565.118 370.802 565.318 371.199C565.518 371.593 565.618 372.091 565.618 372.694V377.2H564.529V372.768C564.529 372.211 564.384 371.777 564.095 371.466C563.806 371.152 563.409 370.995 562.904 370.995C562.556 370.995 562.245 371.071 561.971 371.222C561.701 371.372 561.487 371.593 561.33 371.882C561.173 372.171 561.094 372.522 561.094 372.934Z" fill="#373D3F"/>
<path d="M76.7386 337.2H628.792" stroke="#E0E0E0"/>
<path d="M76.7386 133H628.792" stroke="#E0E0E0"/>
<path d="M76.7386 183.8H628.792" stroke="#E0E0E0"/>
<path d="M76.7386 234.6H628.792" stroke="#E0E0E0"/>
<path d="M76.7386 285.4H628.792" stroke="#E0E0E0"/>
<path d="M76.7386 336.2H628.792" stroke="#E0E0E0"/>
<path d="M104.834 337.2V343.2" stroke="#E0E0E0"/>
<path d="M194.991 337.2V343.2" stroke="#E0E0E0"/>
<path d="M285.148 337.2V343.2" stroke="#E0E0E0"/>
<path d="M375.305 337.2V343.2" stroke="#E0E0E0"/>
<path d="M465.461 337.2V343.2" stroke="#E0E0E0"/>
<path d="M555.618 337.2V343.2" stroke="#E0E0E0"/>
<mask id="mask0_21_629" style="mask-type:luminance" maskUnits="userSpaceOnUse" x="72" y="131" width="561" height="208">
<path d="M632.533 131H72.9984V338.2H632.533V131Z" fill="white"/>
</mask>
<g mask="url(#mask0_21_629)">
<path d="M89.057 336.2V224.44H120.612V336.2H89.057Z" fill="#160483"/>
</g>
<mask id="mask1_21_629" style="mask-type:luminance" maskUnits="userSpaceOnUse" x="72" y="131" width="561" height="208">
<path d="M632.533 131H72.9984V338.2H632.533V131Z" fill="white"/>
</mask>
<g mask="url(#mask1_21_629)">
<path d="M134.135 336.2V207.93H165.69V336.2H134.135Z" fill="#160483"/>
</g>
<mask id="mask2_21_629" style="mask-type:luminance" maskUnits="userSpaceOnUse" x="72" y="131" width="561" height="208">
<path d="M632.533 131H72.9984V338.2H632.533V131Z" fill="white"/>
</mask>
<g mask="url(#mask2_21_629)">
<path d="M179.214 336.2V231.044H210.769V336.2H179.214Z" fill="#160483"/>
</g>
<mask id="mask3_21_629" style="mask-type:luminance" maskUnits="userSpaceOnUse" x="72" y="131" width="561" height="208">
<path d="M632.533 131H72.9984V338.2H632.533V131Z" fill="white"/>
</mask>
<g mask="url(#mask3_21_629)">
<path d="M224.292 336.2V165.766H255.847V336.2H224.292Z" fill="#160483"/>
</g>
<mask id="mask4_21_629" style="mask-type:luminance" maskUnits="userSpaceOnUse" x="72" y="131" width="561" height="208">
<path d="M632.533 131H72.9984V338.2H632.533V131Z" fill="white"/>
</mask>
<g mask="url(#mask4_21_629)">
<path d="M269.37 336.2V278.542H300.925V336.2H269.37Z" fill="#160483"/>
</g>
<mask id="mask5_21_629" style="mask-type:luminance" maskUnits="userSpaceOnUse" x="72" y="131" width="561" height="208">
<path d="M632.533 131H72.9984V338.2H632.533V131Z" fill="white"/>
</mask>
<g mask="url(#mask5_21_629)">
<path d="M314.449 336.2V231.298H346.004V336.2H314.449Z" fill="#160483"/>
</g>
<mask id="mask6_21_629" style="mask-type:luminance" maskUnits="userSpaceOnUse" x="72" y="131" width="561" height="208">
<path d="M632.533 131H72.9984V338.2H632.533V131Z" fill="white"/>
</mask>
<g mask="url(#mask6_21_629)">
<path d="M359.527 336.2V282.372H391.082V336.2H392.796H359.527Z" fill="#160483"/>
</g>
<mask id="mask7_21_629" style="mask-type:luminance" maskUnits="userSpaceOnUse" x="72" y="131" width="561" height="208">
<path d="M632.533 131H72.9984V338.2H632.533V131Z" fill="white"/>
</mask>
<g mask="url(#mask7_21_629)">
<path d="M404.606 336.2V240.812H436.16V336.2H438.271H404.606Z" fill="#160483"/>
</g>
<mask id="mask8_21_629" style="mask-type:luminance" maskUnits="userSpaceOnUse" x="72" y="131" width="561" height="208">
<path d="M632.533 131H72.9984V338.2H632.533V131Z" fill="white"/>
</mask>
<g mask="url(#mask8_21_629)">
<path d="M449.684 336.2V130.282H481.239V336.2H483.702H449.684Z" fill="#160483"/>
</g>
<mask id="mask9_21_629" style="mask-type:luminance" maskUnits="userSpaceOnUse" x="72" y="131" width="561" height="208">
<path d="M632.533 131H72.9984V338.2H632.533V131Z" fill="white"/>
</mask>
<g mask="url(#mask9_21_629)">
<path d="M494.762 336.2V247.799H526.317V336.2H529.082H494.762Z" fill="#160483"/>
</g>
<mask id="mask10_21_629" style="mask-type:luminance" maskUnits="userSpaceOnUse" x="72" y="131" width="561" height="208">
<path d="M632.533 131H72.9984V338.2H632.533V131Z" fill="white"/>
</mask>
<g mask="url(#mask10_21_629)">
<path d="M539.841 336.2V264.73H571.396V336.2H574.389H539.841Z" fill="#160483"/>
</g>
<mask id="mask11_21_629" style="mask-type:luminance" maskUnits="userSpaceOnUse" x="72" y="131" width="561" height="208">
<path d="M632.533 131H72.9984V338.2H632.533V131Z" fill="white"/>
</mask>
<g mask="url(#mask11_21_629)">
<path d="M584.919 336.2V291.531H616.474V336.2H619.602H584.919Z" fill="#160483"/>
</g>
<mask id="mask12_21_629" style="mask-type:luminance" maskUnits="userSpaceOnUse" x="72" y="131" width="561" height="208">
<path d="M632.533 131H72.9984V338.2H632.533V131Z" fill="white"/>
</mask>
<g mask="url(#mask12_21_629)">
<path d="M104.834 242.728L149.913 165.512L194.991 193.96L240.07 226.472L285.148 161.448L330.226 246.792L375.305 267.112L420.383 210.216L465.461 246.792H510.54L555.618 287.432L600.697 271.176" stroke="#160483" stroke-width="4"/>
</g>
<path d="M51.5191 134.529C50.8851 134.529 50.325 134.417 49.8387 134.192C49.3555 133.965 48.9785 133.652 48.7077 133.255C48.4368 132.855 48.303 132.4 48.306 131.889C48.303 131.489 48.3814 131.119 48.5415 130.781C48.7015 130.439 48.92 130.154 49.197 129.927C49.4771 129.696 49.7895 129.55 50.1342 129.488V129.433C49.6817 129.316 49.3217 129.062 49.0539 128.671C48.7861 128.277 48.6538 127.829 48.6569 127.328C48.6538 126.847 48.7754 126.418 49.0216 126.04C49.2678 125.661 49.6063 125.363 50.0372 125.144C50.4712 124.925 50.9651 124.816 51.5191 124.816C52.0669 124.816 52.5563 124.925 52.9871 125.144C53.418 125.363 53.7566 125.661 54.0028 126.04C54.2521 126.418 54.3782 126.847 54.3813 127.328C54.3782 127.829 54.2413 128.277 53.9705 128.671C53.7027 129.062 53.3472 129.316 52.904 129.433V129.488C53.2457 129.55 53.5534 129.696 53.8273 129.927C54.1013 130.154 54.3198 130.439 54.4829 130.781C54.646 131.119 54.7291 131.489 54.7322 131.889C54.7291 132.4 54.5906 132.855 54.3167 133.255C54.0459 133.652 53.6688 133.965 53.1857 134.192C52.7055 134.417 52.15 134.529 51.5191 134.529ZM51.5191 133.514C51.9469 133.514 52.3162 133.444 52.6271 133.306C52.9379 133.167 53.178 132.972 53.3472 132.72C53.5165 132.467 53.6027 132.172 53.6057 131.833C53.6027 131.476 53.5103 131.161 53.3288 130.887C53.1472 130.613 52.8994 130.398 52.5855 130.241C52.2747 130.084 51.9192 130.005 51.5191 130.005C51.1159 130.005 50.7558 130.084 50.4388 130.241C50.1249 130.398 49.8772 130.613 49.6956 130.887C49.5171 131.161 49.4294 131.476 49.4325 131.833C49.4294 132.172 49.5109 132.467 49.6771 132.72C49.8464 132.972 50.088 133.167 50.4019 133.306C50.7158 133.444 51.0882 133.514 51.5191 133.514ZM51.5191 129.026C51.8576 129.026 52.1577 128.959 52.4193 128.823C52.684 128.688 52.8917 128.499 53.0425 128.255C53.1933 128.012 53.2703 127.728 53.2734 127.401C53.2703 127.081 53.1949 126.803 53.0472 126.566C52.8994 126.326 52.6948 126.141 52.4332 126.012C52.1716 125.88 51.8669 125.813 51.5191 125.813C51.1652 125.813 50.8559 125.88 50.5912 126.012C50.3265 126.141 50.1218 126.326 49.9772 126.566C49.8325 126.803 49.7618 127.081 49.7648 127.401C49.7618 127.728 49.8341 128.012 49.9818 128.255C50.1326 128.499 50.3404 128.688 50.605 128.823C50.8697 128.959 51.1744 129.026 51.5191 129.026ZM59.5852 134.529C58.8897 134.529 58.2972 134.34 57.8079 133.961C57.3186 133.58 56.9446 133.027 56.6861 132.304C56.4276 131.578 56.2983 130.701 56.2983 129.673C56.2983 128.651 56.4276 127.778 56.6861 127.055C56.9477 126.329 57.3232 125.775 57.8125 125.393C58.3049 125.009 58.8958 124.816 59.5852 124.816C60.2746 124.816 60.864 125.009 61.3534 125.393C61.8458 125.775 62.2213 126.329 62.4798 127.055C62.7414 127.778 62.8722 128.651 62.8722 129.673C62.8722 130.701 62.7429 131.578 62.4844 132.304C62.2259 133.027 61.8519 133.58 61.3626 133.961C60.8732 134.34 60.2808 134.529 59.5852 134.529ZM59.5852 133.514C60.2746 133.514 60.8101 133.181 61.1918 132.517C61.5734 131.852 61.7642 130.904 61.7642 129.673C61.7642 128.854 61.6765 128.157 61.5011 127.581C61.3287 127.006 61.0794 126.567 60.7532 126.266C60.4301 125.964 60.0407 125.813 59.5852 125.813C58.902 125.813 58.368 126.15 57.9833 126.824C57.5986 127.495 57.4063 128.445 57.4063 129.673C57.4063 130.491 57.4924 131.187 57.6648 131.759C57.8371 132.332 58.0849 132.767 58.408 133.066C58.7343 133.364 59.1267 133.514 59.5852 133.514ZM59.5852 150.529C58.8897 150.529 58.2972 150.34 57.8079 149.961C57.3186 149.58 56.9446 149.027 56.6861 148.304C56.4276 147.578 56.2983 146.701 56.2983 145.673C56.2983 144.651 56.4276 143.778 56.6861 143.055C56.9477 142.329 57.3232 141.775 57.8125 141.393C58.3049 141.009 58.8958 140.816 59.5852 140.816C60.2746 140.816 60.864 141.009 61.3534 141.393C61.8458 141.775 62.2213 142.329 62.4798 143.055C62.7414 143.778 62.8722 144.651 62.8722 145.673C62.8722 146.701 62.7429 147.578 62.4844 148.304C62.2259 149.027 61.8519 149.58 61.3626 149.961C60.8732 150.34 60.2808 150.529 59.5852 150.529ZM59.5852 149.514C60.2746 149.514 60.8101 149.181 61.1918 148.517C61.5734 147.852 61.7642 146.904 61.7642 145.673C61.7642 144.854 61.6765 144.157 61.5011 143.581C61.3287 143.006 61.0794 142.567 60.7532 142.266C60.4301 141.964 60.0407 141.813 59.5852 141.813C58.902 141.813 58.368 142.15 57.9833 142.824C57.5986 143.495 57.4063 144.445 57.4063 145.673C57.4063 146.491 57.4924 147.187 57.6648 147.759C57.8371 148.332 58.0849 148.767 58.408 149.066C58.7343 149.364 59.1267 149.514 59.5852 149.514Z" fill="#373D3F"/>
<path d="M51.5283 185.329C51.1406 185.323 50.7528 185.249 50.365 185.108C49.9772 184.966 49.6233 184.728 49.3032 184.392C48.9831 184.054 48.7261 183.597 48.5322 183.021C48.3383 182.442 48.2414 181.716 48.2414 180.842C48.2414 180.005 48.3199 179.263 48.4768 178.617C48.6338 177.968 48.8615 177.421 49.1601 176.978C49.4586 176.532 49.8187 176.193 50.2403 175.962C50.6651 175.732 51.1436 175.616 51.6761 175.616C52.2054 175.616 52.6763 175.722 53.0887 175.935C53.5042 176.144 53.8427 176.436 54.1043 176.812C54.3659 177.187 54.5352 177.62 54.6121 178.109H53.4857C53.3811 177.684 53.178 177.332 52.8763 177.052C52.5747 176.772 52.1746 176.632 51.6761 176.632C50.9436 176.632 50.3665 176.95 49.9449 177.587C49.5263 178.225 49.3155 179.119 49.3124 180.27H49.3863C49.5586 180.008 49.7633 179.785 50.0003 179.6C50.2403 179.412 50.505 179.268 50.7943 179.166C51.0836 179.065 51.3898 179.014 51.713 179.014C52.2547 179.014 52.7502 179.149 53.1995 179.42C53.6488 179.688 54.0089 180.059 54.2798 180.533C54.5506 181.004 54.686 181.544 54.686 182.153C54.686 182.738 54.5552 183.273 54.2936 183.76C54.032 184.243 53.6642 184.628 53.1903 184.914C52.7194 185.197 52.1654 185.335 51.5283 185.329ZM51.5283 184.314C51.9161 184.314 52.2639 184.217 52.5717 184.023C52.8825 183.829 53.1272 183.569 53.3057 183.243C53.4873 182.916 53.5781 182.553 53.5781 182.153C53.5781 181.762 53.4903 181.407 53.3149 181.087C53.1426 180.764 52.904 180.507 52.5994 180.316C52.2977 180.125 51.9531 180.03 51.5653 180.03C51.2729 180.03 51.0005 180.088 50.7481 180.205C50.4958 180.319 50.2742 180.476 50.0834 180.676C49.8956 180.876 49.7479 181.105 49.6402 181.364C49.5325 181.619 49.4786 181.888 49.4786 182.172C49.4786 182.547 49.5663 182.898 49.7418 183.224C49.9203 183.55 50.1634 183.814 50.4712 184.014C50.782 184.214 51.1344 184.314 51.5283 184.314ZM59.5852 185.329C58.8897 185.329 58.2972 185.14 57.8079 184.761C57.3186 184.38 56.9446 183.827 56.6861 183.104C56.4276 182.378 56.2983 181.501 56.2983 180.473C56.2983 179.451 56.4276 178.578 56.6861 177.855C56.9477 177.129 57.3232 176.575 57.8125 176.193C58.3049 175.809 58.8958 175.616 59.5852 175.616C60.2746 175.616 60.864 175.809 61.3534 176.193C61.8458 176.575 62.2213 177.129 62.4798 177.855C62.7414 178.578 62.8722 179.451 62.8722 180.473C62.8722 181.501 62.7429 182.378 62.4844 183.104C62.2259 183.827 61.8519 184.38 61.3626 184.761C60.8732 185.14 60.2808 185.329 59.5852 185.329ZM59.5852 184.314C60.2746 184.314 60.8101 183.981 61.1918 183.316C61.5734 182.652 61.7642 181.704 61.7642 180.473C61.7642 179.654 61.6765 178.957 61.5011 178.381C61.3287 177.806 61.0794 177.367 60.7532 177.066C60.4301 176.764 60.0407 176.613 59.5852 176.613C58.902 176.613 58.368 176.95 57.9833 177.624C57.5986 178.295 57.4063 179.245 57.4063 180.473C57.4063 181.291 57.4924 181.987 57.6648 182.559C57.8371 183.132 58.0849 183.567 58.408 183.866C58.7343 184.164 59.1267 184.314 59.5852 184.314ZM59.5852 201.329C58.8897 201.329 58.2972 201.14 57.8079 200.761C57.3186 200.38 56.9446 199.827 56.6861 199.104C56.4276 198.378 56.2983 197.501 56.2983 196.473C56.2983 195.451 56.4276 194.578 56.6861 193.855C56.9477 193.129 57.3232 192.575 57.8125 192.193C58.3049 191.809 58.8958 191.616 59.5852 191.616C60.2746 191.616 60.864 191.809 61.3534 192.193C61.8458 192.575 62.2213 193.129 62.4798 193.855C62.7414 194.578 62.8722 195.451 62.8722 196.473C62.8722 197.501 62.7429 198.378 62.4844 199.104C62.2259 199.827 61.8519 200.38 61.3626 200.761C60.8732 201.14 60.2808 201.329 59.5852 201.329ZM59.5852 200.314C60.2746 200.314 60.8101 199.981 61.1918 199.316C61.5734 198.652 61.7642 197.704 61.7642 196.473C61.7642 195.654 61.6765 194.957 61.5011 194.381C61.3287 193.806 61.0794 193.367 60.7532 193.066C60.4301 192.764 60.0407 192.613 59.5852 192.613C58.902 192.613 58.368 192.95 57.9833 193.624C57.5986 194.295 57.4063 195.245 57.4063 196.473C57.4063 197.291 57.4924 197.987 57.6648 198.559C57.8371 199.132 58.0849 199.567 58.408 199.866C58.7343 200.164 59.1267 200.314 59.5852 200.314Z" fill="#373D3F"/>
<path d="M47.939 234.061V233.119L52.0939 226.545H52.7771V228.004H52.3154L49.1762 232.972V233.045H54.7714V234.061H47.939ZM52.3893 236V233.775V233.336V226.545H53.4788V236H52.3893ZM59.5852 236.129C58.8897 236.129 58.2972 235.94 57.8079 235.561C57.3186 235.18 56.9446 234.627 56.6861 233.904C56.4276 233.178 56.2983 232.301 56.2983 231.273C56.2983 230.251 56.4276 229.378 56.6861 228.655C56.9477 227.929 57.3232 227.375 57.8125 226.993C58.3049 226.609 58.8958 226.416 59.5852 226.416C60.2746 226.416 60.864 226.609 61.3534 226.993C61.8458 227.375 62.2213 227.929 62.4798 228.655C62.7414 229.378 62.8722 230.251 62.8722 231.273C62.8722 232.301 62.7429 233.178 62.4844 233.904C62.2259 234.627 61.8519 235.18 61.3626 235.561C60.8732 235.94 60.2808 236.129 59.5852 236.129ZM59.5852 235.114C60.2746 235.114 60.8101 234.781 61.1918 234.116C61.5734 233.452 61.7642 232.504 61.7642 231.273C61.7642 230.454 61.6765 229.757 61.5011 229.181C61.3287 228.606 61.0794 228.167 60.7532 227.866C60.4301 227.564 60.0407 227.413 59.5852 227.413C58.902 227.413 58.368 227.75 57.9833 228.424C57.5986 229.095 57.4063 230.045 57.4063 231.273C57.4063 232.091 57.4924 232.787 57.6648 233.359C57.8371 233.932 58.0849 234.367 58.408 234.666C58.7343 234.964 59.1267 235.114 59.5852 235.114ZM59.5852 252.129C58.8897 252.129 58.2972 251.94 57.8079 251.561C57.3186 251.18 56.9446 250.627 56.6861 249.904C56.4276 249.178 56.2983 248.301 56.2983 247.273C56.2983 246.251 56.4276 245.378 56.6861 244.655C56.9477 243.929 57.3232 243.375 57.8125 242.993C58.3049 242.609 58.8958 242.416 59.5852 242.416C60.2746 242.416 60.864 242.609 61.3534 242.993C61.8458 243.375 62.2213 243.929 62.4798 244.655C62.7414 245.378 62.8722 246.251 62.8722 247.273C62.8722 248.301 62.7429 249.178 62.4844 249.904C62.2259 250.627 61.8519 251.18 61.3626 251.561C60.8732 251.94 60.2808 252.129 59.5852 252.129ZM59.5852 251.114C60.2746 251.114 60.8101 250.781 61.1918 250.116C61.5734 249.452 61.7642 248.504 61.7642 247.273C61.7642 246.454 61.6765 245.757 61.5011 245.181C61.3287 244.606 61.0794 244.167 60.7532 243.866C60.4301 243.564 60.0407 243.413 59.5852 243.413C58.902 243.413 58.368 243.75 57.9833 244.424C57.5986 245.095 57.4063 246.045 57.4063 247.273C57.4063 248.091 57.4924 248.787 57.6648 249.359C57.8371 249.932 58.0849 250.367 58.408 250.666C58.7343 250.964 59.1267 251.114 59.5852 251.114Z" fill="#373D3F"/>
<path d="M48.6303 286.8V285.969L51.7511 282.553C52.1173 282.153 52.4189 281.805 52.6559 281.51C52.8929 281.211 53.0683 280.931 53.1822 280.669C53.2991 280.405 53.3576 280.128 53.3576 279.838C53.3576 279.506 53.2776 279.218 53.1176 278.975C52.9606 278.732 52.7452 278.544 52.4713 278.412C52.1973 278.28 51.8896 278.213 51.548 278.213C51.1848 278.213 50.8678 278.289 50.597 278.44C50.3292 278.587 50.1215 278.795 49.9737 279.063C49.8291 279.331 49.7568 279.645 49.7568 280.005H48.6673C48.6673 279.451 48.795 278.964 49.0504 278.546C49.3059 278.127 49.6537 277.801 50.0938 277.567C50.5369 277.333 51.034 277.216 51.5849 277.216C52.1389 277.216 52.6297 277.333 53.0575 277.567C53.4853 277.801 53.8208 278.116 54.0639 278.513C54.3071 278.91 54.4286 279.352 54.4286 279.838C54.4286 280.186 54.3655 280.526 54.2394 280.859C54.1163 281.188 53.9008 281.556 53.5931 281.962C53.2884 282.365 52.8652 282.858 52.3235 283.439L50.1999 285.711V285.784H54.5948V286.8H48.6303ZM59.5852 286.929C58.8897 286.929 58.2972 286.74 57.8079 286.361C57.3186 285.98 56.9446 285.427 56.6861 284.704C56.4276 283.978 56.2983 283.101 56.2983 282.073C56.2983 281.051 56.4276 280.178 56.6861 279.455C56.9477 278.729 57.3232 278.175 57.8125 277.793C58.3049 277.409 58.8958 277.216 59.5852 277.216C60.2746 277.216 60.864 277.409 61.3534 277.793C61.8458 278.175 62.2213 278.729 62.4798 279.455C62.7414 280.178 62.8722 281.051 62.8722 282.073C62.8722 283.101 62.7429 283.978 62.4844 284.704C62.2259 285.427 61.8519 285.98 61.3626 286.361C60.8732 286.74 60.2808 286.929 59.5852 286.929ZM59.5852 285.914C60.2746 285.914 60.8101 285.581 61.1918 284.917C61.5734 284.252 61.7642 283.304 61.7642 282.073C61.7642 281.254 61.6765 280.557 61.5011 279.982C61.3287 279.406 61.0794 278.967 60.7532 278.666C60.4301 278.364 60.0407 278.213 59.5852 278.213C58.902 278.213 58.368 278.55 57.9833 279.224C57.5986 279.895 57.4063 280.845 57.4063 282.073C57.4063 282.891 57.4924 283.587 57.6648 284.159C57.8371 284.732 58.0849 285.167 58.408 285.466C58.7343 285.764 59.1267 285.914 59.5852 285.914ZM59.5852 302.929C58.8897 302.929 58.2972 302.74 57.8079 302.361C57.3186 301.98 56.9446 301.427 56.6861 300.704C56.4276 299.978 56.2983 299.101 56.2983 298.073C56.2983 297.051 56.4276 296.178 56.6861 295.455C56.9477 294.729 57.3232 294.175 57.8125 293.793C58.3049 293.409 58.8958 293.216 59.5852 293.216C60.2746 293.216 60.864 293.409 61.3534 293.793C61.8458 294.175 62.2213 294.729 62.4798 295.455C62.7414 296.178 62.8722 297.051 62.8722 298.073C62.8722 299.101 62.7429 299.978 62.4844 300.704C62.2259 301.427 61.8519 301.98 61.3626 302.361C60.8732 302.74 60.2808 302.929 59.5852 302.929ZM59.5852 301.914C60.2746 301.914 60.8101 301.581 61.1918 300.917C61.5734 300.252 61.7642 299.304 61.7642 298.073C61.7642 297.254 61.6765 296.557 61.5011 295.982C61.3287 295.406 61.0794 294.967 60.7532 294.666C60.4301 294.364 60.0407 294.213 59.5852 294.213C58.902 294.213 58.368 294.55 57.9833 295.224C57.5986 295.895 57.4063 296.845 57.4063 298.073C57.4063 298.891 57.4924 299.587 57.6648 300.159C57.8371 300.732 58.0849 301.167 58.408 301.466C58.7343 301.764 59.1267 301.914 59.5852 301.914Z" fill="#373D3F"/>
<path d="M59.5853 337.729C58.8897 337.729 58.2973 337.54 57.8079 337.161C57.3186 336.78 56.9446 336.227 56.6861 335.504C56.4276 334.778 56.2983 333.901 56.2983 332.873C56.2983 331.851 56.4276 330.978 56.6861 330.255C56.9477 329.529 57.3232 328.975 57.8125 328.593C58.305 328.209 58.8959 328.016 59.5853 328.016C60.2747 328.016 60.864 328.209 61.3534 328.593C61.8458 328.975 62.2213 329.529 62.4798 330.255C62.7414 330.978 62.8722 331.851 62.8722 332.873C62.8722 333.901 62.7429 334.778 62.4844 335.504C62.2259 336.227 61.852 336.78 61.3626 337.161C60.8733 337.54 60.2808 337.729 59.5853 337.729ZM59.5853 336.714C60.2747 336.714 60.8102 336.381 61.1918 335.717C61.5734 335.052 61.7642 334.104 61.7642 332.873C61.7642 332.054 61.6765 331.357 61.5011 330.781C61.3288 330.206 61.0795 329.767 60.7532 329.466C60.4301 329.164 60.0408 329.013 59.5853 329.013C58.902 329.013 58.3681 329.35 57.9833 330.024C57.5986 330.695 57.4063 331.645 57.4063 332.873C57.4063 333.691 57.4925 334.387 57.6648 334.959C57.8372 335.532 58.0849 335.967 58.4081 336.266C58.7343 336.564 59.1267 336.714 59.5853 336.714Z" fill="#373D3F"/>
<path d="M639.271 134.629C638.729 134.629 638.241 134.522 637.807 134.306C637.373 134.091 637.025 133.795 636.764 133.42C636.502 133.044 636.359 132.616 636.335 132.136H637.442C637.486 132.564 637.679 132.918 638.024 133.198C638.372 133.475 638.787 133.614 639.271 133.614C639.658 133.614 640.003 133.523 640.305 133.341C640.609 133.16 640.848 132.91 641.02 132.593C641.196 132.273 641.283 131.912 641.283 131.509C641.283 131.096 641.193 130.728 641.011 130.405C640.832 130.079 640.586 129.822 640.272 129.634C639.958 129.446 639.6 129.351 639.197 129.348C638.907 129.345 638.61 129.39 638.306 129.482C638.001 129.571 637.75 129.687 637.553 129.828L636.482 129.699L637.055 125.045H641.967V126.061H638.015L637.683 128.849H637.738C637.932 128.696 638.175 128.568 638.467 128.466C638.76 128.365 639.064 128.314 639.381 128.314C639.96 128.314 640.475 128.452 640.928 128.729C641.383 129.003 641.74 129.379 641.999 129.856C642.261 130.333 642.391 130.878 642.391 131.49C642.391 132.093 642.256 132.632 641.985 133.106C641.717 133.577 641.348 133.949 640.877 134.223C640.406 134.494 639.871 134.629 639.271 134.629ZM639.4 150.629C638.704 150.629 638.112 150.44 637.622 150.061C637.133 149.68 636.759 149.127 636.501 148.404C636.242 147.678 636.113 146.801 636.113 145.773C636.113 144.751 636.242 143.878 636.501 143.155C636.762 142.429 637.138 141.875 637.627 141.493C638.12 141.109 638.71 140.916 639.4 140.916C640.089 140.916 640.679 141.109 641.168 141.493C641.66 141.875 642.036 142.429 642.294 143.155C642.556 143.878 642.687 144.751 642.687 145.773C642.687 146.801 642.558 147.678 642.299 148.404C642.04 149.127 641.667 149.68 641.177 150.061C640.688 150.44 640.095 150.629 639.4 150.629ZM639.4 149.614C640.089 149.614 640.625 149.281 641.006 148.616C641.388 147.952 641.579 147.004 641.579 145.773C641.579 144.954 641.491 144.257 641.316 143.681C641.143 143.106 640.894 142.667 640.568 142.366C640.245 142.064 639.855 141.913 639.4 141.913C638.717 141.913 638.183 142.25 637.798 142.924C637.413 143.595 637.221 144.545 637.221 145.773C637.221 146.591 637.307 147.287 637.479 147.859C637.652 148.432 637.899 148.867 638.223 149.166C638.549 149.464 638.941 149.614 639.4 149.614Z" fill="#373D3F"/>
<path d="M636.094 173.201V172.259L640.249 165.685H640.933V167.144H640.471L637.332 172.112V172.185H642.927V173.201H636.094ZM640.545 175.14V172.915V172.476V165.685H641.634V175.14H640.545ZM639.4 191.269C638.704 191.269 638.112 191.08 637.622 190.701C637.133 190.32 636.759 189.767 636.501 189.044C636.242 188.318 636.113 187.441 636.113 186.413C636.113 185.391 636.242 184.518 636.501 183.795C636.762 183.069 637.138 182.515 637.627 182.133C638.12 181.749 638.71 181.556 639.4 181.556C640.089 181.556 640.679 181.749 641.168 182.133C641.66 182.515 642.036 183.069 642.294 183.795C642.556 184.518 642.687 185.391 642.687 186.413C642.687 187.441 642.558 188.318 642.299 189.044C642.04 189.767 641.667 190.32 641.177 190.701C640.688 191.08 640.095 191.269 639.4 191.269ZM639.4 190.254C640.089 190.254 640.625 189.921 641.006 189.256C641.388 188.592 641.579 187.644 641.579 186.413C641.579 185.594 641.491 184.897 641.316 184.321C641.143 183.746 640.894 183.307 640.568 183.006C640.245 182.704 639.855 182.553 639.4 182.553C638.717 182.553 638.183 182.89 637.798 183.564C637.413 184.235 637.221 185.185 637.221 186.413C637.221 187.231 637.307 187.927 637.479 188.499C637.652 189.072 637.899 189.507 638.223 189.806C638.549 190.104 638.941 190.254 639.4 190.254Z" fill="#373D3F"/>
<path d="M639.511 215.909C638.901 215.909 638.358 215.805 637.881 215.595C637.407 215.386 637.03 215.095 636.75 214.723C636.473 214.347 636.322 213.912 636.298 213.416H637.461C637.486 213.721 637.59 213.984 637.775 214.206C637.96 214.424 638.201 214.594 638.5 214.714C638.798 214.834 639.129 214.894 639.492 214.894C639.898 214.894 640.259 214.823 640.572 214.681C640.886 214.54 641.133 214.343 641.311 214.09C641.49 213.838 641.579 213.546 641.579 213.213C641.579 212.865 641.493 212.559 641.32 212.295C641.148 212.027 640.896 211.818 640.563 211.667C640.231 211.516 639.825 211.441 639.344 211.441H638.587V210.425H639.344C639.72 210.425 640.049 210.357 640.332 210.222C640.619 210.086 640.842 209.896 641.002 209.649C641.165 209.403 641.246 209.114 641.246 208.781C641.246 208.461 641.176 208.183 641.034 207.946C640.893 207.709 640.692 207.524 640.434 207.392C640.178 207.26 639.877 207.193 639.529 207.193C639.203 207.193 638.895 207.253 638.606 207.373C638.32 207.49 638.086 207.661 637.904 207.886C637.723 208.107 637.624 208.375 637.609 208.689H636.501C636.519 208.194 636.668 207.76 636.948 207.387C637.229 207.012 637.595 206.719 638.047 206.51C638.503 206.301 639.003 206.196 639.548 206.196C640.132 206.196 640.634 206.315 641.053 206.552C641.471 206.786 641.793 207.095 642.017 207.48C642.242 207.864 642.354 208.28 642.354 208.726C642.354 209.258 642.214 209.712 641.934 210.088C641.657 210.463 641.28 210.723 640.803 210.868V210.942C641.4 211.04 641.867 211.294 642.202 211.704C642.538 212.11 642.705 212.613 642.705 213.213C642.705 213.727 642.565 214.189 642.285 214.598C642.008 215.004 641.63 215.325 641.149 215.558C640.669 215.792 640.123 215.909 639.511 215.909ZM639.4 231.909C638.704 231.909 638.112 231.72 637.622 231.341C637.133 230.96 636.759 230.407 636.501 229.684C636.242 228.958 636.113 228.081 636.113 227.053C636.113 226.031 636.242 225.158 636.501 224.435C636.762 223.709 637.138 223.155 637.627 222.773C638.12 222.389 638.71 222.196 639.4 222.196C640.089 222.196 640.679 222.389 641.168 222.773C641.66 223.155 642.036 223.709 642.294 224.435C642.556 225.158 642.687 226.031 642.687 227.053C642.687 228.081 642.558 228.958 642.299 229.684C642.04 230.407 641.667 230.96 641.177 231.341C640.688 231.72 640.095 231.909 639.4 231.909ZM639.4 230.894C640.089 230.894 640.625 230.561 641.006 229.897C641.388 229.232 641.579 228.284 641.579 227.053C641.579 226.234 641.491 225.537 641.316 224.961C641.143 224.386 640.894 223.947 640.568 223.646C640.245 223.344 639.855 223.193 639.4 223.193C638.717 223.193 638.183 223.53 637.798 224.204C637.413 224.875 637.221 225.825 637.221 227.053C637.221 227.871 637.307 228.567 637.479 229.139C637.652 229.712 637.899 230.147 638.223 230.446C638.549 230.744 638.941 230.894 639.4 230.894Z" fill="#373D3F"/>
<path d="M636.316 256.42V255.589L639.437 252.173C639.803 251.773 640.105 251.425 640.342 251.129C640.579 250.831 640.754 250.551 640.868 250.289C640.985 250.025 641.043 249.748 641.043 249.458C641.043 249.126 640.963 248.838 640.803 248.595C640.646 248.352 640.431 248.164 640.157 248.032C639.883 247.9 639.575 247.833 639.234 247.833C638.87 247.833 638.553 247.909 638.283 248.06C638.015 248.207 637.807 248.415 637.659 248.683C637.515 248.951 637.442 249.264 637.442 249.625H636.353C636.353 249.071 636.481 248.584 636.736 248.166C636.992 247.747 637.339 247.421 637.779 247.187C638.223 246.953 638.72 246.836 639.271 246.836C639.825 246.836 640.315 246.953 640.743 247.187C641.171 247.421 641.506 247.736 641.75 248.133C641.993 248.53 642.114 248.972 642.114 249.458C642.114 249.806 642.051 250.146 641.925 250.479C641.802 250.808 641.587 251.176 641.279 251.582C640.974 251.985 640.551 252.478 640.009 253.059L637.886 255.33V255.404H642.281V256.42H636.316ZM639.4 272.549C638.704 272.549 638.112 272.36 637.622 271.981C637.133 271.6 636.759 271.047 636.501 270.324C636.242 269.598 636.113 268.721 636.113 267.693C636.113 266.671 636.242 265.798 636.501 265.075C636.762 264.349 637.138 263.795 637.627 263.413C638.12 263.029 638.71 262.836 639.4 262.836C640.089 262.836 640.679 263.029 641.168 263.413C641.66 263.795 642.036 264.349 642.294 265.075C642.556 265.798 642.687 266.671 642.687 267.693C642.687 268.721 642.558 269.598 642.299 270.324C642.04 271.047 641.667 271.6 641.177 271.981C640.688 272.36 640.095 272.549 639.4 272.549ZM639.4 271.534C640.089 271.534 640.625 271.201 641.006 270.536C641.388 269.872 641.579 268.924 641.579 267.693C641.579 266.874 641.491 266.177 641.316 265.601C641.143 265.026 640.894 264.587 640.568 264.286C640.245 263.984 639.855 263.833 639.4 263.833C638.717 263.833 638.183 264.17 637.798 264.844C637.413 265.515 637.221 266.465 637.221 267.693C637.221 268.511 637.307 269.207 637.479 269.779C637.652 270.352 637.899 270.787 638.223 271.086C638.549 271.384 638.941 271.534 639.4 271.534Z" fill="#373D3F"/>
<path d="M639.64 287.605V297.06H638.495V288.806H638.44L636.131 290.338V289.175L638.495 287.605H639.64ZM639.4 313.189C638.704 313.189 638.112 313 637.622 312.621C637.133 312.24 636.759 311.687 636.501 310.964C636.242 310.238 636.113 309.361 636.113 308.333C636.113 307.311 636.242 306.438 636.501 305.715C636.762 304.989 637.138 304.435 637.627 304.053C638.12 303.669 638.71 303.476 639.4 303.476C640.089 303.476 640.679 303.669 641.168 304.053C641.66 304.435 642.036 304.989 642.294 305.715C642.556 306.438 642.687 307.311 642.687 308.333C642.687 309.361 642.558 310.238 642.299 310.964C642.04 311.687 641.667 312.24 641.177 312.621C640.688 313 640.095 313.189 639.4 313.189ZM639.4 312.174C640.089 312.174 640.625 311.841 641.006 311.176C641.388 310.512 641.579 309.564 641.579 308.333C641.579 307.514 641.491 306.817 641.316 306.241C641.143 305.666 640.894 305.227 640.568 304.926C640.245 304.624 639.855 304.473 639.4 304.473C638.717 304.473 638.183 304.81 637.798 305.484C637.413 306.155 637.221 307.105 637.221 308.333C637.221 309.151 637.307 309.847 637.479 310.419C637.652 310.992 637.899 311.427 638.223 311.726C638.549 312.024 638.941 312.174 639.4 312.174Z" fill="#373D3F"/>
<path d="M639.4 337.829C638.704 337.829 638.112 337.64 637.622 337.261C637.133 336.88 636.759 336.327 636.501 335.604C636.242 334.878 636.113 334.001 636.113 332.973C636.113 331.951 636.242 331.078 636.501 330.355C636.762 329.629 637.138 329.075 637.627 328.693C638.12 328.309 638.71 328.116 639.4 328.116C640.089 328.116 640.679 328.309 641.168 328.693C641.66 329.075 642.036 329.629 642.294 330.355C642.556 331.078 642.687 331.951 642.687 332.973C642.687 334.001 642.558 334.878 642.299 335.604C642.04 336.327 641.667 336.88 641.177 337.261C640.688 337.64 640.095 337.829 639.4 337.829ZM639.4 336.814C640.089 336.814 640.625 336.481 641.006 335.816C641.388 335.152 641.579 334.204 641.579 332.973C641.579 332.154 641.491 331.457 641.316 330.881C641.143 330.306 640.894 329.867 640.568 329.566C640.245 329.264 639.855 329.113 639.4 329.113C638.717 329.113 638.183 329.45 637.798 330.124C637.413 330.795 637.221 331.745 637.221 332.973C637.221 333.791 637.307 334.487 637.479 335.059C637.652 335.632 637.899 336.067 638.223 336.366C638.549 336.664 638.941 336.814 639.4 336.814Z" fill="#373D3F"/>
<defs>
<clipPath id="clip0_21_629">
<rect width="5" height="5" fill="white" transform="matrix(1 0 0 -1 557.01 43)"/>
</clipPath>
<clipPath id="clip1_21_629">
<rect width="5" height="5" fill="white" transform="matrix(1 0 0 -1 687.4 43)"/>
</clipPath>
</defs>
</svg>