<svg width="17" height="17" viewBox="0 0 17 17" fill="none" xmlns="http://www.w3.org/2000/svg">
<path d="M12.5029 16.7535H3.82706C2.81247 16.7521 1.83981 16.3485 1.12238 15.6311C0.404955 14.9137 0.00132264 13.941 0 12.9264V4.25052C0.00132264 3.23593 0.404955 2.26327 1.12238 1.54584C1.83981 0.828417 2.81247 0.424785 3.82706 0.423462L12.5019 0.423462C13.5165 0.424785 14.4892 0.828417 15.2066 1.54584C15.924 2.26327 16.3277 3.23593 16.329 4.25052V12.9254C16.3279 13.94 15.9246 14.9128 15.2073 15.6304C14.4901 16.348 13.5175 16.7519 12.5029 16.7535ZM3.82706 1.69915C3.15064 1.69994 2.50215 1.969 2.02384 2.44731C1.54554 2.92561 1.27648 3.5741 1.27569 4.25052V12.9254C1.27648 13.6018 1.54554 14.2503 2.02384 14.7286C2.50215 15.2069 3.15064 15.476 3.82706 15.4768H12.5019C13.1784 15.476 13.8269 15.2069 14.3052 14.7286C14.7835 14.2503 15.0525 13.6018 15.0533 12.9254V4.25052C15.0525 3.5741 14.7835 2.92561 14.3052 2.44731C13.8269 1.969 13.1784 1.69994 12.5019 1.69915H3.82706ZM13.7786 4.53745C13.7786 4.36829 13.7114 4.20605 13.5918 4.08643C13.4722 3.96681 13.3099 3.89961 13.1408 3.89961H3.18922C3.10546 3.89961 3.02251 3.91611 2.94513 3.94816C2.86774 3.98022 2.79742 4.0272 2.7382 4.08643C2.67897 4.14566 2.63198 4.21598 2.59993 4.29336C2.56787 4.37075 2.55138 4.45369 2.55138 4.53745C2.55138 4.62122 2.56787 4.70416 2.59993 4.78155C2.63198 4.85893 2.67897 4.92925 2.7382 4.98848C2.79742 5.04771 2.86774 5.09469 2.94513 5.12675C3.02251 5.1588 3.10546 5.1753 3.18922 5.1753H13.1408C13.3099 5.1753 13.4722 5.1081 13.5918 4.98848C13.7114 4.86886 13.7786 4.70662 13.7786 4.53745ZM13.8106 10.502C13.8106 10.3328 13.7434 10.1706 13.6238 10.051C13.5042 9.93135 13.3419 9.86415 13.1728 9.86415H9.44069C9.27152 9.86415 9.10928 9.93135 8.98966 10.051C8.87005 10.1706 8.80284 10.3328 8.80284 10.502C8.80284 10.6712 8.87005 10.8334 8.98966 10.953C9.10928 11.0726 9.27152 11.1398 9.44069 11.1398H13.1728C13.3419 11.1398 13.5042 11.0726 13.6238 10.953C13.7434 10.8334 13.8106 10.6712 13.8106 10.502ZM13.8106 7.95062C13.8106 7.78145 13.7434 7.61921 13.6238 7.4996C13.5042 7.37998 13.3419 7.31277 13.1728 7.31277H6.02852C5.85936 7.31277 5.69712 7.37998 5.5775 7.4996C5.45788 7.61921 5.39068 7.78145 5.39068 7.95062C5.39068 8.11978 5.45788 8.28202 5.5775 8.40164C5.69712 8.52126 5.85936 8.58846 6.02852 8.58846H13.1728C13.3419 8.58846 13.5042 8.52126 13.6238 8.40164C13.7434 8.28202 13.8106 8.11978 13.8106 7.95062ZM7.55915 10.502C7.55915 10.3328 7.49195 10.1706 7.37233 10.051C7.25271 9.93135 7.09047 9.86415 6.9213 9.86415H3.18922C3.10546 9.86415 3.02251 9.88065 2.94513 9.9127C2.86774 9.94476 2.79742 9.99174 2.7382 10.051C2.67897 10.1102 2.63198 10.1805 2.59993 10.2579C2.56787 10.3353 2.55138 10.4182 2.55138 10.502C2.55138 10.5858 2.56787 10.6687 2.59993 10.7461C2.63198 10.8235 2.67897 10.8938 2.7382 10.953C2.79742 11.0122 2.86774 11.0592 2.94513 11.0913C3.02251 11.1233 3.10546 11.1398 3.18922 11.1398H6.9213C7.09047 11.1398 7.25271 11.0726 7.37233 10.953C7.49195 10.8334 7.55915 10.6712 7.55915 10.502ZM7.55915 13.0534C7.55783 12.8851 7.49005 12.7241 7.37057 12.6056C7.25109 12.487 7.08961 12.4205 6.9213 12.4205H3.18922C3.02005 12.4205 2.85781 12.4877 2.7382 12.6073C2.61858 12.727 2.55138 12.8892 2.55138 13.0584C2.55138 13.2275 2.61858 13.3898 2.7382 13.5094C2.85781 13.629 3.02005 13.6962 3.18922 13.6962H6.9213C7.00549 13.6962 7.08884 13.6796 7.16656 13.6472C7.24427 13.6148 7.31481 13.5674 7.3741 13.5076C7.4334 13.4479 7.48028 13.377 7.51204 13.299C7.5438 13.221 7.55981 13.1376 7.55915 13.0534ZM12.5029 13.0534C12.5016 12.8851 12.4338 12.7241 12.3144 12.6056C12.1949 12.487 12.0334 12.4205 11.8651 12.4205H9.44069C9.27152 12.4205 9.10928 12.4877 8.98966 12.6073C8.87005 12.727 8.80284 12.8892 8.80284 13.0584C8.80284 13.2275 8.87005 13.3898 8.98966 13.5094C9.10928 13.629 9.27152 13.6962 9.44069 13.6962H11.8651C11.9493 13.6962 12.0326 13.6796 12.1103 13.6472C12.1881 13.6148 12.2586 13.5674 12.3179 13.5076C12.3772 13.4479 12.4241 13.377 12.4558 13.299C12.4876 13.221 12.5036 13.1376 12.5029 13.0534ZM2.55138 7.88663C2.55138 8.04482 2.59828 8.19945 2.68617 8.33098C2.77405 8.46251 2.89896 8.56502 3.04511 8.62556C3.19125 8.68609 3.35207 8.70193 3.50721 8.67107C3.66236 8.64021 3.80487 8.56404 3.91673 8.45218C4.02858 8.34033 4.10475 8.19781 4.13562 8.04267C4.16648 7.88752 4.15064 7.72671 4.0901 7.58056C4.02957 7.43442 3.92705 7.3095 3.79553 7.22162C3.664 7.13374 3.50937 7.08683 3.35118 7.08683C3.13906 7.08683 2.93562 7.17109 2.78563 7.32109C2.63564 7.47108 2.55138 7.67451 2.55138 7.88663Z" fill="#D9293A"/>
</svg>
