<svg width="20" height="21" viewBox="0 0 20 21" fill="none" xmlns="http://www.w3.org/2000/svg">
<path d="M18 0.422363H6C4.9 0.422363 4 1.32236 4 2.42236V14.4224C4 15.5224 4.9 16.4224 6 16.4224H18C19.1 16.4224 20 15.5224 20 14.4224V2.42236C20 1.32236 19.1 0.422363 18 0.422363ZM9.5 7.92236C9.5 8.75236 8.83 9.42236 8 9.42236H7V11.4224H5.5V5.42236H8C8.83 5.42236 9.5 6.09236 9.5 6.92236V7.92236ZM14.5 9.92236C14.5 10.7524 13.83 11.4224 13 11.4224H10.5V5.42236H13C13.83 5.42236 14.5 6.09236 14.5 6.92236V9.92236ZM18.5 6.92236H17V7.92236H18.5V9.42236H17V11.4224H15.5V5.42236H18.5V6.92236ZM7 7.92236H8V6.92236H7V7.92236ZM2 4.42236H0V18.4224C0 19.5224 0.9 20.4224 2 20.4224H16V18.4224H2V4.42236ZM12 9.92236H13V6.92236H12V9.92236Z" fill="#1F253A"/>
</svg>